<svg width="137" height="31" viewBox="0 0 137 31" fill="none" xmlns="http://www.w3.org/2000/svg">
<path d="M46.5131 14.6816H49.0649C50.0134 14.6816 50.834 14.5414 51.5265 14.2609C52.2341 13.9803 52.7836 13.5674 53.1751 13.0219C53.5665 12.4764 53.7622 11.8219 53.7622 11.0583C53.7622 10.1232 53.5665 9.35956 53.1751 8.76735C52.7836 8.15956 52.2341 7.70761 51.5265 7.41151C50.834 7.1154 50.0134 6.96735 49.0649 6.96735H45V23.331H49.2908C50.3145 23.331 51.2254 23.1596 52.0233 22.8167C52.8363 22.4583 53.4762 21.9284 53.9429 21.2271C54.4247 20.5102 54.6655 19.6141 54.6655 18.5388C54.6655 17.7907 54.53 17.144 54.2591 16.5985C53.9881 16.0531 53.6041 15.6089 53.1073 15.2661C52.6255 14.9076 52.061 14.6427 51.4136 14.4712C50.7662 14.2998 50.0586 14.2141 49.2908 14.2141H46.5131V15.3128H49.2908C49.8027 15.3128 50.2694 15.3829 50.6909 15.5232C51.1125 15.6479 51.4738 15.8427 51.7749 16.1076C52.0911 16.3725 52.332 16.6998 52.4976 17.0894C52.6632 17.479 52.746 17.9232 52.746 18.4219C52.746 19.092 52.5954 19.6609 52.2943 20.1284C52.0083 20.5959 51.6018 20.9544 51.0748 21.2037C50.563 21.4531 49.9683 21.5777 49.2908 21.5777H46.9196V8.7206H49.0649C49.8629 8.7206 50.5253 8.93878 51.0523 9.37514C51.5792 9.79592 51.8427 10.3959 51.8427 11.1751C51.8427 11.6894 51.7222 12.1258 51.4813 12.4842C51.2404 12.8427 50.9092 13.1154 50.4877 13.3024C50.0661 13.4894 49.5919 13.5829 49.0649 13.5829H46.5131V14.6816Z" fill="black"/>
<path d="M61.206 6.96735V23.331H63.1255V6.96735H61.206Z" fill="black"/>
<path d="M82.3238 6.96735V19.1466L70.3548 6.14917V23.331H72.2743V11.1518L84.2433 24.1492V6.96735H82.3238Z" fill="black"/>
<path d="M92.9918 18.4219H101.348L100.67 16.5518H93.6693L92.9918 18.4219ZM97.1245 10.6609L99.8345 17.2531L100.015 17.7206L102.319 23.331H104.464L97.1245 6.14917L89.785 23.331H91.9304L94.279 17.5803L94.4597 17.1596L97.1245 10.6609Z" fill="black"/>
<path d="M112.823 15.2661L118.243 23.331H120.614L114.969 15.2661H112.823ZM110 6.96735V23.331H111.92V6.96735H110ZM111.062 8.7206H114.291C114.969 8.7206 115.563 8.84527 116.075 9.09462C116.602 9.34397 117.009 9.70242 117.295 10.1699C117.596 10.6375 117.746 11.2063 117.746 11.8764C117.746 12.5466 117.596 13.1154 117.295 13.5829C117.009 14.0505 116.602 14.4089 116.075 14.6583C115.563 14.9076 114.969 15.0323 114.291 15.0323H111.062V16.7855H114.291C115.315 16.7855 116.226 16.5907 117.024 16.2011C117.837 15.7959 118.477 15.2271 118.943 14.4946C119.425 13.7466 119.666 12.8738 119.666 11.8764C119.666 10.8635 119.425 9.99073 118.943 9.25826C118.477 8.52579 117.837 7.96475 117.024 7.57514C116.226 7.16995 115.315 6.96735 114.291 6.96735H111.062V8.7206Z" fill="black"/>
<path d="M134.855 6.96735L130.767 14.5414L126.702 6.96735H124.557L129.819 16.2946V23.331H131.738V16.2712L137 6.96735H134.855Z" fill="black"/>
<path d="M11.1878 3.03689C10.988 3.03689 10.8178 2.98252 10.6772 2.87377C10.5366 2.76414 10.4292 2.60545 10.3549 2.39768C10.2807 2.18904 10.2435 1.93707 10.2435 1.64178C10.2435 1.34826 10.2807 1.09761 10.3549 0.889851C10.4301 0.681203 10.538 0.522065 10.6785 0.412437C10.82 0.301924 10.9897 0.246668 11.1878 0.246668C11.3858 0.246668 11.5551 0.301924 11.6957 0.412437C11.8371 0.522065 11.945 0.681203 12.0193 0.889851C12.0944 1.09761 12.132 1.34826 12.132 1.64178C12.132 1.93707 12.0949 2.18904 12.0206 2.39768C11.9463 2.60545 11.8389 2.76414 11.6983 2.87377C11.5578 2.98252 11.3876 3.03689 11.1878 3.03689ZM11.1878 2.74514C11.3858 2.74514 11.5396 2.64965 11.6493 2.45869C11.7589 2.26772 11.8137 1.99542 11.8137 1.64178C11.8137 1.40661 11.7885 1.20636 11.7381 1.04103C11.6886 0.875705 11.617 0.749721 11.5233 0.663079C11.4304 0.576437 11.3186 0.533116 11.1878 0.533116C10.9915 0.533116 10.8381 0.629925 10.7276 0.823543C10.6171 1.01628 10.5618 1.28902 10.5618 1.64178C10.5618 1.87695 10.5866 2.07676 10.6361 2.2412C10.6856 2.40564 10.7568 2.53074 10.8496 2.6165C10.9433 2.70226 11.056 2.74514 11.1878 2.74514ZM13.1426 0.2838V2.99976H12.8137V0.628599H12.7978L12.1347 1.06888V0.734691L12.8137 0.2838H13.1426ZM14.3615 3.03689C14.1616 3.03689 13.9915 2.98252 13.8509 2.87377C13.7103 2.76414 13.6029 2.60545 13.5286 2.39768C13.4544 2.18904 13.4172 1.93707 13.4172 1.64178C13.4172 1.34826 13.4544 1.09761 13.5286 0.889851C13.6038 0.681203 13.7116 0.522065 13.8522 0.412437C13.9937 0.301924 14.1634 0.246668 14.3615 0.246668C14.5595 0.246668 14.7288 0.301924 14.8694 0.412437C15.0108 0.522065 15.1187 0.681203 15.1929 0.889851C15.2681 1.09761 15.3057 1.34826 15.3057 1.64178C15.3057 1.93707 15.2685 2.18904 15.1943 2.39768C15.12 2.60545 15.0126 2.76414 14.872 2.87377C14.7314 2.98252 14.5613 3.03689 14.3615 3.03689ZM14.3615 2.74514C14.5595 2.74514 14.7133 2.64965 14.823 2.45869C14.9326 2.26772 14.9874 1.99542 14.9874 1.64178C14.9874 1.40661 14.9622 1.20636 14.9118 1.04103C14.8623 0.875705 14.7907 0.749721 14.697 0.663079C14.6041 0.576437 14.4923 0.533116 14.3615 0.533116C14.1652 0.533116 14.0118 0.629925 13.9013 0.823543C13.7908 1.01628 13.7355 1.28902 13.7355 1.64178C13.7355 1.87695 13.7603 2.07676 13.8098 2.2412C13.8593 2.40564 13.9305 2.53074 14.0233 2.6165C14.117 2.70226 14.2297 2.74514 14.3615 2.74514ZM16.3163 0.2838V2.99976H15.9874V0.628599H15.9715L15.3084 1.06888V0.734691L15.9874 0.2838H16.3163ZM17.6041 0.2838V2.99976H17.2752V0.628599H17.2593L16.5962 1.06888V0.734691L17.2752 0.2838H17.6041ZM18.8229 3.03689C18.6231 3.03689 18.4529 2.98252 18.3124 2.87377C18.1718 2.76414 18.0644 2.60545 17.9901 2.39768C17.9159 2.18904 17.8787 1.93707 17.8787 1.64178C17.8787 1.34826 17.9159 1.09761 17.9901 0.889851C18.0653 0.681203 18.1731 0.522065 18.3137 0.412437C18.4552 0.301924 18.6249 0.246668 18.8229 0.246668C19.021 0.246668 19.1903 0.301924 19.3309 0.412437C19.4723 0.522065 19.5802 0.681203 19.6544 0.889851C19.7296 1.09761 19.7672 1.34826 19.7672 1.64178C19.7672 1.93707 19.73 2.18904 19.6558 2.39768C19.5815 2.60545 19.4741 2.76414 19.3335 2.87377C19.1929 2.98252 19.0227 3.03689 18.8229 3.03689ZM18.8229 2.74514C19.021 2.74514 19.1748 2.64965 19.2844 2.45869C19.3941 2.26772 19.4489 1.99542 19.4489 1.64178C19.4489 1.40661 19.4237 1.20636 19.3733 1.04103C19.3238 0.875705 19.2522 0.749721 19.1585 0.663079C19.0656 0.576437 18.9538 0.533116 18.8229 0.533116C18.6267 0.533116 18.4733 0.629925 18.3628 0.823543C18.2523 1.01628 18.197 1.28902 18.197 1.64178C18.197 1.87695 18.2218 2.07676 18.2713 2.2412C18.3208 2.40564 18.3919 2.53074 18.4848 2.6165C18.5785 2.70226 18.6912 2.74514 18.8229 2.74514ZM11.2567 3.2838V5.99976H10.9278V3.6286H10.9119L10.2488 4.06888V3.73469L10.9278 3.2838H11.2567ZM12.5445 3.2838V5.99976H12.2156V3.6286H12.1997L11.5366 4.06888V3.73469L12.2156 3.2838H12.5445ZM13.7634 6.03689C13.5636 6.03689 13.3934 5.98252 13.2528 5.87377C13.1122 5.76414 13.0048 5.60545 12.9305 5.39768C12.8563 5.18904 12.8191 4.93707 12.8191 4.64178C12.8191 4.34826 12.8563 4.09761 12.9305 3.88985C13.0057 3.6812 13.1135 3.52207 13.2541 3.41244C13.3956 3.30192 13.5653 3.24667 13.7634 3.24667C13.9614 3.24667 14.1307 3.30192 14.2713 3.41244C14.4127 3.52207 14.5206 3.6812 14.5949 3.88985C14.67 4.09761 14.7076 4.34826 14.7076 4.64178C14.7076 4.93707 14.6704 5.18904 14.5962 5.39768C14.5219 5.60545 14.4145 5.76414 14.2739 5.87377C14.1334 5.98252 13.9632 6.03689 13.7634 6.03689ZM13.7634 5.74514C13.9614 5.74514 14.1152 5.64965 14.2249 5.45869C14.3345 5.26772 14.3893 4.99542 14.3893 4.64178C14.3893 4.40661 14.3641 4.20636 14.3137 4.04103C14.2642 3.87571 14.1926 3.74972 14.0989 3.66308C14.006 3.57644 13.8942 3.53312 13.7634 3.53312C13.5671 3.53312 13.4137 3.62993 13.3032 3.82354C13.1927 4.01628 13.1374 4.28902 13.1374 4.64178C13.1374 4.87695 13.1622 5.07676 13.2117 5.2412C13.2612 5.40564 13.3324 5.53074 13.4252 5.6165C13.5189 5.70226 13.6316 5.74514 13.7634 5.74514ZM15.6493 6.03689C15.4494 6.03689 15.2793 5.98252 15.1387 5.87377C14.9981 5.76414 14.8907 5.60545 14.8164 5.39768C14.7422 5.18904 14.705 4.93707 14.705 4.64178C14.705 4.34826 14.7422 4.09761 14.8164 3.88985C14.8916 3.6812 14.9994 3.52207 15.14 3.41244C15.2815 3.30192 15.4512 3.24667 15.6493 3.24667C15.8473 3.24667 16.0166 3.30192 16.1572 3.41244C16.2986 3.52207 16.4065 3.6812 16.4807 3.88985C16.5559 4.09761 16.5935 4.34826 16.5935 4.64178C16.5935 4.93707 16.5563 5.18904 16.4821 5.39768C16.4078 5.60545 16.3004 5.76414 16.1598 5.87377C16.0192 5.98252 15.8491 6.03689 15.6493 6.03689ZM15.6493 5.74514C15.8473 5.74514 16.0011 5.64965 16.1108 5.45869C16.2204 5.26772 16.2752 4.99542 16.2752 4.64178C16.2752 4.40661 16.25 4.20636 16.1996 4.04103C16.1501 3.87571 16.0785 3.74972 15.9848 3.66308C15.8919 3.57644 15.7801 3.53312 15.6493 3.53312C15.453 3.53312 15.2996 3.62993 15.1891 3.82354C15.0786 4.01628 15.0233 4.28902 15.0233 4.64178C15.0233 4.87695 15.0481 5.07676 15.0976 5.2412C15.1471 5.40564 15.2183 5.53074 15.3111 5.6165C15.4048 5.70226 15.5175 5.74514 15.6493 5.74514ZM17.6041 3.2838V5.99976H17.2752V3.6286H17.2593L16.5962 4.06888V3.73469L17.2752 3.2838H17.6041ZM18.8229 6.03689C18.6231 6.03689 18.4529 5.98252 18.3124 5.87377C18.1718 5.76414 18.0644 5.60545 17.9901 5.39768C17.9159 5.18904 17.8787 4.93707 17.8787 4.64178C17.8787 4.34826 17.9159 4.09761 17.9901 3.88985C18.0653 3.6812 18.1731 3.52207 18.3137 3.41244C18.4552 3.30192 18.6249 3.24667 18.8229 3.24667C19.021 3.24667 19.1903 3.30192 19.3309 3.41244C19.4723 3.52207 19.5802 3.6812 19.6544 3.88985C19.7296 4.09761 19.7672 4.34826 19.7672 4.64178C19.7672 4.93707 19.73 5.18904 19.6558 5.39768C19.5815 5.60545 19.4741 5.76414 19.3335 5.87377C19.1929 5.98252 19.0227 6.03689 18.8229 6.03689ZM18.8229 5.74514C19.021 5.74514 19.1748 5.64965 19.2844 5.45869C19.3941 5.26772 19.4489 4.99542 19.4489 4.64178C19.4489 4.40661 19.4237 4.20636 19.3733 4.04103C19.3238 3.87571 19.2522 3.74972 19.1585 3.66308C19.0656 3.57644 18.9538 3.53312 18.8229 3.53312C18.6267 3.53312 18.4733 3.62993 18.3628 3.82354C18.2523 4.01628 18.197 4.28902 18.197 4.64178C18.197 4.87695 18.2218 5.07676 18.2713 5.2412C18.3208 5.40564 18.3919 5.53074 18.4848 5.6165C18.5785 5.70226 18.6912 5.74514 18.8229 5.74514ZM11.1878 9.03689C10.988 9.03689 10.8178 8.98252 10.6772 8.87377C10.5366 8.76414 10.4292 8.60545 10.3549 8.39768C10.2807 8.18904 10.2435 7.93707 10.2435 7.64178C10.2435 7.34826 10.2807 7.09761 10.3549 6.88985C10.4301 6.6812 10.538 6.52207 10.6785 6.41244C10.82 6.30192 10.9897 6.24667 11.1878 6.24667C11.3858 6.24667 11.5551 6.30192 11.6957 6.41244C11.8371 6.52207 11.945 6.6812 12.0193 6.88985C12.0944 7.09761 12.132 7.34826 12.132 7.64178C12.132 7.93707 12.0949 8.18904 12.0206 8.39768C11.9463 8.60545 11.8389 8.76414 11.6983 8.87377C11.5578 8.98252 11.3876 9.03689 11.1878 9.03689ZM11.1878 8.74514C11.3858 8.74514 11.5396 8.64965 11.6493 8.45869C11.7589 8.26772 11.8137 7.99542 11.8137 7.64178C11.8137 7.40661 11.7885 7.20636 11.7381 7.04103C11.6886 6.87571 11.617 6.74972 11.5233 6.66308C11.4304 6.57644 11.3186 6.53312 11.1878 6.53312C10.9915 6.53312 10.8381 6.62993 10.7276 6.82354C10.6171 7.01628 10.5618 7.28902 10.5618 7.64178C10.5618 7.87695 10.5866 8.07676 10.6361 8.2412C10.6856 8.40564 10.7568 8.53074 10.8496 8.6165C10.9433 8.70226 11.056 8.74514 11.1878 8.74514ZM13.1426 6.2838V8.99976H12.8137V6.6286H12.7978L12.1347 7.06888V6.73469L12.8137 6.2838H13.1426ZM14.4304 6.2838V8.99976H14.1015V6.6286H14.0856L13.4225 7.06888V6.73469L14.1015 6.2838H14.4304ZM15.6493 9.03689C15.4494 9.03689 15.2793 8.98252 15.1387 8.87377C14.9981 8.76414 14.8907 8.60545 14.8164 8.39768C14.7422 8.18904 14.705 7.93707 14.705 7.64178C14.705 7.34826 14.7422 7.09761 14.8164 6.88985C14.8916 6.6812 14.9994 6.52207 15.14 6.41244C15.2815 6.30192 15.4512 6.24667 15.6493 6.24667C15.8473 6.24667 16.0166 6.30192 16.1572 6.41244C16.2986 6.52207 16.4065 6.6812 16.4807 6.88985C16.5559 7.09761 16.5935 7.34826 16.5935 7.64178C16.5935 7.93707 16.5563 8.18904 16.4821 8.39768C16.4078 8.60545 16.3004 8.76414 16.1598 8.87377C16.0192 8.98252 15.8491 9.03689 15.6493 9.03689ZM15.6493 8.74514C15.8473 8.74514 16.0011 8.64965 16.1108 8.45869C16.2204 8.26772 16.2752 7.99542 16.2752 7.64178C16.2752 7.40661 16.25 7.20636 16.1996 7.04103C16.1501 6.87571 16.0785 6.74972 15.9848 6.66308C15.8919 6.57644 15.7801 6.53312 15.6493 6.53312C15.453 6.53312 15.2996 6.62993 15.1891 6.82354C15.0786 7.01628 15.0233 7.28902 15.0233 7.64178C15.0233 7.87695 15.0481 8.07676 15.0976 8.2412C15.1471 8.40564 15.2183 8.53074 15.3111 8.6165C15.4048 8.70226 15.5175 8.74514 15.6493 8.74514ZM17.5351 9.03689C17.3353 9.03689 17.1651 8.98252 17.0246 8.87377C16.884 8.76414 16.7766 8.60545 16.7023 8.39768C16.6281 8.18904 16.5909 7.93707 16.5909 7.64178C16.5909 7.34826 16.6281 7.09761 16.7023 6.88985C16.7775 6.6812 16.8853 6.52207 17.0259 6.41244C17.1674 6.30192 17.3371 6.24667 17.5351 6.24667C17.7332 6.24667 17.9025 6.30192 18.0431 6.41244C18.1845 6.52207 18.2924 6.6812 18.3666 6.88985C18.4418 7.09761 18.4794 7.34826 18.4794 7.64178C18.4794 7.93707 18.4422 8.18904 18.368 8.39768C18.2937 8.60545 18.1863 8.76414 18.0457 8.87377C17.9051 8.98252 17.7349 9.03689 17.5351 9.03689ZM17.5351 8.74514C17.7332 8.74514 17.887 8.64965 17.9966 8.45869C18.1063 8.26772 18.1611 7.99542 18.1611 7.64178C18.1611 7.40661 18.1359 7.20636 18.0855 7.04103C18.036 6.87571 17.9644 6.74972 17.8707 6.66308C17.7778 6.57644 17.666 6.53312 17.5351 6.53312C17.3389 6.53312 17.1855 6.62993 17.075 6.82354C16.9645 7.01628 16.9092 7.28902 16.9092 7.64178C16.9092 7.87695 16.934 8.07676 16.9835 8.2412C17.033 8.40564 17.1041 8.53074 17.197 8.6165C17.2907 8.70226 17.4034 8.74514 17.5351 8.74514ZM19.49 6.2838V8.99976H19.1611V6.6286H19.1452L18.4821 7.06888V6.73469L19.1611 6.2838H19.49Z" fill="black"/>
<path d="M1.16701 14.1778C0.967206 14.1778 0.797016 14.1234 0.656444 14.0146C0.515872 13.905 0.408454 13.7463 0.33419 13.5386C0.259925 13.3299 0.222793 13.0779 0.222793 12.7826C0.222793 12.4891 0.259925 12.2385 0.33419 12.0307C0.409338 11.8221 0.517199 11.6629 0.657771 11.5533C0.799227 11.4428 0.968974 11.3875 1.16701 11.3875C1.36505 11.3875 1.53436 11.4428 1.67493 11.5533C1.81638 11.6629 1.92424 11.8221 1.99851 12.0307C2.07366 12.2385 2.11123 12.4891 2.11123 12.7826C2.11123 13.0779 2.0741 13.3299 1.99983 13.5386C1.92557 13.7463 1.81815 13.905 1.67758 14.0146C1.53701 14.1234 1.36682 14.1778 1.16701 14.1778ZM1.16701 13.886C1.36505 13.886 1.51888 13.7905 1.62851 13.5996C1.73814 13.4086 1.79296 13.1363 1.79296 12.7826C1.79296 12.5475 1.76776 12.3472 1.71736 12.1819C1.66785 12.0166 1.59624 11.8906 1.50253 11.8039C1.4097 11.7173 1.29786 11.674 1.16701 11.674C0.970742 11.674 0.817351 11.7708 0.706838 11.9644C0.596326 12.1571 0.541069 12.4299 0.541069 12.7826C0.541069 13.0178 0.565824 13.2176 0.615334 13.3821C0.664843 13.5465 0.736013 13.6716 0.828844 13.7574C0.922558 13.8431 1.03528 13.886 1.16701 13.886ZM3.12186 11.4247V14.1406H2.79298V11.7695H2.77706L2.11399 12.2098V11.8756L2.79298 11.4247H3.12186ZM4.3407 14.1778C4.1409 14.1778 3.97071 14.1234 3.83013 14.0146C3.68956 13.905 3.58214 13.7463 3.50788 13.5386C3.43362 13.3299 3.39648 13.0779 3.39648 12.7826C3.39648 12.4891 3.43362 12.2385 3.50788 12.0307C3.58303 11.8221 3.69089 11.6629 3.83146 11.5533C3.97292 11.4428 4.14266 11.3875 4.3407 11.3875C4.53874 11.3875 4.70805 11.4428 4.84862 11.5533C4.99007 11.6629 5.09793 11.8221 5.1722 12.0307C5.24735 12.2385 5.28492 12.4891 5.28492 12.7826C5.28492 13.0779 5.24779 13.3299 5.17352 13.5386C5.09926 13.7463 4.99184 13.905 4.85127 14.0146C4.7107 14.1234 4.54051 14.1778 4.3407 14.1778ZM4.3407 13.886C4.53874 13.886 4.69257 13.7905 4.8022 13.5996C4.91183 13.4086 4.96664 13.1363 4.96664 12.7826C4.96664 12.5475 4.94145 12.3472 4.89105 12.1819C4.84154 12.0166 4.76993 11.8906 4.67622 11.8039C4.58339 11.7173 4.47155 11.674 4.3407 11.674C4.14443 11.674 3.99104 11.7708 3.88053 11.9644C3.77002 12.1571 3.71476 12.4299 3.71476 12.7826C3.71476 13.0178 3.73951 13.2176 3.78902 13.3821C3.83853 13.5465 3.9097 13.6716 4.00253 13.7574C4.09625 13.8431 4.20897 13.886 4.3407 13.886ZM6.29555 11.4247V14.1406H5.96667V11.7695H5.95075L5.28768 12.2098V11.8756L5.96667 11.4247H6.29555ZM7.58335 11.4247V14.1406H7.25447V11.7695H7.23855L6.57548 12.2098V11.8756L7.25447 11.4247H7.58335ZM8.80219 14.1778C8.60238 14.1778 8.43219 14.1234 8.29162 14.0146C8.15105 13.905 8.04363 13.7463 7.96937 13.5386C7.8951 13.3299 7.85797 13.0779 7.85797 12.7826C7.85797 12.4891 7.8951 12.2385 7.96937 12.0307C8.04452 11.8221 8.15238 11.6629 8.29295 11.5533C8.4344 11.4428 8.60415 11.3875 8.80219 11.3875C9.00023 11.3875 9.16953 11.4428 9.3101 11.5533C9.45156 11.6629 9.55942 11.8221 9.63369 12.0307C9.70883 12.2385 9.74641 12.4891 9.74641 12.7826C9.74641 13.0779 9.70928 13.3299 9.63501 13.5386C9.56075 13.7463 9.45333 13.905 9.31276 14.0146C9.17219 14.1234 9.002 14.1778 8.80219 14.1778ZM8.80219 13.886C9.00023 13.886 9.15406 13.7905 9.26369 13.5996C9.37332 13.4086 9.42813 13.1363 9.42813 12.7826C9.42813 12.5475 9.40294 12.3472 9.35254 12.1819C9.30303 12.0166 9.23142 11.8906 9.13771 11.8039C9.04487 11.7173 8.93304 11.674 8.80219 11.674C8.60592 11.674 8.45253 11.7708 8.34202 11.9644C8.2315 12.1571 8.17625 12.4299 8.17625 12.7826C8.17625 13.0178 8.201 13.2176 8.25051 13.3821C8.30002 13.5465 8.37119 13.6716 8.46402 13.7574C8.55774 13.8431 8.67046 13.886 8.80219 13.886ZM1.23597 14.4247V17.1406H0.907087V14.7695H0.891173L0.228098 15.2098V14.8756L0.907087 14.4247H1.23597ZM2.52377 14.4247V17.1406H2.19488V14.7695H2.17897L1.5159 15.2098V14.8756L2.19488 14.4247H2.52377ZM3.74261 17.1778C3.5428 17.1778 3.37261 17.1234 3.23204 17.0146C3.09147 16.905 2.98405 16.7463 2.90979 16.5386C2.83552 16.3299 2.79839 16.0779 2.79839 15.7826C2.79839 15.4891 2.83552 15.2385 2.90979 15.0307C2.98493 14.8221 3.09279 14.6629 3.23337 14.5533C3.37482 14.4428 3.54457 14.3875 3.74261 14.3875C3.94065 14.3875 4.10995 14.4428 4.25052 14.5533C4.39198 14.6629 4.49984 14.8221 4.5741 15.0307C4.64925 15.2385 4.68683 15.4891 4.68683 15.7826C4.68683 16.0779 4.64969 16.3299 4.57543 16.5386C4.50117 16.7463 4.39375 16.905 4.25318 17.0146C4.1126 17.1234 3.94241 17.1778 3.74261 17.1778ZM3.74261 16.886C3.94065 16.886 4.09448 16.7905 4.20411 16.5996C4.31374 16.4086 4.36855 16.1363 4.36855 15.7826C4.36855 15.5475 4.34335 15.3472 4.29296 15.1819C4.24345 15.0166 4.17184 14.8906 4.07812 14.8039C3.98529 14.7173 3.87345 14.674 3.74261 14.674C3.54634 14.674 3.39295 14.7708 3.28243 14.9644C3.17192 15.1571 3.11667 15.4299 3.11667 15.7826C3.11667 16.0178 3.14142 16.2176 3.19093 16.3821C3.24044 16.5465 3.31161 16.6716 3.40444 16.7574C3.49815 16.8431 3.61088 16.886 3.74261 16.886ZM5.6285 17.1778C5.42869 17.1778 5.2585 17.1234 5.11793 17.0146C4.97736 16.905 4.86994 16.7463 4.79568 16.5386C4.72141 16.3299 4.68428 16.0779 4.68428 15.7826C4.68428 15.4891 4.72141 15.2385 4.79568 15.0307C4.87083 14.8221 4.97869 14.6629 5.11926 14.5533C5.26071 14.4428 5.43046 14.3875 5.6285 14.3875C5.82654 14.3875 5.99584 14.4428 6.13642 14.5533C6.27787 14.6629 6.38573 14.8221 6.46 15.0307C6.53514 15.2385 6.57272 15.4891 6.57272 15.7826C6.57272 16.0779 6.53559 16.3299 6.46132 16.5386C6.38706 16.7463 6.27964 16.905 6.13907 17.0146C5.9985 17.1234 5.82831 17.1778 5.6285 17.1778ZM5.6285 16.886C5.82654 16.886 5.98037 16.7905 6.09 16.5996C6.19963 16.4086 6.25444 16.1363 6.25444 15.7826C6.25444 15.5475 6.22925 15.3472 6.17885 15.1819C6.12934 15.0166 6.05773 14.8906 5.96402 14.8039C5.87119 14.7173 5.75935 14.674 5.6285 14.674C5.43223 14.674 5.27884 14.7708 5.16833 14.9644C5.05781 15.1571 5.00256 15.4299 5.00256 15.7826C5.00256 16.0178 5.02731 16.2176 5.07682 16.3821C5.12633 16.5465 5.1975 16.6716 5.29033 16.7574C5.38405 16.8431 5.49677 16.886 5.6285 16.886ZM7.58335 14.4247V17.1406H7.25447V14.7695H7.23855L6.57548 15.2098V14.8756L7.25447 14.4247H7.58335ZM8.80219 17.1778C8.60238 17.1778 8.43219 17.1234 8.29162 17.0146C8.15105 16.905 8.04363 16.7463 7.96937 16.5386C7.8951 16.3299 7.85797 16.0779 7.85797 15.7826C7.85797 15.4891 7.8951 15.2385 7.96937 15.0307C8.04452 14.8221 8.15238 14.6629 8.29295 14.5533C8.4344 14.4428 8.60415 14.3875 8.80219 14.3875C9.00023 14.3875 9.16953 14.4428 9.3101 14.5533C9.45156 14.6629 9.55942 14.8221 9.63369 15.0307C9.70883 15.2385 9.74641 15.4891 9.74641 15.7826C9.74641 16.0779 9.70928 16.3299 9.63501 16.5386C9.56075 16.7463 9.45333 16.905 9.31276 17.0146C9.17219 17.1234 9.002 17.1778 8.80219 17.1778ZM8.80219 16.886C9.00023 16.886 9.15406 16.7905 9.26369 16.5996C9.37332 16.4086 9.42813 16.1363 9.42813 15.7826C9.42813 15.5475 9.40294 15.3472 9.35254 15.1819C9.30303 15.0166 9.23142 14.8906 9.13771 14.8039C9.04487 14.7173 8.93304 14.674 8.80219 14.674C8.60592 14.674 8.45253 14.7708 8.34202 14.9644C8.2315 15.1571 8.17625 15.4299 8.17625 15.7826C8.17625 16.0178 8.201 16.2176 8.25051 16.3821C8.30002 16.5465 8.37119 16.6716 8.46402 16.7574C8.55774 16.8431 8.67046 16.886 8.80219 16.886ZM1.16701 20.1778C0.967206 20.1778 0.797016 20.1234 0.656444 20.0146C0.515872 19.905 0.408454 19.7463 0.33419 19.5386C0.259925 19.3299 0.222793 19.0779 0.222793 18.7826C0.222793 18.4891 0.259925 18.2385 0.33419 18.0307C0.409338 17.8221 0.517199 17.6629 0.657771 17.5533C0.799227 17.4428 0.968974 17.3875 1.16701 17.3875C1.36505 17.3875 1.53436 17.4428 1.67493 17.5533C1.81638 17.6629 1.92424 17.8221 1.99851 18.0307C2.07366 18.2385 2.11123 18.4891 2.11123 18.7826C2.11123 19.0779 2.0741 19.3299 1.99983 19.5386C1.92557 19.7463 1.81815 19.905 1.67758 20.0146C1.53701 20.1234 1.36682 20.1778 1.16701 20.1778ZM1.16701 19.886C1.36505 19.886 1.51888 19.7905 1.62851 19.5996C1.73814 19.4086 1.79296 19.1363 1.79296 18.7826C1.79296 18.5475 1.76776 18.3472 1.71736 18.1819C1.66785 18.0166 1.59624 17.8906 1.50253 17.8039C1.4097 17.7173 1.29786 17.674 1.16701 17.674C0.970742 17.674 0.817351 17.7708 0.706838 17.9644C0.596326 18.1571 0.541069 18.4299 0.541069 18.7826C0.541069 19.0178 0.565824 19.2176 0.615334 19.3821C0.664843 19.5465 0.736013 19.6716 0.828844 19.7574C0.922558 19.8431 1.03528 19.886 1.16701 19.886ZM3.12186 17.4247V20.1406H2.79298V17.7695H2.77706L2.11399 18.2098V17.8756L2.79298 17.4247H3.12186ZM4.40966 17.4247V20.1406H4.08078V17.7695H4.06486L3.40179 18.2098V17.8756L4.08078 17.4247H4.40966ZM5.6285 20.1778C5.42869 20.1778 5.2585 20.1234 5.11793 20.0146C4.97736 19.905 4.86994 19.7463 4.79568 19.5386C4.72141 19.3299 4.68428 19.0779 4.68428 18.7826C4.68428 18.4891 4.72141 18.2385 4.79568 18.0307C4.87083 17.8221 4.97869 17.6629 5.11926 17.5533C5.26071 17.4428 5.43046 17.3875 5.6285 17.3875C5.82654 17.3875 5.99584 17.4428 6.13642 17.5533C6.27787 17.6629 6.38573 17.8221 6.46 18.0307C6.53514 18.2385 6.57272 18.4891 6.57272 18.7826C6.57272 19.0779 6.53559 19.3299 6.46132 19.5386C6.38706 19.7463 6.27964 19.905 6.13907 20.0146C5.9985 20.1234 5.82831 20.1778 5.6285 20.1778ZM5.6285 19.886C5.82654 19.886 5.98037 19.7905 6.09 19.5996C6.19963 19.4086 6.25444 19.1363 6.25444 18.7826C6.25444 18.5475 6.22925 18.3472 6.17885 18.1819C6.12934 18.0166 6.05773 17.8906 5.96402 17.8039C5.87119 17.7173 5.75935 17.674 5.6285 17.674C5.43223 17.674 5.27884 17.7708 5.16833 17.9644C5.05781 18.1571 5.00256 18.4299 5.00256 18.7826C5.00256 19.0178 5.02731 19.2176 5.07682 19.3821C5.12633 19.5465 5.1975 19.6716 5.29033 19.7574C5.38405 19.8431 5.49677 19.886 5.6285 19.886ZM7.51439 20.1778C7.31458 20.1778 7.1444 20.1234 7.00382 20.0146C6.86325 19.905 6.75583 19.7463 6.68157 19.5386C6.6073 19.3299 6.57017 19.0779 6.57017 18.7826C6.57017 18.4891 6.6073 18.2385 6.68157 18.0307C6.75672 17.8221 6.86458 17.6629 7.00515 17.5533C7.14661 17.4428 7.31635 17.3875 7.51439 17.3875C7.71243 17.3875 7.88174 17.4428 8.02231 17.5533C8.16376 17.6629 8.27162 17.8221 8.34589 18.0307C8.42104 18.2385 8.45861 18.4891 8.45861 18.7826C8.45861 19.0779 8.42148 19.3299 8.34721 19.5386C8.27295 19.7463 8.16553 19.905 8.02496 20.0146C7.88439 20.1234 7.7142 20.1778 7.51439 20.1778ZM7.51439 19.886C7.71243 19.886 7.86626 19.7905 7.97589 19.5996C8.08552 19.4086 8.14033 19.1363 8.14033 18.7826C8.14033 18.5475 8.11514 18.3472 8.06474 18.1819C8.01523 18.0166 7.94362 17.8906 7.84991 17.8039C7.75708 17.7173 7.64524 17.674 7.51439 17.674C7.31812 17.674 7.16473 17.7708 7.05422 17.9644C6.9437 18.1571 6.88845 18.4299 6.88845 18.7826C6.88845 19.0178 6.9132 19.2176 6.96271 19.3821C7.01222 19.5465 7.08339 19.6716 7.17622 19.7574C7.26994 19.8431 7.38266 19.886 7.51439 19.886ZM9.46924 17.4247V20.1406H9.14036V17.7695H9.12444L8.46137 18.2098V17.8756L9.14036 17.4247H9.46924Z" fill="black"/>
<path d="M1.16701 23.7007C0.967206 23.7007 0.797016 23.6463 0.656444 23.5376C0.515872 23.428 0.408454 23.2693 0.33419 23.0615C0.259925 22.8529 0.222793 22.6009 0.222793 22.3056C0.222793 22.0121 0.259925 21.7614 0.33419 21.5537C0.409338 21.345 0.517199 21.1859 0.657771 21.0763C0.799227 20.9657 0.968974 20.9105 1.16701 20.9105C1.36505 20.9105 1.53436 20.9657 1.67493 21.0763C1.81638 21.1859 1.92424 21.345 1.99851 21.5537C2.07366 21.7614 2.11123 22.0121 2.11123 22.3056C2.11123 22.6009 2.0741 22.8529 1.99983 23.0615C1.92557 23.2693 1.81815 23.428 1.67758 23.5376C1.53701 23.6463 1.36682 23.7007 1.16701 23.7007ZM1.16701 23.409C1.36505 23.409 1.51888 23.3135 1.62851 23.1225C1.73814 22.9315 1.79296 22.6592 1.79296 22.3056C1.79296 22.0704 1.76776 21.8702 1.71736 21.7049C1.66785 21.5395 1.59624 21.4135 1.50253 21.3269C1.4097 21.2403 1.29786 21.1969 1.16701 21.1969C0.970742 21.1969 0.817351 21.2937 0.706838 21.4874C0.596326 21.6801 0.541069 21.9528 0.541069 22.3056C0.541069 22.5408 0.565824 22.7406 0.615334 22.905C0.664843 23.0695 0.736013 23.1946 0.828844 23.2803C0.922558 23.3661 1.03528 23.409 1.16701 23.409ZM3.12186 20.9476V23.6636H2.79298V21.2924H2.77706L2.11399 21.7327V21.3985L2.79298 20.9476H3.12186ZM4.3407 23.7007C4.1409 23.7007 3.97071 23.6463 3.83013 23.5376C3.68956 23.428 3.58214 23.2693 3.50788 23.0615C3.43362 22.8529 3.39648 22.6009 3.39648 22.3056C3.39648 22.0121 3.43362 21.7614 3.50788 21.5537C3.58303 21.345 3.69089 21.1859 3.83146 21.0763C3.97292 20.9657 4.14266 20.9105 4.3407 20.9105C4.53874 20.9105 4.70805 20.9657 4.84862 21.0763C4.99007 21.1859 5.09793 21.345 5.1722 21.5537C5.24735 21.7614 5.28492 22.0121 5.28492 22.3056C5.28492 22.6009 5.24779 22.8529 5.17352 23.0615C5.09926 23.2693 4.99184 23.428 4.85127 23.5376C4.7107 23.6463 4.54051 23.7007 4.3407 23.7007ZM4.3407 23.409C4.53874 23.409 4.69257 23.3135 4.8022 23.1225C4.91183 22.9315 4.96664 22.6592 4.96664 22.3056C4.96664 22.0704 4.94145 21.8702 4.89105 21.7049C4.84154 21.5395 4.76993 21.4135 4.67622 21.3269C4.58339 21.2403 4.47155 21.1969 4.3407 21.1969C4.14443 21.1969 3.99104 21.2937 3.88053 21.4874C3.77002 21.6801 3.71476 21.9528 3.71476 22.3056C3.71476 22.5408 3.73951 22.7406 3.78902 22.905C3.83853 23.0695 3.9097 23.1946 4.00253 23.2803C4.09625 23.3661 4.20897 23.409 4.3407 23.409ZM6.29555 20.9476V23.6636H5.96667V21.2924H5.95075L5.28768 21.7327V21.3985L5.96667 20.9476H6.29555ZM7.58335 20.9476V23.6636H7.25447V21.2924H7.23855L6.57548 21.7327V21.3985L7.25447 20.9476H7.58335ZM8.80219 23.7007C8.60238 23.7007 8.43219 23.6463 8.29162 23.5376C8.15105 23.428 8.04363 23.2693 7.96937 23.0615C7.8951 22.8529 7.85797 22.6009 7.85797 22.3056C7.85797 22.0121 7.8951 21.7614 7.96937 21.5537C8.04452 21.345 8.15238 21.1859 8.29295 21.0763C8.4344 20.9657 8.60415 20.9105 8.80219 20.9105C9.00023 20.9105 9.16953 20.9657 9.3101 21.0763C9.45156 21.1859 9.55942 21.345 9.63369 21.5537C9.70883 21.7614 9.74641 22.0121 9.74641 22.3056C9.74641 22.6009 9.70928 22.8529 9.63501 23.0615C9.56075 23.2693 9.45333 23.428 9.31276 23.5376C9.17219 23.6463 9.002 23.7007 8.80219 23.7007ZM8.80219 23.409C9.00023 23.409 9.15406 23.3135 9.26369 23.1225C9.37332 22.9315 9.42813 22.6592 9.42813 22.3056C9.42813 22.0704 9.40294 21.8702 9.35254 21.7049C9.30303 21.5395 9.23142 21.4135 9.13771 21.3269C9.04487 21.2403 8.93304 21.1969 8.80219 21.1969C8.60592 21.1969 8.45253 21.2937 8.34202 21.4874C8.2315 21.6801 8.17625 21.9528 8.17625 22.3056C8.17625 22.5408 8.201 22.7406 8.25051 22.905C8.30002 23.0695 8.37119 23.1946 8.46402 23.2803C8.55774 23.3661 8.67046 23.409 8.80219 23.409ZM1.23597 23.9476V26.6636H0.907087V24.2924H0.891173L0.228098 24.7327V24.3985L0.907087 23.9476H1.23597ZM2.52377 23.9476V26.6636H2.19488V24.2924H2.17897L1.5159 24.7327V24.3985L2.19488 23.9476H2.52377ZM3.74261 26.7007C3.5428 26.7007 3.37261 26.6463 3.23204 26.5376C3.09147 26.428 2.98405 26.2693 2.90979 26.0615C2.83552 25.8529 2.79839 25.6009 2.79839 25.3056C2.79839 25.0121 2.83552 24.7614 2.90979 24.5537C2.98493 24.345 3.09279 24.1859 3.23337 24.0763C3.37482 23.9657 3.54457 23.9105 3.74261 23.9105C3.94065 23.9105 4.10995 23.9657 4.25052 24.0763C4.39198 24.1859 4.49984 24.345 4.5741 24.5537C4.64925 24.7614 4.68683 25.0121 4.68683 25.3056C4.68683 25.6009 4.64969 25.8529 4.57543 26.0615C4.50117 26.2693 4.39375 26.428 4.25318 26.5376C4.1126 26.6463 3.94241 26.7007 3.74261 26.7007ZM3.74261 26.409C3.94065 26.409 4.09448 26.3135 4.20411 26.1225C4.31374 25.9315 4.36855 25.6592 4.36855 25.3056C4.36855 25.0704 4.34335 24.8702 4.29296 24.7049C4.24345 24.5395 4.17184 24.4135 4.07812 24.3269C3.98529 24.2403 3.87345 24.1969 3.74261 24.1969C3.54634 24.1969 3.39295 24.2937 3.28243 24.4874C3.17192 24.6801 3.11667 24.9528 3.11667 25.3056C3.11667 25.5408 3.14142 25.7406 3.19093 25.905C3.24044 26.0695 3.31161 26.1946 3.40444 26.2803C3.49815 26.3661 3.61088 26.409 3.74261 26.409ZM5.6285 26.7007C5.42869 26.7007 5.2585 26.6463 5.11793 26.5376C4.97736 26.428 4.86994 26.2693 4.79568 26.0615C4.72141 25.8529 4.68428 25.6009 4.68428 25.3056C4.68428 25.0121 4.72141 24.7614 4.79568 24.5537C4.87083 24.345 4.97869 24.1859 5.11926 24.0763C5.26071 23.9657 5.43046 23.9105 5.6285 23.9105C5.82654 23.9105 5.99584 23.9657 6.13642 24.0763C6.27787 24.1859 6.38573 24.345 6.46 24.5537C6.53514 24.7614 6.57272 25.0121 6.57272 25.3056C6.57272 25.6009 6.53559 25.8529 6.46132 26.0615C6.38706 26.2693 6.27964 26.428 6.13907 26.5376C5.9985 26.6463 5.82831 26.7007 5.6285 26.7007ZM5.6285 26.409C5.82654 26.409 5.98037 26.3135 6.09 26.1225C6.19963 25.9315 6.25444 25.6592 6.25444 25.3056C6.25444 25.0704 6.22925 24.8702 6.17885 24.7049C6.12934 24.5395 6.05773 24.4135 5.96402 24.3269C5.87119 24.2403 5.75935 24.1969 5.6285 24.1969C5.43223 24.1969 5.27884 24.2937 5.16833 24.4874C5.05781 24.6801 5.00256 24.9528 5.00256 25.3056C5.00256 25.5408 5.02731 25.7406 5.07682 25.905C5.12633 26.0695 5.1975 26.1946 5.29033 26.2803C5.38405 26.3661 5.49677 26.409 5.6285 26.409ZM7.58335 23.9476V26.6636H7.25447V24.2924H7.23855L6.57548 24.7327V24.3985L7.25447 23.9476H7.58335ZM8.80219 26.7007C8.60238 26.7007 8.43219 26.6463 8.29162 26.5376C8.15105 26.428 8.04363 26.2693 7.96937 26.0615C7.8951 25.8529 7.85797 25.6009 7.85797 25.3056C7.85797 25.0121 7.8951 24.7614 7.96937 24.5537C8.04452 24.345 8.15238 24.1859 8.29295 24.0763C8.4344 23.9657 8.60415 23.9105 8.80219 23.9105C9.00023 23.9105 9.16953 23.9657 9.3101 24.0763C9.45156 24.1859 9.55942 24.345 9.63369 24.5537C9.70883 24.7614 9.74641 25.0121 9.74641 25.3056C9.74641 25.6009 9.70928 25.8529 9.63501 26.0615C9.56075 26.2693 9.45333 26.428 9.31276 26.5376C9.17219 26.6463 9.002 26.7007 8.80219 26.7007ZM8.80219 26.409C9.00023 26.409 9.15406 26.3135 9.26369 26.1225C9.37332 25.9315 9.42813 25.6592 9.42813 25.3056C9.42813 25.0704 9.40294 24.8702 9.35254 24.7049C9.30303 24.5395 9.23142 24.4135 9.13771 24.3269C9.04487 24.2403 8.93304 24.1969 8.80219 24.1969C8.60592 24.1969 8.45253 24.2937 8.34202 24.4874C8.2315 24.6801 8.17625 24.9528 8.17625 25.3056C8.17625 25.5408 8.201 25.7406 8.25051 25.905C8.30002 26.0695 8.37119 26.1946 8.46402 26.2803C8.55774 26.3661 8.67046 26.409 8.80219 26.409ZM1.16701 29.7007C0.967206 29.7007 0.797016 29.6463 0.656444 29.5376C0.515872 29.428 0.408454 29.2693 0.33419 29.0615C0.259925 28.8529 0.222793 28.6009 0.222793 28.3056C0.222793 28.0121 0.259925 27.7614 0.33419 27.5537C0.409338 27.345 0.517199 27.1859 0.657771 27.0763C0.799227 26.9657 0.968974 26.9105 1.16701 26.9105C1.36505 26.9105 1.53436 26.9657 1.67493 27.0763C1.81638 27.1859 1.92424 27.345 1.99851 27.5537C2.07366 27.7614 2.11123 28.0121 2.11123 28.3056C2.11123 28.6009 2.0741 28.8529 1.99983 29.0615C1.92557 29.2693 1.81815 29.428 1.67758 29.5376C1.53701 29.6463 1.36682 29.7007 1.16701 29.7007ZM1.16701 29.409C1.36505 29.409 1.51888 29.3135 1.62851 29.1225C1.73814 28.9315 1.79296 28.6592 1.79296 28.3056C1.79296 28.0704 1.76776 27.8702 1.71736 27.7049C1.66785 27.5395 1.59624 27.4135 1.50253 27.3269C1.4097 27.2403 1.29786 27.1969 1.16701 27.1969C0.970742 27.1969 0.817351 27.2937 0.706838 27.4874C0.596326 27.6801 0.541069 27.9528 0.541069 28.3056C0.541069 28.5408 0.565824 28.7406 0.615334 28.905C0.664843 29.0695 0.736013 29.1946 0.828844 29.2803C0.922558 29.3661 1.03528 29.409 1.16701 29.409ZM3.12186 26.9476V29.6636H2.79298V27.2924H2.77706L2.11399 27.7327V27.3985L2.79298 26.9476H3.12186ZM4.40966 26.9476V29.6636H4.08078V27.2924H4.06486L3.40179 27.7327V27.3985L4.08078 26.9476H4.40966ZM5.6285 29.7007C5.42869 29.7007 5.2585 29.6463 5.11793 29.5376C4.97736 29.428 4.86994 29.2693 4.79568 29.0615C4.72141 28.8529 4.68428 28.6009 4.68428 28.3056C4.68428 28.0121 4.72141 27.7614 4.79568 27.5537C4.87083 27.345 4.97869 27.1859 5.11926 27.0763C5.26071 26.9657 5.43046 26.9105 5.6285 26.9105C5.82654 26.9105 5.99584 26.9657 6.13642 27.0763C6.27787 27.1859 6.38573 27.345 6.46 27.5537C6.53514 27.7614 6.57272 28.0121 6.57272 28.3056C6.57272 28.6009 6.53559 28.8529 6.46132 29.0615C6.38706 29.2693 6.27964 29.428 6.13907 29.5376C5.9985 29.6463 5.82831 29.7007 5.6285 29.7007ZM5.6285 29.409C5.82654 29.409 5.98037 29.3135 6.09 29.1225C6.19963 28.9315 6.25444 28.6592 6.25444 28.3056C6.25444 28.0704 6.22925 27.8702 6.17885 27.7049C6.12934 27.5395 6.05773 27.4135 5.96402 27.3269C5.87119 27.2403 5.75935 27.1969 5.6285 27.1969C5.43223 27.1969 5.27884 27.2937 5.16833 27.4874C5.05781 27.6801 5.00256 27.9528 5.00256 28.3056C5.00256 28.5408 5.02731 28.7406 5.07682 28.905C5.12633 29.0695 5.1975 29.1946 5.29033 29.2803C5.38405 29.3661 5.49677 29.409 5.6285 29.409ZM7.51439 29.7007C7.31458 29.7007 7.1444 29.6463 7.00382 29.5376C6.86325 29.428 6.75583 29.2693 6.68157 29.0615C6.6073 28.8529 6.57017 28.6009 6.57017 28.3056C6.57017 28.0121 6.6073 27.7614 6.68157 27.5537C6.75672 27.345 6.86458 27.1859 7.00515 27.0763C7.14661 26.9657 7.31635 26.9105 7.51439 26.9105C7.71243 26.9105 7.88174 26.9657 8.02231 27.0763C8.16376 27.1859 8.27162 27.345 8.34589 27.5537C8.42104 27.7614 8.45861 28.0121 8.45861 28.3056C8.45861 28.6009 8.42148 28.8529 8.34721 29.0615C8.27295 29.2693 8.16553 29.428 8.02496 29.5376C7.88439 29.6463 7.7142 29.7007 7.51439 29.7007ZM7.51439 29.409C7.71243 29.409 7.86626 29.3135 7.97589 29.1225C8.08552 28.9315 8.14033 28.6592 8.14033 28.3056C8.14033 28.0704 8.11514 27.8702 8.06474 27.7049C8.01523 27.5395 7.94362 27.4135 7.84991 27.3269C7.75708 27.2403 7.64524 27.1969 7.51439 27.1969C7.31812 27.1969 7.16473 27.2937 7.05422 27.4874C6.9437 27.6801 6.88845 27.9528 6.88845 28.3056C6.88845 28.5408 6.9132 28.7406 6.96271 28.905C7.01222 29.0695 7.08339 29.1946 7.17622 29.2803C7.26994 29.3661 7.38266 29.409 7.51439 29.409ZM9.46924 26.9476V29.6636H9.14036V27.2924H9.12444L8.46137 27.7327V27.3985L9.14036 26.9476H9.46924Z" fill="black"/>
<path d="M20.9596 14.1778C20.7597 14.1778 20.5896 14.1234 20.449 14.0146C20.3084 13.905 20.201 13.7463 20.1267 13.5386C20.0525 13.3299 20.0153 13.0779 20.0153 12.7826C20.0153 12.4891 20.0525 12.2385 20.1267 12.0307C20.2019 11.8221 20.3097 11.6629 20.4503 11.5533C20.5918 11.4428 20.7615 11.3875 20.9596 11.3875C21.1576 11.3875 21.3269 11.4428 21.4675 11.5533C21.6089 11.6629 21.7168 11.8221 21.791 12.0307C21.8662 12.2385 21.9038 12.4891 21.9038 12.7826C21.9038 13.0779 21.8666 13.3299 21.7924 13.5386C21.7181 13.7463 21.6107 13.905 21.4701 14.0146C21.3295 14.1234 21.1594 14.1778 20.9596 14.1778ZM20.9596 13.886C21.1576 13.886 21.3114 13.7905 21.4211 13.5996C21.5307 13.4086 21.5855 13.1363 21.5855 12.7826C21.5855 12.5475 21.5603 12.3472 21.5099 12.1819C21.4604 12.0166 21.3888 11.8906 21.2951 11.8039C21.2022 11.7173 21.0904 11.674 20.9596 11.674C20.7633 11.674 20.6099 11.7708 20.4994 11.9644C20.3889 12.1571 20.3336 12.4299 20.3336 12.7826C20.3336 13.0178 20.3584 13.2176 20.4079 13.3821C20.4574 13.5465 20.5286 13.6716 20.6214 13.7574C20.7151 13.8431 20.8278 13.886 20.9596 13.886ZM22.9144 11.4247V14.1406H22.5855V11.7695H22.5696L21.9065 12.2098V11.8756L22.5855 11.4247H22.9144ZM24.1332 14.1778C23.9334 14.1778 23.7632 14.1234 23.6227 14.0146C23.4821 13.905 23.3747 13.7463 23.3004 13.5386C23.2262 13.3299 23.189 13.0779 23.189 12.7826C23.189 12.4891 23.2262 12.2385 23.3004 12.0307C23.3756 11.8221 23.4834 11.6629 23.624 11.5533C23.7655 11.4428 23.9352 11.3875 24.1332 11.3875C24.3313 11.3875 24.5006 11.4428 24.6412 11.5533C24.7826 11.6629 24.8905 11.8221 24.9647 12.0307C25.0399 12.2385 25.0775 12.4891 25.0775 12.7826C25.0775 13.0779 25.0403 13.3299 24.9661 13.5386C24.8918 13.7463 24.7844 13.905 24.6438 14.0146C24.5032 14.1234 24.333 14.1778 24.1332 14.1778ZM24.1332 13.886C24.3313 13.886 24.4851 13.7905 24.5947 13.5996C24.7044 13.4086 24.7592 13.1363 24.7592 12.7826C24.7592 12.5475 24.734 12.3472 24.6836 12.1819C24.6341 12.0166 24.5625 11.8906 24.4688 11.8039C24.3759 11.7173 24.2641 11.674 24.1332 11.674C23.937 11.674 23.7836 11.7708 23.6731 11.9644C23.5626 12.1571 23.5073 12.4299 23.5073 12.7826C23.5073 13.0178 23.5321 13.2176 23.5816 13.3821C23.6311 13.5465 23.7022 13.6716 23.7951 13.7574C23.8888 13.8431 24.0015 13.886 24.1332 13.886ZM26.0881 11.4247V14.1406H25.7592V11.7695H25.7433L25.0802 12.2098V11.8756L25.7592 11.4247H26.0881ZM27.3759 11.4247V14.1406H27.047V11.7695H27.0311L26.368 12.2098V11.8756L27.047 11.4247H27.3759ZM28.5947 14.1778C28.3949 14.1778 28.2247 14.1234 28.0842 14.0146C27.9436 13.905 27.8362 13.7463 27.7619 13.5386C27.6876 13.3299 27.6505 13.0779 27.6505 12.7826C27.6505 12.4891 27.6876 12.2385 27.7619 12.0307C27.8371 11.8221 27.9449 11.6629 28.0855 11.5533C28.2269 11.4428 28.3967 11.3875 28.5947 11.3875C28.7928 11.3875 28.9621 11.4428 29.1026 11.5533C29.2441 11.6629 29.352 11.8221 29.4262 12.0307C29.5014 12.2385 29.5389 12.4891 29.5389 12.7826C29.5389 13.0779 29.5018 13.3299 29.4276 13.5386C29.3533 13.7463 29.2459 13.905 29.1053 14.0146C28.9647 14.1234 28.7945 14.1778 28.5947 14.1778ZM28.5947 13.886C28.7928 13.886 28.9466 13.7905 29.0562 13.5996C29.1659 13.4086 29.2207 13.1363 29.2207 12.7826C29.2207 12.5475 29.1955 12.3472 29.1451 12.1819C29.0956 12.0166 29.024 11.8906 28.9302 11.8039C28.8374 11.7173 28.7256 11.674 28.5947 11.674C28.3985 11.674 28.2451 11.7708 28.1346 11.9644C28.024 12.1571 27.9688 12.4299 27.9688 12.7826C27.9688 13.0178 27.9935 13.2176 28.0431 13.3821C28.0926 13.5465 28.1637 13.6716 28.2566 13.7574C28.3503 13.8431 28.463 13.886 28.5947 13.886ZM21.0285 14.4247V17.1406H20.6996V14.7695H20.6837L20.0206 15.2098V14.8756L20.6996 14.4247H21.0285ZM22.3537 14.4247V17.1406H22.0248V14.7695H22.0089L21.3458 15.2098V14.8756L22.0248 14.4247H22.3537ZM23.6098 17.1778C23.41 17.1778 23.2398 17.1234 23.0993 17.0146C22.9587 16.905 22.8513 16.7463 22.777 16.5386C22.7028 16.3299 22.6656 16.0779 22.6656 15.7826C22.6656 15.4891 22.7028 15.2385 22.777 15.0307C22.8522 14.8221 22.96 14.6629 23.1006 14.5533C23.2421 14.4428 23.4118 14.3875 23.6098 14.3875C23.8079 14.3875 23.9772 14.4428 24.1178 14.5533C24.2592 14.6629 24.3671 14.8221 24.4413 15.0307C24.5165 15.2385 24.5541 15.4891 24.5541 15.7826C24.5541 16.0779 24.5169 16.3299 24.4427 16.5386C24.3684 16.7463 24.261 16.905 24.1204 17.0146C23.9798 17.1234 23.8096 17.1778 23.6098 17.1778ZM23.6098 16.886C23.8079 16.886 23.9617 16.7905 24.0713 16.5996C24.181 16.4086 24.2358 16.1363 24.2358 15.7826C24.2358 15.5475 24.2106 15.3472 24.1602 15.1819C24.1107 15.0166 24.0391 14.8906 23.9454 14.8039C23.8525 14.7173 23.7407 14.674 23.6098 14.674C23.4136 14.674 23.2602 14.7708 23.1497 14.9644C23.0392 15.1571 22.9839 15.4299 22.9839 15.7826C22.9839 16.0178 23.0087 16.2176 23.0582 16.3821C23.1077 16.5465 23.1788 16.6716 23.2717 16.7574C23.3654 16.8431 23.4781 16.886 23.6098 16.886ZM25.5331 17.1778C25.3333 17.1778 25.1631 17.1234 25.0225 17.0146C24.8819 16.905 24.7745 16.7463 24.7003 16.5386C24.626 16.3299 24.5889 16.0779 24.5889 15.7826C24.5889 15.4891 24.626 15.2385 24.7003 15.0307C24.7754 14.8221 24.8833 14.6629 25.0238 14.5533C25.1653 14.4428 25.335 14.3875 25.5331 14.3875C25.7311 14.3875 25.9004 14.4428 26.041 14.5533C26.1824 14.6629 26.2903 14.8221 26.3646 15.0307C26.4397 15.2385 26.4773 15.4891 26.4773 15.7826C26.4773 16.0779 26.4402 16.3299 26.3659 16.5386C26.2916 16.7463 26.1842 16.905 26.0436 17.0146C25.9031 17.1234 25.7329 17.1778 25.5331 17.1778ZM25.5331 16.886C25.7311 16.886 25.8849 16.7905 25.9946 16.5996C26.1042 16.4086 26.159 16.1363 26.159 15.7826C26.159 15.5475 26.1338 15.3472 26.0834 15.1819C26.0339 15.0166 25.9623 14.8906 25.8686 14.8039C25.7758 14.7173 25.6639 14.674 25.5331 14.674C25.3368 14.674 25.1834 14.7708 25.0729 14.9644C24.9624 15.1571 24.9071 15.4299 24.9071 15.7826C24.9071 16.0178 24.9319 16.2176 24.9814 16.3821C25.0309 16.5465 25.1021 16.6716 25.1949 16.7574C25.2886 16.8431 25.4013 16.886 25.5331 16.886ZM27.5253 14.4247V17.1406H27.1964V14.7695H27.1805L26.5174 15.2098V14.8756L27.1964 14.4247H27.5253ZM28.7815 17.1778C28.5816 17.1778 28.4115 17.1234 28.2709 17.0146C28.1303 16.905 28.0229 16.7463 27.9486 16.5386C27.8744 16.3299 27.8372 16.0779 27.8372 15.7826C27.8372 15.4891 27.8744 15.2385 27.9486 15.0307C28.0238 14.8221 28.1316 14.6629 28.2722 14.5533C28.4137 14.4428 28.5834 14.3875 28.7815 14.3875C28.9795 14.3875 29.1488 14.4428 29.2894 14.5533C29.4308 14.6629 29.5387 14.8221 29.6129 15.0307C29.6881 15.2385 29.7257 15.4891 29.7257 15.7826C29.7257 16.0779 29.6885 16.3299 29.6143 16.5386C29.54 16.7463 29.4326 16.905 29.292 17.0146C29.1514 17.1234 28.9813 17.1778 28.7815 17.1778ZM28.7815 16.886C28.9795 16.886 29.1333 16.7905 29.243 16.5996C29.3526 16.4086 29.4074 16.1363 29.4074 15.7826C29.4074 15.5475 29.3822 15.3472 29.3318 15.1819C29.2823 15.0166 29.2107 14.8906 29.117 14.8039C29.0241 14.7173 28.9123 14.674 28.7815 14.674C28.5852 14.674 28.4318 14.7708 28.3213 14.9644C28.2108 15.1571 28.1555 15.4299 28.1555 15.7826C28.1555 16.0178 28.1803 16.2176 28.2298 16.3821C28.2793 16.5465 28.3505 16.6716 28.4433 16.7574C28.537 16.8431 28.6497 16.886 28.7815 16.886ZM20.9596 20.1778C20.7597 20.1778 20.5896 20.1234 20.449 20.0146C20.3084 19.905 20.201 19.7463 20.1267 19.5386C20.0525 19.3299 20.0153 19.0779 20.0153 18.7826C20.0153 18.4891 20.0525 18.2385 20.1267 18.0307C20.2019 17.8221 20.3097 17.6629 20.4503 17.5533C20.5918 17.4428 20.7615 17.3875 20.9596 17.3875C21.1576 17.3875 21.3269 17.4428 21.4675 17.5533C21.6089 17.6629 21.7168 17.8221 21.791 18.0307C21.8662 18.2385 21.9038 18.4891 21.9038 18.7826C21.9038 19.0779 21.8666 19.3299 21.7924 19.5386C21.7181 19.7463 21.6107 19.905 21.4701 20.0146C21.3295 20.1234 21.1594 20.1778 20.9596 20.1778ZM20.9596 19.886C21.1576 19.886 21.3114 19.7905 21.4211 19.5996C21.5307 19.4086 21.5855 19.1363 21.5855 18.7826C21.5855 18.5475 21.5603 18.3472 21.5099 18.1819C21.4604 18.0166 21.3888 17.8906 21.2951 17.8039C21.2022 17.7173 21.0904 17.674 20.9596 17.674C20.7633 17.674 20.6099 17.7708 20.4994 17.9644C20.3889 18.1571 20.3336 18.4299 20.3336 18.7826C20.3336 19.0178 20.3584 19.2176 20.4079 19.3821C20.4574 19.5465 20.5286 19.6716 20.6214 19.7574C20.7151 19.8431 20.8278 19.886 20.9596 19.886ZM22.9144 17.4247V20.1406H22.5855V17.7695H22.5696L21.9065 18.2098V17.8756L22.5855 17.4247H22.9144ZM24.2022 17.4247V20.1406H23.8733V17.7695H23.8574L23.1943 18.2098V17.8756L23.8733 17.4247H24.2022ZM25.421 20.1778C25.2212 20.1778 25.051 20.1234 24.9105 20.0146C24.7699 19.905 24.6625 19.7463 24.5882 19.5386C24.514 19.3299 24.4768 19.0779 24.4768 18.7826C24.4768 18.4891 24.514 18.2385 24.5882 18.0307C24.6634 17.8221 24.7712 17.6629 24.9118 17.5533C25.0533 17.4428 25.223 17.3875 25.421 17.3875C25.6191 17.3875 25.7884 17.4428 25.929 17.5533C26.0704 17.6629 26.1783 17.8221 26.2525 18.0307C26.3277 18.2385 26.3653 18.4891 26.3653 18.7826C26.3653 19.0779 26.3281 19.3299 26.2539 19.5386C26.1796 19.7463 26.0722 19.905 25.9316 20.0146C25.791 20.1234 25.6208 20.1778 25.421 20.1778ZM25.421 19.886C25.6191 19.886 25.7729 19.7905 25.8825 19.5996C25.9922 19.4086 26.047 19.1363 26.047 18.7826C26.047 18.5475 26.0218 18.3472 25.9714 18.1819C25.9219 18.0166 25.8503 17.8906 25.7566 17.8039C25.6637 17.7173 25.5519 17.674 25.421 17.674C25.2248 17.674 25.0714 17.7708 24.9609 17.9644C24.8504 18.1571 24.7951 18.4299 24.7951 18.7826C24.7951 19.0178 24.8199 19.2176 24.8694 19.3821C24.9189 19.5465 24.99 19.6716 25.0829 19.7574C25.1766 19.8431 25.2893 19.886 25.421 19.886ZM27.3069 20.1778C27.1071 20.1778 26.9369 20.1234 26.7964 20.0146C26.6558 19.905 26.5484 19.7463 26.4741 19.5386C26.3998 19.3299 26.3627 19.0779 26.3627 18.7826C26.3627 18.4891 26.3998 18.2385 26.4741 18.0307C26.5493 17.8221 26.6571 17.6629 26.7977 17.5533C26.9391 17.4428 27.1089 17.3875 27.3069 17.3875C27.505 17.3875 27.6743 17.4428 27.8148 17.5533C27.9563 17.6629 28.0642 17.8221 28.1384 18.0307C28.2136 18.2385 28.2512 18.4891 28.2512 18.7826C28.2512 19.0779 28.214 19.3299 28.1398 19.5386C28.0655 19.7463 27.9581 19.905 27.8175 20.0146C27.6769 20.1234 27.5067 20.1778 27.3069 20.1778ZM27.3069 19.886C27.505 19.886 27.6588 19.7905 27.7684 19.5996C27.8781 19.4086 27.9329 19.1363 27.9329 18.7826C27.9329 18.5475 27.9077 18.3472 27.8573 18.1819C27.8078 18.0166 27.7362 17.8906 27.6424 17.8039C27.5496 17.7173 27.4378 17.674 27.3069 17.674C27.1107 17.674 26.9573 17.7708 26.8468 17.9644C26.7362 18.1571 26.681 18.4299 26.681 18.7826C26.681 19.0178 26.7057 19.2176 26.7553 19.3821C26.8048 19.5465 26.8759 19.6716 26.9688 19.7574C27.0625 19.8431 27.1752 19.886 27.3069 19.886ZM29.2618 17.4247V20.1406H28.9329V17.7695H28.917L28.2539 18.2098V17.8756L28.9329 17.4247H29.2618Z" fill="black"/>
<path d="M20.9596 23.7007C20.7597 23.7007 20.5896 23.6463 20.449 23.5376C20.3084 23.428 20.201 23.2693 20.1267 23.0615C20.0525 22.8529 20.0153 22.6009 20.0153 22.3056C20.0153 22.0121 20.0525 21.7614 20.1267 21.5537C20.2019 21.345 20.3097 21.1859 20.4503 21.0763C20.5918 20.9657 20.7615 20.9105 20.9596 20.9105C21.1576 20.9105 21.3269 20.9657 21.4675 21.0763C21.6089 21.1859 21.7168 21.345 21.791 21.5537C21.8662 21.7614 21.9038 22.0121 21.9038 22.3056C21.9038 22.6009 21.8666 22.8529 21.7924 23.0615C21.7181 23.2693 21.6107 23.428 21.4701 23.5376C21.3295 23.6463 21.1594 23.7007 20.9596 23.7007ZM20.9596 23.409C21.1576 23.409 21.3114 23.3135 21.4211 23.1225C21.5307 22.9315 21.5855 22.6592 21.5855 22.3056C21.5855 22.0704 21.5603 21.8702 21.5099 21.7049C21.4604 21.5395 21.3888 21.4135 21.2951 21.3269C21.2022 21.2403 21.0904 21.1969 20.9596 21.1969C20.7633 21.1969 20.6099 21.2937 20.4994 21.4874C20.3889 21.6801 20.3336 21.9528 20.3336 22.3056C20.3336 22.5408 20.3584 22.7406 20.4079 22.905C20.4574 23.0695 20.5286 23.1946 20.6214 23.2803C20.7151 23.3661 20.8278 23.409 20.9596 23.409ZM22.9144 20.9476V23.6636H22.5855V21.2924H22.5696L21.9065 21.7327V21.3985L22.5855 20.9476H22.9144ZM24.1332 23.7007C23.9334 23.7007 23.7632 23.6463 23.6227 23.5376C23.4821 23.428 23.3747 23.2693 23.3004 23.0615C23.2262 22.8529 23.189 22.6009 23.189 22.3056C23.189 22.0121 23.2262 21.7614 23.3004 21.5537C23.3756 21.345 23.4834 21.1859 23.624 21.0763C23.7655 20.9657 23.9352 20.9105 24.1332 20.9105C24.3313 20.9105 24.5006 20.9657 24.6412 21.0763C24.7826 21.1859 24.8905 21.345 24.9647 21.5537C25.0399 21.7614 25.0775 22.0121 25.0775 22.3056C25.0775 22.6009 25.0403 22.8529 24.9661 23.0615C24.8918 23.2693 24.7844 23.428 24.6438 23.5376C24.5032 23.6463 24.333 23.7007 24.1332 23.7007ZM24.1332 23.409C24.3313 23.409 24.4851 23.3135 24.5947 23.1225C24.7044 22.9315 24.7592 22.6592 24.7592 22.3056C24.7592 22.0704 24.734 21.8702 24.6836 21.7049C24.6341 21.5395 24.5625 21.4135 24.4688 21.3269C24.3759 21.2403 24.2641 21.1969 24.1332 21.1969C23.937 21.1969 23.7836 21.2937 23.6731 21.4874C23.5626 21.6801 23.5073 21.9528 23.5073 22.3056C23.5073 22.5408 23.5321 22.7406 23.5816 22.905C23.6311 23.0695 23.7022 23.1946 23.7951 23.2803C23.8888 23.3661 24.0015 23.409 24.1332 23.409ZM26.0881 20.9476V23.6636H25.7592V21.2924H25.7433L25.0802 21.7327V21.3985L25.7592 20.9476H26.0881ZM27.3759 20.9476V23.6636H27.047V21.2924H27.0311L26.368 21.7327V21.3985L27.047 20.9476H27.3759ZM28.5947 23.7007C28.3949 23.7007 28.2247 23.6463 28.0842 23.5376C27.9436 23.428 27.8362 23.2693 27.7619 23.0615C27.6876 22.8529 27.6505 22.6009 27.6505 22.3056C27.6505 22.0121 27.6876 21.7614 27.7619 21.5537C27.8371 21.345 27.9449 21.1859 28.0855 21.0763C28.2269 20.9657 28.3967 20.9105 28.5947 20.9105C28.7928 20.9105 28.9621 20.9657 29.1026 21.0763C29.2441 21.1859 29.352 21.345 29.4262 21.5537C29.5014 21.7614 29.5389 22.0121 29.5389 22.3056C29.5389 22.6009 29.5018 22.8529 29.4276 23.0615C29.3533 23.2693 29.2459 23.428 29.1053 23.5376C28.9647 23.6463 28.7945 23.7007 28.5947 23.7007ZM28.5947 23.409C28.7928 23.409 28.9466 23.3135 29.0562 23.1225C29.1659 22.9315 29.2207 22.6592 29.2207 22.3056C29.2207 22.0704 29.1955 21.8702 29.1451 21.7049C29.0956 21.5395 29.024 21.4135 28.9302 21.3269C28.8374 21.2403 28.7256 21.1969 28.5947 21.1969C28.3985 21.1969 28.2451 21.2937 28.1346 21.4874C28.024 21.6801 27.9688 21.9528 27.9688 22.3056C27.9688 22.5408 27.9935 22.7406 28.0431 22.905C28.0926 23.0695 28.1637 23.1946 28.2566 23.2803C28.3503 23.3661 28.463 23.409 28.5947 23.409ZM21.0285 23.9476V26.6636H20.6996V24.2924H20.6837L20.0206 24.7327V24.3985L20.6996 23.9476H21.0285ZM22.3163 23.9476V26.6636H21.9874V24.2924H21.9715L21.3084 24.7327V24.3985L21.9874 23.9476H22.3163ZM23.5351 26.7007C23.3353 26.7007 23.1652 26.6463 23.0246 26.5376C22.884 26.428 22.7766 26.2693 22.7023 26.0615C22.6281 25.8529 22.5909 25.6009 22.5909 25.3056C22.5909 25.0121 22.6281 24.7614 22.7023 24.5537C22.7775 24.345 22.8853 24.1859 23.0259 24.0763C23.1674 23.9657 23.3371 23.9105 23.5351 23.9105C23.7332 23.9105 23.9025 23.9657 24.0431 24.0763C24.1845 24.1859 24.2924 24.345 24.3666 24.5537C24.4418 24.7614 24.4794 25.0121 24.4794 25.3056C24.4794 25.6009 24.4422 25.8529 24.368 26.0615C24.2937 26.2693 24.1863 26.428 24.0457 26.5376C23.9051 26.6463 23.735 26.7007 23.5351 26.7007ZM23.5351 26.409C23.7332 26.409 23.887 26.3135 23.9966 26.1225C24.1063 25.9315 24.1611 25.6592 24.1611 25.3056C24.1611 25.0704 24.1359 24.8702 24.0855 24.7049C24.036 24.5395 23.9644 24.4135 23.8707 24.3269C23.7778 24.2403 23.666 24.1969 23.5351 24.1969C23.3389 24.1969 23.1855 24.2937 23.075 24.4874C22.9645 24.6801 22.9092 24.9528 22.9092 25.3056C22.9092 25.5408 22.934 25.7406 22.9835 25.905C23.033 26.0695 23.1042 26.1946 23.197 26.2803C23.2907 26.3661 23.4034 26.409 23.5351 26.409ZM25.421 26.7007C25.2212 26.7007 25.051 26.6463 24.9105 26.5376C24.7699 26.428 24.6625 26.2693 24.5882 26.0615C24.514 25.8529 24.4768 25.6009 24.4768 25.3056C24.4768 25.0121 24.514 24.7614 24.5882 24.5537C24.6634 24.345 24.7712 24.1859 24.9118 24.0763C25.0533 23.9657 25.223 23.9105 25.421 23.9105C25.6191 23.9105 25.7884 23.9657 25.929 24.0763C26.0704 24.1859 26.1783 24.345 26.2525 24.5537C26.3277 24.7614 26.3653 25.0121 26.3653 25.3056C26.3653 25.6009 26.3281 25.8529 26.2539 26.0615C26.1796 26.2693 26.0722 26.428 25.9316 26.5376C25.791 26.6463 25.6208 26.7007 25.421 26.7007ZM25.421 26.409C25.6191 26.409 25.7729 26.3135 25.8825 26.1225C25.9922 25.9315 26.047 25.6592 26.047 25.3056C26.047 25.0704 26.0218 24.8702 25.9714 24.7049C25.9219 24.5395 25.8503 24.4135 25.7566 24.3269C25.6637 24.2403 25.5519 24.1969 25.421 24.1969C25.2248 24.1969 25.0714 24.2937 24.9609 24.4874C24.8504 24.6801 24.7951 24.9528 24.7951 25.3056C24.7951 25.5408 24.8199 25.7406 24.8694 25.905C24.9189 26.0695 24.99 26.1946 25.0829 26.2803C25.1766 26.3661 25.2893 26.409 25.421 26.409ZM27.3759 23.9476V26.6636H27.047V24.2924H27.0311L26.368 24.7327V24.3985L27.047 23.9476H27.3759ZM28.5947 26.7007C28.3949 26.7007 28.2247 26.6463 28.0842 26.5376C27.9436 26.428 27.8362 26.2693 27.7619 26.0615C27.6876 25.8529 27.6505 25.6009 27.6505 25.3056C27.6505 25.0121 27.6876 24.7614 27.7619 24.5537C27.8371 24.345 27.9449 24.1859 28.0855 24.0763C28.2269 23.9657 28.3967 23.9105 28.5947 23.9105C28.7928 23.9105 28.9621 23.9657 29.1026 24.0763C29.2441 24.1859 29.352 24.345 29.4262 24.5537C29.5014 24.7614 29.5389 25.0121 29.5389 25.3056C29.5389 25.6009 29.5018 25.8529 29.4276 26.0615C29.3533 26.2693 29.2459 26.428 29.1053 26.5376C28.9647 26.6463 28.7945 26.7007 28.5947 26.7007ZM28.5947 26.409C28.7928 26.409 28.9466 26.3135 29.0562 26.1225C29.1659 25.9315 29.2207 25.6592 29.2207 25.3056C29.2207 25.0704 29.1955 24.8702 29.1451 24.7049C29.0956 24.5395 29.024 24.4135 28.9302 24.3269C28.8374 24.2403 28.7256 24.1969 28.5947 24.1969C28.3985 24.1969 28.2451 24.2937 28.1346 24.4874C28.024 24.6801 27.9688 24.9528 27.9688 25.3056C27.9688 25.5408 27.9935 25.7406 28.0431 25.905C28.0926 26.0695 28.1637 26.1946 28.2566 26.2803C28.3503 26.3661 28.463 26.409 28.5947 26.409ZM20.9596 29.7007C20.7597 29.7007 20.5896 29.6463 20.449 29.5376C20.3084 29.428 20.201 29.2693 20.1267 29.0615C20.0525 28.8529 20.0153 28.6009 20.0153 28.3056C20.0153 28.0121 20.0525 27.7614 20.1267 27.5537C20.2019 27.345 20.3097 27.1859 20.4503 27.0763C20.5918 26.9657 20.7615 26.9105 20.9596 26.9105C21.1576 26.9105 21.3269 26.9657 21.4675 27.0763C21.6089 27.1859 21.7168 27.345 21.791 27.5537C21.8662 27.7614 21.9038 28.0121 21.9038 28.3056C21.9038 28.6009 21.8666 28.8529 21.7924 29.0615C21.7181 29.2693 21.6107 29.428 21.4701 29.5376C21.3295 29.6463 21.1594 29.7007 20.9596 29.7007ZM20.9596 29.409C21.1576 29.409 21.3114 29.3135 21.4211 29.1225C21.5307 28.9315 21.5855 28.6592 21.5855 28.3056C21.5855 28.0704 21.5603 27.8702 21.5099 27.7049C21.4604 27.5395 21.3888 27.4135 21.2951 27.3269C21.2022 27.2403 21.0904 27.1969 20.9596 27.1969C20.7633 27.1969 20.6099 27.2937 20.4994 27.4874C20.3889 27.6801 20.3336 27.9528 20.3336 28.3056C20.3336 28.5408 20.3584 28.7406 20.4079 28.905C20.4574 29.0695 20.5286 29.1946 20.6214 29.2803C20.7151 29.3661 20.8278 29.409 20.9596 29.409ZM22.9144 26.9476V29.6636H22.5855V27.2924H22.5696L21.9065 27.7327V27.3985L22.5855 26.9476H22.9144ZM24.2022 26.9476V29.6636H23.8733V27.2924H23.8574L23.1943 27.7327V27.3985L23.8733 26.9476H24.2022ZM25.421 29.7007C25.2212 29.7007 25.051 29.6463 24.9105 29.5376C24.7699 29.428 24.6625 29.2693 24.5882 29.0615C24.514 28.8529 24.4768 28.6009 24.4768 28.3056C24.4768 28.0121 24.514 27.7614 24.5882 27.5537C24.6634 27.345 24.7712 27.1859 24.9118 27.0763C25.0533 26.9657 25.223 26.9105 25.421 26.9105C25.6191 26.9105 25.7884 26.9657 25.929 27.0763C26.0704 27.1859 26.1783 27.345 26.2525 27.5537C26.3277 27.7614 26.3653 28.0121 26.3653 28.3056C26.3653 28.6009 26.3281 28.8529 26.2539 29.0615C26.1796 29.2693 26.0722 29.428 25.9316 29.5376C25.791 29.6463 25.6208 29.7007 25.421 29.7007ZM25.421 29.409C25.6191 29.409 25.7729 29.3135 25.8825 29.1225C25.9922 28.9315 26.047 28.6592 26.047 28.3056C26.047 28.0704 26.0218 27.8702 25.9714 27.7049C25.9219 27.5395 25.8503 27.4135 25.7566 27.3269C25.6637 27.2403 25.5519 27.1969 25.421 27.1969C25.2248 27.1969 25.0714 27.2937 24.9609 27.4874C24.8504 27.6801 24.7951 27.9528 24.7951 28.3056C24.7951 28.5408 24.8199 28.7406 24.8694 28.905C24.9189 29.0695 24.99 29.1946 25.0829 29.2803C25.1766 29.3661 25.2893 29.409 25.421 29.409ZM27.3069 29.7007C27.1071 29.7007 26.9369 29.6463 26.7964 29.5376C26.6558 29.428 26.5484 29.2693 26.4741 29.0615C26.3998 28.8529 26.3627 28.6009 26.3627 28.3056C26.3627 28.0121 26.3998 27.7614 26.4741 27.5537C26.5493 27.345 26.6571 27.1859 26.7977 27.0763C26.9391 26.9657 27.1089 26.9105 27.3069 26.9105C27.505 26.9105 27.6743 26.9657 27.8148 27.0763C27.9563 27.1859 28.0642 27.345 28.1384 27.5537C28.2136 27.7614 28.2512 28.0121 28.2512 28.3056C28.2512 28.6009 28.214 28.8529 28.1398 29.0615C28.0655 29.2693 27.9581 29.428 27.8175 29.5376C27.6769 29.6463 27.5067 29.7007 27.3069 29.7007ZM27.3069 29.409C27.505 29.409 27.6588 29.3135 27.7684 29.1225C27.8781 28.9315 27.9329 28.6592 27.9329 28.3056C27.9329 28.0704 27.9077 27.8702 27.8573 27.7049C27.8078 27.5395 27.7362 27.4135 27.6424 27.3269C27.5496 27.2403 27.4378 27.1969 27.3069 27.1969C27.1107 27.1969 26.9573 27.2937 26.8468 27.4874C26.7362 27.6801 26.681 27.9528 26.681 28.3056C26.681 28.5408 26.7057 28.7406 26.7553 28.905C26.8048 29.0695 26.8759 29.1946 26.9688 29.2803C27.0625 29.3661 27.1752 29.409 27.3069 29.409ZM29.2618 26.9476V29.6636H28.9329V27.2924H28.917L28.2539 27.7327V27.3985L28.9329 26.9476H29.2618Z" fill="black"/>
<path d="M11.1256 23.7007C10.9258 23.7007 10.7556 23.6463 10.615 23.5376C10.4744 23.428 10.367 23.2693 10.2927 23.0615C10.2185 22.8529 10.1814 22.6009 10.1814 22.3056C10.1814 22.0121 10.2185 21.7614 10.2927 21.5537C10.3679 21.345 10.4758 21.1859 10.6163 21.0763C10.7578 20.9657 10.9275 20.9105 11.1256 20.9105C11.3236 20.9105 11.4929 20.9657 11.6335 21.0763C11.7749 21.1859 11.8828 21.345 11.9571 21.5537C12.0322 21.7614 12.0698 22.0121 12.0698 22.3056C12.0698 22.6009 12.0327 22.8529 11.9584 23.0615C11.8841 23.2693 11.7767 23.428 11.6361 23.5376C11.4956 23.6463 11.3254 23.7007 11.1256 23.7007ZM11.1256 23.409C11.3236 23.409 11.4774 23.3135 11.5871 23.1225C11.6967 22.9315 11.7515 22.6592 11.7515 22.3056C11.7515 22.0704 11.7263 21.8702 11.6759 21.7049C11.6264 21.5395 11.5548 21.4135 11.4611 21.3269C11.3683 21.2403 11.2564 21.1969 11.1256 21.1969C10.9293 21.1969 10.7759 21.2937 10.6654 21.4874C10.5549 21.6801 10.4996 21.9528 10.4996 22.3056C10.4996 22.5408 10.5244 22.7406 10.5739 22.905C10.6234 23.0695 10.6946 23.1946 10.7874 23.2803C10.8811 23.3661 10.9938 23.409 11.1256 23.409ZM13.0804 20.9476V23.6636H12.7515V21.2924H12.7356L12.0725 21.7327V21.3985L12.7515 20.9476H13.0804ZM14.2993 23.7007C14.0995 23.7007 13.9293 23.6463 13.7887 23.5376C13.6481 23.428 13.5407 23.2693 13.4664 23.0615C13.3922 22.8529 13.355 22.6009 13.355 22.3056C13.355 22.0121 13.3922 21.7614 13.4664 21.5537C13.5416 21.345 13.6494 21.1859 13.79 21.0763C13.9315 20.9657 14.1012 20.9105 14.2993 20.9105C14.4973 20.9105 14.6666 20.9657 14.8072 21.0763C14.9486 21.1859 15.0565 21.345 15.1308 21.5537C15.2059 21.7614 15.2435 22.0121 15.2435 22.3056C15.2435 22.6009 15.2063 22.8529 15.1321 23.0615C15.0578 23.2693 14.9504 23.428 14.8098 23.5376C14.6693 23.6463 14.4991 23.7007 14.2993 23.7007ZM14.2993 23.409C14.4973 23.409 14.6511 23.3135 14.7608 23.1225C14.8704 22.9315 14.9252 22.6592 14.9252 22.3056C14.9252 22.0704 14.9 21.8702 14.8496 21.7049C14.8001 21.5395 14.7285 21.4135 14.6348 21.3269C14.5419 21.2403 14.4301 21.1969 14.2993 21.1969C14.103 21.1969 13.9496 21.2937 13.8391 21.4874C13.7286 21.6801 13.6733 21.9528 13.6733 22.3056C13.6733 22.5408 13.6981 22.7406 13.7476 22.905C13.7971 23.0695 13.8683 23.1946 13.9611 23.2803C14.0548 23.3661 14.1675 23.409 14.2993 23.409ZM16.2541 20.9476V23.6636H15.9252V21.2924H15.9093L15.2462 21.7327V21.3985L15.9252 20.9476H16.2541ZM17.5419 20.9476V23.6636H17.213V21.2924H17.1971L16.534 21.7327V21.3985L17.213 20.9476H17.5419ZM18.7607 23.7007C18.5609 23.7007 18.3908 23.6463 18.2502 23.5376C18.1096 23.428 18.0022 23.2693 17.9279 23.0615C17.8537 22.8529 17.8165 22.6009 17.8165 22.3056C17.8165 22.0121 17.8537 21.7614 17.9279 21.5537C18.0031 21.345 18.1109 21.1859 18.2515 21.0763C18.393 20.9657 18.5627 20.9105 18.7607 20.9105C18.9588 20.9105 19.1281 20.9657 19.2687 21.0763C19.4101 21.1859 19.518 21.345 19.5922 21.5537C19.6674 21.7614 19.705 22.0121 19.705 22.3056C19.705 22.6009 19.6678 22.8529 19.5936 23.0615C19.5193 23.2693 19.4119 23.428 19.2713 23.5376C19.1307 23.6463 18.9606 23.7007 18.7607 23.7007ZM18.7607 23.409C18.9588 23.409 19.1126 23.3135 19.2222 23.1225C19.3319 22.9315 19.3867 22.6592 19.3867 22.3056C19.3867 22.0704 19.3615 21.8702 19.3111 21.7049C19.2616 21.5395 19.19 21.4135 19.0963 21.3269C19.0034 21.2403 18.8916 21.1969 18.7607 21.1969C18.5645 21.1969 18.4111 21.2937 18.3006 21.4874C18.1901 21.6801 18.1348 21.9528 18.1348 22.3056C18.1348 22.5408 18.1596 22.7406 18.2091 22.905C18.2586 23.0695 18.3297 23.1946 18.4226 23.2803C18.5163 23.3661 18.629 23.409 18.7607 23.409ZM11.1945 23.9476V26.6636H10.8656V24.2924H10.8497L10.1867 24.7327V24.3985L10.8656 23.9476H11.1945ZM12.4823 23.9476V26.6636H12.1534V24.2924H12.1375L11.4745 24.7327V24.3985L12.1534 23.9476H12.4823ZM13.7012 26.7007C13.5014 26.7007 13.3312 26.6463 13.1906 26.5376C13.05 26.428 12.9426 26.2693 12.8683 26.0615C12.7941 25.8529 12.7569 25.6009 12.7569 25.3056C12.7569 25.0121 12.7941 24.7614 12.8683 24.5537C12.9435 24.345 13.0514 24.1859 13.1919 24.0763C13.3334 23.9657 13.5031 23.9105 13.7012 23.9105C13.8992 23.9105 14.0685 23.9657 14.2091 24.0763C14.3505 24.1859 14.4584 24.345 14.5327 24.5537C14.6078 24.7614 14.6454 25.0121 14.6454 25.3056C14.6454 25.6009 14.6083 25.8529 14.534 26.0615C14.4597 26.2693 14.3523 26.428 14.2117 26.5376C14.0712 26.6463 13.901 26.7007 13.7012 26.7007ZM13.7012 26.409C13.8992 26.409 14.053 26.3135 14.1627 26.1225C14.2723 25.9315 14.3271 25.6592 14.3271 25.3056C14.3271 25.0704 14.3019 24.8702 14.2515 24.7049C14.202 24.5395 14.1304 24.4135 14.0367 24.3269C13.9439 24.2403 13.832 24.1969 13.7012 24.1969C13.5049 24.1969 13.3515 24.2937 13.241 24.4874C13.1305 24.6801 13.0752 24.9528 13.0752 25.3056C13.0752 25.5408 13.1 25.7406 13.1495 25.905C13.199 26.0695 13.2702 26.1946 13.363 26.2803C13.4567 26.3661 13.5694 26.409 13.7012 26.409ZM15.5871 26.7007C15.3873 26.7007 15.2171 26.6463 15.0765 26.5376C14.9359 26.428 14.8285 26.2693 14.7542 26.0615C14.68 25.8529 14.6428 25.6009 14.6428 25.3056C14.6428 25.0121 14.68 24.7614 14.7542 24.5537C14.8294 24.345 14.9372 24.1859 15.0778 24.0763C15.2193 23.9657 15.389 23.9105 15.5871 23.9105C15.7851 23.9105 15.9544 23.9657 16.095 24.0763C16.2364 24.1859 16.3443 24.345 16.4186 24.5537C16.4937 24.7614 16.5313 25.0121 16.5313 25.3056C16.5313 25.6009 16.4941 25.8529 16.4199 26.0615C16.3456 26.2693 16.2382 26.428 16.0976 26.5376C15.9571 26.6463 15.7869 26.7007 15.5871 26.7007ZM15.5871 26.409C15.7851 26.409 15.9389 26.3135 16.0486 26.1225C16.1582 25.9315 16.213 25.6592 16.213 25.3056C16.213 25.0704 16.1878 24.8702 16.1374 24.7049C16.0879 24.5395 16.0163 24.4135 15.9226 24.3269C15.8297 24.2403 15.7179 24.1969 15.5871 24.1969C15.3908 24.1969 15.2374 24.2937 15.1269 24.4874C15.0164 24.6801 14.9611 24.9528 14.9611 25.3056C14.9611 25.5408 14.9859 25.7406 15.0354 25.905C15.0849 26.0695 15.1561 26.1946 15.2489 26.2803C15.3426 26.3661 15.4553 26.409 15.5871 26.409ZM17.5419 23.9476V26.6636H17.213V24.2924H17.1971L16.534 24.7327V24.3985L17.213 23.9476H17.5419ZM18.7607 26.7007C18.5609 26.7007 18.3908 26.6463 18.2502 26.5376C18.1096 26.428 18.0022 26.2693 17.9279 26.0615C17.8537 25.8529 17.8165 25.6009 17.8165 25.3056C17.8165 25.0121 17.8537 24.7614 17.9279 24.5537C18.0031 24.345 18.1109 24.1859 18.2515 24.0763C18.393 23.9657 18.5627 23.9105 18.7607 23.9105C18.9588 23.9105 19.1281 23.9657 19.2687 24.0763C19.4101 24.1859 19.518 24.345 19.5922 24.5537C19.6674 24.7614 19.705 25.0121 19.705 25.3056C19.705 25.6009 19.6678 25.8529 19.5936 26.0615C19.5193 26.2693 19.4119 26.428 19.2713 26.5376C19.1307 26.6463 18.9606 26.7007 18.7607 26.7007ZM18.7607 26.409C18.9588 26.409 19.1126 26.3135 19.2222 26.1225C19.3319 25.9315 19.3867 25.6592 19.3867 25.3056C19.3867 25.0704 19.3615 24.8702 19.3111 24.7049C19.2616 24.5395 19.19 24.4135 19.0963 24.3269C19.0034 24.2403 18.8916 24.1969 18.7607 24.1969C18.5645 24.1969 18.4111 24.2937 18.3006 24.4874C18.1901 24.6801 18.1348 24.9528 18.1348 25.3056C18.1348 25.5408 18.1596 25.7406 18.2091 25.905C18.2586 26.0695 18.3297 26.1946 18.4226 26.2803C18.5163 26.3661 18.629 26.409 18.7607 26.409ZM11.1256 29.7007C10.9258 29.7007 10.7556 29.6463 10.615 29.5376C10.4744 29.428 10.367 29.2693 10.2927 29.0615C10.2185 28.8529 10.1814 28.6009 10.1814 28.3056C10.1814 28.0121 10.2185 27.7614 10.2927 27.5537C10.3679 27.345 10.4758 27.1859 10.6163 27.0763C10.7578 26.9657 10.9275 26.9105 11.1256 26.9105C11.3236 26.9105 11.4929 26.9657 11.6335 27.0763C11.7749 27.1859 11.8828 27.345 11.9571 27.5537C12.0322 27.7614 12.0698 28.0121 12.0698 28.3056C12.0698 28.6009 12.0327 28.8529 11.9584 29.0615C11.8841 29.2693 11.7767 29.428 11.6361 29.5376C11.4956 29.6463 11.3254 29.7007 11.1256 29.7007ZM11.1256 29.409C11.3236 29.409 11.4774 29.3135 11.5871 29.1225C11.6967 28.9315 11.7515 28.6592 11.7515 28.3056C11.7515 28.0704 11.7263 27.8702 11.6759 27.7049C11.6264 27.5395 11.5548 27.4135 11.4611 27.3269C11.3683 27.2403 11.2564 27.1969 11.1256 27.1969C10.9293 27.1969 10.7759 27.2937 10.6654 27.4874C10.5549 27.6801 10.4996 27.9528 10.4996 28.3056C10.4996 28.5408 10.5244 28.7406 10.5739 28.905C10.6234 29.0695 10.6946 29.1946 10.7874 29.2803C10.8811 29.3661 10.9938 29.409 11.1256 29.409ZM13.0804 26.9476V29.6636H12.7515V27.2924H12.7356L12.0725 27.7327V27.3985L12.7515 26.9476H13.0804ZM14.3682 26.9476V29.6636H14.0393V27.2924H14.0234L13.3603 27.7327V27.3985L14.0393 26.9476H14.3682ZM15.5871 29.7007C15.3873 29.7007 15.2171 29.6463 15.0765 29.5376C14.9359 29.428 14.8285 29.2693 14.7542 29.0615C14.68 28.8529 14.6428 28.6009 14.6428 28.3056C14.6428 28.0121 14.68 27.7614 14.7542 27.5537C14.8294 27.345 14.9372 27.1859 15.0778 27.0763C15.2193 26.9657 15.389 26.9105 15.5871 26.9105C15.7851 26.9105 15.9544 26.9657 16.095 27.0763C16.2364 27.1859 16.3443 27.345 16.4186 27.5537C16.4937 27.7614 16.5313 28.0121 16.5313 28.3056C16.5313 28.6009 16.4941 28.8529 16.4199 29.0615C16.3456 29.2693 16.2382 29.428 16.0976 29.5376C15.9571 29.6463 15.7869 29.7007 15.5871 29.7007ZM15.5871 29.409C15.7851 29.409 15.9389 29.3135 16.0486 29.1225C16.1582 28.9315 16.213 28.6592 16.213 28.3056C16.213 28.0704 16.1878 27.8702 16.1374 27.7049C16.0879 27.5395 16.0163 27.4135 15.9226 27.3269C15.8297 27.2403 15.7179 27.1969 15.5871 27.1969C15.3908 27.1969 15.2374 27.2937 15.1269 27.4874C15.0164 27.6801 14.9611 27.9528 14.9611 28.3056C14.9611 28.5408 14.9859 28.7406 15.0354 28.905C15.0849 29.0695 15.1561 29.1946 15.2489 29.2803C15.3426 29.3661 15.4553 29.409 15.5871 29.409ZM17.4729 29.7007C17.2731 29.7007 17.103 29.6463 16.9624 29.5376C16.8218 29.428 16.7144 29.2693 16.6401 29.0615C16.5659 28.8529 16.5287 28.6009 16.5287 28.3056C16.5287 28.0121 16.5659 27.7614 16.6401 27.5537C16.7153 27.345 16.8231 27.1859 16.9637 27.0763C17.1052 26.9657 17.2749 26.9105 17.4729 26.9105C17.671 26.9105 17.8403 26.9657 17.9809 27.0763C18.1223 27.1859 18.2302 27.345 18.3044 27.5537C18.3796 27.7614 18.4172 28.0121 18.4172 28.3056C18.4172 28.6009 18.38 28.8529 18.3058 29.0615C18.2315 29.2693 18.1241 29.428 17.9835 29.5376C17.8429 29.6463 17.6728 29.7007 17.4729 29.7007ZM17.4729 29.409C17.671 29.409 17.8248 29.3135 17.9344 29.1225C18.0441 28.9315 18.0989 28.6592 18.0989 28.3056C18.0989 28.0704 18.0737 27.8702 18.0233 27.7049C17.9738 27.5395 17.9022 27.4135 17.8085 27.3269C17.7156 27.2403 17.6038 27.1969 17.4729 27.1969C17.2767 27.1969 17.1233 27.2937 17.0128 27.4874C16.9023 27.6801 16.847 27.9528 16.847 28.3056C16.847 28.5408 16.8718 28.7406 16.9213 28.905C16.9708 29.0695 17.0419 29.1946 17.1348 29.2803C17.2285 29.3661 17.3412 29.409 17.4729 29.409ZM19.4278 26.9476V29.6636H19.0989V27.2924H19.083L18.4199 27.7327V27.3985L19.0989 26.9476H19.4278Z" fill="black"/>
</svg>
