<svg width="100" height="27" viewBox="0 0 100 27" fill="none" xmlns="http://www.w3.org/2000/svg">
<path d="M27.0384 26.9251H21.8699L18.7517 19.0236H8.07307L4.74133 26.9251H0L10.9777 0H15.9753L27.0384 26.9251ZM17.3421 15.4286L13.626 4.83079H13.4551L9.39722 15.4286H17.3421Z" fill="black"/>
<path d="M51.2214 0.074895L40.5 27H35.3742L24.6101 0.074895H29.6505L37.809 21.8696L38.1507 21.8322L45.3359 2.67047C45.9213 1.10922 47.4138 0.074895 49.0812 0.074895H51.2214Z" fill="black"/>
<path d="M72.9829 26.9626H55V0.0374475H72.5557V3.63246H59.6986V11.0846H72.0432V14.6796H59.6986V23.3675H72.9829V26.9626Z" fill="black"/>
<path d="M100 26.9626H94.7461L87.1429 16.6269L79.5397 26.9626H74.2431L84.4519 12.8821L75.1828 0.0374475H80.4367L87.1429 9.2122L91.9676 2.5264C93.0955 0.963419 94.9055 0.0374475 96.833 0.0374475H98.9748L89.7912 12.8821L100 26.9626Z" fill="black"/>
</svg>
