<svg xmlns="http://www.w3.org/2000/svg" width="203" height="76" viewBox="0 0 203 76" fill="none">
<path d="M31.7313 1.3055C29.845 2.31606 27.4197 2.98976 25.8028 2.98976C19.4026 2.98976 10.5097 6.49301 5.59172 10.9394C-1.95373 17.7438 -1.01055 26.5693 7.27598 26.5693C8.48864 26.5693 9.90341 26.2325 10.4424 25.8956C11.2508 25.3567 11.1834 25.2219 10.0382 25.2219C7.47809 25.2219 5.05276 22.7292 5.05276 20.1018C5.05276 16.868 6.46754 14.4427 10.4424 10.8721C14.0804 7.57093 19.3352 5.21297 24.5227 4.53927L27.6218 4.13505L25.8701 6.08879C22.7037 9.59204 19.9416 14.1732 14.6867 24.6156C9.36445 35.1927 6.40017 39.1002 2.22322 41.0539L0 42.0645L2.69481 41.6602C6.87176 41.0539 12.3961 38.0222 14.8214 34.9906C17.3141 32.0263 18.9984 28.8599 23.4448 18.7544C26.2744 12.3542 30.8555 4.33716 31.664 4.33716C31.8661 4.33716 33.0788 4.74138 34.2914 5.28035C40.8263 7.97515 39.9505 15.7901 32.7419 19.6302C31.125 20.506 28.6323 21.1797 27.1502 21.1797C25.7354 21.1797 24.5901 21.4492 24.5901 21.8534C24.5901 22.1903 25.5333 22.5271 26.6786 22.5271C29.1713 22.5271 32.6745 25.7609 32.6745 28.0515C32.6072 30.6789 30.2492 35.058 27.8913 36.7422C25.4659 38.4265 20.2784 38.9654 16.371 37.8201C13.5414 37.0791 14.0804 38.4938 17.0447 39.437C21.1542 40.8518 28.4976 40.5149 31.7987 38.8307C35.5714 36.877 37.0536 34.519 37.0536 30.4094C37.0536 27.4451 36.7841 26.9062 34.4935 24.7503C33.0788 23.4703 32.0008 22.325 32.1356 22.2576C32.2703 22.1903 33.6851 21.7187 35.2346 21.2471C36.8515 20.7755 39.2768 19.4281 40.6242 18.148C42.8474 16.1269 43.1169 15.5206 43.1169 12.5563C43.1169 10.131 42.7127 8.78359 41.7695 7.70567C40.0853 5.88668 35.9083 3.66346 34.0219 3.66346C32.2703 3.66346 32.2703 2.65291 34.1567 1.37288C36.7167 -0.446117 35.0325 -0.446117 31.7313 1.3055Z" fill="white"/>
<path d="M193.891 9.52475C192.14 10.5353 190.86 11.8153 190.59 12.7585C190.388 13.6343 189.175 14.9817 187.895 15.7228C185.403 17.205 184.594 19.0913 187.02 17.8113C187.761 17.3397 188.502 17.1376 188.637 17.2723C188.771 17.4071 187.828 20.8429 186.615 24.8178C185.335 28.86 184.257 32.8348 184.257 33.7106C184.257 35.3949 186.548 37.3486 188.502 37.3486C190.119 37.3486 195.037 34.7886 195.037 33.9128C195.037 33.5085 194.632 33.5085 193.757 33.9801C192.072 34.8559 189.849 34.8559 189.31 33.9801C189.108 33.5759 190.051 29.8705 191.399 25.6262L193.959 17.946L197.462 17.4744C199.416 17.2723 201.369 16.5986 201.841 16.0597C202.515 15.2512 202.043 15.1165 198.809 15.1165C196.721 15.1165 195.037 15.0491 195.037 14.9144C195.037 14.7796 195.508 13.2301 196.115 11.4785C196.721 9.72686 197.125 8.24472 196.99 8.10998C196.856 8.04261 195.441 8.64894 193.891 9.52475Z" fill="white"/>
<path d="M113.384 9.79425C111.7 10.6701 110.824 11.6132 110.487 13.028C110.218 14.3754 109.611 15.1165 108.668 15.2512C106.984 15.5207 106.176 17.1376 107.725 17.1376C108.331 17.1376 108.803 17.4071 108.803 17.7439C108.803 18.5524 104.828 31.4874 104.154 32.5654C103.413 33.9801 100.112 34.9907 99.2364 34.1149C98.6974 33.5759 101.325 24.2115 104.559 15.3186C104.761 14.847 104.357 14.6449 103.615 14.7796C102.942 14.9144 101.257 15.2512 99.9101 15.4533C97.7542 15.7902 97.4848 15.9923 98.0911 17.0029C98.6301 17.8787 98.2932 19.5629 96.6763 24.0094C95.0594 28.5232 93.9815 30.4095 91.893 32.2959C89.1982 34.7212 86.7729 35.3275 86.1666 33.778C86.0318 33.3064 87.3119 28.7253 89.1309 23.6725L92.432 14.4428L89.6698 14.9144C86.7055 15.3186 83.6739 16.3292 85.0886 16.3965C86.3687 16.4639 86.0318 18.2155 83.2697 26.2326C81.0464 32.5654 80.4401 33.7107 78.8906 34.2496C75.5221 35.5297 75.3873 34.1149 78.419 25.0873C79.9011 20.5061 81.1812 16.4639 81.1812 16.0597C81.1812 14.6449 74.4442 14.3081 70.402 15.5207C65.0797 17.0702 60.0943 22.2577 58.4774 27.9842C57.3321 31.8917 57.0627 32.2285 54.3005 33.4412C52.6162 34.1149 50.0562 34.856 48.5066 35.1254C45.2055 35.5297 43.9255 34.4517 44.2623 31.218C44.4644 29.3316 44.8013 28.9274 46.8224 28.4558C48.1024 28.1863 50.3256 27.58 51.673 27.2431C56.8605 25.761 61.2396 20.1019 59.5554 16.9355C58.4101 14.847 57.669 14.4428 54.7047 14.4428C48.0351 14.4428 41.2307 20.6408 39.5464 28.2537C37.7274 36.6076 44.0602 39.5719 53.8289 34.9907L57.4669 33.3064L59.5554 35.3949C61.4417 37.2139 62.0481 37.4834 64.2039 37.1465C65.5513 36.8771 67.505 36.0686 68.5156 35.3275C70.6714 33.778 71.143 33.6433 70.6714 34.856C69.7283 37.416 74.4442 37.8876 78.6885 35.6644C80.4401 34.7886 80.777 34.7886 82.5286 36.0686C85.0213 37.955 88.3898 37.3486 91.5562 34.6538C92.8362 33.5085 93.9141 32.6327 94.1163 32.6327C94.251 32.6327 94.3857 33.4412 94.3184 34.3844C94.3184 37.3486 96.07 37.8202 100.314 36.0686L104.02 34.5865L105.434 36.0012C107.253 37.8202 110.42 37.5508 113.586 35.3275C115.809 33.7107 115.809 32.7675 113.654 33.9128C111.767 34.9233 109.679 34.856 109.275 33.778C109.14 33.3738 110.218 29.399 111.7 25.0199L114.327 17.0702L117.157 17.2723L119.919 17.4745L120.121 27.5126C120.256 36.3381 120.121 37.6855 119.111 38.8308C116.079 42.1993 110.891 43.0751 107.86 40.6498L106.108 39.3024V41.3235C106.108 45.2983 110.622 46.5784 115.607 44.0857C120.391 41.593 134.201 26.8389 137.166 21.0451C138.581 18.2829 139.12 14.2407 138.244 13.3649C137.974 13.0954 136.627 13.3649 135.347 14.0386C133.124 15.0491 132.989 15.2512 134.067 16.0597C134.943 16.666 135.145 17.4071 134.808 19.024C134.269 21.1798 128.879 29.399 126.387 31.5548L124.972 32.8348L125.376 23.8072L125.848 14.7796L120.391 14.9818L114.866 15.2512L115.877 12.3543C117.494 7.84052 117.426 7.77315 113.384 9.79425ZM54.8394 16.7334C56.0521 18.1482 55.0416 20.9777 52.4815 23.5378C50.4604 25.5589 46.5529 27.1758 45.6771 26.3673C45.0708 25.6936 49.0456 19.0913 51.0667 17.4071C53.2899 15.5207 53.7615 15.4533 54.8394 16.7334ZM75.3873 17.0702C75.5895 17.3397 74.8484 20.4387 73.7031 23.8072C71.2104 31.1506 68.3135 34.856 65.2144 34.5191C63.6649 34.3844 63.2607 33.9801 63.126 32.2285C62.8565 29.8032 65.1471 23.403 67.1682 20.843C69.7283 17.6092 74.3768 15.4533 75.3873 17.0702Z" fill="white"/>
<path d="M177.116 14.51C174.287 15.3184 172.063 17.8785 171.659 20.9775C171.39 23.2681 171.659 24.0091 174.152 27.1082C177.453 31.2851 177.655 33.9126 174.758 34.9231C171.996 35.8663 169.503 34.9231 168.425 32.4304L167.55 30.2746L167.078 32.8346C166.472 36.1358 167.011 36.6747 171.524 37.079C175.971 37.4832 179.205 36.0684 181.091 32.7673C182.708 30.0051 182.304 28.3208 178.868 24.0765C175.903 20.3038 175.567 18.6195 177.386 16.9353C179.339 15.1837 181.428 15.5205 182.775 17.7437L183.988 19.7648L184.729 17.7437C185.47 15.79 185.403 15.6552 183.247 14.7121C180.687 13.6341 180.08 13.6341 177.116 14.51Z" fill="white"/>
<path d="M143.162 14.9141C140.938 15.1835 138.58 16.4636 140.332 16.4636C141.679 16.4636 141.275 18.4847 138.109 27.9165C136.425 32.8345 135.212 37.0789 135.414 37.2136C135.549 37.3483 136.761 37.281 138.041 37.0789C140.399 36.6073 140.467 36.5399 142.555 30.005C143.701 26.2996 145.25 22.3922 145.924 21.2469C147.541 18.5521 150.168 17.272 151.92 18.3499C152.93 18.9563 153.334 18.8215 154.278 17.3394C155.558 15.453 154.884 14.4425 152.391 14.4425C150.774 14.4425 147.204 16.3288 147.204 17.1373C147.204 17.5415 146.934 17.811 146.53 17.811C146.126 17.811 146.126 17.2047 146.53 16.1267C147.002 14.9141 146.934 14.4425 146.328 14.5772C145.924 14.5772 144.442 14.7793 143.162 14.9141Z" fill="white"/>
<path d="M159.667 15.7227C154.413 18.0807 149.225 25.8956 149.225 31.2852C149.225 35.3275 153.469 37.9549 158.387 37.0117C160.745 36.6075 166.068 32.4305 166.068 31.0831C166.068 30.6789 165.259 31.1505 164.249 32.0937C159.129 36.9443 153.065 36.0685 154.278 30.6115C154.615 28.9947 155.086 28.6578 157.512 28.321C164.585 27.243 170.11 22.864 170.11 18.3502C170.11 14.6448 164.922 13.2974 159.667 15.7227ZM165.259 18.2154C165.596 21.6513 160.543 26.5693 156.636 26.5693C155.288 26.5693 155.288 26.502 156.905 23.2682C158.926 19.3607 162.43 15.6554 163.979 15.9249C164.653 16.0596 165.124 16.9354 165.259 18.2154Z" fill="white"/>
<path d="M198.675 34.7217C198.068 35.7996 200.157 37.6186 201.437 37.0796C202.043 36.8775 202.447 36.2038 202.313 35.5975C202.043 34.2501 199.348 33.6437 198.675 34.7217ZM201.167 35.328C201.774 34.4522 201.841 34.4522 201.572 35.328C201.437 35.8669 200.898 36.3385 200.426 36.3385C199.955 36.3385 199.416 35.8669 199.281 35.328C199.012 34.4522 199.079 34.4522 199.685 35.328C200.359 36.2038 200.494 36.2038 201.167 35.328Z" fill="white"/>
<path d="M11.5876 56.0098C11.3181 56.2119 11.116 60.7931 11.116 66.1153C11.116 75.2777 11.1833 75.7493 12.4634 75.7493C13.676 75.7493 13.8108 75.2777 13.8108 71.0334V66.3174H18.5267H23.2426V71.1007C23.2426 75.2777 23.3773 75.8166 24.4553 75.6145C25.4658 75.4124 25.6006 74.4019 25.6006 65.6437C25.6006 56.8856 25.4658 55.8751 24.4553 55.673C23.3773 55.4708 23.2426 56.0098 23.2426 59.5131V63.6226H18.5267H13.8108V59.5804C13.8108 56.6835 13.5413 55.5382 12.935 55.5382C12.396 55.5382 11.7897 55.7403 11.5876 56.0098Z" fill="white"/>
<path d="M36.2456 56.8856C32.9445 58.8394 31.7992 61.6689 32.1361 66.8564C32.4055 70.8312 32.6076 71.3702 34.8982 73.4587C36.852 75.2777 37.9299 75.7493 40.0857 75.7493C45.4753 75.7493 48.6417 72.785 49.3154 66.9911C50.2586 58.7046 42.7805 52.9108 36.2456 56.8856ZM45.0711 60.3215C48.6417 64.5658 46.688 72.5155 41.77 73.4587C35.3698 74.604 31.4624 64.7679 36.4477 59.7825C38.8731 57.3572 42.8479 57.6267 45.0711 60.3215Z" fill="white"/>
<path d="M57.3994 56.2796C56.7257 56.6838 55.8499 57.7618 55.5131 58.7723C54.4351 61.5345 55.9173 64.0945 59.69 65.9809C61.4416 66.9241 63.0585 68.2715 63.328 69.0126C64.0017 71.101 63.0585 72.9874 61.1722 73.459C59.7574 73.8632 59.0163 73.5264 57.4668 71.7747C55.5804 69.6863 54.233 69.4842 54.233 71.3032C54.233 71.7747 55.0415 72.9874 55.9847 73.998C59.3532 77.2991 64.9449 75.8843 66.0902 71.4379C66.6965 68.9452 65.0123 66.2504 61.7111 64.364C58.3426 62.3429 57.1973 60.9281 57.8037 59.3113C58.3426 57.8965 62.048 57.8965 62.8564 59.3113C63.3954 60.2544 63.5301 60.2544 64.3386 59.1765C66.3597 56.8186 60.5658 54.4606 57.3994 56.2796Z" fill="white"/>
<path d="M72.4228 55.808C72.4228 56.0101 72.3555 60.5239 72.3555 65.7788C72.3555 73.998 72.4902 75.4127 73.366 75.6149C74.2418 75.817 74.4439 75.0759 74.4439 71.4379V66.9915H77.8798C82.0568 66.9915 83.5389 66.2504 84.4147 63.7577C85.2905 61.265 84.7516 58.6376 83.1347 57.1554C81.922 56.0775 72.4228 54.8648 72.4228 55.808ZM82.1241 60.3892C83.0673 63.1514 81.181 64.9704 77.3409 64.9704H74.4439V61.5345V58.166L77.9472 58.3681C81.1136 58.5702 81.5852 58.7723 82.1241 60.3892Z" fill="white"/>
<path d="M90.6128 65.6437C90.6128 74.1998 90.7475 75.7493 91.6233 75.7493C92.4992 75.7493 92.6339 74.1998 92.6339 65.6437C92.6339 57.0877 92.4992 55.5382 91.6233 55.5382C90.7475 55.5382 90.6128 57.0877 90.6128 65.6437Z" fill="white"/>
<path d="M98.0239 56.8856C98.0239 58.0309 98.4281 58.233 101.056 58.233H104.087V66.9911C104.087 74.3345 104.222 75.7493 105.098 75.7493C105.974 75.7493 106.108 74.3345 106.108 66.9911V58.233H109.207C111.767 58.233 112.239 58.0309 112.037 57.0204C111.835 56.0098 110.892 55.8751 104.896 55.673C98.3608 55.4708 98.0239 55.5382 98.0239 56.8856Z" fill="white"/>
<path d="M119.919 56.347C116.955 64.6335 113.519 74.6716 113.519 75.1432C113.519 76.8275 115.81 75.2106 116.551 73.0548C117.359 70.6968 117.359 70.6968 121.267 70.6968C125.174 70.6968 125.174 70.6968 125.983 73.0548C126.656 75.1432 129.014 76.8275 129.014 75.2106C129.014 74.8738 127.532 70.4273 125.713 65.2398C123.49 58.9744 122.075 55.808 121.334 55.6733C120.728 55.5385 120.121 55.808 119.919 56.347ZM122.816 63.5556C123.557 65.7788 124.029 67.7325 123.759 67.9346C123.288 68.4736 119.246 68.4736 118.774 67.9346C118.37 67.5978 120.795 59.5807 121.267 59.5807C121.401 59.5807 122.075 61.3997 122.816 63.5556Z" fill="white"/>
<path d="M134.875 55.9424C134.606 56.2119 134.404 60.7931 134.404 66.1153V75.7493H140.197C145.318 75.7493 145.924 75.6145 145.722 74.5366C145.52 73.5934 144.779 73.3913 141.343 73.3913H137.166L136.964 64.7006C136.762 56.6161 136.29 54.5277 134.875 55.9424Z" fill="white"/>
<path d="M151.246 65.5764C151.246 75.345 151.313 75.7493 152.593 75.7493C153.941 75.7493 153.941 75.4124 153.806 65.8459C153.604 57.0204 153.469 55.8751 152.459 55.673C151.313 55.4708 151.246 56.2793 151.246 65.5764Z" fill="white"/>
<path d="M159.128 56.0098C157.781 57.2898 158.791 58.233 161.688 58.233H164.72V66.9911C164.72 75.2777 164.787 75.7493 166.067 75.7493C167.347 75.7493 167.415 75.2777 167.415 66.9911V58.233H170.109C172.333 58.233 172.804 58.0309 172.804 56.8856C172.804 55.6056 172.333 55.5382 166.202 55.5382C162.564 55.5382 159.33 55.7403 159.128 56.0098Z" fill="white"/>
<path d="M177.521 55.8077C177.521 56.0772 178.733 58.6372 180.216 61.6015C182.506 66.2501 182.91 67.5975 182.91 71.3702C182.91 75.2777 183.045 75.7493 184.258 75.7493C185.47 75.7493 185.605 75.2777 185.605 71.3028C185.605 67.328 185.942 66.2501 188.3 61.9384C191.264 56.6161 191.534 55.5382 189.984 55.5382C189.378 55.5382 188.03 57.4246 186.818 59.9173C185.605 62.3426 184.46 64.2963 184.258 64.229C184.056 64.229 183.045 62.3426 181.9 60.052C180.755 57.6267 179.407 55.8077 178.733 55.673C178.06 55.5382 177.521 55.6056 177.521 55.8077Z" fill="white"/>
</svg>