<svg width="86" height="86" viewBox="0 0 86 86" fill="none" xmlns="http://www.w3.org/2000/svg">
<path d="M31.8851 8.10583C31.3157 8.10583 30.8306 7.95087 30.43 7.64094C30.0294 7.3285 29.7232 6.87622 29.5116 6.28409C29.2999 5.68945 29.1941 4.97134 29.1941 4.12976C29.1941 3.29323 29.2999 2.5789 29.5116 1.98677C29.7257 1.39212 30.0331 0.938579 30.4338 0.626138C30.8369 0.311177 31.3207 0.153697 31.8851 0.153697C32.4495 0.153697 32.932 0.311177 33.3327 0.626138C33.7358 0.938579 34.0432 1.39212 34.2549 1.98677C34.4691 2.5789 34.5761 3.29323 34.5761 4.12976C34.5761 4.97134 34.4703 5.68945 34.2587 6.28409C34.047 6.87622 33.7409 7.3285 33.3402 7.64094C32.9396 7.95087 32.4546 8.10583 31.8851 8.10583ZM31.8851 7.27433C32.4495 7.27433 32.8879 7.0022 33.2004 6.45795C33.5128 5.9137 33.6691 5.13764 33.6691 4.12976C33.6691 3.45953 33.5972 2.88882 33.4536 2.41764C33.3125 1.94645 33.1084 1.5874 32.8413 1.34047C32.5768 1.09354 32.258 0.970076 31.8851 0.970076C31.3257 0.970076 30.8886 1.24598 30.5736 1.79779C30.2587 2.34708 30.1012 3.12441 30.1012 4.12976C30.1012 4.8 30.1717 5.36945 30.3128 5.83811C30.4539 6.30677 30.6568 6.66331 30.9213 6.90772C31.1884 7.15213 31.5097 7.27433 31.8851 7.27433ZM37.4564 0.259524V8H36.5191V1.2422H36.4738L34.584 2.49701V1.54456L36.5191 0.259524H37.4564ZM40.9301 8.10583C40.3607 8.10583 39.8756 7.95087 39.475 7.64094C39.0744 7.3285 38.7682 6.87622 38.5566 6.28409C38.3449 5.68945 38.2391 4.97134 38.2391 4.12976C38.2391 3.29323 38.3449 2.5789 38.5566 1.98677C38.7708 1.39212 39.0782 0.938579 39.4788 0.626138C39.8819 0.311177 40.3657 0.153697 40.9301 0.153697C41.4945 0.153697 41.9771 0.311177 42.3777 0.626138C42.7808 0.938579 43.0882 1.39212 43.2999 1.98677C43.5141 2.5789 43.6212 3.29323 43.6212 4.12976C43.6212 4.97134 43.5153 5.68945 43.3037 6.28409C43.092 6.87622 42.7859 7.3285 42.3853 7.64094C41.9846 7.95087 41.4996 8.10583 40.9301 8.10583ZM40.9301 7.27433C41.4945 7.27433 41.933 7.0022 42.2454 6.45795C42.5578 5.9137 42.7141 5.13764 42.7141 4.12976C42.7141 3.45953 42.6423 2.88882 42.4986 2.41764C42.3575 1.94645 42.1534 1.5874 41.8864 1.34047C41.6218 1.09354 41.303 0.970076 40.9301 0.970076C40.3708 0.970076 39.9336 1.24598 39.6186 1.79779C39.3037 2.34708 39.1462 3.12441 39.1462 4.12976C39.1462 4.8 39.2167 5.36945 39.3578 5.83811C39.499 6.30677 39.7018 6.66331 39.9664 6.90772C40.2334 7.15213 40.5547 7.27433 40.9301 7.27433ZM46.5015 0.259524V8H45.5641V1.2422H45.5188L43.629 2.49701V1.54456L45.5641 0.259524H46.5015ZM50.1717 0.259524V8H49.2344V1.2422H49.189L47.2992 2.49701V1.54456L49.2344 0.259524H50.1717ZM53.6454 8.10583C53.0759 8.10583 52.5909 7.95087 52.1903 7.64094C51.7896 7.3285 51.4835 6.87622 51.2718 6.28409C51.0602 5.68945 50.9544 4.97134 50.9544 4.12976C50.9544 3.29323 51.0602 2.5789 51.2718 1.98677C51.486 1.39212 51.7934 0.938579 52.194 0.626138C52.5972 0.311177 53.081 0.153697 53.6454 0.153697C54.2098 0.153697 54.6923 0.311177 55.0929 0.626138C55.4961 0.938579 55.8035 1.39212 56.0151 1.98677C56.2293 2.5789 56.3364 3.29323 56.3364 4.12976C56.3364 4.97134 56.2306 5.68945 56.0189 6.28409C55.8073 6.87622 55.5011 7.3285 55.1005 7.64094C54.6999 7.95087 54.2148 8.10583 53.6454 8.10583ZM53.6454 7.27433C54.2098 7.27433 54.6482 7.0022 54.9607 6.45795C55.2731 5.9137 55.4293 5.13764 55.4293 4.12976C55.4293 3.45953 55.3575 2.88882 55.2139 2.41764C55.0728 1.94645 54.8687 1.5874 54.6016 1.34047C54.337 1.09354 54.0183 0.970076 53.6454 0.970076C53.086 0.970076 52.6488 1.24598 52.3339 1.79779C52.0189 2.34708 51.8614 3.12441 51.8614 4.12976C51.8614 4.8 51.932 5.36945 52.0731 5.83811C52.2142 6.30677 52.417 6.66331 52.6816 6.90772C52.9487 7.15213 53.2699 7.27433 53.6454 7.27433ZM32.0816 9.25952V17H31.1443V10.2422H31.099L29.2092 11.497V10.5446L31.1443 9.25952H32.0816ZM35.7519 9.25952V17H34.8146V10.2422H34.7692L32.8794 11.497V10.5446L34.8146 9.25952H35.7519ZM39.2256 17.1058C38.6561 17.1058 38.1711 16.9509 37.7704 16.6409C37.3698 16.3285 37.0637 15.8762 36.852 15.2841C36.6404 14.6894 36.5345 13.9713 36.5345 13.1298C36.5345 12.2932 36.6404 11.5789 36.852 10.9868C37.0662 10.3921 37.3736 9.93858 37.7742 9.62614C38.1774 9.31118 38.6612 9.1537 39.2256 9.1537C39.79 9.1537 40.2725 9.31118 40.6731 9.62614C41.0763 9.93858 41.3837 10.3921 41.5953 10.9868C41.8095 11.5789 41.9166 12.2932 41.9166 13.1298C41.9166 13.9713 41.8108 14.6894 41.5991 15.2841C41.3875 15.8762 41.0813 16.3285 40.6807 16.6409C40.2801 16.9509 39.795 17.1058 39.2256 17.1058ZM39.2256 16.2743C39.79 16.2743 40.2284 16.0022 40.5408 15.458C40.8533 14.9137 41.0095 14.1376 41.0095 13.1298C41.0095 12.4595 40.9377 11.8888 40.7941 11.4176C40.653 10.9465 40.4489 10.5874 40.1818 10.3405C39.9172 10.0935 39.5985 9.97008 39.2256 9.97008C38.6662 9.97008 38.229 10.246 37.9141 10.7978C37.5991 11.3471 37.4416 12.1244 37.4416 13.1298C37.4416 13.8 37.5122 14.3694 37.6533 14.8381C37.7944 15.3068 37.9972 15.6633 38.2618 15.9077C38.5289 16.1521 38.8501 16.2743 39.2256 16.2743ZM44.6004 17.1058C44.0309 17.1058 43.5459 16.9509 43.1452 16.6409C42.7446 16.3285 42.4385 15.8762 42.2268 15.2841C42.0152 14.6894 41.9093 13.9713 41.9093 13.1298C41.9093 12.2932 42.0152 11.5789 42.2268 10.9868C42.441 10.3921 42.7484 9.93858 43.149 9.62614C43.5522 9.31118 44.0359 9.1537 44.6004 9.1537C45.1648 9.1537 45.6473 9.31118 46.0479 9.62614C46.4511 9.93858 46.7585 10.3921 46.9701 10.9868C47.1843 11.5789 47.2914 12.2932 47.2914 13.1298C47.2914 13.9713 47.1856 14.6894 46.9739 15.2841C46.7622 15.8762 46.4561 16.3285 46.0555 16.6409C45.6548 16.9509 45.1698 17.1058 44.6004 17.1058ZM44.6004 16.2743C45.1648 16.2743 45.6032 16.0022 45.9156 15.458C46.2281 14.9137 46.3843 14.1376 46.3843 13.1298C46.3843 12.4595 46.3125 11.8888 46.1689 11.4176C46.0278 10.9465 45.8237 10.5874 45.5566 10.3405C45.292 10.0935 44.9733 9.97008 44.6004 9.97008C44.041 9.97008 43.6038 10.246 43.2889 10.7978C42.9739 11.3471 42.8164 12.1244 42.8164 13.1298C42.8164 13.8 42.887 14.3694 43.0281 14.8381C43.1692 15.3068 43.372 15.6633 43.6366 15.9077C43.9037 16.1521 44.2249 16.2743 44.6004 16.2743ZM50.1717 9.25952V17H49.2344V10.2422H49.189L47.2992 11.497V10.5446L49.2344 9.25952H50.1717ZM53.6454 17.1058C53.0759 17.1058 52.5909 16.9509 52.1903 16.6409C51.7896 16.3285 51.4835 15.8762 51.2718 15.2841C51.0602 14.6894 50.9544 13.9713 50.9544 13.1298C50.9544 12.2932 51.0602 11.5789 51.2718 10.9868C51.486 10.3921 51.7934 9.93858 52.194 9.62614C52.5972 9.31118 53.081 9.1537 53.6454 9.1537C54.2098 9.1537 54.6923 9.31118 55.0929 9.62614C55.4961 9.93858 55.8035 10.3921 56.0151 10.9868C56.2293 11.5789 56.3364 12.2932 56.3364 13.1298C56.3364 13.9713 56.2306 14.6894 56.0189 15.2841C55.8073 15.8762 55.5011 16.3285 55.1005 16.6409C54.6999 16.9509 54.2148 17.1058 53.6454 17.1058ZM53.6454 16.2743C54.2098 16.2743 54.6482 16.0022 54.9607 15.458C55.2731 14.9137 55.4293 14.1376 55.4293 13.1298C55.4293 12.4595 55.3575 11.8888 55.2139 11.4176C55.0728 10.9465 54.8687 10.5874 54.6016 10.3405C54.337 10.0935 54.0183 9.97008 53.6454 9.97008C53.086 9.97008 52.6488 10.246 52.3339 10.7978C52.0189 11.3471 51.8614 12.1244 51.8614 13.1298C51.8614 13.8 51.932 14.3694 52.0731 14.8381C52.2142 15.3068 52.417 15.6633 52.6816 15.9077C52.9487 16.1521 53.2699 16.2743 53.6454 16.2743ZM31.8851 26.1058C31.3157 26.1058 30.8306 25.9509 30.43 25.6409C30.0294 25.3285 29.7232 24.8762 29.5116 24.2841C29.2999 23.6894 29.1941 22.9713 29.1941 22.1298C29.1941 21.2932 29.2999 20.5789 29.5116 19.9868C29.7257 19.3921 30.0331 18.9386 30.4338 18.6261C30.8369 18.3112 31.3207 18.1537 31.8851 18.1537C32.4495 18.1537 32.932 18.3112 33.3327 18.6261C33.7358 18.9386 34.0432 19.3921 34.2549 19.9868C34.4691 20.5789 34.5761 21.2932 34.5761 22.1298C34.5761 22.9713 34.4703 23.6894 34.2587 24.2841C34.047 24.8762 33.7409 25.3285 33.3402 25.6409C32.9396 25.9509 32.4546 26.1058 31.8851 26.1058ZM31.8851 25.2743C32.4495 25.2743 32.8879 25.0022 33.2004 24.458C33.5128 23.9137 33.6691 23.1376 33.6691 22.1298C33.6691 21.4595 33.5972 20.8888 33.4536 20.4176C33.3125 19.9465 33.1084 19.5874 32.8413 19.3405C32.5768 19.0935 32.258 18.9701 31.8851 18.9701C31.3257 18.9701 30.8886 19.246 30.5736 19.7978C30.2587 20.3471 30.1012 21.1244 30.1012 22.1298C30.1012 22.8 30.1717 23.3694 30.3128 23.8381C30.4539 24.3068 30.6568 24.6633 30.9213 24.9077C31.1884 25.1521 31.5097 25.2743 31.8851 25.2743ZM37.4564 18.2595V26H36.5191V19.2422H36.4738L34.584 20.497V19.5446L36.5191 18.2595H37.4564ZM41.1267 18.2595V26H40.1893V19.2422H40.144L38.2542 20.497V19.5446L40.1893 18.2595H41.1267ZM44.6004 26.1058C44.0309 26.1058 43.5459 25.9509 43.1452 25.6409C42.7446 25.3285 42.4385 24.8762 42.2268 24.2841C42.0152 23.6894 41.9093 22.9713 41.9093 22.1298C41.9093 21.2932 42.0152 20.5789 42.2268 19.9868C42.441 19.3921 42.7484 18.9386 43.149 18.6261C43.5522 18.3112 44.0359 18.1537 44.6004 18.1537C45.1648 18.1537 45.6473 18.3112 46.0479 18.6261C46.4511 18.9386 46.7585 19.3921 46.9701 19.9868C47.1843 20.5789 47.2914 21.2932 47.2914 22.1298C47.2914 22.9713 47.1856 23.6894 46.9739 24.2841C46.7622 24.8762 46.4561 25.3285 46.0555 25.6409C45.6548 25.9509 45.1698 26.1058 44.6004 26.1058ZM44.6004 25.2743C45.1648 25.2743 45.6032 25.0022 45.9156 24.458C46.2281 23.9137 46.3843 23.1376 46.3843 22.1298C46.3843 21.4595 46.3125 20.8888 46.1689 20.4176C46.0278 19.9465 45.8237 19.5874 45.5566 19.3405C45.292 19.0935 44.9733 18.9701 44.6004 18.9701C44.041 18.9701 43.6038 19.246 43.2889 19.7978C42.9739 20.3471 42.8164 21.1244 42.8164 22.1298C42.8164 22.8 42.887 23.3694 43.0281 23.8381C43.1692 24.3068 43.372 24.6633 43.6366 24.9077C43.9037 25.1521 44.2249 25.2743 44.6004 25.2743ZM49.9751 26.1058C49.4057 26.1058 48.9207 25.9509 48.52 25.6409C48.1194 25.3285 47.8133 24.8762 47.6016 24.2841C47.39 23.6894 47.2841 22.9713 47.2841 22.1298C47.2841 21.2932 47.39 20.5789 47.6016 19.9868C47.8158 19.3921 48.1232 18.9386 48.5238 18.6261C48.927 18.3112 49.4107 18.1537 49.9751 18.1537C50.5396 18.1537 51.0221 18.3112 51.4227 18.6261C51.8259 18.9386 52.1333 19.3921 52.3449 19.9868C52.5591 20.5789 52.6662 21.2932 52.6662 22.1298C52.6662 22.9713 52.5603 23.6894 52.3487 24.2841C52.137 24.8762 51.8309 25.3285 51.4303 25.6409C51.0296 25.9509 50.5446 26.1058 49.9751 26.1058ZM49.9751 25.2743C50.5396 25.2743 50.978 25.0022 51.2904 24.458C51.6029 23.9137 51.7591 23.1376 51.7591 22.1298C51.7591 21.4595 51.6873 20.8888 51.5437 20.4176C51.4026 19.9465 51.1985 19.5874 50.9314 19.3405C50.6668 19.0935 50.3481 18.9701 49.9751 18.9701C49.4158 18.9701 48.9786 19.246 48.6637 19.7978C48.3487 20.3471 48.1912 21.1244 48.1912 22.1298C48.1912 22.8 48.2618 23.3694 48.4029 23.8381C48.544 24.3068 48.7468 24.6633 49.0114 24.9077C49.2785 25.1521 49.5997 25.2743 49.9751 25.2743ZM55.5465 18.2595V26H54.6092V19.2422H54.5638L52.674 20.497V19.5446L54.6092 18.2595H55.5465Z" fill="white"/>
<path d="M3.32599 39.8579C2.75654 39.8579 2.2715 39.7029 1.87087 39.393C1.47024 39.0806 1.1641 38.6283 0.952441 38.0362C0.740788 37.4415 0.634961 36.7234 0.634961 35.8818C0.634961 35.0453 0.740788 34.331 0.952441 33.7388C1.16661 33.1442 1.47402 32.6907 1.87465 32.3782C2.2778 32.0633 2.76158 31.9058 3.32599 31.9058C3.8904 31.9058 4.37292 32.0633 4.77355 32.3782C5.1767 32.6907 5.4841 33.1442 5.69575 33.7388C5.90992 34.331 6.01701 35.0453 6.01701 35.8818C6.01701 36.7234 5.91118 37.4415 5.69953 38.0362C5.48788 38.6283 5.18173 39.0806 4.7811 39.393C4.38047 39.7029 3.89543 39.8579 3.32599 39.8579ZM3.32599 39.0264C3.8904 39.0264 4.32882 38.7543 4.64126 38.21C4.9537 37.6658 5.10992 36.8897 5.10992 35.8818C5.10992 35.2116 5.03811 34.6409 4.89449 34.1697C4.75339 33.6985 4.54929 33.3395 4.28221 33.0925C4.01764 32.8456 3.6989 32.7222 3.32599 32.7222C2.76662 32.7222 2.32945 32.9981 2.01449 33.5499C1.69953 34.0992 1.54205 34.8765 1.54205 35.8818C1.54205 36.5521 1.6126 37.1215 1.7537 37.5902C1.8948 38.0588 2.09764 38.4154 2.36221 38.6598C2.62929 38.9042 2.95055 39.0264 3.32599 39.0264ZM8.89731 32.0116V39.7521H7.95999V32.9943H7.91464L6.02487 34.2491V33.2966L7.95999 32.0116H8.89731ZM12.371 39.8579C11.8016 39.8579 11.3165 39.7029 10.9159 39.393C10.5153 39.0806 10.2091 38.6283 9.99746 38.0362C9.78581 37.4415 9.67998 36.7234 9.67998 35.8818C9.67998 35.0453 9.78581 34.331 9.99746 33.7388C10.2116 33.1442 10.519 32.6907 10.9197 32.3782C11.3228 32.0633 11.8066 31.9058 12.371 31.9058C12.9354 31.9058 13.4179 32.0633 13.8186 32.3782C14.2217 32.6907 14.5291 33.1442 14.7408 33.7388C14.9549 34.331 15.062 35.0453 15.062 35.8818C15.062 36.7234 14.9562 37.4415 14.7445 38.0362C14.5329 38.6283 14.2268 39.0806 13.8261 39.393C13.4255 39.7029 12.9405 39.8579 12.371 39.8579ZM12.371 39.0264C12.9354 39.0264 13.3738 38.7543 13.6863 38.21C13.9987 37.6658 14.1549 36.8897 14.1549 35.8818C14.1549 35.2116 14.0831 34.6409 13.9395 34.1697C13.7984 33.6985 13.5943 33.3395 13.3272 33.0925C13.0627 32.8456 12.7439 32.7222 12.371 32.7222C11.8116 32.7222 11.3745 32.9981 11.0595 33.5499C10.7445 34.0992 10.5871 34.8765 10.5871 35.8818C10.5871 36.5521 10.6576 37.1215 10.7987 37.5902C10.9398 38.0588 11.1427 38.4154 11.4072 38.6598C11.6743 38.9042 11.9956 39.0264 12.371 39.0264ZM17.9423 32.0116V39.7521H17.005V32.9943H16.9597L15.0699 34.2491V33.2966L17.005 32.0116H17.9423ZM21.6126 32.0116V39.7521H20.6752V32.9943H20.6299L18.7401 34.2491V33.2966L20.6752 32.0116H21.6126ZM25.0862 39.8579C24.5168 39.8579 24.0318 39.7029 23.6311 39.393C23.2305 39.0806 22.9244 38.6283 22.7127 38.0362C22.501 37.4415 22.3952 36.7234 22.3952 35.8818C22.3952 35.0453 22.501 34.331 22.7127 33.7388C22.9269 33.1442 23.2343 32.6907 23.6349 32.3782C24.0381 32.0633 24.5218 31.9058 25.0862 31.9058C25.6507 31.9058 26.1332 32.0633 26.5338 32.3782C26.937 32.6907 27.2444 33.1442 27.456 33.7388C27.6702 34.331 27.7773 35.0453 27.7773 35.8818C27.7773 36.7234 27.6714 37.4415 27.4598 38.0362C27.2481 38.6283 26.942 39.0806 26.5414 39.393C26.1407 39.7029 25.6557 39.8579 25.0862 39.8579ZM25.0862 39.0264C25.6507 39.0264 26.0891 38.7543 26.4015 38.21C26.714 37.6658 26.8702 36.8897 26.8702 35.8818C26.8702 35.2116 26.7984 34.6409 26.6548 34.1697C26.5136 33.6985 26.3096 33.3395 26.0425 33.0925C25.7779 32.8456 25.4592 32.7222 25.0862 32.7222C24.5269 32.7222 24.0897 32.9981 23.7748 33.5499C23.4598 34.0992 23.3023 34.8765 23.3023 35.8818C23.3023 36.5521 23.3729 37.1215 23.514 37.5902C23.6551 38.0588 23.8579 38.4154 24.1225 38.6598C24.3896 38.9042 24.7108 39.0264 25.0862 39.0264ZM3.52252 41.0116V48.7521H2.5852V41.9943H2.53984L0.650079 43.2491V42.2966L2.5852 41.0116H3.52252ZM7.19275 41.0116V48.7521H6.25542V41.9943H6.21007L4.3203 43.2491V42.2966L6.25542 41.0116H7.19275ZM10.6664 48.8579C10.097 48.8579 9.61195 48.7029 9.21132 48.393C8.81069 48.0806 8.50455 47.6283 8.29289 47.0362C8.08124 46.4415 7.97541 45.7234 7.97541 44.8818C7.97541 44.0453 8.08124 43.331 8.29289 42.7388C8.50707 42.1442 8.81447 41.6907 9.2151 41.3782C9.61825 41.0633 10.102 40.9058 10.6664 40.9058C11.2308 40.9058 11.7134 41.0633 12.114 41.3782C12.5171 41.6907 12.8245 42.1442 13.0362 42.7388C13.2504 43.331 13.3575 44.0453 13.3575 44.8818C13.3575 45.7234 13.2516 46.4415 13.04 47.0362C12.8283 47.6283 12.5222 48.0806 12.1216 48.393C11.7209 48.7029 11.2359 48.8579 10.6664 48.8579ZM10.6664 48.0264C11.2308 48.0264 11.6693 47.7543 11.9817 47.21C12.2942 46.6658 12.4504 45.8897 12.4504 44.8818C12.4504 44.2116 12.3786 43.6409 12.2349 43.1697C12.0938 42.6985 11.8897 42.3395 11.6227 42.0925C11.3581 41.8456 11.0394 41.7222 10.6664 41.7222C10.1071 41.7222 9.6699 41.9981 9.35494 42.5499C9.03998 43.0992 8.8825 43.8765 8.8825 44.8818C8.8825 45.5521 8.95305 46.1215 9.09415 46.5902C9.23525 47.0588 9.43809 47.4154 9.70266 47.6598C9.96974 47.9042 10.291 48.0264 10.6664 48.0264ZM16.0412 48.8579C15.4718 48.8579 14.9867 48.7029 14.5861 48.393C14.1855 48.0806 13.8793 47.6283 13.6677 47.0362C13.456 46.4415 13.3502 45.7234 13.3502 44.8818C13.3502 44.0453 13.456 43.331 13.6677 42.7388C13.8819 42.1442 14.1893 41.6907 14.5899 41.3782C14.993 41.0633 15.4768 40.9058 16.0412 40.9058C16.6056 40.9058 17.0882 41.0633 17.4888 41.3782C17.8919 41.6907 18.1993 42.1442 18.411 42.7388C18.6252 43.331 18.7323 44.0453 18.7323 44.8818C18.7323 45.7234 18.6264 46.4415 18.4148 47.0362C18.2031 47.6283 17.897 48.0806 17.4963 48.393C17.0957 48.7029 16.6107 48.8579 16.0412 48.8579ZM16.0412 48.0264C16.6056 48.0264 17.0441 47.7543 17.3565 47.21C17.6689 46.6658 17.8252 45.8897 17.8252 44.8818C17.8252 44.2116 17.7534 43.6409 17.6097 43.1697C17.4686 42.6985 17.2645 42.3395 16.9974 42.0925C16.7329 41.8456 16.4141 41.7222 16.0412 41.7222C15.4819 41.7222 15.0447 41.9981 14.7297 42.5499C14.4148 43.0992 14.2573 43.8765 14.2573 44.8818C14.2573 45.5521 14.3278 46.1215 14.4689 46.5902C14.61 47.0588 14.8129 47.4154 15.0774 47.6598C15.3445 47.9042 15.6658 48.0264 16.0412 48.0264ZM21.6126 41.0116V48.7521H20.6752V41.9943H20.6299L18.7401 43.2491V42.2966L20.6752 41.0116H21.6126ZM25.0862 48.8579C24.5168 48.8579 24.0318 48.7029 23.6311 48.393C23.2305 48.0806 22.9244 47.6283 22.7127 47.0362C22.501 46.4415 22.3952 45.7234 22.3952 44.8818C22.3952 44.0453 22.501 43.331 22.7127 42.7388C22.9269 42.1442 23.2343 41.6907 23.6349 41.3782C24.0381 41.0633 24.5218 40.9058 25.0862 40.9058C25.6507 40.9058 26.1332 41.0633 26.5338 41.3782C26.937 41.6907 27.2444 42.1442 27.456 42.7388C27.6702 43.331 27.7773 44.0453 27.7773 44.8818C27.7773 45.7234 27.6714 46.4415 27.4598 47.0362C27.2481 47.6283 26.942 48.0806 26.5414 48.393C26.1407 48.7029 25.6557 48.8579 25.0862 48.8579ZM25.0862 48.0264C25.6507 48.0264 26.0891 47.7543 26.4015 47.21C26.714 46.6658 26.8702 45.8897 26.8702 44.8818C26.8702 44.2116 26.7984 43.6409 26.6548 43.1697C26.5136 42.6985 26.3096 42.3395 26.0425 42.0925C25.7779 41.8456 25.4592 41.7222 25.0862 41.7222C24.5269 41.7222 24.0897 41.9981 23.7748 42.5499C23.4598 43.0992 23.3023 43.8765 23.3023 44.8818C23.3023 45.5521 23.3729 46.1215 23.514 46.5902C23.6551 47.0588 23.8579 47.4154 24.1225 47.6598C24.3896 47.9042 24.7108 48.0264 25.0862 48.0264ZM3.32599 57.8579C2.75654 57.8579 2.2715 57.7029 1.87087 57.393C1.47024 57.0806 1.1641 56.6283 0.952441 56.0362C0.740788 55.4415 0.634961 54.7234 0.634961 53.8818C0.634961 53.0453 0.740788 52.331 0.952441 51.7388C1.16661 51.1442 1.47402 50.6907 1.87465 50.3782C2.2778 50.0633 2.76158 49.9058 3.32599 49.9058C3.8904 49.9058 4.37292 50.0633 4.77355 50.3782C5.1767 50.6907 5.4841 51.1442 5.69575 51.7388C5.90992 52.331 6.01701 53.0453 6.01701 53.8818C6.01701 54.7234 5.91118 55.4415 5.69953 56.0362C5.48788 56.6283 5.18173 57.0806 4.7811 57.393C4.38047 57.7029 3.89543 57.8579 3.32599 57.8579ZM3.32599 57.0264C3.8904 57.0264 4.32882 56.7543 4.64126 56.21C4.9537 55.6658 5.10992 54.8897 5.10992 53.8818C5.10992 53.2116 5.03811 52.6409 4.89449 52.1697C4.75339 51.6985 4.54929 51.3395 4.28221 51.0925C4.01764 50.8456 3.6989 50.7222 3.32599 50.7222C2.76662 50.7222 2.32945 50.9981 2.01449 51.5499C1.69953 52.0992 1.54205 52.8765 1.54205 53.8818C1.54205 54.5521 1.6126 55.1215 1.7537 55.5902C1.8948 56.0588 2.09764 56.4154 2.36221 56.6598C2.62929 56.9042 2.95055 57.0264 3.32599 57.0264ZM8.89731 50.0116V57.7521H7.95999V50.9943H7.91464L6.02487 52.2491V51.2966L7.95999 50.0116H8.89731ZM12.5675 50.0116V57.7521H11.6302V50.9943H11.5849L9.6951 52.2491V51.2966L11.6302 50.0116H12.5675ZM16.0412 57.8579C15.4718 57.8579 14.9867 57.7029 14.5861 57.393C14.1855 57.0806 13.8793 56.6283 13.6677 56.0362C13.456 55.4415 13.3502 54.7234 13.3502 53.8818C13.3502 53.0453 13.456 52.331 13.6677 51.7388C13.8819 51.1442 14.1893 50.6907 14.5899 50.3782C14.993 50.0633 15.4768 49.9058 16.0412 49.9058C16.6056 49.9058 17.0882 50.0633 17.4888 50.3782C17.8919 50.6907 18.1993 51.1442 18.411 51.7388C18.6252 52.331 18.7323 53.0453 18.7323 53.8818C18.7323 54.7234 18.6264 55.4415 18.4148 56.0362C18.2031 56.6283 17.897 57.0806 17.4963 57.393C17.0957 57.7029 16.6107 57.8579 16.0412 57.8579ZM16.0412 57.0264C16.6056 57.0264 17.0441 56.7543 17.3565 56.21C17.6689 55.6658 17.8252 54.8897 17.8252 53.8818C17.8252 53.2116 17.7534 52.6409 17.6097 52.1697C17.4686 51.6985 17.2645 51.3395 16.9974 51.0925C16.7329 50.8456 16.4141 50.7222 16.0412 50.7222C15.4819 50.7222 15.0447 50.9981 14.7297 51.5499C14.4148 52.0992 14.2573 52.8765 14.2573 53.8818C14.2573 54.5521 14.3278 55.1215 14.4689 55.5902C14.61 56.0588 14.8129 56.4154 15.0774 56.6598C15.3445 56.9042 15.6658 57.0264 16.0412 57.0264ZM21.416 57.8579C20.8466 57.8579 20.3615 57.7029 19.9609 57.393C19.5603 57.0806 19.2541 56.6283 19.0425 56.0362C18.8308 55.4415 18.725 54.7234 18.725 53.8818C18.725 53.0453 18.8308 52.331 19.0425 51.7388C19.2567 51.1442 19.5641 50.6907 19.9647 50.3782C20.3678 50.0633 20.8516 49.9058 21.416 49.9058C21.9804 49.9058 22.463 50.0633 22.8636 50.3782C23.2667 50.6907 23.5741 51.1442 23.7858 51.7388C24 52.331 24.107 53.0453 24.107 53.8818C24.107 54.7234 24.0012 55.4415 23.7896 56.0362C23.5779 56.6283 23.2718 57.0806 22.8711 57.393C22.4705 57.7029 21.9855 57.8579 21.416 57.8579ZM21.416 57.0264C21.9804 57.0264 22.4189 56.7543 22.7313 56.21C23.0437 55.6658 23.2 54.8897 23.2 53.8818C23.2 53.2116 23.1281 52.6409 22.9845 52.1697C22.8434 51.6985 22.6393 51.3395 22.3722 51.0925C22.1077 50.8456 21.7889 50.7222 21.416 50.7222C20.8567 50.7222 20.4195 50.9981 20.1045 51.5499C19.7896 52.0992 19.6321 52.8765 19.6321 53.8818C19.6321 54.5521 19.7026 55.1215 19.8437 55.5902C19.9848 56.0588 20.1877 56.4154 20.4522 56.6598C20.7193 56.9042 21.0406 57.0264 21.416 57.0264ZM26.9873 50.0116V57.7521H26.05V50.9943H26.0047L24.1149 52.2491V51.2966L26.05 50.0116H26.9873Z" fill="white"/>
<path d="M3.32599 66.9979C2.75654 66.9979 2.2715 66.843 1.87087 66.5331C1.47024 66.2206 1.1641 65.7683 0.952441 65.1762C0.740788 64.5816 0.634961 63.8635 0.634961 63.0219C0.634961 62.1853 0.740788 61.471 0.952441 60.8789C1.16661 60.2842 1.47402 59.8307 1.87465 59.5183C2.2778 59.2033 2.76158 59.0458 3.32599 59.0458C3.8904 59.0458 4.37292 59.2033 4.77355 59.5183C5.1767 59.8307 5.4841 60.2842 5.69575 60.8789C5.90992 61.471 6.01701 62.1853 6.01701 63.0219C6.01701 63.8635 5.91118 64.5816 5.69953 65.1762C5.48788 65.7683 5.18173 66.2206 4.7811 66.5331C4.38047 66.843 3.89543 66.9979 3.32599 66.9979ZM3.32599 66.1665C3.8904 66.1665 4.32882 65.8943 4.64126 65.3501C4.9537 64.8058 5.10992 64.0298 5.10992 63.0219C5.10992 62.3516 5.03811 61.7809 4.89449 61.3098C4.75339 60.8386 4.54929 60.4795 4.28221 60.2326C4.01764 59.9857 3.6989 59.8622 3.32599 59.8622C2.76662 59.8622 2.32945 60.1381 2.01449 60.6899C1.69953 61.2392 1.54205 62.0165 1.54205 63.0219C1.54205 63.6921 1.6126 64.2616 1.7537 64.7302C1.8948 65.1989 2.09764 65.5554 2.36221 65.7998C2.62929 66.0442 2.95055 66.1665 3.32599 66.1665ZM8.89731 59.1516V66.8921H7.95999V60.1343H7.91464L6.02487 61.3891V60.4367L7.95999 59.1516H8.89731ZM12.371 66.9979C11.8016 66.9979 11.3165 66.843 10.9159 66.5331C10.5153 66.2206 10.2091 65.7683 9.99746 65.1762C9.78581 64.5816 9.67998 63.8635 9.67998 63.0219C9.67998 62.1853 9.78581 61.471 9.99746 60.8789C10.2116 60.2842 10.519 59.8307 10.9197 59.5183C11.3228 59.2033 11.8066 59.0458 12.371 59.0458C12.9354 59.0458 13.4179 59.2033 13.8186 59.5183C14.2217 59.8307 14.5291 60.2842 14.7408 60.8789C14.9549 61.471 15.062 62.1853 15.062 63.0219C15.062 63.8635 14.9562 64.5816 14.7445 65.1762C14.5329 65.7683 14.2268 66.2206 13.8261 66.5331C13.4255 66.843 12.9405 66.9979 12.371 66.9979ZM12.371 66.1665C12.9354 66.1665 13.3738 65.8943 13.6863 65.3501C13.9987 64.8058 14.1549 64.0298 14.1549 63.0219C14.1549 62.3516 14.0831 61.7809 13.9395 61.3098C13.7984 60.8386 13.5943 60.4795 13.3272 60.2326C13.0627 59.9857 12.7439 59.8622 12.371 59.8622C11.8116 59.8622 11.3745 60.1381 11.0595 60.6899C10.7445 61.2392 10.5871 62.0165 10.5871 63.0219C10.5871 63.6921 10.6576 64.2616 10.7987 64.7302C10.9398 65.1989 11.1427 65.5554 11.4072 65.7998C11.6743 66.0442 11.9956 66.1665 12.371 66.1665ZM17.9423 59.1516V66.8921H17.005V60.1343H16.9597L15.0699 61.3891V60.4367L17.005 59.1516H17.9423ZM21.6126 59.1516V66.8921H20.6752V60.1343H20.6299L18.7401 61.3891V60.4367L20.6752 59.1516H21.6126ZM25.0862 66.9979C24.5168 66.9979 24.0318 66.843 23.6311 66.5331C23.2305 66.2206 22.9244 65.7683 22.7127 65.1762C22.501 64.5816 22.3952 63.8635 22.3952 63.0219C22.3952 62.1853 22.501 61.471 22.7127 60.8789C22.9269 60.2842 23.2343 59.8307 23.6349 59.5183C24.0381 59.2033 24.5218 59.0458 25.0862 59.0458C25.6507 59.0458 26.1332 59.2033 26.5338 59.5183C26.937 59.8307 27.2444 60.2842 27.456 60.8789C27.6702 61.471 27.7773 62.1853 27.7773 63.0219C27.7773 63.8635 27.6714 64.5816 27.4598 65.1762C27.2481 65.7683 26.942 66.2206 26.5414 66.5331C26.1407 66.843 25.6557 66.9979 25.0862 66.9979ZM25.0862 66.1665C25.6507 66.1665 26.0891 65.8943 26.4015 65.3501C26.714 64.8058 26.8702 64.0298 26.8702 63.0219C26.8702 62.3516 26.7984 61.7809 26.6548 61.3098C26.5136 60.8386 26.3096 60.4795 26.0425 60.2326C25.7779 59.9857 25.4592 59.8622 25.0862 59.8622C24.5269 59.8622 24.0897 60.1381 23.7748 60.6899C23.4598 61.2392 23.3023 62.0165 23.3023 63.0219C23.3023 63.6921 23.3729 64.2616 23.514 64.7302C23.6551 65.1989 23.8579 65.5554 24.1225 65.7998C24.3896 66.0442 24.7108 66.1665 25.0862 66.1665ZM3.52252 68.1516V75.8921H2.5852V69.1343H2.53984L0.650079 70.3891V69.4367L2.5852 68.1516H3.52252ZM7.19275 68.1516V75.8921H6.25542V69.1343H6.21007L4.3203 70.3891V69.4367L6.25542 68.1516H7.19275ZM10.6664 75.9979C10.097 75.9979 9.61195 75.843 9.21132 75.5331C8.81069 75.2206 8.50455 74.7683 8.29289 74.1762C8.08124 73.5816 7.97541 72.8635 7.97541 72.0219C7.97541 71.1853 8.08124 70.471 8.29289 69.8789C8.50707 69.2842 8.81447 68.8307 9.2151 68.5183C9.61825 68.2033 10.102 68.0458 10.6664 68.0458C11.2308 68.0458 11.7134 68.2033 12.114 68.5183C12.5171 68.8307 12.8245 69.2842 13.0362 69.8789C13.2504 70.471 13.3575 71.1853 13.3575 72.0219C13.3575 72.8635 13.2516 73.5816 13.04 74.1762C12.8283 74.7683 12.5222 75.2206 12.1216 75.5331C11.7209 75.843 11.2359 75.9979 10.6664 75.9979ZM10.6664 75.1665C11.2308 75.1665 11.6693 74.8943 11.9817 74.3501C12.2942 73.8058 12.4504 73.0298 12.4504 72.0219C12.4504 71.3516 12.3786 70.7809 12.2349 70.3098C12.0938 69.8386 11.8897 69.4795 11.6227 69.2326C11.3581 68.9857 11.0394 68.8622 10.6664 68.8622C10.1071 68.8622 9.6699 69.1381 9.35494 69.6899C9.03998 70.2392 8.8825 71.0165 8.8825 72.0219C8.8825 72.6921 8.95305 73.2616 9.09415 73.7302C9.23525 74.1989 9.43809 74.5554 9.70266 74.7998C9.96974 75.0442 10.291 75.1665 10.6664 75.1665ZM16.0412 75.9979C15.4718 75.9979 14.9867 75.843 14.5861 75.5331C14.1855 75.2206 13.8793 74.7683 13.6677 74.1762C13.456 73.5816 13.3502 72.8635 13.3502 72.0219C13.3502 71.1853 13.456 70.471 13.6677 69.8789C13.8819 69.2842 14.1893 68.8307 14.5899 68.5183C14.993 68.2033 15.4768 68.0458 16.0412 68.0458C16.6056 68.0458 17.0882 68.2033 17.4888 68.5183C17.8919 68.8307 18.1993 69.2842 18.411 69.8789C18.6252 70.471 18.7323 71.1853 18.7323 72.0219C18.7323 72.8635 18.6264 73.5816 18.4148 74.1762C18.2031 74.7683 17.897 75.2206 17.4963 75.5331C17.0957 75.843 16.6107 75.9979 16.0412 75.9979ZM16.0412 75.1665C16.6056 75.1665 17.0441 74.8943 17.3565 74.3501C17.6689 73.8058 17.8252 73.0298 17.8252 72.0219C17.8252 71.3516 17.7534 70.7809 17.6097 70.3098C17.4686 69.8386 17.2645 69.4795 16.9974 69.2326C16.7329 68.9857 16.4141 68.8622 16.0412 68.8622C15.4819 68.8622 15.0447 69.1381 14.7297 69.6899C14.4148 70.2392 14.2573 71.0165 14.2573 72.0219C14.2573 72.6921 14.3278 73.2616 14.4689 73.7302C14.61 74.1989 14.8129 74.5554 15.0774 74.7998C15.3445 75.0442 15.6658 75.1665 16.0412 75.1665ZM21.6126 68.1516V75.8921H20.6752V69.1343H20.6299L18.7401 70.3891V69.4367L20.6752 68.1516H21.6126ZM25.0862 75.9979C24.5168 75.9979 24.0318 75.843 23.6311 75.5331C23.2305 75.2206 22.9244 74.7683 22.7127 74.1762C22.501 73.5816 22.3952 72.8635 22.3952 72.0219C22.3952 71.1853 22.501 70.471 22.7127 69.8789C22.9269 69.2842 23.2343 68.8307 23.6349 68.5183C24.0381 68.2033 24.5218 68.0458 25.0862 68.0458C25.6507 68.0458 26.1332 68.2033 26.5338 68.5183C26.937 68.8307 27.2444 69.2842 27.456 69.8789C27.6702 70.471 27.7773 71.1853 27.7773 72.0219C27.7773 72.8635 27.6714 73.5816 27.4598 74.1762C27.2481 74.7683 26.942 75.2206 26.5414 75.5331C26.1407 75.843 25.6557 75.9979 25.0862 75.9979ZM25.0862 75.1665C25.6507 75.1665 26.0891 74.8943 26.4015 74.3501C26.714 73.8058 26.8702 73.0298 26.8702 72.0219C26.8702 71.3516 26.7984 70.7809 26.6548 70.3098C26.5136 69.8386 26.3096 69.4795 26.0425 69.2326C25.7779 68.9857 25.4592 68.8622 25.0862 68.8622C24.5269 68.8622 24.0897 69.1381 23.7748 69.6899C23.4598 70.2392 23.3023 71.0165 23.3023 72.0219C23.3023 72.6921 23.3729 73.2616 23.514 73.7302C23.6551 74.1989 23.8579 74.5554 24.1225 74.7998C24.3896 75.0442 24.7108 75.1665 25.0862 75.1665ZM3.32599 84.9979C2.75654 84.9979 2.2715 84.843 1.87087 84.5331C1.47024 84.2206 1.1641 83.7683 0.952441 83.1762C0.740788 82.5816 0.634961 81.8635 0.634961 81.0219C0.634961 80.1853 0.740788 79.471 0.952441 78.8789C1.16661 78.2842 1.47402 77.8307 1.87465 77.5183C2.2778 77.2033 2.76158 77.0458 3.32599 77.0458C3.8904 77.0458 4.37292 77.2033 4.77355 77.5183C5.1767 77.8307 5.4841 78.2842 5.69575 78.8789C5.90992 79.471 6.01701 80.1853 6.01701 81.0219C6.01701 81.8635 5.91118 82.5816 5.69953 83.1762C5.48788 83.7683 5.18173 84.2206 4.7811 84.5331C4.38047 84.843 3.89543 84.9979 3.32599 84.9979ZM3.32599 84.1665C3.8904 84.1665 4.32882 83.8943 4.64126 83.3501C4.9537 82.8058 5.10992 82.0298 5.10992 81.0219C5.10992 80.3516 5.03811 79.7809 4.89449 79.3098C4.75339 78.8386 4.54929 78.4795 4.28221 78.2326C4.01764 77.9857 3.6989 77.8622 3.32599 77.8622C2.76662 77.8622 2.32945 78.1381 2.01449 78.6899C1.69953 79.2392 1.54205 80.0165 1.54205 81.0219C1.54205 81.6921 1.6126 82.2616 1.7537 82.7302C1.8948 83.1989 2.09764 83.5554 2.36221 83.7998C2.62929 84.0442 2.95055 84.1665 3.32599 84.1665ZM8.89731 77.1516V84.8921H7.95999V78.1343H7.91464L6.02487 79.3891V78.4367L7.95999 77.1516H8.89731ZM12.5675 77.1516V84.8921H11.6302V78.1343H11.5849L9.6951 79.3891V78.4367L11.6302 77.1516H12.5675ZM16.0412 84.9979C15.4718 84.9979 14.9867 84.843 14.5861 84.5331C14.1855 84.2206 13.8793 83.7683 13.6677 83.1762C13.456 82.5816 13.3502 81.8635 13.3502 81.0219C13.3502 80.1853 13.456 79.471 13.6677 78.8789C13.8819 78.2842 14.1893 77.8307 14.5899 77.5183C14.993 77.2033 15.4768 77.0458 16.0412 77.0458C16.6056 77.0458 17.0882 77.2033 17.4888 77.5183C17.8919 77.8307 18.1993 78.2842 18.411 78.8789C18.6252 79.471 18.7323 80.1853 18.7323 81.0219C18.7323 81.8635 18.6264 82.5816 18.4148 83.1762C18.2031 83.7683 17.897 84.2206 17.4963 84.5331C17.0957 84.843 16.6107 84.9979 16.0412 84.9979ZM16.0412 84.1665C16.6056 84.1665 17.0441 83.8943 17.3565 83.3501C17.6689 82.8058 17.8252 82.0298 17.8252 81.0219C17.8252 80.3516 17.7534 79.7809 17.6097 79.3098C17.4686 78.8386 17.2645 78.4795 16.9974 78.2326C16.7329 77.9857 16.4141 77.8622 16.0412 77.8622C15.4819 77.8622 15.0447 78.1381 14.7297 78.6899C14.4148 79.2392 14.2573 80.0165 14.2573 81.0219C14.2573 81.6921 14.3278 82.2616 14.4689 82.7302C14.61 83.1989 14.8129 83.5554 15.0774 83.7998C15.3445 84.0442 15.6658 84.1665 16.0412 84.1665ZM21.416 84.9979C20.8466 84.9979 20.3615 84.843 19.9609 84.5331C19.5603 84.2206 19.2541 83.7683 19.0425 83.1762C18.8308 82.5816 18.725 81.8635 18.725 81.0219C18.725 80.1853 18.8308 79.471 19.0425 78.8789C19.2567 78.2842 19.5641 77.8307 19.9647 77.5183C20.3678 77.2033 20.8516 77.0458 21.416 77.0458C21.9804 77.0458 22.463 77.2033 22.8636 77.5183C23.2667 77.8307 23.5741 78.2842 23.7858 78.8789C24 79.471 24.107 80.1853 24.107 81.0219C24.107 81.8635 24.0012 82.5816 23.7896 83.1762C23.5779 83.7683 23.2718 84.2206 22.8711 84.5331C22.4705 84.843 21.9855 84.9979 21.416 84.9979ZM21.416 84.1665C21.9804 84.1665 22.4189 83.8943 22.7313 83.3501C23.0437 82.8058 23.2 82.0298 23.2 81.0219C23.2 80.3516 23.1281 79.7809 22.9845 79.3098C22.8434 78.8386 22.6393 78.4795 22.3722 78.2326C22.1077 77.9857 21.7889 77.8622 21.416 77.8622C20.8567 77.8622 20.4195 78.1381 20.1045 78.6899C19.7896 79.2392 19.6321 80.0165 19.6321 81.0219C19.6321 81.6921 19.7026 82.2616 19.8437 82.7302C19.9848 83.1989 20.1877 83.5554 20.4522 83.7998C20.7193 84.0442 21.0406 84.1665 21.416 84.1665ZM26.9873 77.1516V84.8921H26.05V78.1343H26.0047L24.1149 79.3891V78.4367L26.05 77.1516H26.9873Z" fill="white"/>
<path d="M59.7347 39.8579C59.1653 39.8579 58.6802 39.7029 58.2796 39.393C57.879 39.0806 57.5728 38.6283 57.3612 38.0362C57.1495 37.4415 57.0437 36.7234 57.0437 35.8818C57.0437 35.0453 57.1495 34.331 57.3612 33.7388C57.5753 33.1442 57.8827 32.6907 58.2834 32.3782C58.6865 32.0633 59.1703 31.9058 59.7347 31.9058C60.2991 31.9058 60.7816 32.0633 61.1823 32.3782C61.5854 32.6907 61.8928 33.1442 62.1045 33.7388C62.3186 34.331 62.4257 35.0453 62.4257 35.8818C62.4257 36.7234 62.3199 37.4415 62.1082 38.0362C61.8966 38.6283 61.5904 39.0806 61.1898 39.393C60.7892 39.7029 60.3041 39.8579 59.7347 39.8579ZM59.7347 39.0264C60.2991 39.0264 60.7375 38.7543 61.05 38.21C61.3624 37.6658 61.5186 36.8897 61.5186 35.8818C61.5186 35.2116 61.4468 34.6409 61.3032 34.1697C61.1621 33.6985 60.958 33.3395 60.6909 33.0925C60.4264 32.8456 60.1076 32.7222 59.7347 32.7222C59.1753 32.7222 58.7382 32.9981 58.4232 33.5499C58.1082 34.0992 57.9508 34.8765 57.9508 35.8818C57.9508 36.5521 58.0213 37.1215 58.1624 37.5902C58.3035 38.0588 58.5064 38.4154 58.7709 38.6598C59.038 38.9042 59.3593 39.0264 59.7347 39.0264ZM65.306 32.0116V39.7521H64.3687V32.9943H64.3234L62.4336 34.2491V33.2966L64.3687 32.0116H65.306ZM68.7797 39.8579C68.2103 39.8579 67.7252 39.7029 67.3246 39.393C66.924 39.0806 66.6178 38.6283 66.4062 38.0362C66.1945 37.4415 66.0887 36.7234 66.0887 35.8818C66.0887 35.0453 66.1945 34.331 66.4062 33.7388C66.6203 33.1442 66.9277 32.6907 67.3284 32.3782C67.7315 32.0633 68.2153 31.9058 68.7797 31.9058C69.3441 31.9058 69.8266 32.0633 70.2273 32.3782C70.6304 32.6907 70.9378 33.1442 71.1495 33.7388C71.3637 34.331 71.4707 35.0453 71.4707 35.8818C71.4707 36.7234 71.3649 37.4415 71.1533 38.0362C70.9416 38.6283 70.6355 39.0806 70.2348 39.393C69.8342 39.7029 69.3492 39.8579 68.7797 39.8579ZM68.7797 39.0264C69.3441 39.0264 69.7826 38.7543 70.095 38.21C70.4074 37.6658 70.5637 36.8897 70.5637 35.8818C70.5637 35.2116 70.4918 34.6409 70.3482 34.1697C70.2071 33.6985 70.003 33.3395 69.7359 33.0925C69.4714 32.8456 69.1526 32.7222 68.7797 32.7222C68.2203 32.7222 67.7832 32.9981 67.4682 33.5499C67.1533 34.0992 66.9958 34.8765 66.9958 35.8818C66.9958 36.5521 67.0663 37.1215 67.2074 37.5902C67.3485 38.0588 67.5514 38.4154 67.8159 38.6598C68.083 38.9042 68.4043 39.0264 68.7797 39.0264ZM74.351 32.0116V39.7521H73.4137V32.9943H73.3684L71.4786 34.2491V33.2966L73.4137 32.0116H74.351ZM78.0213 32.0116V39.7521H77.0839V32.9943H77.0386L75.1488 34.2491V33.2966L77.0839 32.0116H78.0213ZM81.495 39.8579C80.9255 39.8579 80.4405 39.7029 80.0398 39.393C79.6392 39.0806 79.3331 38.6283 79.1214 38.0362C78.9098 37.4415 78.8039 36.7234 78.8039 35.8818C78.8039 35.0453 78.9098 34.331 79.1214 33.7388C79.3356 33.1442 79.643 32.6907 80.0436 32.3782C80.4468 32.0633 80.9306 31.9058 81.495 31.9058C82.0594 31.9058 82.5419 32.0633 82.9425 32.3782C83.3457 32.6907 83.6531 33.1442 83.8647 33.7388C84.0789 34.331 84.186 35.0453 84.186 35.8818C84.186 36.7234 84.0802 37.4415 83.8685 38.0362C83.6569 38.6283 83.3507 39.0806 82.9501 39.393C82.5495 39.7029 82.0644 39.8579 81.495 39.8579ZM81.495 39.0264C82.0594 39.0264 82.4978 38.7543 82.8102 38.21C83.1227 37.6658 83.2789 36.8897 83.2789 35.8818C83.2789 35.2116 83.2071 34.6409 83.0635 34.1697C82.9224 33.6985 82.7183 33.3395 82.4512 33.0925C82.1866 32.8456 81.8679 32.7222 81.495 32.7222C80.9356 32.7222 80.4984 32.9981 80.1835 33.5499C79.8685 34.0992 79.711 34.8765 79.711 35.8818C79.711 36.5521 79.7816 37.1215 79.9227 37.5902C80.0638 38.0588 80.2666 38.4154 80.5312 38.6598C80.7983 38.9042 81.1195 39.0264 81.495 39.0264ZM59.9312 41.0116V48.7521H58.9939V41.9943H58.9486L57.0588 43.2491V42.2966L58.9939 41.0116H59.9312ZM63.7079 41.0116V48.7521H62.7706V41.9943H62.7252L60.8355 43.2491V42.2966L62.7706 41.0116H63.7079ZM67.288 48.8579C66.7186 48.8579 66.2335 48.7029 65.8329 48.393C65.4323 48.0806 65.1261 47.6283 64.9145 47.0362C64.7028 46.4415 64.597 45.7234 64.597 44.8818C64.597 44.0453 64.7028 43.331 64.9145 42.7388C65.1286 42.1442 65.436 41.6907 65.8367 41.3782C66.2398 41.0633 66.7236 40.9058 67.288 40.9058C67.8524 40.9058 68.3349 41.0633 68.7356 41.3782C69.1387 41.6907 69.4461 42.1442 69.6578 42.7388C69.872 43.331 69.979 44.0453 69.979 44.8818C69.979 45.7234 69.8732 46.4415 69.6616 47.0362C69.4499 47.6283 69.1438 48.0806 68.7431 48.393C68.3425 48.7029 67.8575 48.8579 67.288 48.8579ZM67.288 48.0264C67.8524 48.0264 68.2908 47.7543 68.6033 47.21C68.9157 46.6658 69.072 45.8897 69.072 44.8818C69.072 44.2116 69.0001 43.6409 68.8565 43.1697C68.7154 42.6985 68.5113 42.3395 68.2442 42.0925C67.9797 41.8456 67.6609 41.7222 67.288 41.7222C66.7286 41.7222 66.2915 41.9981 65.9765 42.5499C65.6616 43.0992 65.5041 43.8765 65.5041 44.8818C65.5041 45.5521 65.5746 46.1215 65.7157 46.5902C65.8568 47.0588 66.0597 47.4154 66.3242 47.6598C66.5913 47.9042 66.9126 48.0264 67.288 48.0264ZM72.7692 48.8579C72.1998 48.8579 71.7147 48.7029 71.3141 48.393C70.9135 48.0806 70.6073 47.6283 70.3957 47.0362C70.184 46.4415 70.0782 45.7234 70.0782 44.8818C70.0782 44.0453 70.184 43.331 70.3957 42.7388C70.6099 42.1442 70.9173 41.6907 71.3179 41.3782C71.721 41.0633 72.2048 40.9058 72.7692 40.9058C73.3336 40.9058 73.8162 41.0633 74.2168 41.3782C74.6199 41.6907 74.9273 42.1442 75.139 42.7388C75.3532 43.331 75.4603 44.0453 75.4603 44.8818C75.4603 45.7234 75.3544 46.4415 75.1428 47.0362C74.9311 47.6283 74.625 48.0806 74.2244 48.393C73.8237 48.7029 73.3387 48.8579 72.7692 48.8579ZM72.7692 48.0264C73.3336 48.0264 73.7721 47.7543 74.0845 47.21C74.397 46.6658 74.5532 45.8897 74.5532 44.8818C74.5532 44.2116 74.4814 43.6409 74.3377 43.1697C74.1966 42.6985 73.9925 42.3395 73.7255 42.0925C73.4609 41.8456 73.1422 41.7222 72.7692 41.7222C72.2099 41.7222 71.7727 41.9981 71.4577 42.5499C71.1428 43.0992 70.9853 43.8765 70.9853 44.8818C70.9853 45.5521 71.0559 46.1215 71.197 46.5902C71.3381 47.0588 71.5409 47.4154 71.8055 47.6598C72.0725 47.9042 72.3938 48.0264 72.7692 48.0264ZM78.447 41.0116V48.7521H77.5097V41.9943H77.4643L75.5746 43.2491V42.2966L77.5097 41.0116H78.447ZM82.0271 48.8579C81.4577 48.8579 80.9726 48.7029 80.572 48.393C80.1714 48.0806 79.8652 47.6283 79.6536 47.0362C79.4419 46.4415 79.3361 45.7234 79.3361 44.8818C79.3361 44.0453 79.4419 43.331 79.6536 42.7388C79.8677 42.1442 80.1752 41.6907 80.5758 41.3782C80.9789 41.0633 81.4627 40.9058 82.0271 40.9058C82.5915 40.9058 83.074 41.0633 83.4747 41.3782C83.8778 41.6907 84.1852 42.1442 84.3969 42.7388C84.6111 43.331 84.7181 44.0453 84.7181 44.8818C84.7181 45.7234 84.6123 46.4415 84.4007 47.0362C84.189 47.6283 83.8829 48.0806 83.4822 48.393C83.0816 48.7029 82.5966 48.8579 82.0271 48.8579ZM82.0271 48.0264C82.5915 48.0264 83.03 47.7543 83.3424 47.21C83.6548 46.6658 83.8111 45.8897 83.8111 44.8818C83.8111 44.2116 83.7392 43.6409 83.5956 43.1697C83.4545 42.6985 83.2504 42.3395 82.9833 42.0925C82.7188 41.8456 82.4 41.7222 82.0271 41.7222C81.4677 41.7222 81.0306 41.9981 80.7156 42.5499C80.4007 43.0992 80.2432 43.8765 80.2432 44.8818C80.2432 45.5521 80.3137 46.1215 80.4548 46.5902C80.5959 47.0588 80.7988 47.4154 81.0633 47.6598C81.3304 47.9042 81.6517 48.0264 82.0271 48.0264ZM59.7347 57.8579C59.1653 57.8579 58.6802 57.7029 58.2796 57.393C57.879 57.0806 57.5728 56.6283 57.3612 56.0362C57.1495 55.4415 57.0437 54.7234 57.0437 53.8818C57.0437 53.0453 57.1495 52.331 57.3612 51.7388C57.5753 51.1442 57.8827 50.6907 58.2834 50.3782C58.6865 50.0633 59.1703 49.9058 59.7347 49.9058C60.2991 49.9058 60.7816 50.0633 61.1823 50.3782C61.5854 50.6907 61.8928 51.1442 62.1045 51.7388C62.3186 52.331 62.4257 53.0453 62.4257 53.8818C62.4257 54.7234 62.3199 55.4415 62.1082 56.0362C61.8966 56.6283 61.5904 57.0806 61.1898 57.393C60.7892 57.7029 60.3041 57.8579 59.7347 57.8579ZM59.7347 57.0264C60.2991 57.0264 60.7375 56.7543 61.05 56.21C61.3624 55.6658 61.5186 54.8897 61.5186 53.8818C61.5186 53.2116 61.4468 52.6409 61.3032 52.1697C61.1621 51.6985 60.958 51.3395 60.6909 51.0925C60.4264 50.8456 60.1076 50.7222 59.7347 50.7222C59.1753 50.7222 58.7382 50.9981 58.4232 51.5499C58.1082 52.0992 57.9508 52.8765 57.9508 53.8818C57.9508 54.5521 58.0213 55.1215 58.1624 55.5902C58.3035 56.0588 58.5064 56.4154 58.7709 56.6598C59.038 56.9042 59.3593 57.0264 59.7347 57.0264ZM65.306 50.0116V57.7521H64.3687V50.9943H64.3234L62.4336 52.2491V51.2966L64.3687 50.0116H65.306ZM68.9763 50.0116V57.7521H68.0389V50.9943H67.9936L66.1038 52.2491V51.2966L68.0389 50.0116H68.9763ZM72.4499 57.8579C71.8805 57.8579 71.3955 57.7029 70.9948 57.393C70.5942 57.0806 70.2881 56.6283 70.0764 56.0362C69.8647 55.4415 69.7589 54.7234 69.7589 53.8818C69.7589 53.0453 69.8647 52.331 70.0764 51.7388C70.2906 51.1442 70.598 50.6907 70.9986 50.3782C71.4018 50.0633 71.8855 49.9058 72.4499 49.9058C73.0144 49.9058 73.4969 50.0633 73.8975 50.3782C74.3007 50.6907 74.6081 51.1442 74.8197 51.7388C75.0339 52.331 75.141 53.0453 75.141 53.8818C75.141 54.7234 75.0351 55.4415 74.8235 56.0362C74.6118 56.6283 74.3057 57.0806 73.9051 57.393C73.5044 57.7029 73.0194 57.8579 72.4499 57.8579ZM72.4499 57.0264C73.0144 57.0264 73.4528 56.7543 73.7652 56.21C74.0777 55.6658 74.2339 54.8897 74.2339 53.8818C74.2339 53.2116 74.1621 52.6409 74.0184 52.1697C73.8773 51.6985 73.6733 51.3395 73.4062 51.0925C73.1416 50.8456 72.8229 50.7222 72.4499 50.7222C71.8906 50.7222 71.4534 50.9981 71.1384 51.5499C70.8235 52.0992 70.666 52.8765 70.666 53.8818C70.666 54.5521 70.7366 55.1215 70.8777 55.5902C71.0188 56.0588 71.2216 56.4154 71.4862 56.6598C71.7533 56.9042 72.0745 57.0264 72.4499 57.0264ZM77.8247 57.8579C77.2553 57.8579 76.7702 57.7029 76.3696 57.393C75.969 57.0806 75.6628 56.6283 75.4512 56.0362C75.2395 55.4415 75.1337 54.7234 75.1337 53.8818C75.1337 53.0453 75.2395 52.331 75.4512 51.7388C75.6654 51.1442 75.9728 50.6907 76.3734 50.3782C76.7765 50.0633 77.2603 49.9058 77.8247 49.9058C78.3891 49.9058 78.8717 50.0633 79.2723 50.3782C79.6754 50.6907 79.9828 51.1442 80.1945 51.7388C80.4087 52.331 80.5158 53.0453 80.5158 53.8818C80.5158 54.7234 80.4099 55.4415 80.1983 56.0362C79.9866 56.6283 79.6805 57.0806 79.2799 57.393C78.8792 57.7029 78.3942 57.8579 77.8247 57.8579ZM77.8247 57.0264C78.3891 57.0264 78.8276 56.7543 79.14 56.21C79.4525 55.6658 79.6087 54.8897 79.6087 53.8818C79.6087 53.2116 79.5369 52.6409 79.3932 52.1697C79.2521 51.6985 79.048 51.3395 78.781 51.0925C78.5164 50.8456 78.1977 50.7222 77.8247 50.7222C77.2654 50.7222 76.8282 50.9981 76.5132 51.5499C76.1983 52.0992 76.0408 52.8765 76.0408 53.8818C76.0408 54.5521 76.1113 55.1215 76.2525 55.5902C76.3936 56.0588 76.5964 56.4154 76.861 56.6598C77.128 56.9042 77.4493 57.0264 77.8247 57.0264ZM83.3961 50.0116V57.7521H82.4587V50.9943H82.4134L80.5236 52.2491V51.2966L82.4587 50.0116H83.3961Z" fill="white"/>
<path d="M59.7347 66.9979C59.1653 66.9979 58.6802 66.843 58.2796 66.5331C57.879 66.2206 57.5728 65.7683 57.3612 65.1762C57.1495 64.5816 57.0437 63.8635 57.0437 63.0219C57.0437 62.1853 57.1495 61.471 57.3612 60.8789C57.5753 60.2842 57.8827 59.8307 58.2834 59.5183C58.6865 59.2033 59.1703 59.0458 59.7347 59.0458C60.2991 59.0458 60.7816 59.2033 61.1823 59.5183C61.5854 59.8307 61.8928 60.2842 62.1045 60.8789C62.3186 61.471 62.4257 62.1853 62.4257 63.0219C62.4257 63.8635 62.3199 64.5816 62.1082 65.1762C61.8966 65.7683 61.5904 66.2206 61.1898 66.5331C60.7892 66.843 60.3041 66.9979 59.7347 66.9979ZM59.7347 66.1665C60.2991 66.1665 60.7375 65.8943 61.05 65.3501C61.3624 64.8058 61.5186 64.0298 61.5186 63.0219C61.5186 62.3516 61.4468 61.7809 61.3032 61.3098C61.1621 60.8386 60.958 60.4795 60.6909 60.2326C60.4264 59.9857 60.1076 59.8622 59.7347 59.8622C59.1753 59.8622 58.7382 60.1381 58.4232 60.6899C58.1082 61.2392 57.9508 62.0165 57.9508 63.0219C57.9508 63.6921 58.0213 64.2616 58.1624 64.7302C58.3035 65.1989 58.5064 65.5554 58.7709 65.7998C59.038 66.0442 59.3593 66.1665 59.7347 66.1665ZM65.306 59.1516V66.8921H64.3687V60.1343H64.3234L62.4336 61.3891V60.4367L64.3687 59.1516H65.306ZM68.7797 66.9979C68.2103 66.9979 67.7252 66.843 67.3246 66.5331C66.924 66.2206 66.6178 65.7683 66.4062 65.1762C66.1945 64.5816 66.0887 63.8635 66.0887 63.0219C66.0887 62.1853 66.1945 61.471 66.4062 60.8789C66.6203 60.2842 66.9277 59.8307 67.3284 59.5183C67.7315 59.2033 68.2153 59.0458 68.7797 59.0458C69.3441 59.0458 69.8266 59.2033 70.2273 59.5183C70.6304 59.8307 70.9378 60.2842 71.1495 60.8789C71.3637 61.471 71.4707 62.1853 71.4707 63.0219C71.4707 63.8635 71.3649 64.5816 71.1533 65.1762C70.9416 65.7683 70.6355 66.2206 70.2348 66.5331C69.8342 66.843 69.3492 66.9979 68.7797 66.9979ZM68.7797 66.1665C69.3441 66.1665 69.7826 65.8943 70.095 65.3501C70.4074 64.8058 70.5637 64.0298 70.5637 63.0219C70.5637 62.3516 70.4918 61.7809 70.3482 61.3098C70.2071 60.8386 70.003 60.4795 69.7359 60.2326C69.4714 59.9857 69.1526 59.8622 68.7797 59.8622C68.2203 59.8622 67.7832 60.1381 67.4682 60.6899C67.1533 61.2392 66.9958 62.0165 66.9958 63.0219C66.9958 63.6921 67.0663 64.2616 67.2074 64.7302C67.3485 65.1989 67.5514 65.5554 67.8159 65.7998C68.083 66.0442 68.4043 66.1665 68.7797 66.1665ZM74.351 59.1516V66.8921H73.4137V60.1343H73.3684L71.4786 61.3891V60.4367L73.4137 59.1516H74.351ZM78.0213 59.1516V66.8921H77.0839V60.1343H77.0386L75.1488 61.3891V60.4367L77.0839 59.1516H78.0213ZM81.495 66.9979C80.9255 66.9979 80.4405 66.843 80.0398 66.5331C79.6392 66.2206 79.3331 65.7683 79.1214 65.1762C78.9098 64.5816 78.8039 63.8635 78.8039 63.0219C78.8039 62.1853 78.9098 61.471 79.1214 60.8789C79.3356 60.2842 79.643 59.8307 80.0436 59.5183C80.4468 59.2033 80.9306 59.0458 81.495 59.0458C82.0594 59.0458 82.5419 59.2033 82.9425 59.5183C83.3457 59.8307 83.6531 60.2842 83.8647 60.8789C84.0789 61.471 84.186 62.1853 84.186 63.0219C84.186 63.8635 84.0802 64.5816 83.8685 65.1762C83.6569 65.7683 83.3507 66.2206 82.9501 66.5331C82.5495 66.843 82.0644 66.9979 81.495 66.9979ZM81.495 66.1665C82.0594 66.1665 82.4978 65.8943 82.8102 65.3501C83.1227 64.8058 83.2789 64.0298 83.2789 63.0219C83.2789 62.3516 83.2071 61.7809 83.0635 61.3098C82.9224 60.8386 82.7183 60.4795 82.4512 60.2326C82.1866 59.9857 81.8679 59.8622 81.495 59.8622C80.9356 59.8622 80.4984 60.1381 80.1835 60.6899C79.8685 61.2392 79.711 62.0165 79.711 63.0219C79.711 63.6921 79.7816 64.2616 79.9227 64.7302C80.0638 65.1989 80.2666 65.5554 80.5312 65.7998C80.7983 66.0442 81.1195 66.1665 81.495 66.1665ZM59.9312 68.1516V75.8921H58.9939V69.1343H58.9486L57.0588 70.3891V69.4367L58.9939 68.1516H59.9312ZM63.6015 68.1516V75.8921H62.6641V69.1343H62.6188L60.729 70.3891V69.4367L62.6641 68.1516H63.6015ZM67.0752 75.9979C66.5057 75.9979 66.0207 75.843 65.62 75.5331C65.2194 75.2206 64.9133 74.7683 64.7016 74.1762C64.49 73.5816 64.3841 72.8635 64.3841 72.0219C64.3841 71.1853 64.49 70.471 64.7016 69.8789C64.9158 69.2842 65.2232 68.8307 65.6238 68.5183C66.027 68.2033 66.5107 68.0458 67.0752 68.0458C67.6396 68.0458 68.1221 68.2033 68.5227 68.5183C68.9259 68.8307 69.2333 69.2842 69.4449 69.8789C69.6591 70.471 69.7662 71.1853 69.7662 72.0219C69.7662 72.8635 69.6603 73.5816 69.4487 74.1762C69.237 74.7683 68.9309 75.2206 68.5303 75.5331C68.1296 75.843 67.6446 75.9979 67.0752 75.9979ZM67.0752 75.1665C67.6396 75.1665 68.078 74.8943 68.3904 74.3501C68.7029 73.8058 68.8591 73.0298 68.8591 72.0219C68.8591 71.3516 68.7873 70.7809 68.6437 70.3098C68.5026 69.8386 68.2985 69.4795 68.0314 69.2326C67.7668 68.9857 67.4481 68.8622 67.0752 68.8622C66.5158 68.8622 66.0786 69.1381 65.7637 69.6899C65.4487 70.2392 65.2912 71.0165 65.2912 72.0219C65.2912 72.6921 65.3618 73.2616 65.5029 73.7302C65.644 74.1989 65.8468 74.5554 66.1114 74.7998C66.3785 75.0442 66.6997 75.1665 67.0752 75.1665ZM72.4499 75.9979C71.8805 75.9979 71.3955 75.843 70.9948 75.5331C70.5942 75.2206 70.2881 74.7683 70.0764 74.1762C69.8647 73.5816 69.7589 72.8635 69.7589 72.0219C69.7589 71.1853 69.8647 70.471 70.0764 69.8789C70.2906 69.2842 70.598 68.8307 70.9986 68.5183C71.4018 68.2033 71.8855 68.0458 72.4499 68.0458C73.0144 68.0458 73.4969 68.2033 73.8975 68.5183C74.3007 68.8307 74.6081 69.2842 74.8197 69.8789C75.0339 70.471 75.141 71.1853 75.141 72.0219C75.141 72.8635 75.0351 73.5816 74.8235 74.1762C74.6118 74.7683 74.3057 75.2206 73.9051 75.5331C73.5044 75.843 73.0194 75.9979 72.4499 75.9979ZM72.4499 75.1665C73.0144 75.1665 73.4528 74.8943 73.7652 74.3501C74.0777 73.8058 74.2339 73.0298 74.2339 72.0219C74.2339 71.3516 74.1621 70.7809 74.0184 70.3098C73.8773 69.8386 73.6733 69.4795 73.4062 69.2326C73.1416 68.9857 72.8229 68.8622 72.4499 68.8622C71.8906 68.8622 71.4534 69.1381 71.1384 69.6899C70.8235 70.2392 70.666 71.0165 70.666 72.0219C70.666 72.6921 70.7366 73.2616 70.8777 73.7302C71.0188 74.1989 71.2216 74.5554 71.4862 74.7998C71.7533 75.0442 72.0745 75.1665 72.4499 75.1665ZM78.0213 68.1516V75.8921H77.0839V69.1343H77.0386L75.1488 70.3891V69.4367L77.0839 68.1516H78.0213ZM81.495 75.9979C80.9255 75.9979 80.4405 75.843 80.0398 75.5331C79.6392 75.2206 79.3331 74.7683 79.1214 74.1762C78.9098 73.5816 78.8039 72.8635 78.8039 72.0219C78.8039 71.1853 78.9098 70.471 79.1214 69.8789C79.3356 69.2842 79.643 68.8307 80.0436 68.5183C80.4468 68.2033 80.9306 68.0458 81.495 68.0458C82.0594 68.0458 82.5419 68.2033 82.9425 68.5183C83.3457 68.8307 83.6531 69.2842 83.8647 69.8789C84.0789 70.471 84.186 71.1853 84.186 72.0219C84.186 72.8635 84.0802 73.5816 83.8685 74.1762C83.6569 74.7683 83.3507 75.2206 82.9501 75.5331C82.5495 75.843 82.0644 75.9979 81.495 75.9979ZM81.495 75.1665C82.0594 75.1665 82.4978 74.8943 82.8102 74.3501C83.1227 73.8058 83.2789 73.0298 83.2789 72.0219C83.2789 71.3516 83.2071 70.7809 83.0635 70.3098C82.9224 69.8386 82.7183 69.4795 82.4512 69.2326C82.1866 68.9857 81.8679 68.8622 81.495 68.8622C80.9356 68.8622 80.4984 69.1381 80.1835 69.6899C79.8685 70.2392 79.711 71.0165 79.711 72.0219C79.711 72.6921 79.7816 73.2616 79.9227 73.7302C80.0638 74.1989 80.2666 74.5554 80.5312 74.7998C80.7983 75.0442 81.1195 75.1665 81.495 75.1665ZM59.7347 84.9979C59.1653 84.9979 58.6802 84.843 58.2796 84.5331C57.879 84.2206 57.5728 83.7683 57.3612 83.1762C57.1495 82.5816 57.0437 81.8635 57.0437 81.0219C57.0437 80.1853 57.1495 79.471 57.3612 78.8789C57.5753 78.2842 57.8827 77.8307 58.2834 77.5183C58.6865 77.2033 59.1703 77.0458 59.7347 77.0458C60.2991 77.0458 60.7816 77.2033 61.1823 77.5183C61.5854 77.8307 61.8928 78.2842 62.1045 78.8789C62.3186 79.471 62.4257 80.1853 62.4257 81.0219C62.4257 81.8635 62.3199 82.5816 62.1082 83.1762C61.8966 83.7683 61.5904 84.2206 61.1898 84.5331C60.7892 84.843 60.3041 84.9979 59.7347 84.9979ZM59.7347 84.1665C60.2991 84.1665 60.7375 83.8943 61.05 83.3501C61.3624 82.8058 61.5186 82.0298 61.5186 81.0219C61.5186 80.3516 61.4468 79.7809 61.3032 79.3098C61.1621 78.8386 60.958 78.4795 60.6909 78.2326C60.4264 77.9857 60.1076 77.8622 59.7347 77.8622C59.1753 77.8622 58.7382 78.1381 58.4232 78.6899C58.1082 79.2392 57.9508 80.0165 57.9508 81.0219C57.9508 81.6921 58.0213 82.2616 58.1624 82.7302C58.3035 83.1989 58.5064 83.5554 58.7709 83.7998C59.038 84.0442 59.3593 84.1665 59.7347 84.1665ZM65.306 77.1516V84.8921H64.3687V78.1343H64.3234L62.4336 79.3891V78.4367L64.3687 77.1516H65.306ZM68.9763 77.1516V84.8921H68.0389V78.1343H67.9936L66.1038 79.3891V78.4367L68.0389 77.1516H68.9763ZM72.4499 84.9979C71.8805 84.9979 71.3955 84.843 70.9948 84.5331C70.5942 84.2206 70.2881 83.7683 70.0764 83.1762C69.8647 82.5816 69.7589 81.8635 69.7589 81.0219C69.7589 80.1853 69.8647 79.471 70.0764 78.8789C70.2906 78.2842 70.598 77.8307 70.9986 77.5183C71.4018 77.2033 71.8855 77.0458 72.4499 77.0458C73.0144 77.0458 73.4969 77.2033 73.8975 77.5183C74.3007 77.8307 74.6081 78.2842 74.8197 78.8789C75.0339 79.471 75.141 80.1853 75.141 81.0219C75.141 81.8635 75.0351 82.5816 74.8235 83.1762C74.6118 83.7683 74.3057 84.2206 73.9051 84.5331C73.5044 84.843 73.0194 84.9979 72.4499 84.9979ZM72.4499 84.1665C73.0144 84.1665 73.4528 83.8943 73.7652 83.3501C74.0777 82.8058 74.2339 82.0298 74.2339 81.0219C74.2339 80.3516 74.1621 79.7809 74.0184 79.3098C73.8773 78.8386 73.6733 78.4795 73.4062 78.2326C73.1416 77.9857 72.8229 77.8622 72.4499 77.8622C71.8906 77.8622 71.4534 78.1381 71.1384 78.6899C70.8235 79.2392 70.666 80.0165 70.666 81.0219C70.666 81.6921 70.7366 82.2616 70.8777 82.7302C71.0188 83.1989 71.2216 83.5554 71.4862 83.7998C71.7533 84.0442 72.0745 84.1665 72.4499 84.1665ZM77.8247 84.9979C77.2553 84.9979 76.7702 84.843 76.3696 84.5331C75.969 84.2206 75.6628 83.7683 75.4512 83.1762C75.2395 82.5816 75.1337 81.8635 75.1337 81.0219C75.1337 80.1853 75.2395 79.471 75.4512 78.8789C75.6654 78.2842 75.9728 77.8307 76.3734 77.5183C76.7765 77.2033 77.2603 77.0458 77.8247 77.0458C78.3891 77.0458 78.8717 77.2033 79.2723 77.5183C79.6754 77.8307 79.9828 78.2842 80.1945 78.8789C80.4087 79.471 80.5158 80.1853 80.5158 81.0219C80.5158 81.8635 80.4099 82.5816 80.1983 83.1762C79.9866 83.7683 79.6805 84.2206 79.2799 84.5331C78.8792 84.843 78.3942 84.9979 77.8247 84.9979ZM77.8247 84.1665C78.3891 84.1665 78.8276 83.8943 79.14 83.3501C79.4525 82.8058 79.6087 82.0298 79.6087 81.0219C79.6087 80.3516 79.5369 79.7809 79.3932 79.3098C79.2521 78.8386 79.048 78.4795 78.781 78.2326C78.5164 77.9857 78.1977 77.8622 77.8247 77.8622C77.2654 77.8622 76.8282 78.1381 76.5132 78.6899C76.1983 79.2392 76.0408 80.0165 76.0408 81.0219C76.0408 81.6921 76.1113 82.2616 76.2525 82.7302C76.3936 83.1989 76.5964 83.5554 76.861 83.7998C77.128 84.0442 77.4493 84.1665 77.8247 84.1665ZM83.3961 77.1516V84.8921H82.4587V78.1343H82.4134L80.5236 79.3891V78.4367L82.4587 77.1516H83.3961Z" fill="white"/>
<path d="M31.7077 66.9979C31.1383 66.9979 30.6532 66.843 30.2526 66.5331C29.852 66.2206 29.5458 65.7683 29.3342 65.1762C29.1225 64.5816 29.0167 63.8635 29.0167 63.0219C29.0167 62.1853 29.1225 61.471 29.3342 60.8789C29.5484 60.2842 29.8558 59.8307 30.2564 59.5183C30.6595 59.2033 31.1433 59.0458 31.7077 59.0458C32.2721 59.0458 32.7547 59.2033 33.1553 59.5183C33.5584 59.8307 33.8658 60.2842 34.0775 60.8789C34.2917 61.471 34.3988 62.1853 34.3988 63.0219C34.3988 63.8635 34.2929 64.5816 34.0813 65.1762C33.8696 65.7683 33.5635 66.2206 33.1628 66.5331C32.7622 66.843 32.2772 66.9979 31.7077 66.9979ZM31.7077 66.1665C32.2721 66.1665 32.7106 65.8943 33.023 65.3501C33.3354 64.8058 33.4917 64.0298 33.4917 63.0219C33.4917 62.3516 33.4199 61.7809 33.2762 61.3098C33.1351 60.8386 32.931 60.4795 32.664 60.2326C32.3994 59.9857 32.0806 59.8622 31.7077 59.8622C31.1484 59.8622 30.7112 60.1381 30.3962 60.6899C30.0813 61.2392 29.9238 62.0165 29.9238 63.0219C29.9238 63.6921 29.9943 64.2616 30.1354 64.7302C30.2765 65.1989 30.4794 65.5554 30.744 65.7998C31.011 66.0442 31.3323 66.1665 31.7077 66.1665ZM37.2791 59.1516V66.8921H36.3417V60.1343H36.2964L34.4066 61.3891V60.4367L36.3417 59.1516H37.2791ZM40.7527 66.9979C40.1833 66.9979 39.6983 66.843 39.2976 66.5331C38.897 66.2206 38.5909 65.7683 38.3792 65.1762C38.1676 64.5816 38.0617 63.8635 38.0617 63.0219C38.0617 62.1853 38.1676 61.471 38.3792 60.8789C38.5934 60.2842 38.9008 59.8307 39.3014 59.5183C39.7046 59.2033 40.1883 59.0458 40.7527 59.0458C41.3172 59.0458 41.7997 59.2033 42.2003 59.5183C42.6035 59.8307 42.9109 60.2842 43.1225 60.8789C43.3367 61.471 43.4438 62.1853 43.4438 63.0219C43.4438 63.8635 43.3379 64.5816 43.1263 65.1762C42.9146 65.7683 42.6085 66.2206 42.2079 66.5331C41.8072 66.843 41.3222 66.9979 40.7527 66.9979ZM40.7527 66.1665C41.3172 66.1665 41.7556 65.8943 42.068 65.3501C42.3805 64.8058 42.5367 64.0298 42.5367 63.0219C42.5367 62.3516 42.4649 61.7809 42.3213 61.3098C42.1802 60.8386 41.9761 60.4795 41.709 60.2326C41.4444 59.9857 41.1257 59.8622 40.7527 59.8622C40.1934 59.8622 39.7562 60.1381 39.4413 60.6899C39.1263 61.2392 38.9688 62.0165 38.9688 63.0219C38.9688 63.6921 39.0394 64.2616 39.1805 64.7302C39.3216 65.1989 39.5244 65.5554 39.789 65.7998C40.0561 66.0442 40.3773 66.1665 40.7527 66.1665ZM46.3241 59.1516V66.8921H45.3868V60.1343H45.3414L43.4516 61.3891V60.4367L45.3868 59.1516H46.3241ZM49.9943 59.1516V66.8921H49.057V60.1343H49.0116L47.1219 61.3891V60.4367L49.057 59.1516H49.9943ZM53.468 66.9979C52.8985 66.9979 52.4135 66.843 52.0129 66.5331C51.6122 66.2206 51.3061 65.7683 51.0944 65.1762C50.8828 64.5816 50.777 63.8635 50.777 63.0219C50.777 62.1853 50.8828 61.471 51.0944 60.8789C51.3086 60.2842 51.616 59.8307 52.0167 59.5183C52.4198 59.2033 52.9036 59.0458 53.468 59.0458C54.0324 59.0458 54.5149 59.2033 54.9156 59.5183C55.3187 59.8307 55.6261 60.2842 55.8378 60.8789C56.0519 61.471 56.159 62.1853 56.159 63.0219C56.159 63.8635 56.0532 64.5816 55.8415 65.1762C55.6299 65.7683 55.3237 66.2206 54.9231 66.5331C54.5225 66.843 54.0374 66.9979 53.468 66.9979ZM53.468 66.1665C54.0324 66.1665 54.4708 65.8943 54.7833 65.3501C55.0957 64.8058 55.2519 64.0298 55.2519 63.0219C55.2519 62.3516 55.1801 61.7809 55.0365 61.3098C54.8954 60.8386 54.6913 60.4795 54.4242 60.2326C54.1596 59.9857 53.8409 59.8622 53.468 59.8622C52.9086 59.8622 52.4715 60.1381 52.1565 60.6899C51.8415 61.2392 51.6841 62.0165 51.6841 63.0219C51.6841 63.6921 51.7546 64.2616 51.8957 64.7302C52.0368 65.1989 52.2396 65.5554 52.5042 65.7998C52.7713 66.0442 53.0926 66.1665 53.468 66.1665ZM31.9043 68.1516V75.8921H30.9669V69.1343H30.9216L29.0318 70.3891V69.4367L30.9669 68.1516H31.9043ZM35.5745 68.1516V75.8921H34.6372V69.1343H34.5918L32.702 70.3891V69.4367L34.6372 68.1516H35.5745ZM39.0482 75.9979C38.4787 75.9979 37.9937 75.843 37.5931 75.5331C37.1924 75.2206 36.8863 74.7683 36.6746 74.1762C36.463 73.5816 36.3572 72.8635 36.3572 72.0219C36.3572 71.1853 36.463 70.471 36.6746 69.8789C36.8888 69.2842 37.1962 68.8307 37.5968 68.5183C38 68.2033 38.4838 68.0458 39.0482 68.0458C39.6126 68.0458 40.0951 68.2033 40.4957 68.5183C40.8989 68.8307 41.2063 69.2842 41.4179 69.8789C41.6321 70.471 41.7392 71.1853 41.7392 72.0219C41.7392 72.8635 41.6334 73.5816 41.4217 74.1762C41.2101 74.7683 40.9039 75.2206 40.5033 75.5331C40.1027 75.843 39.6176 75.9979 39.0482 75.9979ZM39.0482 75.1665C39.6126 75.1665 40.051 74.8943 40.3635 74.3501C40.6759 73.8058 40.8321 73.0298 40.8321 72.0219C40.8321 71.3516 40.7603 70.7809 40.6167 70.3098C40.4756 69.8386 40.2715 69.4795 40.0044 69.2326C39.7398 68.9857 39.4211 68.8622 39.0482 68.8622C38.4888 68.8622 38.0516 69.1381 37.7367 69.6899C37.4217 70.2392 37.2642 71.0165 37.2642 72.0219C37.2642 72.6921 37.3348 73.2616 37.4759 73.7302C37.617 74.1989 37.8198 74.5554 38.0844 74.7998C38.3515 75.0442 38.6727 75.1665 39.0482 75.1665ZM44.423 75.9979C43.8535 75.9979 43.3685 75.843 42.9679 75.5331C42.5672 75.2206 42.2611 74.7683 42.0494 74.1762C41.8378 73.5816 41.7319 72.8635 41.7319 72.0219C41.7319 71.1853 41.8378 70.471 42.0494 69.8789C42.2636 69.2842 42.571 68.8307 42.9716 68.5183C43.3748 68.2033 43.8586 68.0458 44.423 68.0458C44.9874 68.0458 45.4699 68.2033 45.8705 68.5183C46.2737 68.8307 46.5811 69.2842 46.7927 69.8789C47.0069 70.471 47.114 71.1853 47.114 72.0219C47.114 72.8635 47.0082 73.5816 46.7965 74.1762C46.5849 74.7683 46.2787 75.2206 45.8781 75.5331C45.4775 75.843 44.9924 75.9979 44.423 75.9979ZM44.423 75.1665C44.9874 75.1665 45.4258 74.8943 45.7382 74.3501C46.0507 73.8058 46.2069 73.0298 46.2069 72.0219C46.2069 71.3516 46.1351 70.7809 45.9915 70.3098C45.8504 69.8386 45.6463 69.4795 45.3792 69.2326C45.1146 68.9857 44.7959 68.8622 44.423 68.8622C43.8636 68.8622 43.4264 69.1381 43.1115 69.6899C42.7965 70.2392 42.639 71.0165 42.639 72.0219C42.639 72.6921 42.7096 73.2616 42.8507 73.7302C42.9918 74.1989 43.1946 74.5554 43.4592 74.7998C43.7263 75.0442 44.0475 75.1665 44.423 75.1665ZM49.9943 68.1516V75.8921H49.057V69.1343H49.0116L47.1219 70.3891V69.4367L49.057 68.1516H49.9943ZM53.468 75.9979C52.8985 75.9979 52.4135 75.843 52.0129 75.5331C51.6122 75.2206 51.3061 74.7683 51.0944 74.1762C50.8828 73.5816 50.777 72.8635 50.777 72.0219C50.777 71.1853 50.8828 70.471 51.0944 69.8789C51.3086 69.2842 51.616 68.8307 52.0167 68.5183C52.4198 68.2033 52.9036 68.0458 53.468 68.0458C54.0324 68.0458 54.5149 68.2033 54.9156 68.5183C55.3187 68.8307 55.6261 69.2842 55.8378 69.8789C56.0519 70.471 56.159 71.1853 56.159 72.0219C56.159 72.8635 56.0532 73.5816 55.8415 74.1762C55.6299 74.7683 55.3237 75.2206 54.9231 75.5331C54.5225 75.843 54.0374 75.9979 53.468 75.9979ZM53.468 75.1665C54.0324 75.1665 54.4708 74.8943 54.7833 74.3501C55.0957 73.8058 55.2519 73.0298 55.2519 72.0219C55.2519 71.3516 55.1801 70.7809 55.0365 70.3098C54.8954 69.8386 54.6913 69.4795 54.4242 69.2326C54.1596 68.9857 53.8409 68.8622 53.468 68.8622C52.9086 68.8622 52.4715 69.1381 52.1565 69.6899C51.8415 70.2392 51.6841 71.0165 51.6841 72.0219C51.6841 72.6921 51.7546 73.2616 51.8957 73.7302C52.0368 74.1989 52.2396 74.5554 52.5042 74.7998C52.7713 75.0442 53.0926 75.1665 53.468 75.1665ZM31.7077 84.9979C31.1383 84.9979 30.6532 84.843 30.2526 84.5331C29.852 84.2206 29.5458 83.7683 29.3342 83.1762C29.1225 82.5816 29.0167 81.8635 29.0167 81.0219C29.0167 80.1853 29.1225 79.471 29.3342 78.8789C29.5484 78.2842 29.8558 77.8307 30.2564 77.5183C30.6595 77.2033 31.1433 77.0458 31.7077 77.0458C32.2721 77.0458 32.7547 77.2033 33.1553 77.5183C33.5584 77.8307 33.8658 78.2842 34.0775 78.8789C34.2917 79.471 34.3988 80.1853 34.3988 81.0219C34.3988 81.8635 34.2929 82.5816 34.0813 83.1762C33.8696 83.7683 33.5635 84.2206 33.1628 84.5331C32.7622 84.843 32.2772 84.9979 31.7077 84.9979ZM31.7077 84.1665C32.2721 84.1665 32.7106 83.8943 33.023 83.3501C33.3354 82.8058 33.4917 82.0298 33.4917 81.0219C33.4917 80.3516 33.4199 79.7809 33.2762 79.3098C33.1351 78.8386 32.931 78.4795 32.664 78.2326C32.3994 77.9857 32.0806 77.8622 31.7077 77.8622C31.1484 77.8622 30.7112 78.1381 30.3962 78.6899C30.0813 79.2392 29.9238 80.0165 29.9238 81.0219C29.9238 81.6921 29.9943 82.2616 30.1354 82.7302C30.2765 83.1989 30.4794 83.5554 30.744 83.7998C31.011 84.0442 31.3323 84.1665 31.7077 84.1665ZM37.2791 77.1516V84.8921H36.3417V78.1343H36.2964L34.4066 79.3891V78.4367L36.3417 77.1516H37.2791ZM40.9493 77.1516V84.8921H40.012V78.1343H39.9666L38.0768 79.3891V78.4367L40.012 77.1516H40.9493ZM44.423 84.9979C43.8535 84.9979 43.3685 84.843 42.9679 84.5331C42.5672 84.2206 42.2611 83.7683 42.0494 83.1762C41.8378 82.5816 41.7319 81.8635 41.7319 81.0219C41.7319 80.1853 41.8378 79.471 42.0494 78.8789C42.2636 78.2842 42.571 77.8307 42.9716 77.5183C43.3748 77.2033 43.8586 77.0458 44.423 77.0458C44.9874 77.0458 45.4699 77.2033 45.8705 77.5183C46.2737 77.8307 46.5811 78.2842 46.7927 78.8789C47.0069 79.471 47.114 80.1853 47.114 81.0219C47.114 81.8635 47.0082 82.5816 46.7965 83.1762C46.5849 83.7683 46.2787 84.2206 45.8781 84.5331C45.4775 84.843 44.9924 84.9979 44.423 84.9979ZM44.423 84.1665C44.9874 84.1665 45.4258 83.8943 45.7382 83.3501C46.0507 82.8058 46.2069 82.0298 46.2069 81.0219C46.2069 80.3516 46.1351 79.7809 45.9915 79.3098C45.8504 78.8386 45.6463 78.4795 45.3792 78.2326C45.1146 77.9857 44.7959 77.8622 44.423 77.8622C43.8636 77.8622 43.4264 78.1381 43.1115 78.6899C42.7965 79.2392 42.639 80.0165 42.639 81.0219C42.639 81.6921 42.7096 82.2616 42.8507 82.7302C42.9918 83.1989 43.1946 83.5554 43.4592 83.7998C43.7263 84.0442 44.0475 84.1665 44.423 84.1665ZM49.7978 84.9979C49.2283 84.9979 48.7433 84.843 48.3426 84.5331C47.942 84.2206 47.6359 83.7683 47.4242 83.1762C47.2126 82.5816 47.1067 81.8635 47.1067 81.0219C47.1067 80.1853 47.2126 79.471 47.4242 78.8789C47.6384 78.2842 47.9458 77.8307 48.3464 77.5183C48.7496 77.2033 49.2334 77.0458 49.7978 77.0458C50.3622 77.0458 50.8447 77.2033 51.2453 77.5183C51.6485 77.8307 51.9559 78.2842 52.1675 78.8789C52.3817 79.471 52.4888 80.1853 52.4888 81.0219C52.4888 81.8635 52.383 82.5816 52.1713 83.1762C51.9597 83.7683 51.6535 84.2206 51.2529 84.5331C50.8523 84.843 50.3672 84.9979 49.7978 84.9979ZM49.7978 84.1665C50.3622 84.1665 50.8006 83.8943 51.113 83.3501C51.4255 82.8058 51.5817 82.0298 51.5817 81.0219C51.5817 80.3516 51.5099 79.7809 51.3663 79.3098C51.2252 78.8386 51.0211 78.4795 50.754 78.2326C50.4894 77.9857 50.1707 77.8622 49.7978 77.8622C49.2384 77.8622 48.8012 78.1381 48.4863 78.6899C48.1713 79.2392 48.0138 80.0165 48.0138 81.0219C48.0138 81.6921 48.0844 82.2616 48.2255 82.7302C48.3666 83.1989 48.5694 83.5554 48.834 83.7998C49.1011 84.0442 49.4223 84.1665 49.7978 84.1665ZM55.3691 77.1516V84.8921H54.4318V78.1343H54.3864L52.4967 79.3891V78.4367L54.4318 77.1516H55.3691Z" fill="white"/>
</svg>
