<svg xmlns="http://www.w3.org/2000/svg" width="218" height="44" viewBox="0 0 218 44" fill="none">
<path d="M23.8499 0.826312C23.6499 0.976312 23.4999 4.57631 23.4999 8.77631C23.4999 17.0263 23.4999 16.9763 26.4499 16.9763C28.4499 16.9763 28.9999 16.1263 28.9999 13.0763C28.9999 10.8263 29.1499 10.4263 29.7999 10.6763C30.2499 10.8263 30.6499 10.9763 30.7999 10.9763C30.8999 10.9763 31.5999 12.1763 32.2999 13.5763C33.8499 16.6263 34.1999 16.9763 36.2499 16.9763C38.9499 16.9763 39.1999 16.4263 37.8499 13.3763C37.1499 11.8263 36.3499 10.4263 36.0499 10.2763C35.6499 10.0263 35.7999 9.52631 36.4999 8.62631C38.6499 5.87631 37.1499 1.97631 33.5999 0.976312C31.5499 0.426312 24.3499 0.276312 23.8499 0.826312ZM30.8999 4.27631C31.7999 4.52631 31.9999 4.92631 31.8999 5.92631C31.7999 6.92631 31.4499 7.27631 30.3999 7.37631C29.0999 7.52631 28.9999 7.42631 28.9999 5.77631C28.9999 3.87631 29.0999 3.82631 30.8999 4.27631Z" fill="white"/>
<path d="M53.65 1.07632C53 1.87632 47 15.4263 47 16.0263C47 16.2763 48.15 16.4763 49.55 16.4763C51.9 16.4763 52.1 16.3763 52.55 14.9763C53.1 13.5263 53.2 13.4763 56.35 13.4763C59.5 13.4763 59.6 13.5263 60.15 14.9763C60.65 16.3263 60.9 16.4763 63.1 16.4763C64.4 16.4763 65.55 16.3263 65.65 16.1263C65.8 15.8763 64.4 12.3263 62.55 8.22632L59.2 0.726318L56.7 0.576318C55.05 0.476318 54 0.676318 53.65 1.07632ZM57.3 7.72632C58.3 10.1763 58.2 10.4763 56.25 10.4763H54.55L55.4 8.22632C55.85 6.97632 56.3 5.97632 56.4 5.97632C56.5 5.97632 56.9 6.77632 57.3 7.72632Z" fill="white"/>
<path d="M74.35 0.826318C74.15 0.976318 74 4.57632 74 8.77632V16.4763L75.2 16.7763C75.85 16.9263 76.95 16.9763 77.55 16.8763C78.7 16.7263 78.75 16.5263 78.9 12.5763L79.05 8.37632L83.15 12.6763C86.55 16.2263 87.5 16.9763 88.75 16.9763C91.5 16.9263 91.55 16.8263 91.4 8.42632L91.25 0.726318H88.75H86.25L86 4.62632L85.75 8.47632L82.1 4.47632C78.75 0.826318 78.25 0.476318 76.55 0.476318C75.5 0.476318 74.5 0.626318 74.35 0.826318Z" fill="white"/>
<path d="M101.35 0.826318C101.15 0.976318 101 4.57632 101 8.82632V16.4763H106.75C113.4 16.4763 114.8 16.0263 116.55 13.1763C118.65 9.77632 117.7 4.77632 114.5 2.37632C112.55 0.976318 102.4 -0.273682 101.35 0.826318ZM110.65 5.07632C111.75 5.92632 112.4 8.32632 112.05 10.2263C111.7 11.8763 110.05 12.9763 107.9 12.9763H106.5V8.72632V4.47632H108.15C109.05 4.47632 110.2 4.77632 110.65 5.07632Z" fill="white"/>
<path d="M129.9 0.976282C126.6 1.97628 124 5.37628 124 8.72628C124 10.7263 125.5 13.9263 127 14.9763C131.9 18.4763 138.9 17.0263 141.5 12.0763C142.2 10.6263 142.25 7.22628 141.6 5.42628C140.2 1.82628 134.45 -0.373719 129.9 0.976282ZM135.75 6.22628C136.45 6.87628 137 8.02628 137 8.72628C137 10.5263 134.9 12.4763 133 12.4763C130.95 12.4763 129.5 10.9263 129.5 8.72628C129.5 5.22628 133.3 3.72628 135.75 6.22628Z" fill="white"/>
<path d="M149.85 0.82631C149.65 0.97631 149.5 4.57631 149.5 8.77631C149.5 17.0263 149.5 16.9763 152.45 16.9763C154.55 16.9763 155 16.1263 155 12.2263L155.05 8.72631L158.9 12.8263C162.1 16.2263 163.1 16.9763 164.3 16.9763C167 16.9763 167.05 16.8263 166.9 8.42631L166.75 0.72631L164.85 0.57631C162.05 0.32631 161.5 1.02631 161.5 4.87631V8.22631L157.6 4.32631C154.25 0.976311 153.5 0.47631 151.95 0.47631C150.95 0.47631 150 0.62631 149.85 0.82631Z" fill="white"/>
<path d="M0.399939 27.7763C0.149939 27.9763 -6.10352e-05 31.5763 -6.10352e-05 35.7763V43.4763L1.29994 43.7763C3.59994 44.3763 11.3499 43.6763 12.7499 42.7763C15.1999 41.1763 15.5499 37.9763 13.4999 36.0763C12.5499 35.1763 12.5499 35.0263 13.2499 33.3263C14.1499 31.1763 13.6499 29.3763 11.9499 28.4263C10.6499 27.7763 0.949939 27.1763 0.399939 27.7763ZM8.69994 31.7763C9.14994 32.8763 8.14994 33.9763 6.69994 33.9763C5.69994 33.9763 5.49994 33.7263 5.49994 32.4763C5.49994 31.1763 5.64994 30.9763 6.94994 30.9763C7.79994 30.9763 8.49994 31.2763 8.69994 31.7763ZM8.69994 37.6263C10.2499 38.7263 9.49994 40.2263 7.34994 40.3763C5.54994 40.5263 5.49994 40.5263 5.49994 38.7763C5.49994 37.2263 5.64994 36.9763 6.64994 36.9763C7.29994 36.9763 8.19994 37.2763 8.69994 37.6263Z" fill="white"/>
<path d="M23.8499 27.7763C23.6499 27.9763 23.4999 31.4763 23.4999 35.4763C23.4999 41.1762 23.6499 42.9763 24.1999 43.4263C24.6499 43.8262 26.7499 43.9762 30.2999 43.8763L35.7499 43.7263L35.8999 41.5763L36.0499 39.4763H32.5499H29.0499L28.8999 33.5763L28.7499 27.7263L26.4999 27.5763C25.2499 27.4763 24.0499 27.5763 23.8499 27.7763Z" fill="white"/>
<path d="M50.05 28.3763C49.35 29.6763 43.5 42.9763 43.5 43.2263C43.5 43.3763 44.6 43.4763 46 43.4763C48.25 43.4763 48.55 43.3263 49.25 41.9763C50 40.5263 50.2 40.4763 53.2 40.4763C56.3 40.4763 56.4 40.5263 56.95 41.9763C57.4 43.3763 57.6 43.4763 59.95 43.4763C61.35 43.4763 62.5 43.2763 62.5 43.0763C62.5 42.6263 56.5 29.1263 55.85 28.0763C55.2 27.0763 50.65 27.2763 50.05 28.3763ZM55 37.2763C55 37.3763 54.2 37.4763 53.25 37.4763C51.3 37.4763 51.2 37.2263 52.3 34.5763L53.05 32.7263L54.05 34.9263C54.55 36.1263 55 37.1763 55 37.2763Z" fill="white"/>
<path d="M75.4001 27.9763C70.1001 29.5763 67.6001 34.6263 69.8501 39.3263C72.2001 44.3763 81.0001 45.4763 85.0001 41.2263C86.4501 39.6763 86.1001 38.8263 83.7501 38.0763C82.1001 37.5763 81.7001 37.6263 80.6001 38.4763C79.2001 39.6263 77.9001 39.7263 76.3501 38.9263C74.8501 38.1263 74.5001 37.5263 74.5001 35.6263C74.5001 32.7263 77.5001 31.1263 80.1501 32.6763C81.3501 33.3263 81.9501 33.3763 83.5501 32.9763C86.2001 32.2763 86.4501 31.5763 84.6001 29.9263C82.2001 27.7763 78.5501 27.0263 75.4001 27.9763Z" fill="white"/>
<path d="M95.0999 28.0763C94.2499 28.9263 94.2499 42.5263 95.0999 43.3763C95.7499 44.0263 97.8999 44.1763 99.1999 43.6763C99.7999 43.4263 99.9999 42.6263 99.9999 40.1263V36.8763L102.65 40.1763L105.25 43.4263L108.4 43.4763C110.1 43.4763 111.5 43.3763 111.5 43.2263C111.5 43.0763 110.05 41.1763 108.3 39.0763L105.1 35.1763L107.75 31.9763C109.25 30.1763 110.45 28.5763 110.45 28.3263C110.5 28.1263 109.3 27.9763 107.8 27.9763C105.1 27.9763 105.1 27.9763 102.55 30.9763L100.05 34.0263L99.8999 30.8763L99.7499 27.7263L97.7499 27.5763C96.5999 27.4763 95.4499 27.7263 95.0999 28.0763Z" fill="white"/>
<path d="M118.2 28.1263C118.1 28.4763 119.4 32.1763 121.15 36.2763C124.2 43.3263 124.4 43.7263 125.85 43.8763C127.25 44.0263 127.4 43.8263 129.35 39.6263L131.4 35.2763L133.45 39.6763C135.35 43.7763 135.55 44.0263 136.85 43.8763C138.1 43.7263 138.5 43.1263 141.35 36.7263C143.05 32.8763 144.45 29.2263 144.45 28.5763C144.5 27.5263 144.3 27.4263 142.15 27.5763L139.8 27.7263L138.2 31.7263L136.6 35.7263L135.35 32.8763C134.65 31.3263 133.95 29.6263 133.75 29.0263C133.5 28.1763 133.05 27.9763 131.2 27.9763C130 27.9763 129 28.1763 129 28.4263C129 28.6763 128.3 30.4263 127.45 32.3263L125.9 35.7263L124.6 32.2263C123.85 30.2763 123.05 28.4263 122.85 28.0763C122.3 27.2763 118.55 27.2763 118.2 28.1263Z" fill="white"/>
<path d="M155.85 28.1763C152.2 29.5263 150.5 31.9763 150.5 35.8763C150.5 40.7263 153.95 43.7263 159.5 43.7263C165.35 43.7263 168.8 40.3263 168.3 35.0263C168.05 31.9763 166.95 30.2263 164.6 28.8263C162.5 27.5763 158.25 27.2763 155.85 28.1763ZM162.35 33.3263C162.7 33.7763 163 34.9263 163 35.8263C163 39.2263 159.2 40.7263 156.75 38.2263C155.15 36.6763 155.15 34.7763 156.8 33.1263C157.85 32.0763 158.4 31.9263 159.9 32.1763C160.9 32.3263 162.05 32.8263 162.35 33.3263Z" fill="white"/>
<path d="M180.35 28.1763C176.7 29.5263 175 31.9763 175 35.8763C175 40.7263 178.5 43.7263 184 43.7263C189.85 43.6763 192.75 41.0263 192.75 35.6263C192.75 32.1763 191.8 30.4263 189.1 28.8263C187 27.5763 182.75 27.2763 180.35 28.1763ZM186.5 32.9763C187.95 34.4263 187.85 37.6763 186.4 38.6763C183.7 40.5763 180.3 38.9263 180.3 35.7263C180.3 32.4263 184.2 30.6763 186.5 32.9763Z" fill="white"/>
<path d="M200.9 27.7263C200.65 27.9763 200.5 31.6263 200.5 35.8263V43.5763L206.7 43.3763C212.55 43.2263 213 43.1263 214.25 41.9763C217.1 39.3263 217.85 35.2763 216.1 31.9763C214.6 29.1763 211.9 27.9763 206.15 27.6263C203.45 27.4763 201.1 27.5263 200.9 27.7263ZM210.5 32.4763C211.65 33.6263 211.9 37.2763 210.85 38.6763C210.45 39.2263 209.3 39.6763 207.85 39.8263L205.5 40.1263V35.7763V31.4763H207.5C208.85 31.4763 209.85 31.8263 210.5 32.4763Z" fill="white"/>
<path d="M-6.10352e-05 8.67625C-6.10352e-05 15.2262 0.099939 16.4262 0.799939 16.6762C2.29994 17.2262 9.99994 16.9762 11.6499 16.3262C14.9499 14.9262 15.8499 12.0762 13.7499 9.57625C12.6999 8.32625 12.5499 7.82625 12.9499 7.02625C13.5999 5.87625 13.6499 3.47625 13.0999 2.67625C12.2499 1.37625 10.2999 0.976248 5.29994 0.976248H-6.10352e-05V8.67625ZM8.39994 5.32625C8.29994 6.42625 7.94994 6.77625 6.89994 6.87625C5.64994 7.02625 5.49994 6.87625 5.49994 5.52625C5.49994 4.12625 5.64994 3.97625 7.04994 3.97625C8.39994 3.97625 8.54994 4.12625 8.39994 5.32625ZM8.54994 10.4762C9.04994 10.7762 9.49994 11.4262 9.49994 11.9262C9.49994 12.9762 8.54994 13.4762 6.69994 13.4762C5.64994 13.4762 5.49994 13.2262 5.49994 11.7262C5.49994 10.2762 5.69994 9.97625 6.54994 9.97625C7.09994 9.97625 7.99994 10.2262 8.54994 10.4762Z" fill="white"/>
</svg>