<svg fill="none" height="24" viewBox="0 0 24 24" width="24" xmlns="http://www.w3.org/2000/svg" xmlns:xlink="http://www.w3.org/1999/xlink"><linearGradient id="a" gradientUnits="userSpaceOnUse" x1="14.2358" x2="7.72154" y1="17.472" y2="1.52911"><stop offset="0" stop-color="#8ea5a8"/><stop offset="1" stop-color="#cfdcde"/></linearGradient><linearGradient id="b"><stop offset="0" stop-color="#fff"/><stop offset="1" stop-color="#a9bcbe"/></linearGradient><linearGradient id="c" gradientUnits="userSpaceOnUse" x1="6.25596" x2="25.056" xlink:href="#b" y1="-3.73041" y2="47.7553"/><linearGradient id="d" gradientUnits="userSpaceOnUse" x1="3.68281" x2="17.5495" y1="-3.26342" y2="22.1842"><stop offset="0" stop-color="#8ea5a8"/><stop offset="1" stop-color="#dee7e8"/></linearGradient><linearGradient id="e" gradientUnits="userSpaceOnUse" x1="18.2788" x2="11.0781" xlink:href="#b" y1="41.7497" y2="7.632"/><linearGradient id="f" gradientUnits="userSpaceOnUse" x1="11.1178" x2="18.7749" y1="10.4067" y2="24.2353"><stop offset="0" stop-color="#fff"/><stop offset="1" stop-color="#cfdcde"/></linearGradient><linearGradient id="g"><stop offset="0" stop-color="#a9bcbe" stop-opacity="0"/><stop offset="1" stop-color="#8ea5a8"/></linearGradient><linearGradient id="h" gradientUnits="userSpaceOnUse" x1="16.0551" x2="10.5211" xlink:href="#g" y1="15.298" y2="5.62305"/><linearGradient id="i" gradientUnits="userSpaceOnUse" x1="17.2712" x2="1.24263" xlink:href="#g" y1="16.2497" y2="10.0782"/><linearGradient id="j" gradientUnits="userSpaceOnUse" x1="11.7851" x2="6.52792" xlink:href="#g" y1="11.1231" y2="-.476915"/><linearGradient id="k"><stop offset="0" stop-color="#ff9214"/><stop offset="1" stop-color="#ff9d00"/></linearGradient><linearGradient id="l" gradientUnits="userSpaceOnUse" x1="13.5305" x2="10.4694" xlink:href="#k" y1="17.6598" y2="12.8359"/><linearGradient id="m" gradientUnits="userSpaceOnUse" x1="12" x2="12" y1="10.5143" y2="12.3933"><stop offset="0" stop-color="#ff9d00"/><stop offset="1" stop-color="#a3541e"/></linearGradient><linearGradient id="n" gradientUnits="userSpaceOnUse" x1="12.8367" x2="11.4163" xlink:href="#k" y1="13.3186" y2="11.0801"/><linearGradient id="o"><stop offset="0" stop-color="#bbcacc"/><stop offset=".4708" stop-color="#939fa1" stop-opacity=".75"/><stop offset="1" stop-color="#cfdcde"/></linearGradient><linearGradient id="p" gradientUnits="userSpaceOnUse" x1="9.90717" x2="14.5643" xlink:href="#o" y1="7.40416" y2="9.63273"/><linearGradient id="q" gradientUnits="userSpaceOnUse" x1="9.7956" x2="14.4527" xlink:href="#o" y1="7.6375" y2="9.86606"/><linearGradient id="r" gradientUnits="userSpaceOnUse" x1="10.1354" x2="14.7926" xlink:href="#o" y1="6.92767" y2="9.1562"/><linearGradient id="s" gradientUnits="userSpaceOnUse" x1="10.2394" x2="14.8965" xlink:href="#o" y1="6.70987" y2="8.93843"/><linearGradient id="t" gradientUnits="userSpaceOnUse" x1="10.01" x2="14.6671" xlink:href="#o" y1="7.18897" y2="9.41755"/><path d="m11.9999 21.7142c5.3651 0 9.7143-4.3492 9.7143-9.7143 0-5.36502-4.3492-9.71426-9.7143-9.71426-5.36502 0-9.71426 4.34924-9.71426 9.71426 0 5.3651 4.34924 9.7143 9.71426 9.7143z" fill="url(#a)"/><path d="m11.9999 21.4284c5.2072 0 9.4285-4.2213 9.4285-9.4285 0-5.2073-4.2213-9.42861-9.4285-9.42861-5.2073 0-9.42861 4.22131-9.42861 9.42861 0 5.2072 4.22131 9.4285 9.42861 9.4285z" fill="url(#c)"/><path d="m12 3.26855c-4.82287 0-8.73145 3.90858-8.73145 8.73145 0 4.8228 3.90858 8.7314 8.73145 8.7314 4.8228 0 8.7314-3.9086 8.7314-8.7314 0-4.82287-3.9086-8.73145-8.7314-8.73145zm0 16.74285c-4.42287 0-8.01145-3.5886-8.01145-8.0114 0-4.42287 3.58858-8.01145 8.01145-8.01145 4.4228 0 8.0114 3.58858 8.0114 8.01145 0 4.4228-3.5886 8.0114-8.0114 8.0114z" fill="url(#d)" opacity=".5"/><path d="m12 20c4.4183 0 8-3.5817 8-8 0-4.41828-3.5817-8-8-8-4.41828 0-8 3.58172-8 8 0 4.4183 3.58172 8 8 8z" fill="url(#e)"/><path d="m12 19.7314c4.2699 0 7.7314-3.4615 7.7314-7.7314 0-4.26997-3.4615-7.73145-7.7314-7.73145-4.26997 0-7.73145 3.46148-7.73145 7.73145 0 4.2699 3.46148 7.7314 7.73145 7.7314z" fill="url(#f)"/><path d="m17.2228 9.02839c-.04-.06857-.1314-.08571-.2-.04571l-4.6628 2.98852-3.73144-2.44567c-.13143-.08571-.30857-.05142-.39429.08-.08571.13143-.05143.30858.08.39429l3.76003 2.46288.1543-.24.0742.12 4.8743-3.12002c.0686-.04.0857-.12572.0457-.19429z" fill="url(#h)"/><path d="m13.0399 12.2287c0-.2172-.0858-.4115-.2229-.56v-1.2686c0-.3257-.2629-.58858-.5886-.58858s-.5886.26288-.5886.58858v1.2686c-.1371.1428-.2228.3428-.2228.56 0 .4114.3029.7485.6971.8057v5.6914c0 .0629.0515.1143.1143.1143.0629 0 .1143-.0514.1143-.1143v-5.6914c.3943-.0572.6972-.3943.6972-.8057z" fill="url(#i)"/><path d="m12.5714 5.41713c2.4172 0 4.5886 1.03428 6.1086 2.67999-1.3429-2.29142-3.8286-3.82857-6.68-3.82857-4.26859 0-7.73145 3.46286-7.73145 7.73145 0 .2971.01715.5886.05143.8743.41715-4.1886 3.95429-7.45717 8.25142-7.45717z" fill="url(#j)"/><path d="m11.9999 20.7714c-4.83424 0-8.77138-3.9372-8.77138-8.7715 0-4.83424 3.93714-8.77138 8.77138-8.77138 4.8343 0 8.7715 3.93714 8.7715 8.77138 0 4.8343-3.9372 8.7715-8.7715 8.7715zm0-17.48574c-4.80567 0-8.71424 3.90857-8.71424 8.71424 0 4.8058 3.90857 8.7143 8.71424 8.7143 4.8058 0 8.7143-3.9085 8.7143-8.7143 0-4.80567-3.9085-8.71424-8.7143-8.71424z" fill="#fff"/><path d="m12.0913 5.88555h-.1828l-.0572-1.41143h.2972z" fill="#3c2200"/><path d="m11.8857 5.44555c.0743-.00571.1486-.01143.2229-.01714l.04-.95429h-.3029z" fill="#000"/><g fill="#3c2200"><path d="m11.9085 18.1143h.1828l.0572 1.4114h-.2972z"/><path d="m18.1143 12.0916v-.1829l1.4114-.0571v.2971z"/><path d="m5.88555 11.9087v.1829l-1.41143.0571v-.2971z"/><path d="m14.9771 17.3427.16-.0971.7542 1.1943-.2628.1543z"/><path d="m9.02268 6.65719-.16.09714-.75428-1.19428.26286-.15429z"/><path d="m17.2456 15.1371.0971-.16 1.2515.6514-.1543.2628z"/><path d="m6.75409 8.86268-.09715.16-1.25142-.65142.15428-.26286z"/><path d="m17.3427 9.02268-.0971-.16 1.1943-.75428.1543.26286z"/><path d="m6.65694 14.9771.09715.16-1.19429.7542-.15428-.2628z"/><path d="m15.1371 6.75433-.16-.09714.6514-1.25143.2628.15429z"/><path d="m8.86268 17.2456.16.0971-.65142 1.2515-.26286-.1543z"/></g><path d="m15.6171 5.99399.2742-.43429-.2628-.14857-.2572.49143c.0858.02857.1658.06286.2458.09143z" fill="#000"/><path d="m8.37125 5.40576-.26285.14857.53714.84572c.06286-.03429.13143-.06857.19428-.10286z" fill="#000"/><path d="m5.98293 9.71962c.12-.59429.38285-1.16.72571-1.67429.34286-.50857.77714-.96571 1.26857-1.34285.49143-.37715 1.04572-.67429 1.62858-.87429.58281-.19429 1.20001-.29714 1.80571-.25714.1143.00571.2.10857.1943.22285-.0057.08572-.0629.15429-.1372.18286-.5371.2-1.0514.4-1.53139.65143-.48571.24571-.94285.53143-1.37142.85143-.42858.32571-.82858.68571-1.20001 1.08571-.37142.4-.70857.83429-1.04571 1.30286-.06286.08571-.17714.10286-.26286.04-.06285-.04571-.09143-.12-.07428-.18857z" fill="#fff" opacity=".25"/><path d="m5.55995 8.1084-.14857.26285.57714.30286c.05143-.06857.10286-.13143.15428-.19428z" fill="#000"/><path d="m11.9998 12.286c-.0514 0-.1086-.0172-.1543-.0457l-3.83999-2.51433c-.13143-.08572-.17143-.26286-.08-.39429.08572-.13143.26286-.17143.39429-.08l3.84 2.51432c.1314.0857.1714.2628.08.3943-.0571.08-.1486.1257-.24.1257z" fill="#3c2200"/><path d="m11.9999 12.1427c-.0457 0-.0914-.0229-.12-.0686-.04-.0686-.0229-.1543.0457-.2l4.9943-3.20002c.0686-.04.1543-.02285.2.04572s.0228.15428-.0457.2l-4.9943 3.2c-.0286.0171-.0514.0229-.08.0229z" fill="#3c2200"/><path d="m12 18.6115c-.0628 0-.1143-.0515-.1143-.1143v-6.4972c0-.0628.0515-.1143.1143-.1143.0629 0 .1143.0515.1143.1143v6.4972c0 .0628-.0514.1143-.1143.1143z" fill="url(#l)"/><path d="m11.9999 9.58252c-.3257 0-.5885.26286-.5885.58858v1.8286h1.1771v-1.8286c0-.32572-.2628-.58858-.5886-.58858z" fill="url(#m)"/><path d="m11.9999 12.8113c.4481 0 .8114-.3633.8114-.8114s-.3633-.8114-.8114-.8114-.8114.3633-.8114.8114.3633.8114.8114.8114z" fill="url(#n)"/><path d="m11.2685 8.05138c0-.02857.0172-.05715.0343-.08.0115-.01143.0229-.02286.04-.02857.0172-.00572.0343-.01143.0515-.01143.0171 0 .04.00571.0571.01143.0171.00571.0286.01714.04.02857s.0171.02285.0229.04c.0057.01143.0057.02857.0114.04571h-.2572zm.3372-.16572c-.0514-.05714-.12-.08-.2057-.08-.0343 0-.0743.00572-.1086.02286s-.0629.03429-.0914.06286c-.0286.02857-.0457.06286-.0629.09714-.0171.04-.0228.08571-.0228.13143 0 .04571.0057.09143.0228.13714.0172.04.0343.07429.0629.10286.0285.02857.0571.05143.0971.06285.0343.01715.0743.02286.1143.02286.0343 0 .0629-.00571.0971-.01714.0286-.01143.0515-.02286.0743-.04.0229-.01714.04-.03429.0572-.06286.0171-.02285.0285-.04571.0343-.07428l-.1315-.04c-.0114.02285-.0228.04571-.0457.06857-.0228.01714-.0514.02286-.0857.02286-.0171 0-.04-.00572-.0571-.01143-.0172-.00572-.0343-.01715-.0458-.02857-.0114-.01143-.0228-.02858-.0285-.04572s-.0115-.03428-.0115-.05714h.4115s0-.00572 0-.01714c0-.01143 0-.02286 0-.03429 0-.09143-.0229-.16571-.0743-.22286z" fill="url(#p)"/><path d="m11.0114 8.12586c-.0343-.03428-.08-.05714-.1429-.06857l-.0914-.02286c-.0171 0-.0286-.01142-.04-.01714-.0114-.01143-.0171-.02286-.0171-.03428 0-.01715.0114-.03429.0228-.04.0172-.01143.0343-.01715.0572-.01715.0171 0 .0285 0 .0457.00572.0114.00571.0228.01143.0286.01714.0057.00571.0114.01714.0171.02286.0057.01143.0057.01714.0057.02857h.0057l.1372-.02857c0-.01715-.0057-.04-.0172-.05715-.0114-.02285-.0228-.04-.0457-.05714-.0228-.01714-.0457-.03429-.0743-.04571-.0343-.01143-.0743-.01715-.1143-.01715-.0342 0-.0628.00572-.0971.01715-.0286.01142-.0514.02285-.0743.04-.0228.01714-.04.04-.0514.06285-.0114.02286-.0172.05143-.0172.07429 0 .04.0172.08.04.11429.0286.03428.0743.05714.1372.06857l.08.01714c.0286.00572.04.01143.0514.02286s.0172.02286.0172.03428c0 .01715-.0058.02858-.0172.04-.0114.01143-.0343.01715-.0628.01715-.0343 0-.0629-.01143-.08-.02857-.0172-.01715-.0286-.04-.0286-.06286h-.0057l-.1429.02857c0 .02286.0114.04.0172.05714.0114.02286.0285.04572.0457.06286.0228.02286.0514.03429.08.04571.0343.01143.0743.01715.12.01715.0343 0 .0743-.00572.1085-.01715.0286-.01142.0572-.02285.0743-.04571.04-.03429.0629-.08571.0629-.13714.0114-.02286-.0057-.06286-.0343-.09715z" fill="url(#q)"/><path d="m12.8344 8.12586c-.0343-.03428-.08-.05714-.1429-.06857l-.0914-.02286c-.0171 0-.0286-.01142-.04-.01714-.0114-.01143-.0171-.02286-.0171-.03428 0-.01715.0114-.03429.0228-.04.0172-.01143.0343-.01715.0572-.01715.0171 0 .0285 0 .0457.00572.0114.00571.0228.01143.0285.01714.0058.00571.0115.01714.0172.02286.0057.01143.0057.01714.0057.02857h.0057l.1372-.02857c0-.01715-.0058-.04-.0172-.05715-.0114-.02285-.0228-.04-.0457-.05714s-.0457-.03429-.0743-.04571c-.0343-.01143-.0743-.01715-.1143-.01715-.0343 0-.0628.00572-.0971.01715-.0286.01142-.0514.02285-.0743.04-.0229.01714-.04.04-.0514.06285-.0114.02286-.0172.05143-.0172.07429 0 .04.0172.08.04.11429.0286.03428.0743.05714.1372.06857l.08.01714c.0285.00572.04.01143.0514.02286s.0171.02286.0171.03428c0 .01715-.0057.02858-.0171.04-.0114.01143-.0343.01715-.0629.01715-.0342 0-.0628-.01143-.08-.02857-.0171-.01715-.0285-.04-.0285-.06286h-.0057l-.1429.02857c0 .02286.0114.04.0172.05714.0114.02286.0285.04572.0457.06286.0228.02286.0514.03429.08.04571.0342.01143.0742.01715.12.01715.0342 0 .0742-.00572.1085-.01715.0286-.01142.0572-.02285.0743-.04571.04-.03429.0629-.08571.0629-.13714.0114-.02286-.0057-.06286-.0343-.09715z" fill="url(#r)"/><path d="m13.3028 8.17138c0 .02285-.0057.04571-.0114.06857-.0057.01714-.0172.02857-.0286.04s-.0228.01714-.04.02286c-.0171.00571-.0286.00571-.0457.00571-.0229 0-.0457-.00571-.0571-.02286-.0115-.01143-.0172-.02857-.0172-.04571 0-.02286.0057-.04.0229-.05143.0114-.01143.0343-.02286.0514-.02286l.1257-.02285v.03428zm.1486.26285v-.4c0-.02857-.0057-.05714-.0114-.08571-.0058-.02857-.0229-.05143-.04-.07428-.0229-.02286-.0458-.04-.0743-.05143-.0343-.01143-.0743-.01715-.1143-.01715-.0343 0-.0686.00572-.1029.01715-.0285.01143-.0514.02857-.0743.04571-.0171.01714-.0342.04-.0457.06286-.0057.01714-.0114.02857-.0171.04571l.1371.02857c.0057-.01714.0115-.02857.0229-.04.0171-.01714.0457-.02857.08-.02857s.0571.00572.0743.02286c.0171.01714.0228.03429.0228.05714 0 .01143-.0057.01714-.0114.02857-.0114.01143-.0229.01715-.0343.01715l-.1371.02285c-.0229.00572-.0457.01143-.0686.01715-.0171.01142-.04.02285-.0514.03428-.0172.01714-.0286.03429-.0343.05714-.0114.02286-.0114.04572-.0114.06858 0 .02285.0057.04571.0114.06857.0114.02285.0228.04.04.05714.0171.01714.04.02857.0628.04.0229.01143.0515.01714.08.01714.0972 0 .1543-.05714.1658-.08571v.08z" fill="url(#s)"/><path d="m12.2912 7.95429c-.0057-.02857-.0228-.05714-.04-.08-.0171-.02286-.04-.04-.0685-.05143-.0286-.01143-.0629-.02286-.0972-.01714-.0343 0-.0685.00571-.0971.02286-.0172.01142-.04.02285-.0514.03428v-.04571h-.1658v.61714h.1658v-.42857c.0057-.00572.04-.05143.0971-.05143.04 0 .0686.01143.0857.03429.0172.02285.0286.05714.0286.08571v.35428h.1657v-.38857c-.0057-.02285-.0114-.05714-.0229-.08571z" fill="url(#t)"/></svg>