<svg xmlns="http://www.w3.org/2000/svg" width="200" height="32" viewBox="0 0 200 32" fill="none">
<path fill-rule="evenodd" clip-rule="evenodd" d="M28 2H0V30H33C33 30 31.2502 28.8529 30 27.5C28.9316 26.3438 28 24 28 24H7V19H28V14H7V8H28V2ZM32 19V2H39V19C39 22.6 42.3333 23.8333 44 24H55C59 24 60 20.6667 60 19V2H66.5V19C66.5 27.8 58.8333 30 55 30H43.5C35.1 30 32.3333 22.6667 32 19ZM69.5 2H93C95.6667 2.16667 101 3.7 101 8.5V16C101 17 98.5 22.5 95.5 22.5C96.7 23.7 99.6667 27.6667 101 29.5H92L88 22.5H76.5V29.5H69.5V2ZM103.5 22.5V2H126C135.2 2 138 9 138 12.5V29.5H115C106.6 29.5 103.5 25.5 103.5 22.5ZM121 8C112.2 8 110.333 13.3333 110.5 16C110.667 18.6667 113 24 121 24C129 24 131 18.6667 131 16C131 13.5 129.8 8 121 8ZM76.5 8.5V16H91C92 16 94 15.3 94 12.5C94 8.5 92 8 91 8H76.5V8.5Z" fill="white"/>
<path d="M144.572 4.77344V3.54545H151.89V4.77344H148.94V13H147.518V4.77344H144.572ZM153.636 13V3.54545H157.007C157.739 3.54545 158.347 3.67164 158.83 3.92401C159.316 4.17637 159.679 4.52569 159.92 4.97195C160.16 5.41513 160.28 5.92756 160.28 6.50923C160.28 7.08783 160.158 7.59718 159.915 8.03729C159.675 8.47431 159.312 8.81439 158.825 9.05753C158.342 9.30066 157.734 9.42223 157.002 9.42223H154.449V8.19425H156.873C157.334 8.19425 157.71 8.12808 157.999 7.99574C158.291 7.8634 158.505 7.67105 158.641 7.41868C158.776 7.16631 158.844 6.86316 158.844 6.50923C158.844 6.15222 158.775 5.84292 158.636 5.58132C158.501 5.31972 158.287 5.11967 157.994 4.98118C157.705 4.83961 157.325 4.76882 156.854 4.76882H155.063V13H153.636ZM158.304 8.73438L160.64 13H159.015L156.725 8.73438H158.304ZM168.225 3.54545H169.656V9.76385C169.656 10.4255 169.501 11.0118 169.19 11.5227C168.879 12.0305 168.442 12.4306 167.879 12.723C167.316 13.0123 166.656 13.157 165.899 13.157C165.145 13.157 164.486 13.0123 163.923 12.723C163.36 12.4306 162.922 12.0305 162.612 11.5227C162.301 11.0118 162.145 10.4255 162.145 9.76385V3.54545H163.572V9.64844C163.572 10.0762 163.666 10.4563 163.853 10.7887C164.044 11.1211 164.314 11.3827 164.661 11.5735C165.009 11.7612 165.422 11.8551 165.899 11.8551C166.379 11.8551 166.793 11.7612 167.14 11.5735C167.491 11.3827 167.759 11.1211 167.944 10.7887C168.131 10.4563 168.225 10.0762 168.225 9.64844V3.54545ZM179.713 6.62003H178.273C178.217 6.31226 178.114 6.04143 177.963 5.80753C177.813 5.57363 177.628 5.37512 177.409 5.212C177.191 5.04889 176.946 4.92578 176.675 4.84268C176.408 4.75959 176.123 4.71804 175.821 4.71804C175.277 4.71804 174.789 4.855 174.358 5.12891C173.93 5.40282 173.592 5.80445 173.342 6.33381C173.096 6.86316 172.973 7.50947 172.973 8.27273C172.973 9.04214 173.096 9.69152 173.342 10.2209C173.592 10.7502 173.932 11.1503 174.362 11.4212C174.793 11.692 175.278 11.8274 175.817 11.8274C176.115 11.8274 176.398 11.7874 176.666 11.7074C176.937 11.6243 177.182 11.5027 177.4 11.3427C177.619 11.1826 177.803 10.9872 177.954 10.7564C178.108 10.5225 178.214 10.2547 178.273 9.95312L179.713 9.95774C179.636 10.4225 179.487 10.8503 179.265 11.2411C179.047 11.6289 178.765 11.9644 178.42 12.2475C178.079 12.5276 177.688 12.7446 177.248 12.8984C176.808 13.0523 176.328 13.1293 175.807 13.1293C174.989 13.1293 174.259 12.9354 173.619 12.5476C172.979 12.1567 172.474 11.5981 172.105 10.8718C171.739 10.1455 171.556 9.27912 171.556 8.27273C171.556 7.26326 171.74 6.3969 172.11 5.67365C172.479 4.94732 172.984 4.39027 173.624 4.00249C174.264 3.61162 174.992 3.41619 175.807 3.41619C176.309 3.41619 176.777 3.48852 177.211 3.63317C177.648 3.77474 178.04 3.98402 178.388 4.26101C178.736 4.53492 179.024 4.87038 179.251 5.2674C179.479 5.66134 179.633 6.11222 179.713 6.62003ZM181.55 13V3.54545H182.976V8.06037H183.092L187.057 3.54545H188.853L185.04 7.80185L188.867 13H187.15L184.094 8.77592L182.976 10.0593V13H181.55ZM150.195 22.0291C150.146 21.5921 149.943 21.2536 149.586 21.0135C149.229 20.7704 148.78 20.6488 148.238 20.6488C147.85 20.6488 147.515 20.7103 147.232 20.8335C146.948 20.9535 146.728 21.1197 146.571 21.332C146.417 21.5413 146.341 21.7798 146.341 22.0476C146.341 22.2723 146.393 22.4661 146.498 22.6293C146.605 22.7924 146.745 22.9293 146.918 23.0401C147.093 23.1478 147.281 23.2386 147.481 23.3125C147.681 23.3833 147.873 23.4418 148.058 23.4879L148.981 23.728C149.283 23.8018 149.592 23.9019 149.909 24.0281C150.226 24.1542 150.52 24.3204 150.791 24.5266C151.062 24.7328 151.28 24.9883 151.446 25.293C151.616 25.5977 151.7 25.9624 151.7 26.3871C151.7 26.9226 151.562 27.3981 151.285 27.8136C151.011 28.229 150.612 28.5568 150.089 28.7969C149.569 29.0369 148.94 29.157 148.201 29.157C147.493 29.157 146.881 29.0446 146.364 28.82C145.847 28.5953 145.442 28.2768 145.15 27.8643C144.857 27.4489 144.696 26.9564 144.665 26.3871H146.096C146.124 26.7287 146.234 27.0134 146.428 27.2411C146.625 27.4658 146.876 27.6335 147.181 27.7443C147.489 27.852 147.826 27.9059 148.192 27.9059C148.595 27.9059 148.953 27.8428 149.267 27.7166C149.584 27.5874 149.834 27.4089 150.015 27.1811C150.197 26.9503 150.288 26.681 150.288 26.3732C150.288 26.0932 150.208 25.8639 150.048 25.6854C149.891 25.5069 149.677 25.3591 149.406 25.2422C149.138 25.1252 148.835 25.0221 148.496 24.9329L147.379 24.6282C146.622 24.422 146.022 24.1188 145.579 23.7188C145.139 23.3187 144.919 22.7893 144.919 22.1307C144.919 21.5859 145.066 21.1104 145.362 20.7042C145.657 20.2979 146.057 19.9825 146.562 19.7578C147.067 19.5301 147.636 19.4162 148.27 19.4162C148.91 19.4162 149.475 19.5285 149.964 19.7532C150.457 19.9779 150.845 20.2872 151.128 20.6811C151.411 21.072 151.559 21.5213 151.571 22.0291H150.195ZM153.535 29V19.5455H159.462V20.7734H154.961V23.6541H159.153V24.8775H154.961V27.772H159.518V29H153.535ZM161.498 29V19.5455H164.868C165.6 19.5455 166.208 19.6716 166.691 19.924C167.178 20.1764 167.541 20.5257 167.781 20.9719C168.021 21.4151 168.141 21.9276 168.141 22.5092C168.141 23.0878 168.019 23.5972 167.776 24.0373C167.536 24.4743 167.173 24.8144 166.687 25.0575C166.204 25.3007 165.596 25.4222 164.863 25.4222H162.31V24.1942H164.734C165.196 24.1942 165.571 24.1281 165.86 23.9957C166.153 23.8634 166.367 23.671 166.502 23.4187C166.638 23.1663 166.705 22.8632 166.705 22.5092C166.705 22.1522 166.636 21.8429 166.498 21.5813C166.362 21.3197 166.148 21.1197 165.856 20.9812C165.567 20.8396 165.186 20.7688 164.716 20.7688H162.924V29H161.498ZM166.165 24.7344L168.501 29H166.876L164.586 24.7344H166.165ZM170.605 19.5455L173.236 27.2457H173.342L175.974 19.5455H177.516L174.113 29H172.465L169.063 19.5455H170.605ZM180.437 19.5455V29H179.011V19.5455H180.437ZM190.497 22.62H189.057C189.002 22.3123 188.899 22.0414 188.748 21.8075C188.597 21.5736 188.412 21.3751 188.194 21.212C187.975 21.0489 187.731 20.9258 187.46 20.8427C187.192 20.7596 186.907 20.718 186.606 20.718C186.061 20.718 185.573 20.855 185.142 21.1289C184.714 21.4028 184.376 21.8045 184.127 22.3338C183.88 22.8632 183.757 23.5095 183.757 24.2727C183.757 25.0421 183.88 25.6915 184.127 26.2209C184.376 26.7502 184.716 27.1503 185.147 27.4212C185.578 27.692 186.062 27.8274 186.601 27.8274C186.9 27.8274 187.183 27.7874 187.451 27.7074C187.721 27.6243 187.966 27.5027 188.185 27.3427C188.403 27.1826 188.588 26.9872 188.739 26.7564C188.892 26.5225 188.999 26.2547 189.057 25.9531L190.497 25.9577C190.42 26.4225 190.271 26.8503 190.05 27.2411C189.831 27.6289 189.549 27.9644 189.205 28.2475C188.863 28.5276 188.472 28.7446 188.032 28.8984C187.592 29.0523 187.112 29.1293 186.592 29.1293C185.773 29.1293 185.044 28.9354 184.404 28.5476C183.763 28.1567 183.259 27.5981 182.889 26.8718C182.523 26.1455 182.34 25.2791 182.34 24.2727C182.34 23.2633 182.525 22.3969 182.894 21.6737C183.263 20.9473 183.768 20.3903 184.408 20.0025C185.048 19.6116 185.776 19.4162 186.592 19.4162C187.094 19.4162 187.561 19.4885 187.995 19.6332C188.432 19.7747 188.825 19.984 189.172 20.261C189.52 20.5349 189.808 20.8704 190.036 21.2674C190.263 21.6613 190.417 22.1122 190.497 22.62ZM192.334 29V19.5455H198.262V20.7734H193.761V23.6541H197.953V24.8775H193.761V27.772H198.317V29H192.334Z" fill="white"/>
</svg>