<svg xmlns="http://www.w3.org/2000/svg" width="216" height="86" viewBox="0 0 216 86" fill="none">
<path d="M17.82 15.93C17.82 16.092 17.091 16.2 16.2 16.2C15.309 16.2 14.58 16.308 14.58 16.47C14.58 16.605 14.229 16.74 13.77 16.74C13.338 16.74 12.96 16.848 12.96 17.01C12.96 17.145 12.717 17.28 12.42 17.28C12.123 17.28 11.88 17.388 11.88 17.55C11.88 17.685 11.637 17.82 11.34 17.82C11.043 17.82 10.8 17.928 10.8 18.09C10.8 18.225 10.557 18.36 10.26 18.36C9.963 18.36 9.72 18.468 9.72 18.63C9.72 18.765 9.531 18.9 9.315 18.9C8.775 18.9 3.78 23.895 3.78 24.435C3.78 24.651 3.672 24.84 3.51 24.84C3.375 24.84 3.24 25.056 3.24 25.326C3.24 25.596 2.997 25.974 2.7 26.19C2.376 26.406 2.16 26.892 2.16 27.324C2.16 27.729 2.052 28.08 1.89 28.08C1.755 28.08 1.62 28.323 1.62 28.62C1.62 28.917 1.512 29.16 1.35 29.16C1.215 29.16 1.08 29.646 1.08 30.24C1.08 30.834 0.972 31.32 0.81 31.32C0.648 31.32 0.54 32.211 0.54 33.48C0.54 34.749 0.432 35.64 0.27 35.64C0.135 35.64 0 35.991 0 36.45C0 36.882 0.135 37.26 0.27 37.26C0.432 37.26 0.54 38.151 0.54 39.42C0.54 40.689 0.648 41.58 0.81 41.58C0.972 41.58 1.08 42.066 1.08 42.66C1.08 43.254 1.215 43.74 1.35 43.74C1.512 43.74 1.62 44.091 1.62 44.55C1.62 44.982 1.755 45.36 1.89 45.36C2.052 45.36 2.16 45.603 2.16 45.9C2.16 46.197 2.295 46.44 2.43 46.44C2.592 46.44 2.7 46.656 2.7 46.926C2.7 47.196 2.943 47.574 3.24 47.79C3.537 48.006 3.78 48.357 3.78 48.546C3.78 48.762 4.131 49.275 4.59 49.68C5.022 50.085 5.4 50.571 5.4 50.733C5.4 51.138 7.182 52.92 7.587 52.92C7.749 52.92 8.235 53.271 8.64 53.73C9.045 54.162 9.585 54.54 9.828 54.54C10.071 54.54 10.26 54.648 10.26 54.81C10.26 54.945 10.503 55.08 10.8 55.08C11.097 55.08 11.34 55.188 11.34 55.35C11.34 55.485 11.583 55.62 11.88 55.62C12.177 55.62 12.42 55.728 12.42 55.89C12.42 56.025 12.798 56.16 13.23 56.16C13.689 56.16 14.04 56.268 14.04 56.43C14.04 56.565 14.661 56.7 15.39 56.7C16.146 56.7 16.74 56.808 16.74 56.97C16.74 57.132 18.171 57.24 20.52 57.24C22.869 57.24 24.3 57.132 24.3 56.97C24.3 56.808 24.786 56.7 25.38 56.7C25.974 56.7 26.46 56.565 26.46 56.43C26.46 56.268 26.838 56.16 27.27 56.16C27.729 56.16 28.08 56.025 28.08 55.89C28.08 55.728 28.458 55.62 28.89 55.62C29.349 55.62 29.7 55.485 29.7 55.35C29.7 55.188 29.916 55.08 30.186 55.08C30.456 55.08 30.834 54.837 31.05 54.54C31.266 54.243 31.617 54 31.86 54C32.103 54 32.454 53.757 32.67 53.46C32.886 53.163 33.264 52.92 33.534 52.92C33.966 52.92 34.02 53.244 34.02 56.7C34.02 59.049 33.912 60.48 33.75 60.48C33.615 60.48 33.48 60.966 33.48 61.56C33.48 62.154 33.372 62.64 33.21 62.64C33.075 62.64 32.94 62.883 32.94 63.18C32.94 63.477 32.832 63.72 32.67 63.72C32.535 63.72 32.4 63.936 32.4 64.206C32.4 64.476 32.157 64.854 31.86 65.07C31.563 65.286 31.32 65.61 31.32 65.799C31.32 66.312 28.998 68.58 28.485 68.58C28.269 68.58 28.08 68.688 28.08 68.85C28.08 68.985 27.837 69.12 27.54 69.12C27.243 69.12 27 69.228 27 69.39C27 69.525 26.757 69.66 26.46 69.66C26.163 69.66 25.92 69.768 25.92 69.93C25.92 70.065 25.434 70.2 24.84 70.2C24.246 70.2 23.76 70.308 23.76 70.47C23.76 70.632 22.41 70.74 20.25 70.74C18.09 70.74 16.74 70.632 16.74 70.47C16.74 70.308 16.254 70.2 15.66 70.2C15.066 70.2 14.58 70.065 14.58 69.93C14.58 69.768 14.337 69.66 14.04 69.66C13.743 69.66 13.5 69.525 13.5 69.39C13.5 69.228 13.284 69.12 13.014 69.12C12.744 69.12 12.366 68.877 12.15 68.58C11.934 68.283 11.61 68.04 11.394 68.04C10.935 68.04 9.72 66.825 9.72 66.366C9.72 66.15 9.477 65.826 9.18 65.61C8.883 65.394 8.64 65.016 8.64 64.746C8.64 64.476 8.532 64.26 8.37 64.26C8.235 64.26 8.1 64.071 8.1 63.828C8.1 62.856 7.425 62.64 4.509 62.64C2.484 62.64 1.62 62.748 1.512 62.964C1.377 63.234 1.323 63.234 1.188 62.964C0.945 62.451 0.54 62.586 0.54 63.18C0.54 63.477 0.675 63.72 0.81 63.72C0.972 63.72 1.08 64.071 1.08 64.53C1.08 64.962 1.215 65.34 1.35 65.34C1.512 65.34 1.62 65.691 1.62 66.15C1.62 66.582 1.755 66.96 1.89 66.96C2.052 66.96 2.16 67.176 2.16 67.446C2.16 67.716 2.403 68.094 2.7 68.31C2.997 68.526 3.24 68.85 3.24 69.039C3.24 69.498 7.722 73.98 8.181 73.98C8.37 73.98 8.694 74.223 8.91 74.52C9.126 74.844 9.612 75.06 10.044 75.06C10.449 75.06 10.8 75.168 10.8 75.33C10.8 75.465 11.043 75.6 11.34 75.6C11.637 75.6 11.88 75.708 11.88 75.87C11.88 76.005 12.258 76.14 12.69 76.14C13.149 76.14 13.5 76.248 13.5 76.41C13.5 76.545 14.121 76.68 14.85 76.68C15.606 76.68 16.2 76.788 16.2 76.95C16.2 77.112 17.739 77.22 20.25 77.22C22.761 77.22 24.3 77.112 24.3 76.95C24.3 76.788 24.921 76.68 25.65 76.68C26.406 76.68 27 76.545 27 76.41C27 76.248 27.378 76.14 27.81 76.14C28.269 76.14 28.62 76.005 28.62 75.87C28.62 75.708 28.998 75.6 29.43 75.6C29.889 75.6 30.24 75.465 30.24 75.33C30.24 75.168 30.456 75.06 30.726 75.06C30.996 75.06 31.374 74.817 31.59 74.52C31.806 74.223 32.157 73.98 32.4 73.98C32.643 73.98 32.994 73.737 33.21 73.44C33.426 73.143 33.75 72.9 33.966 72.9C34.398 72.9 36.18 71.145 36.18 70.713C36.18 70.551 36.558 70.065 36.99 69.66C37.449 69.255 37.8 68.715 37.8 68.472C37.8 68.229 37.935 68.04 38.07 68.04C38.232 68.04 38.34 67.797 38.34 67.5C38.34 67.203 38.475 66.96 38.61 66.96C38.772 66.96 38.88 66.717 38.88 66.42C38.88 66.123 39.015 65.88 39.15 65.88C39.312 65.88 39.42 65.502 39.42 65.07C39.42 64.611 39.555 64.26 39.69 64.26C39.852 64.26 39.96 63.774 39.96 63.18C39.96 62.586 40.095 62.1 40.23 62.1C40.392 62.1 40.5 61.29 40.5 60.21C40.5 59.13 40.608 58.32 40.77 58.32C40.959 58.32 41.04 54.459 41.04 47.25C41.04 40.041 40.959 36.18 40.77 36.18C40.608 36.18 40.5 35.181 40.5 33.75C40.5 32.319 40.392 31.32 40.23 31.32C40.095 31.32 39.96 30.834 39.96 30.24C39.96 29.646 39.852 29.16 39.69 29.16C39.555 29.16 39.42 28.917 39.42 28.62C39.42 28.323 39.312 28.08 39.15 28.08C39.015 28.08 38.88 27.702 38.88 27.27C38.88 26.811 38.772 26.46 38.61 26.46C38.475 26.46 38.34 26.244 38.34 25.974C38.34 25.704 38.097 25.326 37.8 25.11C37.503 24.894 37.26 24.57 37.26 24.381C37.26 23.922 32.778 19.44 32.319 19.44C32.13 19.44 31.806 19.197 31.59 18.9C31.374 18.603 30.996 18.36 30.726 18.36C30.456 18.36 30.24 18.225 30.24 18.09C30.24 17.928 29.997 17.82 29.7 17.82C29.403 17.82 29.16 17.685 29.16 17.55C29.16 17.388 28.917 17.28 28.62 17.28C28.323 17.28 28.08 17.145 28.08 17.01C28.08 16.848 27.594 16.74 27 16.74C26.406 16.74 25.92 16.605 25.92 16.47C25.92 16.308 25.326 16.2 24.57 16.2C23.841 16.2 23.22 16.065 23.22 15.93C23.22 15.768 22.14 15.66 20.52 15.66C18.9 15.66 17.82 15.768 17.82 15.93ZM23.76 22.41C23.76 22.545 24.138 22.68 24.57 22.68C25.029 22.68 25.38 22.788 25.38 22.95C25.38 23.085 25.731 23.22 26.136 23.22C26.568 23.22 27.054 23.436 27.27 23.76C27.486 24.057 27.81 24.3 27.999 24.3C28.215 24.3 29.025 24.975 29.835 25.785C30.645 26.595 31.32 27.405 31.32 27.621C31.32 27.81 31.563 28.134 31.86 28.35C32.157 28.566 32.4 28.944 32.4 29.214C32.4 29.484 32.535 29.7 32.67 29.7C32.832 29.7 32.94 30.051 32.94 30.51C32.94 30.942 33.075 31.32 33.21 31.32C33.372 31.32 33.48 31.806 33.48 32.4C33.48 32.994 33.615 33.48 33.75 33.48C33.912 33.48 34.02 34.749 34.02 36.72C34.02 38.691 33.912 39.96 33.75 39.96C33.615 39.96 33.48 40.446 33.48 41.04C33.48 41.634 33.372 42.12 33.21 42.12C33.075 42.12 32.94 42.363 32.94 42.66C32.94 42.957 32.832 43.2 32.67 43.2C32.535 43.2 32.4 43.443 32.4 43.74C32.4 44.037 32.292 44.28 32.13 44.28C31.995 44.28 31.86 44.469 31.86 44.685C31.86 45.225 27.945 49.14 27.405 49.14C27.189 49.14 27 49.248 27 49.41C27 49.545 26.757 49.68 26.46 49.68C26.163 49.68 25.92 49.788 25.92 49.95C25.92 50.085 25.569 50.22 25.11 50.22C24.678 50.22 24.3 50.328 24.3 50.49C24.3 50.652 22.869 50.76 20.52 50.76C18.171 50.76 16.74 50.652 16.74 50.49C16.74 50.328 16.389 50.22 15.93 50.22C15.498 50.22 15.12 50.085 15.12 49.95C15.12 49.788 14.904 49.68 14.634 49.68C14.364 49.68 13.986 49.437 13.77 49.14C13.554 48.843 13.23 48.6 13.041 48.6C12.528 48.6 9.72 45.738 9.72 45.225C9.72 45.009 9.612 44.82 9.45 44.82C9.315 44.82 9.18 44.577 9.18 44.28C9.18 43.983 9.072 43.74 8.91 43.74C8.775 43.74 8.64 43.497 8.64 43.2C8.64 42.903 8.532 42.66 8.37 42.66C8.235 42.66 8.1 42.417 8.1 42.12C8.1 41.823 7.992 41.58 7.83 41.58C7.695 41.58 7.56 40.959 7.56 40.23C7.56 39.474 7.452 38.88 7.29 38.88C7.128 38.88 7.02 37.989 7.02 36.72C7.02 35.451 7.128 34.56 7.29 34.56C7.452 34.56 7.56 33.939 7.56 33.21C7.56 32.454 7.695 31.86 7.83 31.86C7.992 31.86 8.1 31.482 8.1 31.05C8.1 30.591 8.235 30.24 8.37 30.24C8.532 30.24 8.64 29.997 8.64 29.7C8.64 29.403 8.775 29.16 8.91 29.16C9.072 29.16 9.18 28.944 9.18 28.674C9.18 28.404 9.423 28.026 9.72 27.81C10.017 27.594 10.26 27.27 10.26 27.054C10.26 26.595 12.015 24.84 12.474 24.84C12.69 24.84 13.014 24.597 13.23 24.3C13.446 24.003 13.824 23.76 14.094 23.76C14.364 23.76 14.58 23.625 14.58 23.49C14.58 23.328 14.823 23.22 15.12 23.22C15.417 23.22 15.66 23.085 15.66 22.95C15.66 22.788 16.038 22.68 16.47 22.68C16.929 22.68 17.28 22.545 17.28 22.41C17.28 22.248 18.549 22.14 20.52 22.14C22.491 22.14 23.76 22.248 23.76 22.41Z" fill="#CDCDCD"/>
<path d="M170.64 16.47C170.64 16.605 170.154 16.74 169.56 16.74C168.966 16.74 168.48 16.848 168.48 17.01C168.48 17.145 168.237 17.28 167.94 17.28C167.643 17.28 167.4 17.388 167.4 17.55C167.4 17.685 167.049 17.82 166.59 17.82C166.158 17.82 165.78 17.928 165.78 18.09C165.78 18.225 165.564 18.36 165.294 18.36C165.024 18.36 164.646 18.603 164.43 18.9C164.214 19.197 163.863 19.44 163.62 19.44C163.377 19.44 163.026 19.683 162.81 19.98C162.594 20.277 162.27 20.52 162.054 20.52C161.622 20.52 159.84 22.275 159.84 22.707C159.84 22.869 159.489 23.355 159.03 23.76C158.598 24.165 158.22 24.678 158.22 24.894C158.22 25.083 157.977 25.434 157.68 25.65C157.356 25.866 157.14 26.352 157.14 26.784C157.14 27.189 157.032 27.54 156.87 27.54C156.735 27.54 156.6 27.783 156.6 28.08C156.6 28.377 156.492 28.62 156.33 28.62C156.195 28.62 156.06 28.971 156.06 29.43C156.06 29.862 155.952 30.24 155.79 30.24C155.655 30.24 155.52 30.834 155.52 31.59C155.52 32.319 155.412 32.94 155.25 32.94C155.061 32.94 154.98 37.179 154.98 45.09C154.98 53.001 155.061 57.24 155.25 57.24C155.412 57.24 155.52 57.105 155.52 56.97C155.52 56.808 156.681 56.7 158.49 56.7H161.46V46.17C161.46 39.339 161.568 35.64 161.73 35.64C161.892 35.64 162 34.911 162 34.02C162 33.129 162.108 32.4 162.27 32.4C162.432 32.4 162.54 32.022 162.54 31.59C162.54 31.131 162.675 30.78 162.81 30.78C162.972 30.78 163.08 30.537 163.08 30.24C163.08 29.943 163.215 29.7 163.35 29.7C163.512 29.7 163.62 29.484 163.62 29.214C163.62 28.944 163.863 28.566 164.16 28.35C164.457 28.134 164.7 27.81 164.7 27.594C164.7 27.162 165.915 25.92 166.347 25.92C166.509 25.92 166.995 25.542 167.4 25.11C167.805 24.651 168.345 24.3 168.588 24.3C168.831 24.3 169.02 24.165 169.02 24.03C169.02 23.868 169.398 23.76 169.83 23.76C170.289 23.76 170.64 23.625 170.64 23.49C170.64 23.328 171.018 23.22 171.45 23.22C171.909 23.22 172.26 23.085 172.26 22.95C172.26 22.788 173.421 22.68 175.23 22.68C177.039 22.68 178.2 22.788 178.2 22.95C178.2 23.085 178.578 23.22 179.01 23.22C179.469 23.22 179.82 23.328 179.82 23.49C179.82 23.625 180.198 23.76 180.63 23.76C181.089 23.76 181.44 23.868 181.44 24.03C181.44 24.165 181.629 24.3 181.872 24.3C182.115 24.3 182.655 24.651 183.06 25.11C183.465 25.542 183.951 25.92 184.14 25.92C184.545 25.92 185.22 26.595 185.22 27C185.22 27.189 185.598 27.675 186.03 28.08C186.489 28.485 186.84 29.025 186.84 29.268C186.84 29.511 186.975 29.7 187.11 29.7C187.272 29.7 187.38 29.943 187.38 30.24C187.38 30.537 187.515 30.78 187.65 30.78C187.812 30.78 187.92 31.131 187.92 31.59C187.92 32.022 188.055 32.4 188.19 32.4C188.352 32.4 188.46 33.21 188.46 34.29C188.46 35.37 188.568 36.18 188.73 36.18C189.162 36.18 189.108 56.079 188.676 56.214C188.433 56.295 188.487 56.484 188.838 56.862C189.216 57.213 189.405 57.267 189.486 57.024C189.621 56.619 194.94 56.565 194.94 56.97C194.94 57.105 195.075 57.24 195.21 57.24C195.399 57.24 195.48 53.001 195.48 45.09C195.48 37.179 195.399 32.94 195.21 32.94C195.075 32.94 194.94 32.319 194.94 31.59C194.94 30.834 194.832 30.24 194.67 30.24C194.535 30.24 194.4 29.862 194.4 29.43C194.4 28.971 194.292 28.62 194.13 28.62C193.995 28.62 193.86 28.377 193.86 28.08C193.86 27.783 193.752 27.54 193.59 27.54C193.455 27.54 193.32 27.297 193.32 27C193.32 26.703 193.212 26.46 193.05 26.46C192.915 26.46 192.78 26.217 192.78 25.92C192.78 25.623 192.672 25.38 192.51 25.38C192.375 25.38 192.24 25.191 192.24 24.948C192.24 24.705 191.889 24.165 191.43 23.76C190.998 23.355 190.62 22.869 190.62 22.707C190.62 22.302 189.378 21.06 188.973 21.06C188.811 21.06 188.325 20.682 187.92 20.25C187.515 19.791 187.002 19.44 186.786 19.44C186.597 19.44 186.246 19.197 186.03 18.9C185.814 18.603 185.436 18.36 185.166 18.36C184.896 18.36 184.68 18.225 184.68 18.09C184.68 17.928 184.329 17.82 183.87 17.82C183.438 17.82 183.06 17.685 183.06 17.55C183.06 17.388 182.709 17.28 182.25 17.28C181.818 17.28 181.44 17.145 181.44 17.01C181.44 16.848 181.089 16.74 180.63 16.74C180.198 16.74 179.82 16.605 179.82 16.47C179.82 16.308 178.119 16.2 175.23 16.2C172.341 16.2 170.64 16.308 170.64 16.47Z" fill="#CDCDCD"/>
<path d="M206.28 36.72C206.28 50.22 206.361 57.24 206.55 57.24C206.712 57.24 206.82 57.105 206.82 56.97C206.82 56.808 207.981 56.7 209.79 56.7C211.599 56.7 212.76 56.808 212.76 56.97C212.76 57.105 212.895 57.24 213.03 57.24C213.219 57.24 213.3 50.301 213.3 36.99V16.74H210.06C208.089 16.74 206.82 16.632 206.82 16.47C206.82 16.308 206.712 16.2 206.55 16.2C206.361 16.2 206.28 23.22 206.28 36.72Z" fill="#CDCDCD"/>
<path d="M208.98 0.269882C208.98 0.404882 208.629 0.539883 208.17 0.539883C207.738 0.539883 207.36 0.647882 207.36 0.809882C207.36 0.944882 207.171 1.07988 206.955 1.07988C206.415 1.07988 204.66 2.83488 204.66 3.37488C204.66 3.59088 204.552 3.77988 204.39 3.77988C204.255 3.77988 204.12 4.13088 204.12 4.58988C204.12 5.02188 204.012 5.39988 203.85 5.39988C203.715 5.39988 203.58 5.64288 203.58 5.93988C203.58 6.23688 203.715 6.47988 203.85 6.47988C204.012 6.47988 204.12 6.96588 204.12 7.55988C204.12 8.15388 204.255 8.63988 204.39 8.63988C204.552 8.63988 204.66 8.82888 204.66 9.04488C204.66 9.58488 206.415 11.3399 206.955 11.3399C207.171 11.3399 207.36 11.4479 207.36 11.6099C207.36 11.7719 208.359 11.8799 209.79 11.8799C211.221 11.8799 212.22 11.7719 212.22 11.6099C212.22 11.4479 212.409 11.3399 212.625 11.3399C213.165 11.3399 214.92 9.58488 214.92 9.04488C214.92 8.82888 215.055 8.63988 215.19 8.63988C215.352 8.63988 215.46 8.26188 215.46 7.82988C215.46 7.37088 215.595 7.01988 215.73 7.01988C215.892 7.01988 216 6.64188 216 6.20988C216 5.75088 215.892 5.39988 215.73 5.39988C215.595 5.39988 215.46 5.02188 215.46 4.58988C215.46 4.13088 215.352 3.77988 215.19 3.77988C215.055 3.77988 214.92 3.59088 214.92 3.37488C214.92 2.83488 213.165 1.07988 212.625 1.07988C212.409 1.07988 212.22 0.944882 212.22 0.809882C212.22 0.647882 211.869 0.539883 211.41 0.539883C210.978 0.539883 210.6 0.404882 210.6 0.269882C210.6 0.107882 210.249 -0.000117302 209.79 -0.000117302C209.358 -0.000117302 208.98 0.107882 208.98 0.269882Z" fill="white"/>
<path d="M68.04 15.9299C68.04 16.0649 67.554 16.1999 66.96 16.1999C66.366 16.1999 65.88 16.3079 65.88 16.4699C65.88 16.6049 65.529 16.7399 65.07 16.7399C64.638 16.7399 64.26 16.8479 64.26 17.0099C64.26 17.1449 64.017 17.2799 63.72 17.2799C63.423 17.2799 63.18 17.3879 63.18 17.5499C63.18 17.6849 62.937 17.8199 62.64 17.8199C62.343 17.8199 62.1 17.9279 62.1 18.0899C62.1 18.2249 61.884 18.3599 61.614 18.3599C61.344 18.3599 60.966 18.6029 60.75 18.8999C60.534 19.1969 60.21 19.4399 60.021 19.4399C59.562 19.4399 55.08 23.9219 55.08 24.3809C55.08 24.5699 54.837 24.8939 54.54 25.1099C54.243 25.3259 54 25.7039 54 25.9739C54 26.2439 53.892 26.4599 53.73 26.4599C53.595 26.4599 53.46 26.7029 53.46 26.9999C53.46 27.2969 53.352 27.5399 53.19 27.5399C53.055 27.5399 52.92 27.7829 52.92 28.0799C52.92 28.3769 52.812 28.6199 52.65 28.6199C52.515 28.6199 52.38 28.9709 52.38 29.4299C52.38 29.8619 52.272 30.2399 52.11 30.2399C51.975 30.2399 51.84 30.7259 51.84 31.3199C51.84 31.9139 51.732 32.3999 51.57 32.3999C51.408 32.3999 51.3 34.0199 51.3 36.7199C51.3 39.4199 51.408 41.0399 51.57 41.0399C51.732 41.0399 51.84 41.5259 51.84 42.1199C51.84 42.7139 51.975 43.1999 52.11 43.1999C52.272 43.1999 52.38 43.4429 52.38 43.7399C52.38 44.0369 52.515 44.2799 52.65 44.2799C52.812 44.2799 52.92 44.6309 52.92 45.0899C52.92 45.5219 53.055 45.8999 53.19 45.8999C53.352 45.8999 53.46 46.1159 53.46 46.3859C53.46 46.6559 53.703 47.0339 54 47.2499C54.297 47.4659 54.54 47.8169 54.54 48.0599C54.54 48.3029 54.783 48.6539 55.08 48.8699C55.377 49.0859 55.62 49.4099 55.62 49.5989C55.62 50.0309 58.455 52.9199 58.887 52.9199C59.049 52.9199 59.535 53.2709 59.94 53.7299C60.345 54.1619 60.885 54.5399 61.128 54.5399C61.371 54.5399 61.56 54.6479 61.56 54.8099C61.56 54.9449 61.803 55.0799 62.1 55.0799C62.397 55.0799 62.64 55.1879 62.64 55.3499C62.64 55.4849 62.883 55.6199 63.18 55.6199C63.477 55.6199 63.72 55.7279 63.72 55.8899C63.72 56.0249 64.098 56.1599 64.53 56.1599C64.989 56.1599 65.34 56.2679 65.34 56.4299C65.34 56.5649 65.718 56.6999 66.15 56.6999C66.609 56.6999 66.96 56.8079 66.96 56.9699C66.96 57.1319 67.689 57.2399 68.58 57.2399C69.471 57.2399 70.2 57.3479 70.2 57.5099C70.2 57.6719 71.091 57.7799 72.36 57.7799C73.629 57.7799 74.52 57.6719 74.52 57.5099C74.52 57.3479 75.141 57.2399 75.87 57.2399C76.626 57.2399 77.22 57.1049 77.22 56.9699C77.22 56.8079 77.706 56.6999 78.3 56.6999C78.894 56.6999 79.38 56.5649 79.38 56.4299C79.38 56.2679 79.623 56.1599 79.92 56.1599C80.217 56.1599 80.46 56.0249 80.46 55.8899C80.46 55.7279 80.703 55.6199 81 55.6199C81.297 55.6199 81.54 55.4849 81.54 55.3499C81.54 55.1879 81.783 55.0799 82.08 55.0799C82.377 55.0799 82.62 54.9449 82.62 54.8099C82.62 54.6479 82.836 54.5399 83.106 54.5399C83.376 54.5399 83.754 54.2969 83.97 53.9999C84.186 53.7029 84.51 53.4599 84.699 53.4599C85.158 53.4599 89.1 49.5179 89.1 49.0589C89.1 48.8699 89.343 48.5459 89.64 48.3299C89.937 48.1139 90.18 47.7359 90.18 47.4659C90.18 47.1959 90.315 46.9799 90.45 46.9799C90.612 46.9799 90.72 46.7369 90.72 46.4399C90.72 46.1429 90.855 45.8999 90.99 45.8999C91.152 45.8999 91.26 45.6569 91.26 45.3599C91.26 45.0629 91.395 44.8199 91.53 44.8199C91.692 44.8199 91.8 44.5769 91.8 44.2799C91.8 43.7669 91.611 43.7399 88.02 43.7399C84.834 43.7399 84.24 43.7939 84.24 44.1449C84.24 44.6849 80.325 48.5999 79.785 48.5999C79.569 48.5999 79.38 48.7079 79.38 48.8699C79.38 49.0049 79.137 49.1399 78.84 49.1399C78.543 49.1399 78.3 49.2479 78.3 49.4099C78.3 49.5449 78.057 49.6799 77.76 49.6799C77.463 49.6799 77.22 49.7879 77.22 49.9499C77.22 50.0849 76.869 50.2199 76.41 50.2199C75.978 50.2199 75.6 50.3279 75.6 50.4899C75.6 50.6519 74.25 50.7599 72.09 50.7599C69.93 50.7599 68.58 50.6519 68.58 50.4899C68.58 50.3279 68.229 50.2199 67.77 50.2199C67.338 50.2199 66.96 50.0849 66.96 49.9499C66.96 49.7879 66.717 49.6799 66.42 49.6799C66.123 49.6799 65.88 49.5449 65.88 49.4099C65.88 49.2479 65.664 49.1399 65.394 49.1399C65.124 49.1399 64.746 48.8969 64.53 48.5999C64.314 48.3029 63.99 48.0599 63.801 48.0599C63.342 48.0599 60.48 45.1979 60.48 44.7389C60.48 44.5499 60.237 44.2259 59.94 44.0099C59.643 43.7939 59.4 43.4159 59.4 43.1459C59.4 42.8759 59.292 42.6599 59.13 42.6599C58.995 42.6599 58.86 42.2819 58.86 41.8499C58.86 41.3909 58.752 41.0399 58.59 41.0399C58.455 41.0399 58.32 40.4189 58.32 39.6899V38.3399H75.87H93.42V36.4499C93.42 35.3699 93.312 34.5599 93.15 34.5599C92.988 34.5599 92.88 33.8309 92.88 32.9399C92.88 32.0489 92.772 31.3199 92.61 31.3199C92.475 31.3199 92.34 30.9419 92.34 30.5099C92.34 30.0509 92.232 29.6999 92.07 29.6999C91.935 29.6999 91.8 29.3219 91.8 28.8899C91.8 28.4309 91.692 28.0799 91.53 28.0799C91.395 28.0799 91.26 27.8369 91.26 27.5399C91.26 27.2429 91.152 26.9999 90.99 26.9999C90.855 26.9999 90.72 26.7839 90.72 26.5139C90.72 26.2439 90.477 25.8659 90.18 25.6499C89.883 25.4339 89.64 25.0829 89.64 24.8399C89.64 24.5969 89.397 24.2459 89.1 24.0299C88.803 23.8139 88.56 23.4899 88.56 23.3009C88.56 22.8689 86.265 20.5199 85.833 20.5199C85.671 20.5199 85.185 20.1419 84.78 19.7099C84.375 19.2509 83.835 18.8999 83.592 18.8999C83.349 18.8999 83.16 18.7649 83.16 18.6299C83.16 18.4679 82.917 18.3599 82.62 18.3599C82.323 18.3599 82.08 18.2249 82.08 18.0899C82.08 17.9279 81.837 17.8199 81.54 17.8199C81.243 17.8199 81 17.6849 81 17.5499C81 17.3879 80.757 17.2799 80.46 17.2799C80.163 17.2799 79.92 17.1449 79.92 17.0099C79.92 16.8479 79.569 16.7399 79.11 16.7399C78.678 16.7399 78.3 16.6049 78.3 16.4699C78.3 16.3079 77.814 16.1999 77.22 16.1999C76.626 16.1999 76.14 16.0649 76.14 15.9299C76.14 15.7679 74.601 15.6599 72.09 15.6599C69.579 15.6599 68.04 15.7679 68.04 15.9299ZM73.98 22.4099C73.98 22.5449 74.601 22.6799 75.33 22.6799C76.086 22.6799 76.68 22.7879 76.68 22.9499C76.68 23.0849 76.923 23.2199 77.22 23.2199C77.517 23.2199 77.76 23.3279 77.76 23.4899C77.76 23.6249 78.003 23.7599 78.3 23.7599C78.597 23.7599 78.84 23.8679 78.84 24.0299C78.84 24.1649 79.056 24.2999 79.326 24.2999C79.596 24.2999 79.974 24.5429 80.19 24.8399C80.406 25.1369 80.73 25.3799 80.946 25.3799C81.378 25.3799 83.16 27.1349 83.16 27.5669C83.16 27.7289 83.538 28.2149 83.97 28.6199C84.429 29.0249 84.78 29.5649 84.78 29.8079C84.78 30.0509 84.915 30.2399 85.05 30.2399C85.212 30.2399 85.32 30.7259 85.32 31.3199V32.3999H72.09H58.86V31.5899C58.86 31.1309 58.995 30.7799 59.13 30.7799C59.292 30.7799 59.4 30.5369 59.4 30.2399C59.4 29.9429 59.535 29.6999 59.67 29.6999C59.832 29.6999 59.94 29.5109 59.94 29.2949C59.94 28.7549 64.395 24.2999 64.935 24.2999C65.151 24.2999 65.34 24.1649 65.34 24.0299C65.34 23.8679 65.583 23.7599 65.88 23.7599C66.177 23.7599 66.42 23.6249 66.42 23.4899C66.42 23.3279 66.798 23.2199 67.23 23.2199C67.689 23.2199 68.04 23.0849 68.04 22.9499C68.04 22.7879 68.526 22.6799 69.12 22.6799C69.714 22.6799 70.2 22.5449 70.2 22.4099C70.2 22.2479 71.01 22.1399 72.09 22.1399C73.17 22.1399 73.98 22.2479 73.98 22.4099Z" fill="white"/>
<path d="M120.42 15.9299C120.42 16.0649 119.934 16.1999 119.34 16.1999C118.746 16.1999 118.26 16.3079 118.26 16.4699C118.26 16.6049 117.909 16.7399 117.45 16.7399C117.018 16.7399 116.64 16.8479 116.64 17.0099C116.64 17.1449 116.397 17.2799 116.1 17.2799C115.803 17.2799 115.56 17.3879 115.56 17.5499C115.56 17.6849 115.317 17.8199 115.02 17.8199C114.723 17.8199 114.48 17.9279 114.48 18.0899C114.48 18.2249 114.264 18.3599 113.994 18.3599C113.724 18.3599 113.346 18.6029 113.13 18.8999C112.914 19.1969 112.59 19.4399 112.401 19.4399C111.942 19.4399 107.46 23.9219 107.46 24.3809C107.46 24.5699 107.217 24.8939 106.92 25.1099C106.623 25.3259 106.38 25.7039 106.38 25.9739C106.38 26.2439 106.272 26.4599 106.11 26.4599C105.975 26.4599 105.84 26.7029 105.84 26.9999C105.84 27.2969 105.732 27.5399 105.57 27.5399C105.435 27.5399 105.3 27.7829 105.3 28.0799C105.3 28.3769 105.192 28.6199 105.03 28.6199C104.895 28.6199 104.76 28.9709 104.76 29.4299C104.76 29.8619 104.652 30.2399 104.49 30.2399C104.355 30.2399 104.22 30.7259 104.22 31.3199C104.22 31.9139 104.112 32.3999 103.95 32.3999C103.788 32.3999 103.68 33.5609 103.68 35.3699V38.3399H121.23H138.78V39.1499C138.78 39.5819 138.672 39.9599 138.51 39.9599C138.375 39.9599 138.24 40.3109 138.24 40.7699C138.24 41.2019 138.132 41.5799 137.97 41.5799C137.835 41.5799 137.7 41.8229 137.7 42.1199C137.7 42.4169 137.592 42.6599 137.43 42.6599C137.295 42.6599 137.16 42.9029 137.16 43.1999C137.16 43.4969 137.052 43.7399 136.89 43.7399C136.755 43.7399 136.62 43.9289 136.62 44.1449C136.62 44.6849 132.705 48.5999 132.165 48.5999C131.949 48.5999 131.76 48.7079 131.76 48.8699C131.76 49.0049 131.517 49.1399 131.22 49.1399C130.923 49.1399 130.68 49.2479 130.68 49.4099C130.68 49.5449 130.437 49.6799 130.14 49.6799C129.843 49.6799 129.6 49.7879 129.6 49.9499C129.6 50.0849 129.249 50.2199 128.79 50.2199C128.358 50.2199 127.98 50.3279 127.98 50.4899C127.98 50.6519 126.711 50.7599 124.74 50.7599C122.769 50.7599 121.5 50.6519 121.5 50.4899C121.5 50.3279 121.014 50.2199 120.42 50.2199C119.826 50.2199 119.34 50.0849 119.34 49.9499C119.34 49.7879 119.097 49.6799 118.8 49.6799C118.503 49.6799 118.26 49.5449 118.26 49.4099C118.26 49.2479 118.044 49.1399 117.774 49.1399C117.504 49.1399 117.126 48.8969 116.91 48.5999C116.694 48.3029 116.37 48.0599 116.181 48.0599C115.749 48.0599 112.86 45.2249 112.86 44.8199C112.86 43.9289 112.104 43.7399 108.432 43.7399C106.164 43.7399 104.76 43.8479 104.76 44.0099C104.76 44.1449 104.895 44.2799 105.03 44.2799C105.192 44.2799 105.3 44.6309 105.3 45.0899C105.3 45.5219 105.435 45.8999 105.57 45.8999C105.732 45.8999 105.84 46.1159 105.84 46.3859C105.84 46.6559 106.083 47.0339 106.38 47.2499C106.677 47.4659 106.92 47.8169 106.92 48.0599C106.92 48.3029 107.163 48.6539 107.46 48.8699C107.757 49.0859 108 49.4099 108 49.5989C108 50.0309 110.835 52.9199 111.267 52.9199C111.429 52.9199 111.915 53.2709 112.32 53.7299C112.725 54.1619 113.265 54.5399 113.508 54.5399C113.751 54.5399 113.94 54.6479 113.94 54.8099C113.94 54.9449 114.183 55.0799 114.48 55.0799C114.777 55.0799 115.02 55.1879 115.02 55.3499C115.02 55.4849 115.263 55.6199 115.56 55.6199C115.857 55.6199 116.1 55.7279 116.1 55.8899C116.1 56.0249 116.478 56.1599 116.91 56.1599C117.369 56.1599 117.72 56.2679 117.72 56.4299C117.72 56.5649 118.098 56.6999 118.53 56.6999C118.989 56.6999 119.34 56.8079 119.34 56.9699C119.34 57.1049 119.961 57.2399 120.69 57.2399C121.446 57.2399 122.04 57.3479 122.04 57.5099C122.04 57.6719 123.039 57.7799 124.47 57.7799C125.901 57.7799 126.9 57.6719 126.9 57.5099C126.9 57.3479 127.521 57.2399 128.25 57.2399C129.006 57.2399 129.6 57.1049 129.6 56.9699C129.6 56.8079 130.086 56.6999 130.68 56.6999C131.274 56.6999 131.76 56.5649 131.76 56.4299C131.76 56.2679 132.003 56.1599 132.3 56.1599C132.597 56.1599 132.84 56.0249 132.84 55.8899C132.84 55.7279 133.083 55.6199 133.38 55.6199C133.677 55.6199 133.92 55.4849 133.92 55.3499C133.92 55.1879 134.163 55.0799 134.46 55.0799C134.757 55.0799 135 54.9449 135 54.8099C135 54.6479 135.216 54.5399 135.486 54.5399C135.756 54.5399 136.134 54.2969 136.35 53.9999C136.566 53.7029 136.89 53.4599 137.079 53.4599C137.538 53.4599 141.48 49.5179 141.48 49.0589C141.48 48.8699 141.723 48.5459 142.02 48.3299C142.317 48.1139 142.56 47.7359 142.56 47.4659C142.56 47.1959 142.695 46.9799 142.83 46.9799C142.992 46.9799 143.1 46.7369 143.1 46.4399C143.1 46.1429 143.235 45.8999 143.37 45.8999C143.532 45.8999 143.64 45.6569 143.64 45.3599C143.64 45.0629 143.775 44.8199 143.91 44.8199C144.072 44.8199 144.18 44.5769 144.18 44.2799C144.18 43.9829 144.315 43.7399 144.45 43.7399C144.612 43.7399 144.72 43.2539 144.72 42.6599C144.72 42.0659 144.855 41.5799 144.99 41.5799C145.152 41.5799 145.26 40.8509 145.26 39.9599C145.26 39.0689 145.368 38.3399 145.53 38.3399C145.692 38.3399 145.8 37.6109 145.8 36.7199C145.8 35.8289 145.692 35.0999 145.53 35.0999C145.368 35.0999 145.26 34.2899 145.26 33.2099C145.26 32.1299 145.152 31.3199 144.99 31.3199C144.855 31.3199 144.72 30.9419 144.72 30.5099C144.72 30.0509 144.612 29.6999 144.45 29.6999C144.315 29.6999 144.18 29.3219 144.18 28.8899C144.18 28.4309 144.072 28.0799 143.91 28.0799C143.775 28.0799 143.64 27.8369 143.64 27.5399C143.64 27.2429 143.532 26.9999 143.37 26.9999C143.235 26.9999 143.1 26.7839 143.1 26.5139C143.1 26.2439 142.857 25.8659 142.56 25.6499C142.263 25.4339 142.02 25.0829 142.02 24.8399C142.02 24.5969 141.777 24.2459 141.48 24.0299C141.183 23.8139 140.94 23.4899 140.94 23.3009C140.94 22.8689 138.645 20.5199 138.213 20.5199C138.051 20.5199 137.565 20.1419 137.16 19.7099C136.755 19.2509 136.215 18.8999 135.972 18.8999C135.729 18.8999 135.54 18.7649 135.54 18.6299C135.54 18.4679 135.297 18.3599 135 18.3599C134.703 18.3599 134.46 18.2249 134.46 18.0899C134.46 17.9279 134.217 17.8199 133.92 17.8199C133.623 17.8199 133.38 17.6849 133.38 17.5499C133.38 17.3879 133.137 17.2799 132.84 17.2799C132.543 17.2799 132.3 17.1449 132.3 17.0099C132.3 16.8479 131.949 16.7399 131.49 16.7399C131.058 16.7399 130.68 16.6049 130.68 16.4699C130.68 16.3079 130.194 16.1999 129.6 16.1999C129.006 16.1999 128.52 16.0649 128.52 15.9299C128.52 15.7679 126.981 15.6599 124.47 15.6599C121.959 15.6599 120.42 15.7679 120.42 15.9299ZM126.36 22.4099C126.36 22.5449 126.981 22.6799 127.71 22.6799C128.466 22.6799 129.06 22.7879 129.06 22.9499C129.06 23.0849 129.303 23.2199 129.6 23.2199C129.897 23.2199 130.14 23.3279 130.14 23.4899C130.14 23.6249 130.383 23.7599 130.68 23.7599C130.977 23.7599 131.22 23.8679 131.22 24.0299C131.22 24.1649 131.436 24.2999 131.706 24.2999C131.976 24.2999 132.354 24.5429 132.57 24.8399C132.786 25.1369 133.11 25.3799 133.299 25.3799C133.758 25.3799 136.08 27.7019 136.08 28.1609C136.08 28.3499 136.323 28.6739 136.62 28.8899C136.917 29.1059 137.16 29.4839 137.16 29.7539C137.16 30.0239 137.295 30.2399 137.43 30.2399C137.592 30.2399 137.7 30.7259 137.7 31.3199V32.3999H124.47H111.24V31.5899C111.24 31.1309 111.375 30.7799 111.51 30.7799C111.672 30.7799 111.78 30.5369 111.78 30.2399C111.78 29.9429 111.915 29.6999 112.05 29.6999C112.212 29.6999 112.32 29.5109 112.32 29.2949C112.32 28.7549 116.775 24.2999 117.315 24.2999C117.531 24.2999 117.72 24.1649 117.72 24.0299C117.72 23.8679 117.963 23.7599 118.26 23.7599C118.557 23.7599 118.8 23.6249 118.8 23.4899C118.8 23.3279 119.178 23.2199 119.61 23.2199C120.069 23.2199 120.42 23.0849 120.42 22.9499C120.42 22.7879 120.906 22.6799 121.5 22.6799C122.094 22.6799 122.58 22.5449 122.58 22.4099C122.58 22.2479 123.39 22.1399 124.47 22.1399C125.55 22.1399 126.36 22.2479 126.36 22.4099Z" fill="white"/>
<path d="M68.58 68.31C68.58 68.445 68.283 68.58 67.905 68.58C66.987 68.58 65.34 70.227 65.34 71.145C65.34 71.523 65.232 71.82 65.07 71.82C64.935 71.82 64.8 72.063 64.8 72.36C64.8 72.657 64.935 72.9 65.07 72.9C65.232 72.9 65.34 73.197 65.34 73.575C65.34 74.304 66.933 76.14 67.554 76.14C67.77 76.14 68.094 76.383 68.31 76.68C68.526 76.977 68.904 77.22 69.174 77.22C69.444 77.22 69.66 77.328 69.66 77.49C69.66 77.625 69.876 77.76 70.146 77.76C70.416 77.76 70.794 78.003 71.01 78.3C71.226 78.597 71.604 78.84 71.874 78.84C72.144 78.84 72.36 78.948 72.36 79.11C72.36 79.245 72.603 79.38 72.9 79.38C73.197 79.38 73.44 79.488 73.44 79.65C73.44 79.785 73.683 79.92 73.98 79.92C74.277 79.92 74.52 80.028 74.52 80.19C74.52 80.325 74.763 80.46 75.06 80.46C75.357 80.46 75.6 80.568 75.6 80.73C75.6 80.865 75.978 81 76.41 81C76.869 81 77.22 81.108 77.22 81.27C77.22 81.405 77.463 81.54 77.76 81.54C78.057 81.54 78.3 81.648 78.3 81.81C78.3 81.945 78.678 82.08 79.11 82.08C79.569 82.08 79.92 82.188 79.92 82.35C79.92 82.485 80.298 82.62 80.73 82.62C81.189 82.62 81.54 82.728 81.54 82.89C81.54 83.025 81.918 83.16 82.35 83.16C82.809 83.16 83.16 83.268 83.16 83.43C83.16 83.565 83.646 83.7 84.24 83.7C84.834 83.7 85.32 83.808 85.32 83.97C85.32 84.105 85.806 84.24 86.4 84.24C86.994 84.24 87.48 84.348 87.48 84.51C87.48 84.672 88.209 84.78 89.1 84.78C89.991 84.78 90.72 84.888 90.72 85.05C90.72 85.212 91.881 85.32 93.69 85.32C95.499 85.32 96.66 85.428 96.66 85.59C96.66 85.752 97.47 85.86 98.55 85.86C99.63 85.86 100.44 85.752 100.44 85.59C100.44 85.428 101.52 85.32 103.14 85.32C104.76 85.32 105.84 85.212 105.84 85.05C105.84 84.888 106.569 84.78 107.46 84.78C108.351 84.78 109.08 84.672 109.08 84.51C109.08 84.348 109.701 84.24 110.43 84.24C111.186 84.24 111.78 84.105 111.78 83.97C111.78 83.808 112.158 83.7 112.59 83.7C113.049 83.7 113.4 83.565 113.4 83.43C113.4 83.268 113.886 83.16 114.48 83.16C115.074 83.16 115.56 83.025 115.56 82.89C115.56 82.728 115.938 82.62 116.37 82.62C116.829 82.62 117.18 82.485 117.18 82.35C117.18 82.188 117.423 82.08 117.72 82.08C118.017 82.08 118.26 81.945 118.26 81.81C118.26 81.648 118.638 81.54 119.07 81.54C119.529 81.54 119.88 81.405 119.88 81.27C119.88 81.108 120.123 81 120.42 81C120.717 81 120.96 80.865 120.96 80.73C120.96 80.568 121.203 80.46 121.5 80.46C121.797 80.46 122.04 80.325 122.04 80.19C122.04 80.028 122.283 79.92 122.58 79.92C122.877 79.92 123.12 79.785 123.12 79.65C123.12 79.488 123.363 79.38 123.66 79.38C123.957 79.38 124.2 79.245 124.2 79.11C124.2 78.948 124.443 78.84 124.74 78.84C125.037 78.84 125.28 78.705 125.28 78.57C125.28 78.408 125.496 78.3 125.766 78.3C126.036 78.3 126.414 78.057 126.63 77.76C126.846 77.463 127.224 77.22 127.494 77.22C127.764 77.22 127.98 77.085 127.98 76.95C127.98 76.788 128.169 76.68 128.385 76.68C128.925 76.68 131.22 74.385 131.22 73.845C131.22 73.629 131.355 73.44 131.49 73.44C131.652 73.44 131.76 72.819 131.76 72.09C131.76 71.334 131.652 70.74 131.49 70.74C131.355 70.74 131.22 70.551 131.22 70.308C131.22 69.768 130.572 69.12 130.032 69.12C129.789 69.12 129.6 68.985 129.6 68.85C129.6 68.688 129.357 68.58 129.06 68.58C128.763 68.58 128.52 68.445 128.52 68.31C128.52 68.148 128.277 68.04 127.98 68.04C127.683 68.04 127.44 68.148 127.44 68.31C127.44 68.445 127.089 68.58 126.63 68.58C126.198 68.58 125.82 68.688 125.82 68.85C125.82 68.985 125.604 69.12 125.334 69.12C125.064 69.12 124.686 69.363 124.47 69.66C124.254 69.957 123.876 70.2 123.606 70.2C123.336 70.2 123.12 70.308 123.12 70.47C123.12 70.605 122.904 70.74 122.634 70.74C122.364 70.74 121.986 70.983 121.77 71.28C121.554 71.577 121.176 71.82 120.906 71.82C120.636 71.82 120.42 71.928 120.42 72.09C120.42 72.225 120.177 72.36 119.88 72.36C119.583 72.36 119.34 72.468 119.34 72.63C119.34 72.765 119.097 72.9 118.8 72.9C118.503 72.9 118.26 73.008 118.26 73.17C118.26 73.305 118.017 73.44 117.72 73.44C117.423 73.44 117.18 73.548 117.18 73.71C117.18 73.845 116.829 73.98 116.37 73.98C115.938 73.98 115.56 74.088 115.56 74.25C115.56 74.385 115.317 74.52 115.02 74.52C114.723 74.52 114.48 74.628 114.48 74.79C114.48 74.925 114.129 75.06 113.67 75.06C113.238 75.06 112.86 75.168 112.86 75.33C112.86 75.465 112.374 75.6 111.78 75.6C111.186 75.6 110.7 75.708 110.7 75.87C110.7 76.005 110.214 76.14 109.62 76.14C109.026 76.14 108.54 76.248 108.54 76.41C108.54 76.545 107.946 76.68 107.19 76.68C106.461 76.68 105.84 76.788 105.84 76.95C105.84 77.112 104.841 77.22 103.41 77.22C101.979 77.22 100.98 77.328 100.98 77.49C100.98 77.652 99.981 77.76 98.55 77.76C97.119 77.76 96.12 77.652 96.12 77.49C96.12 77.328 95.04 77.22 93.42 77.22C91.8 77.22 90.72 77.112 90.72 76.95C90.72 76.788 90.126 76.68 89.37 76.68C88.641 76.68 88.02 76.545 88.02 76.41C88.02 76.248 87.534 76.14 86.94 76.14C86.346 76.14 85.86 76.005 85.86 75.87C85.86 75.708 85.509 75.6 85.05 75.6C84.618 75.6 84.24 75.465 84.24 75.33C84.24 75.168 83.889 75.06 83.43 75.06C82.998 75.06 82.62 74.925 82.62 74.79C82.62 74.628 82.269 74.52 81.81 74.52C81.378 74.52 81 74.385 81 74.25C81 74.088 80.757 73.98 80.46 73.98C80.163 73.98 79.92 73.845 79.92 73.71C79.92 73.548 79.677 73.44 79.38 73.44C79.083 73.44 78.84 73.305 78.84 73.17C78.84 73.008 78.597 72.9 78.3 72.9C78.003 72.9 77.76 72.765 77.76 72.63C77.76 72.468 77.517 72.36 77.22 72.36C76.923 72.36 76.68 72.225 76.68 72.09C76.68 71.928 76.437 71.82 76.14 71.82C75.843 71.82 75.6 71.685 75.6 71.55C75.6 71.388 75.357 71.28 75.06 71.28C74.763 71.28 74.52 71.145 74.52 71.01C74.52 70.848 74.304 70.74 74.034 70.74C73.764 70.74 73.386 70.497 73.17 70.2C72.954 69.903 72.603 69.66 72.36 69.66C72.117 69.66 71.766 69.417 71.55 69.12C71.334 68.796 70.848 68.58 70.416 68.58C70.011 68.58 69.66 68.445 69.66 68.31C69.66 68.148 69.417 68.04 69.12 68.04C68.823 68.04 68.58 68.148 68.58 68.31Z" fill="white"/>
</svg>