<svg width="30" height="31" viewBox="0 0 30 31" fill="none" xmlns="http://www.w3.org/2000/svg">
<path d="M11.1878 3.88772C10.988 3.88772 10.8178 3.83335 10.6772 3.7246C10.5366 3.61497 10.4292 3.45628 10.3549 3.24851C10.2807 3.03987 10.2435 2.7879 10.2435 2.49261C10.2435 2.19909 10.2807 1.94844 10.3549 1.74068C10.4301 1.53203 10.538 1.3729 10.6785 1.26327C10.82 1.15275 10.9897 1.0975 11.1878 1.0975C11.3858 1.0975 11.5551 1.15275 11.6957 1.26327C11.8371 1.3729 11.945 1.53203 12.0193 1.74068C12.0944 1.94844 12.132 2.19909 12.132 2.49261C12.132 2.7879 12.0949 3.03987 12.0206 3.24851C11.9463 3.45628 11.8389 3.61497 11.6983 3.7246C11.5578 3.83335 11.3876 3.88772 11.1878 3.88772ZM11.1878 3.59597C11.3858 3.59597 11.5396 3.50048 11.6493 3.30952C11.7589 3.11855 11.8137 2.84625 11.8137 2.49261C11.8137 2.25744 11.7885 2.05719 11.7381 1.89186C11.6886 1.72654 11.617 1.60055 11.5233 1.51391C11.4304 1.42727 11.3186 1.38395 11.1878 1.38395C10.9915 1.38395 10.8381 1.48076 10.7276 1.67437C10.6171 1.86711 10.5618 2.13985 10.5618 2.49261C10.5618 2.72778 10.5866 2.92759 10.6361 3.09203C10.6856 3.25647 10.7568 3.38157 10.8496 3.46733C10.9433 3.55309 11.056 3.59597 11.1878 3.59597ZM13.1426 1.13463V3.85059H12.8137V1.47943H12.7978L12.1347 1.91971V1.58552L12.8137 1.13463H13.1426ZM14.3615 3.88772C14.1616 3.88772 13.9915 3.83335 13.8509 3.7246C13.7103 3.61497 13.6029 3.45628 13.5286 3.24851C13.4544 3.03987 13.4172 2.7879 13.4172 2.49261C13.4172 2.19909 13.4544 1.94844 13.5286 1.74068C13.6038 1.53203 13.7116 1.3729 13.8522 1.26327C13.9937 1.15275 14.1634 1.0975 14.3615 1.0975C14.5595 1.0975 14.7288 1.15275 14.8694 1.26327C15.0108 1.3729 15.1187 1.53203 15.1929 1.74068C15.2681 1.94844 15.3057 2.19909 15.3057 2.49261C15.3057 2.7879 15.2685 3.03987 15.1943 3.24851C15.12 3.45628 15.0126 3.61497 14.872 3.7246C14.7314 3.83335 14.5613 3.88772 14.3615 3.88772ZM14.3615 3.59597C14.5595 3.59597 14.7133 3.50048 14.823 3.30952C14.9326 3.11855 14.9874 2.84625 14.9874 2.49261C14.9874 2.25744 14.9622 2.05719 14.9118 1.89186C14.8623 1.72654 14.7907 1.60055 14.697 1.51391C14.6041 1.42727 14.4923 1.38395 14.3615 1.38395C14.1652 1.38395 14.0118 1.48076 13.9013 1.67437C13.7908 1.86711 13.7355 2.13985 13.7355 2.49261C13.7355 2.72778 13.7603 2.92759 13.8098 3.09203C13.8593 3.25647 13.9305 3.38157 14.0233 3.46733C14.117 3.55309 14.2297 3.59597 14.3615 3.59597ZM16.3163 1.13463V3.85059H15.9874V1.47943H15.9715L15.3084 1.91971V1.58552L15.9874 1.13463H16.3163ZM17.6041 1.13463V3.85059H17.2752V1.47943H17.2593L16.5962 1.91971V1.58552L17.2752 1.13463H17.6041ZM18.8229 3.88772C18.6231 3.88772 18.4529 3.83335 18.3124 3.7246C18.1718 3.61497 18.0644 3.45628 17.9901 3.24851C17.9159 3.03987 17.8787 2.7879 17.8787 2.49261C17.8787 2.19909 17.9159 1.94844 17.9901 1.74068C18.0653 1.53203 18.1731 1.3729 18.3137 1.26327C18.4552 1.15275 18.6249 1.0975 18.8229 1.0975C19.021 1.0975 19.1903 1.15275 19.3309 1.26327C19.4723 1.3729 19.5802 1.53203 19.6544 1.74068C19.7296 1.94844 19.7672 2.19909 19.7672 2.49261C19.7672 2.7879 19.73 3.03987 19.6558 3.24851C19.5815 3.45628 19.4741 3.61497 19.3335 3.7246C19.1929 3.83335 19.0227 3.88772 18.8229 3.88772ZM18.8229 3.59597C19.021 3.59597 19.1748 3.50048 19.2844 3.30952C19.3941 3.11855 19.4489 2.84625 19.4489 2.49261C19.4489 2.25744 19.4237 2.05719 19.3733 1.89186C19.3238 1.72654 19.2522 1.60055 19.1585 1.51391C19.0656 1.42727 18.9538 1.38395 18.8229 1.38395C18.6267 1.38395 18.4733 1.48076 18.3628 1.67437C18.2523 1.86711 18.197 2.13985 18.197 2.49261C18.197 2.72778 18.2218 2.92759 18.2713 3.09203C18.3208 3.25647 18.3919 3.38157 18.4848 3.46733C18.5785 3.55309 18.6912 3.59597 18.8229 3.59597ZM11.2567 4.13463V6.85059H10.9278V4.47943H10.9119L10.2488 4.91971V4.58552L10.9278 4.13463H11.2567ZM12.5445 4.13463V6.85059H12.2156V4.47943H12.1997L11.5366 4.91971V4.58552L12.2156 4.13463H12.5445ZM13.7634 6.88772C13.5636 6.88772 13.3934 6.83335 13.2528 6.7246C13.1122 6.61497 13.0048 6.45628 12.9305 6.24851C12.8563 6.03987 12.8191 5.7879 12.8191 5.49261C12.8191 5.19909 12.8563 4.94844 12.9305 4.74068C13.0057 4.53203 13.1135 4.3729 13.2541 4.26327C13.3956 4.15275 13.5653 4.0975 13.7634 4.0975C13.9614 4.0975 14.1307 4.15275 14.2713 4.26327C14.4127 4.3729 14.5206 4.53203 14.5949 4.74068C14.67 4.94844 14.7076 5.19909 14.7076 5.49261C14.7076 5.7879 14.6704 6.03987 14.5962 6.24851C14.5219 6.45628 14.4145 6.61497 14.2739 6.7246C14.1334 6.83335 13.9632 6.88772 13.7634 6.88772ZM13.7634 6.59597C13.9614 6.59597 14.1152 6.50048 14.2249 6.30952C14.3345 6.11855 14.3893 5.84625 14.3893 5.49261C14.3893 5.25744 14.3641 5.05719 14.3137 4.89186C14.2642 4.72654 14.1926 4.60055 14.0989 4.51391C14.006 4.42727 13.8942 4.38395 13.7634 4.38395C13.5671 4.38395 13.4137 4.48076 13.3032 4.67437C13.1927 4.86711 13.1374 5.13985 13.1374 5.49261C13.1374 5.72778 13.1622 5.92759 13.2117 6.09203C13.2612 6.25647 13.3324 6.38157 13.4252 6.46733C13.5189 6.55309 13.6316 6.59597 13.7634 6.59597ZM15.6493 6.88772C15.4494 6.88772 15.2793 6.83335 15.1387 6.7246C14.9981 6.61497 14.8907 6.45628 14.8164 6.24851C14.7422 6.03987 14.705 5.7879 14.705 5.49261C14.705 5.19909 14.7422 4.94844 14.8164 4.74068C14.8916 4.53203 14.9994 4.3729 15.14 4.26327C15.2815 4.15275 15.4512 4.0975 15.6493 4.0975C15.8473 4.0975 16.0166 4.15275 16.1572 4.26327C16.2986 4.3729 16.4065 4.53203 16.4807 4.74068C16.5559 4.94844 16.5935 5.19909 16.5935 5.49261C16.5935 5.7879 16.5563 6.03987 16.4821 6.24851C16.4078 6.45628 16.3004 6.61497 16.1598 6.7246C16.0192 6.83335 15.8491 6.88772 15.6493 6.88772ZM15.6493 6.59597C15.8473 6.59597 16.0011 6.50048 16.1108 6.30952C16.2204 6.11855 16.2752 5.84625 16.2752 5.49261C16.2752 5.25744 16.25 5.05719 16.1996 4.89186C16.1501 4.72654 16.0785 4.60055 15.9848 4.51391C15.8919 4.42727 15.7801 4.38395 15.6493 4.38395C15.453 4.38395 15.2996 4.48076 15.1891 4.67437C15.0786 4.86711 15.0233 5.13985 15.0233 5.49261C15.0233 5.72778 15.0481 5.92759 15.0976 6.09203C15.1471 6.25647 15.2183 6.38157 15.3111 6.46733C15.4048 6.55309 15.5175 6.59597 15.6493 6.59597ZM17.6041 4.13463V6.85059H17.2752V4.47943H17.2593L16.5962 4.91971V4.58552L17.2752 4.13463H17.6041ZM18.8229 6.88772C18.6231 6.88772 18.4529 6.83335 18.3124 6.7246C18.1718 6.61497 18.0644 6.45628 17.9901 6.24851C17.9159 6.03987 17.8787 5.7879 17.8787 5.49261C17.8787 5.19909 17.9159 4.94844 17.9901 4.74068C18.0653 4.53203 18.1731 4.3729 18.3137 4.26327C18.4552 4.15275 18.6249 4.0975 18.8229 4.0975C19.021 4.0975 19.1903 4.15275 19.3309 4.26327C19.4723 4.3729 19.5802 4.53203 19.6544 4.74068C19.7296 4.94844 19.7672 5.19909 19.7672 5.49261C19.7672 5.7879 19.73 6.03987 19.6558 6.24851C19.5815 6.45628 19.4741 6.61497 19.3335 6.7246C19.1929 6.83335 19.0227 6.88772 18.8229 6.88772ZM18.8229 6.59597C19.021 6.59597 19.1748 6.50048 19.2844 6.30952C19.3941 6.11855 19.4489 5.84625 19.4489 5.49261C19.4489 5.25744 19.4237 5.05719 19.3733 4.89186C19.3238 4.72654 19.2522 4.60055 19.1585 4.51391C19.0656 4.42727 18.9538 4.38395 18.8229 4.38395C18.6267 4.38395 18.4733 4.48076 18.3628 4.67437C18.2523 4.86711 18.197 5.13985 18.197 5.49261C18.197 5.72778 18.2218 5.92759 18.2713 6.09203C18.3208 6.25647 18.3919 6.38157 18.4848 6.46733C18.5785 6.55309 18.6912 6.59597 18.8229 6.59597ZM11.1878 9.88772C10.988 9.88772 10.8178 9.83335 10.6772 9.7246C10.5366 9.61497 10.4292 9.45628 10.3549 9.24851C10.2807 9.03987 10.2435 8.7879 10.2435 8.49261C10.2435 8.19909 10.2807 7.94844 10.3549 7.74068C10.4301 7.53203 10.538 7.3729 10.6785 7.26327C10.82 7.15275 10.9897 7.0975 11.1878 7.0975C11.3858 7.0975 11.5551 7.15275 11.6957 7.26327C11.8371 7.3729 11.945 7.53203 12.0193 7.74068C12.0944 7.94844 12.132 8.19909 12.132 8.49261C12.132 8.7879 12.0949 9.03987 12.0206 9.24851C11.9463 9.45628 11.8389 9.61497 11.6983 9.7246C11.5578 9.83335 11.3876 9.88772 11.1878 9.88772ZM11.1878 9.59597C11.3858 9.59597 11.5396 9.50048 11.6493 9.30952C11.7589 9.11855 11.8137 8.84625 11.8137 8.49261C11.8137 8.25744 11.7885 8.05719 11.7381 7.89186C11.6886 7.72654 11.617 7.60055 11.5233 7.51391C11.4304 7.42727 11.3186 7.38395 11.1878 7.38395C10.9915 7.38395 10.8381 7.48076 10.7276 7.67437C10.6171 7.86711 10.5618 8.13985 10.5618 8.49261C10.5618 8.72778 10.5866 8.92759 10.6361 9.09203C10.6856 9.25647 10.7568 9.38157 10.8496 9.46733C10.9433 9.55309 11.056 9.59597 11.1878 9.59597ZM13.1426 7.13463V9.85059H12.8137V7.47943H12.7978L12.1347 7.91971V7.58552L12.8137 7.13463H13.1426ZM14.4304 7.13463V9.85059H14.1015V7.47943H14.0856L13.4225 7.91971V7.58552L14.1015 7.13463H14.4304ZM15.6493 9.88772C15.4494 9.88772 15.2793 9.83335 15.1387 9.7246C14.9981 9.61497 14.8907 9.45628 14.8164 9.24851C14.7422 9.03987 14.705 8.7879 14.705 8.49261C14.705 8.19909 14.7422 7.94844 14.8164 7.74068C14.8916 7.53203 14.9994 7.3729 15.14 7.26327C15.2815 7.15275 15.4512 7.0975 15.6493 7.0975C15.8473 7.0975 16.0166 7.15275 16.1572 7.26327C16.2986 7.3729 16.4065 7.53203 16.4807 7.74068C16.5559 7.94844 16.5935 8.19909 16.5935 8.49261C16.5935 8.7879 16.5563 9.03987 16.4821 9.24851C16.4078 9.45628 16.3004 9.61497 16.1598 9.7246C16.0192 9.83335 15.8491 9.88772 15.6493 9.88772ZM15.6493 9.59597C15.8473 9.59597 16.0011 9.50048 16.1108 9.30952C16.2204 9.11855 16.2752 8.84625 16.2752 8.49261C16.2752 8.25744 16.25 8.05719 16.1996 7.89186C16.1501 7.72654 16.0785 7.60055 15.9848 7.51391C15.8919 7.42727 15.7801 7.38395 15.6493 7.38395C15.453 7.38395 15.2996 7.48076 15.1891 7.67437C15.0786 7.86711 15.0233 8.13985 15.0233 8.49261C15.0233 8.72778 15.0481 8.92759 15.0976 9.09203C15.1471 9.25647 15.2183 9.38157 15.3111 9.46733C15.4048 9.55309 15.5175 9.59597 15.6493 9.59597ZM17.5351 9.88772C17.3353 9.88772 17.1651 9.83335 17.0246 9.7246C16.884 9.61497 16.7766 9.45628 16.7023 9.24851C16.6281 9.03987 16.5909 8.7879 16.5909 8.49261C16.5909 8.19909 16.6281 7.94844 16.7023 7.74068C16.7775 7.53203 16.8853 7.3729 17.0259 7.26327C17.1674 7.15275 17.3371 7.0975 17.5351 7.0975C17.7332 7.0975 17.9025 7.15275 18.0431 7.26327C18.1845 7.3729 18.2924 7.53203 18.3666 7.74068C18.4418 7.94844 18.4794 8.19909 18.4794 8.49261C18.4794 8.7879 18.4422 9.03987 18.368 9.24851C18.2937 9.45628 18.1863 9.61497 18.0457 9.7246C17.9051 9.83335 17.7349 9.88772 17.5351 9.88772ZM17.5351 9.59597C17.7332 9.59597 17.887 9.50048 17.9966 9.30952C18.1063 9.11855 18.1611 8.84625 18.1611 8.49261C18.1611 8.25744 18.1359 8.05719 18.0855 7.89186C18.036 7.72654 17.9644 7.60055 17.8707 7.51391C17.7778 7.42727 17.666 7.38395 17.5351 7.38395C17.3389 7.38395 17.1855 7.48076 17.075 7.67437C16.9645 7.86711 16.9092 8.13985 16.9092 8.49261C16.9092 8.72778 16.934 8.92759 16.9835 9.09203C17.033 9.25647 17.1041 9.38157 17.197 9.46733C17.2907 9.55309 17.4034 9.59597 17.5351 9.59597ZM19.49 7.13463V9.85059H19.1611V7.47943H19.1452L18.4821 7.91971V7.58552L19.1611 7.13463H19.49Z" fill="white"/>
<path d="M1.16701 15.0286C0.967206 15.0286 0.797016 14.9742 0.656444 14.8655C0.515872 14.7558 0.408454 14.5971 0.33419 14.3894C0.259925 14.1807 0.222793 13.9288 0.222793 13.6335C0.222793 13.34 0.259925 13.0893 0.33419 12.8816C0.409338 12.6729 0.517199 12.5138 0.657771 12.4041C0.799227 12.2936 0.968974 12.2384 1.16701 12.2384C1.36505 12.2384 1.53436 12.2936 1.67493 12.4041C1.81638 12.5138 1.92424 12.6729 1.99851 12.8816C2.07366 13.0893 2.11123 13.34 2.11123 13.6335C2.11123 13.9288 2.0741 14.1807 1.99983 14.3894C1.92557 14.5971 1.81815 14.7558 1.67758 14.8655C1.53701 14.9742 1.36682 15.0286 1.16701 15.0286ZM1.16701 14.7368C1.36505 14.7368 1.51888 14.6414 1.62851 14.4504C1.73814 14.2594 1.79296 13.9871 1.79296 13.6335C1.79296 13.3983 1.76776 13.1981 1.71736 13.0327C1.66785 12.8674 1.59624 12.7414 1.50253 12.6548C1.4097 12.5681 1.29786 12.5248 1.16701 12.5248C0.970742 12.5248 0.817351 12.6216 0.706838 12.8152C0.596326 13.008 0.541069 13.2807 0.541069 13.6335C0.541069 13.8686 0.565824 14.0685 0.615334 14.2329C0.664843 14.3973 0.736013 14.5224 0.828844 14.6082C0.922558 14.694 1.03528 14.7368 1.16701 14.7368ZM3.12186 12.2755V14.9915H2.79298V12.6203H2.77706L2.11399 13.0606V12.7264L2.79298 12.2755H3.12186ZM4.3407 15.0286C4.1409 15.0286 3.97071 14.9742 3.83013 14.8655C3.68956 14.7558 3.58214 14.5971 3.50788 14.3894C3.43362 14.1807 3.39648 13.9288 3.39648 13.6335C3.39648 13.34 3.43362 13.0893 3.50788 12.8816C3.58303 12.6729 3.69089 12.5138 3.83146 12.4041C3.97292 12.2936 4.14266 12.2384 4.3407 12.2384C4.53874 12.2384 4.70805 12.2936 4.84862 12.4041C4.99007 12.5138 5.09793 12.6729 5.1722 12.8816C5.24735 13.0893 5.28492 13.34 5.28492 13.6335C5.28492 13.9288 5.24779 14.1807 5.17352 14.3894C5.09926 14.5971 4.99184 14.7558 4.85127 14.8655C4.7107 14.9742 4.54051 15.0286 4.3407 15.0286ZM4.3407 14.7368C4.53874 14.7368 4.69257 14.6414 4.8022 14.4504C4.91183 14.2594 4.96664 13.9871 4.96664 13.6335C4.96664 13.3983 4.94145 13.1981 4.89105 13.0327C4.84154 12.8674 4.76993 12.7414 4.67622 12.6548C4.58339 12.5681 4.47155 12.5248 4.3407 12.5248C4.14443 12.5248 3.99104 12.6216 3.88053 12.8152C3.77002 13.008 3.71476 13.2807 3.71476 13.6335C3.71476 13.8686 3.73951 14.0685 3.78902 14.2329C3.83853 14.3973 3.9097 14.5224 4.00253 14.6082C4.09625 14.694 4.20897 14.7368 4.3407 14.7368ZM6.29555 12.2755V14.9915H5.96667V12.6203H5.95075L5.28768 13.0606V12.7264L5.96667 12.2755H6.29555ZM7.58335 12.2755V14.9915H7.25447V12.6203H7.23855L6.57548 13.0606V12.7264L7.25447 12.2755H7.58335ZM8.80219 15.0286C8.60238 15.0286 8.43219 14.9742 8.29162 14.8655C8.15105 14.7558 8.04363 14.5971 7.96937 14.3894C7.8951 14.1807 7.85797 13.9288 7.85797 13.6335C7.85797 13.34 7.8951 13.0893 7.96937 12.8816C8.04452 12.6729 8.15238 12.5138 8.29295 12.4041C8.4344 12.2936 8.60415 12.2384 8.80219 12.2384C9.00023 12.2384 9.16953 12.2936 9.3101 12.4041C9.45156 12.5138 9.55942 12.6729 9.63369 12.8816C9.70883 13.0893 9.74641 13.34 9.74641 13.6335C9.74641 13.9288 9.70928 14.1807 9.63501 14.3894C9.56075 14.5971 9.45333 14.7558 9.31276 14.8655C9.17219 14.9742 9.002 15.0286 8.80219 15.0286ZM8.80219 14.7368C9.00023 14.7368 9.15406 14.6414 9.26369 14.4504C9.37332 14.2594 9.42813 13.9871 9.42813 13.6335C9.42813 13.3983 9.40294 13.1981 9.35254 13.0327C9.30303 12.8674 9.23142 12.7414 9.13771 12.6548C9.04487 12.5681 8.93304 12.5248 8.80219 12.5248C8.60592 12.5248 8.45253 12.6216 8.34202 12.8152C8.2315 13.008 8.17625 13.2807 8.17625 13.6335C8.17625 13.8686 8.201 14.0685 8.25051 14.2329C8.30002 14.3973 8.37119 14.5224 8.46402 14.6082C8.55774 14.694 8.67046 14.7368 8.80219 14.7368ZM1.23597 15.2755V17.9915H0.907087V15.6203H0.891173L0.228098 16.0606V15.7264L0.907087 15.2755H1.23597ZM2.52377 15.2755V17.9915H2.19488V15.6203H2.17897L1.5159 16.0606V15.7264L2.19488 15.2755H2.52377ZM3.74261 18.0286C3.5428 18.0286 3.37261 17.9742 3.23204 17.8655C3.09147 17.7558 2.98405 17.5971 2.90979 17.3894C2.83552 17.1807 2.79839 16.9288 2.79839 16.6335C2.79839 16.34 2.83552 16.0893 2.90979 15.8816C2.98493 15.6729 3.09279 15.5138 3.23337 15.4041C3.37482 15.2936 3.54457 15.2384 3.74261 15.2384C3.94065 15.2384 4.10995 15.2936 4.25052 15.4041C4.39198 15.5138 4.49984 15.6729 4.5741 15.8816C4.64925 16.0893 4.68683 16.34 4.68683 16.6335C4.68683 16.9288 4.64969 17.1807 4.57543 17.3894C4.50117 17.5971 4.39375 17.7558 4.25318 17.8655C4.1126 17.9742 3.94241 18.0286 3.74261 18.0286ZM3.74261 17.7368C3.94065 17.7368 4.09448 17.6414 4.20411 17.4504C4.31374 17.2594 4.36855 16.9871 4.36855 16.6335C4.36855 16.3983 4.34335 16.1981 4.29296 16.0327C4.24345 15.8674 4.17184 15.7414 4.07812 15.6548C3.98529 15.5681 3.87345 15.5248 3.74261 15.5248C3.54634 15.5248 3.39295 15.6216 3.28243 15.8152C3.17192 16.008 3.11667 16.2807 3.11667 16.6335C3.11667 16.8686 3.14142 17.0685 3.19093 17.2329C3.24044 17.3973 3.31161 17.5224 3.40444 17.6082C3.49815 17.694 3.61088 17.7368 3.74261 17.7368ZM5.6285 18.0286C5.42869 18.0286 5.2585 17.9742 5.11793 17.8655C4.97736 17.7558 4.86994 17.5971 4.79568 17.3894C4.72141 17.1807 4.68428 16.9288 4.68428 16.6335C4.68428 16.34 4.72141 16.0893 4.79568 15.8816C4.87083 15.6729 4.97869 15.5138 5.11926 15.4041C5.26071 15.2936 5.43046 15.2384 5.6285 15.2384C5.82654 15.2384 5.99584 15.2936 6.13642 15.4041C6.27787 15.5138 6.38573 15.6729 6.46 15.8816C6.53514 16.0893 6.57272 16.34 6.57272 16.6335C6.57272 16.9288 6.53559 17.1807 6.46132 17.3894C6.38706 17.5971 6.27964 17.7558 6.13907 17.8655C5.9985 17.9742 5.82831 18.0286 5.6285 18.0286ZM5.6285 17.7368C5.82654 17.7368 5.98037 17.6414 6.09 17.4504C6.19963 17.2594 6.25444 16.9871 6.25444 16.6335C6.25444 16.3983 6.22925 16.1981 6.17885 16.0327C6.12934 15.8674 6.05773 15.7414 5.96402 15.6548C5.87119 15.5681 5.75935 15.5248 5.6285 15.5248C5.43223 15.5248 5.27884 15.6216 5.16833 15.8152C5.05781 16.008 5.00256 16.2807 5.00256 16.6335C5.00256 16.8686 5.02731 17.0685 5.07682 17.2329C5.12633 17.3973 5.1975 17.5224 5.29033 17.6082C5.38405 17.694 5.49677 17.7368 5.6285 17.7368ZM7.58335 15.2755V17.9915H7.25447V15.6203H7.23855L6.57548 16.0606V15.7264L7.25447 15.2755H7.58335ZM8.80219 18.0286C8.60238 18.0286 8.43219 17.9742 8.29162 17.8655C8.15105 17.7558 8.04363 17.5971 7.96937 17.3894C7.8951 17.1807 7.85797 16.9288 7.85797 16.6335C7.85797 16.34 7.8951 16.0893 7.96937 15.8816C8.04452 15.6729 8.15238 15.5138 8.29295 15.4041C8.4344 15.2936 8.60415 15.2384 8.80219 15.2384C9.00023 15.2384 9.16953 15.2936 9.3101 15.4041C9.45156 15.5138 9.55942 15.6729 9.63369 15.8816C9.70883 16.0893 9.74641 16.34 9.74641 16.6335C9.74641 16.9288 9.70928 17.1807 9.63501 17.3894C9.56075 17.5971 9.45333 17.7558 9.31276 17.8655C9.17219 17.9742 9.002 18.0286 8.80219 18.0286ZM8.80219 17.7368C9.00023 17.7368 9.15406 17.6414 9.26369 17.4504C9.37332 17.2594 9.42813 16.9871 9.42813 16.6335C9.42813 16.3983 9.40294 16.1981 9.35254 16.0327C9.30303 15.8674 9.23142 15.7414 9.13771 15.6548C9.04487 15.5681 8.93304 15.5248 8.80219 15.5248C8.60592 15.5248 8.45253 15.6216 8.34202 15.8152C8.2315 16.008 8.17625 16.2807 8.17625 16.6335C8.17625 16.8686 8.201 17.0685 8.25051 17.2329C8.30002 17.3973 8.37119 17.5224 8.46402 17.6082C8.55774 17.694 8.67046 17.7368 8.80219 17.7368ZM1.16701 21.0286C0.967206 21.0286 0.797016 20.9742 0.656444 20.8655C0.515872 20.7558 0.408454 20.5971 0.33419 20.3894C0.259925 20.1807 0.222793 19.9288 0.222793 19.6335C0.222793 19.34 0.259925 19.0893 0.33419 18.8816C0.409338 18.6729 0.517199 18.5138 0.657771 18.4041C0.799227 18.2936 0.968974 18.2384 1.16701 18.2384C1.36505 18.2384 1.53436 18.2936 1.67493 18.4041C1.81638 18.5138 1.92424 18.6729 1.99851 18.8816C2.07366 19.0893 2.11123 19.34 2.11123 19.6335C2.11123 19.9288 2.0741 20.1807 1.99983 20.3894C1.92557 20.5971 1.81815 20.7558 1.67758 20.8655C1.53701 20.9742 1.36682 21.0286 1.16701 21.0286ZM1.16701 20.7368C1.36505 20.7368 1.51888 20.6414 1.62851 20.4504C1.73814 20.2594 1.79296 19.9871 1.79296 19.6335C1.79296 19.3983 1.76776 19.1981 1.71736 19.0327C1.66785 18.8674 1.59624 18.7414 1.50253 18.6548C1.4097 18.5681 1.29786 18.5248 1.16701 18.5248C0.970742 18.5248 0.817351 18.6216 0.706838 18.8152C0.596326 19.008 0.541069 19.2807 0.541069 19.6335C0.541069 19.8686 0.565824 20.0685 0.615334 20.2329C0.664843 20.3973 0.736013 20.5224 0.828844 20.6082C0.922558 20.694 1.03528 20.7368 1.16701 20.7368ZM3.12186 18.2755V20.9915H2.79298V18.6203H2.77706L2.11399 19.0606V18.7264L2.79298 18.2755H3.12186ZM4.40966 18.2755V20.9915H4.08078V18.6203H4.06486L3.40179 19.0606V18.7264L4.08078 18.2755H4.40966ZM5.6285 21.0286C5.42869 21.0286 5.2585 20.9742 5.11793 20.8655C4.97736 20.7558 4.86994 20.5971 4.79568 20.3894C4.72141 20.1807 4.68428 19.9288 4.68428 19.6335C4.68428 19.34 4.72141 19.0893 4.79568 18.8816C4.87083 18.6729 4.97869 18.5138 5.11926 18.4041C5.26071 18.2936 5.43046 18.2384 5.6285 18.2384C5.82654 18.2384 5.99584 18.2936 6.13642 18.4041C6.27787 18.5138 6.38573 18.6729 6.46 18.8816C6.53514 19.0893 6.57272 19.34 6.57272 19.6335C6.57272 19.9288 6.53559 20.1807 6.46132 20.3894C6.38706 20.5971 6.27964 20.7558 6.13907 20.8655C5.9985 20.9742 5.82831 21.0286 5.6285 21.0286ZM5.6285 20.7368C5.82654 20.7368 5.98037 20.6414 6.09 20.4504C6.19963 20.2594 6.25444 19.9871 6.25444 19.6335C6.25444 19.3983 6.22925 19.1981 6.17885 19.0327C6.12934 18.8674 6.05773 18.7414 5.96402 18.6548C5.87119 18.5681 5.75935 18.5248 5.6285 18.5248C5.43223 18.5248 5.27884 18.6216 5.16833 18.8152C5.05781 19.008 5.00256 19.2807 5.00256 19.6335C5.00256 19.8686 5.02731 20.0685 5.07682 20.2329C5.12633 20.3973 5.1975 20.5224 5.29033 20.6082C5.38405 20.694 5.49677 20.7368 5.6285 20.7368ZM7.51439 21.0286C7.31458 21.0286 7.1444 20.9742 7.00382 20.8655C6.86325 20.7558 6.75583 20.5971 6.68157 20.3894C6.6073 20.1807 6.57017 19.9288 6.57017 19.6335C6.57017 19.34 6.6073 19.0893 6.68157 18.8816C6.75672 18.6729 6.86458 18.5138 7.00515 18.4041C7.14661 18.2936 7.31635 18.2384 7.51439 18.2384C7.71243 18.2384 7.88174 18.2936 8.02231 18.4041C8.16376 18.5138 8.27162 18.6729 8.34589 18.8816C8.42104 19.0893 8.45861 19.34 8.45861 19.6335C8.45861 19.9288 8.42148 20.1807 8.34721 20.3894C8.27295 20.5971 8.16553 20.7558 8.02496 20.8655C7.88439 20.9742 7.7142 21.0286 7.51439 21.0286ZM7.51439 20.7368C7.71243 20.7368 7.86626 20.6414 7.97589 20.4504C8.08552 20.2594 8.14033 19.9871 8.14033 19.6335C8.14033 19.3983 8.11514 19.1981 8.06474 19.0327C8.01523 18.8674 7.94362 18.7414 7.84991 18.6548C7.75708 18.5681 7.64524 18.5248 7.51439 18.5248C7.31812 18.5248 7.16473 18.6216 7.05422 18.8152C6.9437 19.008 6.88845 19.2807 6.88845 19.6335C6.88845 19.8686 6.9132 20.0685 6.96271 20.2329C7.01222 20.3973 7.08339 20.5224 7.17622 20.6082C7.26994 20.694 7.38266 20.7368 7.51439 20.7368ZM9.46924 18.2755V20.9915H9.14036V18.6203H9.12444L8.46137 19.0606V18.7264L9.14036 18.2755H9.46924Z" fill="white"/>
<path d="M1.16701 24.5515C0.967206 24.5515 0.797016 24.4972 0.656444 24.3884C0.515872 24.2788 0.408454 24.1201 0.33419 23.9123C0.259925 23.7037 0.222793 23.4517 0.222793 23.1564C0.222793 22.8629 0.259925 22.6123 0.33419 22.4045C0.409338 22.1959 0.517199 22.0367 0.657771 21.9271C0.799227 21.8166 0.968974 21.7613 1.16701 21.7613C1.36505 21.7613 1.53436 21.8166 1.67493 21.9271C1.81638 22.0367 1.92424 22.1959 1.99851 22.4045C2.07366 22.6123 2.11123 22.8629 2.11123 23.1564C2.11123 23.4517 2.0741 23.7037 1.99983 23.9123C1.92557 24.1201 1.81815 24.2788 1.67758 24.3884C1.53701 24.4972 1.36682 24.5515 1.16701 24.5515ZM1.16701 24.2598C1.36505 24.2598 1.51888 24.1643 1.62851 23.9733C1.73814 23.7824 1.79296 23.5101 1.79296 23.1564C1.79296 22.9213 1.76776 22.721 1.71736 22.5557C1.66785 22.3904 1.59624 22.2644 1.50253 22.1777C1.4097 22.0911 1.29786 22.0478 1.16701 22.0478C0.970742 22.0478 0.817351 22.1446 0.706838 22.3382C0.596326 22.5309 0.541069 22.8037 0.541069 23.1564C0.541069 23.3916 0.565824 23.5914 0.615334 23.7558C0.664843 23.9203 0.736013 24.0454 0.828844 24.1311C0.922558 24.2169 1.03528 24.2598 1.16701 24.2598ZM3.12186 21.7984V24.5144H2.79298V22.1432H2.77706L2.11399 22.5835V22.2493L2.79298 21.7984H3.12186ZM4.3407 24.5515C4.1409 24.5515 3.97071 24.4972 3.83013 24.3884C3.68956 24.2788 3.58214 24.1201 3.50788 23.9123C3.43362 23.7037 3.39648 23.4517 3.39648 23.1564C3.39648 22.8629 3.43362 22.6123 3.50788 22.4045C3.58303 22.1959 3.69089 22.0367 3.83146 21.9271C3.97292 21.8166 4.14266 21.7613 4.3407 21.7613C4.53874 21.7613 4.70805 21.8166 4.84862 21.9271C4.99007 22.0367 5.09793 22.1959 5.1722 22.4045C5.24735 22.6123 5.28492 22.8629 5.28492 23.1564C5.28492 23.4517 5.24779 23.7037 5.17352 23.9123C5.09926 24.1201 4.99184 24.2788 4.85127 24.3884C4.7107 24.4972 4.54051 24.5515 4.3407 24.5515ZM4.3407 24.2598C4.53874 24.2598 4.69257 24.1643 4.8022 23.9733C4.91183 23.7824 4.96664 23.5101 4.96664 23.1564C4.96664 22.9213 4.94145 22.721 4.89105 22.5557C4.84154 22.3904 4.76993 22.2644 4.67622 22.1777C4.58339 22.0911 4.47155 22.0478 4.3407 22.0478C4.14443 22.0478 3.99104 22.1446 3.88053 22.3382C3.77002 22.5309 3.71476 22.8037 3.71476 23.1564C3.71476 23.3916 3.73951 23.5914 3.78902 23.7558C3.83853 23.9203 3.9097 24.0454 4.00253 24.1311C4.09625 24.2169 4.20897 24.2598 4.3407 24.2598ZM6.29555 21.7984V24.5144H5.96667V22.1432H5.95075L5.28768 22.5835V22.2493L5.96667 21.7984H6.29555ZM7.58335 21.7984V24.5144H7.25447V22.1432H7.23855L6.57548 22.5835V22.2493L7.25447 21.7984H7.58335ZM8.80219 24.5515C8.60238 24.5515 8.43219 24.4972 8.29162 24.3884C8.15105 24.2788 8.04363 24.1201 7.96937 23.9123C7.8951 23.7037 7.85797 23.4517 7.85797 23.1564C7.85797 22.8629 7.8951 22.6123 7.96937 22.4045C8.04452 22.1959 8.15238 22.0367 8.29295 21.9271C8.4344 21.8166 8.60415 21.7613 8.80219 21.7613C9.00023 21.7613 9.16953 21.8166 9.3101 21.9271C9.45156 22.0367 9.55942 22.1959 9.63369 22.4045C9.70883 22.6123 9.74641 22.8629 9.74641 23.1564C9.74641 23.4517 9.70928 23.7037 9.63501 23.9123C9.56075 24.1201 9.45333 24.2788 9.31276 24.3884C9.17219 24.4972 9.002 24.5515 8.80219 24.5515ZM8.80219 24.2598C9.00023 24.2598 9.15406 24.1643 9.26369 23.9733C9.37332 23.7824 9.42813 23.5101 9.42813 23.1564C9.42813 22.9213 9.40294 22.721 9.35254 22.5557C9.30303 22.3904 9.23142 22.2644 9.13771 22.1777C9.04487 22.0911 8.93304 22.0478 8.80219 22.0478C8.60592 22.0478 8.45253 22.1446 8.34202 22.3382C8.2315 22.5309 8.17625 22.8037 8.17625 23.1564C8.17625 23.3916 8.201 23.5914 8.25051 23.7558C8.30002 23.9203 8.37119 24.0454 8.46402 24.1311C8.55774 24.2169 8.67046 24.2598 8.80219 24.2598ZM1.23597 24.7984V27.5144H0.907087V25.1432H0.891173L0.228098 25.5835V25.2493L0.907087 24.7984H1.23597ZM2.52377 24.7984V27.5144H2.19488V25.1432H2.17897L1.5159 25.5835V25.2493L2.19488 24.7984H2.52377ZM3.74261 27.5515C3.5428 27.5515 3.37261 27.4972 3.23204 27.3884C3.09147 27.2788 2.98405 27.1201 2.90979 26.9123C2.83552 26.7037 2.79839 26.4517 2.79839 26.1564C2.79839 25.8629 2.83552 25.6123 2.90979 25.4045C2.98493 25.1959 3.09279 25.0367 3.23337 24.9271C3.37482 24.8166 3.54457 24.7613 3.74261 24.7613C3.94065 24.7613 4.10995 24.8166 4.25052 24.9271C4.39198 25.0367 4.49984 25.1959 4.5741 25.4045C4.64925 25.6123 4.68683 25.8629 4.68683 26.1564C4.68683 26.4517 4.64969 26.7037 4.57543 26.9123C4.50117 27.1201 4.39375 27.2788 4.25318 27.3884C4.1126 27.4972 3.94241 27.5515 3.74261 27.5515ZM3.74261 27.2598C3.94065 27.2598 4.09448 27.1643 4.20411 26.9733C4.31374 26.7824 4.36855 26.5101 4.36855 26.1564C4.36855 25.9213 4.34335 25.721 4.29296 25.5557C4.24345 25.3904 4.17184 25.2644 4.07812 25.1777C3.98529 25.0911 3.87345 25.0478 3.74261 25.0478C3.54634 25.0478 3.39295 25.1446 3.28243 25.3382C3.17192 25.5309 3.11667 25.8037 3.11667 26.1564C3.11667 26.3916 3.14142 26.5914 3.19093 26.7558C3.24044 26.9203 3.31161 27.0454 3.40444 27.1311C3.49815 27.2169 3.61088 27.2598 3.74261 27.2598ZM5.6285 27.5515C5.42869 27.5515 5.2585 27.4972 5.11793 27.3884C4.97736 27.2788 4.86994 27.1201 4.79568 26.9123C4.72141 26.7037 4.68428 26.4517 4.68428 26.1564C4.68428 25.8629 4.72141 25.6123 4.79568 25.4045C4.87083 25.1959 4.97869 25.0367 5.11926 24.9271C5.26071 24.8166 5.43046 24.7613 5.6285 24.7613C5.82654 24.7613 5.99584 24.8166 6.13642 24.9271C6.27787 25.0367 6.38573 25.1959 6.46 25.4045C6.53514 25.6123 6.57272 25.8629 6.57272 26.1564C6.57272 26.4517 6.53559 26.7037 6.46132 26.9123C6.38706 27.1201 6.27964 27.2788 6.13907 27.3884C5.9985 27.4972 5.82831 27.5515 5.6285 27.5515ZM5.6285 27.2598C5.82654 27.2598 5.98037 27.1643 6.09 26.9733C6.19963 26.7824 6.25444 26.5101 6.25444 26.1564C6.25444 25.9213 6.22925 25.721 6.17885 25.5557C6.12934 25.3904 6.05773 25.2644 5.96402 25.1777C5.87119 25.0911 5.75935 25.0478 5.6285 25.0478C5.43223 25.0478 5.27884 25.1446 5.16833 25.3382C5.05781 25.5309 5.00256 25.8037 5.00256 26.1564C5.00256 26.3916 5.02731 26.5914 5.07682 26.7558C5.12633 26.9203 5.1975 27.0454 5.29033 27.1311C5.38405 27.2169 5.49677 27.2598 5.6285 27.2598ZM7.58335 24.7984V27.5144H7.25447V25.1432H7.23855L6.57548 25.5835V25.2493L7.25447 24.7984H7.58335ZM8.80219 27.5515C8.60238 27.5515 8.43219 27.4972 8.29162 27.3884C8.15105 27.2788 8.04363 27.1201 7.96937 26.9123C7.8951 26.7037 7.85797 26.4517 7.85797 26.1564C7.85797 25.8629 7.8951 25.6123 7.96937 25.4045C8.04452 25.1959 8.15238 25.0367 8.29295 24.9271C8.4344 24.8166 8.60415 24.7613 8.80219 24.7613C9.00023 24.7613 9.16953 24.8166 9.3101 24.9271C9.45156 25.0367 9.55942 25.1959 9.63369 25.4045C9.70883 25.6123 9.74641 25.8629 9.74641 26.1564C9.74641 26.4517 9.70928 26.7037 9.63501 26.9123C9.56075 27.1201 9.45333 27.2788 9.31276 27.3884C9.17219 27.4972 9.002 27.5515 8.80219 27.5515ZM8.80219 27.2598C9.00023 27.2598 9.15406 27.1643 9.26369 26.9733C9.37332 26.7824 9.42813 26.5101 9.42813 26.1564C9.42813 25.9213 9.40294 25.721 9.35254 25.5557C9.30303 25.3904 9.23142 25.2644 9.13771 25.1777C9.04487 25.0911 8.93304 25.0478 8.80219 25.0478C8.60592 25.0478 8.45253 25.1446 8.34202 25.3382C8.2315 25.5309 8.17625 25.8037 8.17625 26.1564C8.17625 26.3916 8.201 26.5914 8.25051 26.7558C8.30002 26.9203 8.37119 27.0454 8.46402 27.1311C8.55774 27.2169 8.67046 27.2598 8.80219 27.2598ZM1.16701 30.5515C0.967206 30.5515 0.797016 30.4972 0.656444 30.3884C0.515872 30.2788 0.408454 30.1201 0.33419 29.9123C0.259925 29.7037 0.222793 29.4517 0.222793 29.1564C0.222793 28.8629 0.259925 28.6123 0.33419 28.4045C0.409338 28.1959 0.517199 28.0367 0.657771 27.9271C0.799227 27.8166 0.968974 27.7613 1.16701 27.7613C1.36505 27.7613 1.53436 27.8166 1.67493 27.9271C1.81638 28.0367 1.92424 28.1959 1.99851 28.4045C2.07366 28.6123 2.11123 28.8629 2.11123 29.1564C2.11123 29.4517 2.0741 29.7037 1.99983 29.9123C1.92557 30.1201 1.81815 30.2788 1.67758 30.3884C1.53701 30.4972 1.36682 30.5515 1.16701 30.5515ZM1.16701 30.2598C1.36505 30.2598 1.51888 30.1643 1.62851 29.9733C1.73814 29.7824 1.79296 29.5101 1.79296 29.1564C1.79296 28.9213 1.76776 28.721 1.71736 28.5557C1.66785 28.3904 1.59624 28.2644 1.50253 28.1777C1.4097 28.0911 1.29786 28.0478 1.16701 28.0478C0.970742 28.0478 0.817351 28.1446 0.706838 28.3382C0.596326 28.5309 0.541069 28.8037 0.541069 29.1564C0.541069 29.3916 0.565824 29.5914 0.615334 29.7558C0.664843 29.9203 0.736013 30.0454 0.828844 30.1311C0.922558 30.2169 1.03528 30.2598 1.16701 30.2598ZM3.12186 27.7984V30.5144H2.79298V28.1432H2.77706L2.11399 28.5835V28.2493L2.79298 27.7984H3.12186ZM4.40966 27.7984V30.5144H4.08078V28.1432H4.06486L3.40179 28.5835V28.2493L4.08078 27.7984H4.40966ZM5.6285 30.5515C5.42869 30.5515 5.2585 30.4972 5.11793 30.3884C4.97736 30.2788 4.86994 30.1201 4.79568 29.9123C4.72141 29.7037 4.68428 29.4517 4.68428 29.1564C4.68428 28.8629 4.72141 28.6123 4.79568 28.4045C4.87083 28.1959 4.97869 28.0367 5.11926 27.9271C5.26071 27.8166 5.43046 27.7613 5.6285 27.7613C5.82654 27.7613 5.99584 27.8166 6.13642 27.9271C6.27787 28.0367 6.38573 28.1959 6.46 28.4045C6.53514 28.6123 6.57272 28.8629 6.57272 29.1564C6.57272 29.4517 6.53559 29.7037 6.46132 29.9123C6.38706 30.1201 6.27964 30.2788 6.13907 30.3884C5.9985 30.4972 5.82831 30.5515 5.6285 30.5515ZM5.6285 30.2598C5.82654 30.2598 5.98037 30.1643 6.09 29.9733C6.19963 29.7824 6.25444 29.5101 6.25444 29.1564C6.25444 28.9213 6.22925 28.721 6.17885 28.5557C6.12934 28.3904 6.05773 28.2644 5.96402 28.1777C5.87119 28.0911 5.75935 28.0478 5.6285 28.0478C5.43223 28.0478 5.27884 28.1446 5.16833 28.3382C5.05781 28.5309 5.00256 28.8037 5.00256 29.1564C5.00256 29.3916 5.02731 29.5914 5.07682 29.7558C5.12633 29.9203 5.1975 30.0454 5.29033 30.1311C5.38405 30.2169 5.49677 30.2598 5.6285 30.2598ZM7.51439 30.5515C7.31458 30.5515 7.1444 30.4972 7.00382 30.3884C6.86325 30.2788 6.75583 30.1201 6.68157 29.9123C6.6073 29.7037 6.57017 29.4517 6.57017 29.1564C6.57017 28.8629 6.6073 28.6123 6.68157 28.4045C6.75672 28.1959 6.86458 28.0367 7.00515 27.9271C7.14661 27.8166 7.31635 27.7613 7.51439 27.7613C7.71243 27.7613 7.88174 27.8166 8.02231 27.9271C8.16376 28.0367 8.27162 28.1959 8.34589 28.4045C8.42104 28.6123 8.45861 28.8629 8.45861 29.1564C8.45861 29.4517 8.42148 29.7037 8.34721 29.9123C8.27295 30.1201 8.16553 30.2788 8.02496 30.3884C7.88439 30.4972 7.7142 30.5515 7.51439 30.5515ZM7.51439 30.2598C7.71243 30.2598 7.86626 30.1643 7.97589 29.9733C8.08552 29.7824 8.14033 29.5101 8.14033 29.1564C8.14033 28.9213 8.11514 28.721 8.06474 28.5557C8.01523 28.3904 7.94362 28.2644 7.84991 28.1777C7.75708 28.0911 7.64524 28.0478 7.51439 28.0478C7.31812 28.0478 7.16473 28.1446 7.05422 28.3382C6.9437 28.5309 6.88845 28.8037 6.88845 29.1564C6.88845 29.3916 6.9132 29.5914 6.96271 29.7558C7.01222 29.9203 7.08339 30.0454 7.17622 30.1311C7.26994 30.2169 7.38266 30.2598 7.51439 30.2598ZM9.46924 27.7984V30.5144H9.14036V28.1432H9.12444L8.46137 28.5835V28.2493L9.14036 27.7984H9.46924Z" fill="white"/>
<path d="M20.9596 15.0286C20.7597 15.0286 20.5896 14.9742 20.449 14.8655C20.3084 14.7558 20.201 14.5971 20.1267 14.3894C20.0525 14.1807 20.0153 13.9288 20.0153 13.6335C20.0153 13.34 20.0525 13.0893 20.1267 12.8816C20.2019 12.6729 20.3097 12.5138 20.4503 12.4041C20.5918 12.2936 20.7615 12.2384 20.9596 12.2384C21.1576 12.2384 21.3269 12.2936 21.4675 12.4041C21.6089 12.5138 21.7168 12.6729 21.791 12.8816C21.8662 13.0893 21.9038 13.34 21.9038 13.6335C21.9038 13.9288 21.8666 14.1807 21.7924 14.3894C21.7181 14.5971 21.6107 14.7558 21.4701 14.8655C21.3295 14.9742 21.1594 15.0286 20.9596 15.0286ZM20.9596 14.7368C21.1576 14.7368 21.3114 14.6414 21.4211 14.4504C21.5307 14.2594 21.5855 13.9871 21.5855 13.6335C21.5855 13.3983 21.5603 13.1981 21.5099 13.0327C21.4604 12.8674 21.3888 12.7414 21.2951 12.6548C21.2022 12.5681 21.0904 12.5248 20.9596 12.5248C20.7633 12.5248 20.6099 12.6216 20.4994 12.8152C20.3889 13.008 20.3336 13.2807 20.3336 13.6335C20.3336 13.8686 20.3584 14.0685 20.4079 14.2329C20.4574 14.3973 20.5286 14.5224 20.6214 14.6082C20.7151 14.694 20.8278 14.7368 20.9596 14.7368ZM22.9144 12.2755V14.9915H22.5855V12.6203H22.5696L21.9065 13.0606V12.7264L22.5855 12.2755H22.9144ZM24.1332 15.0286C23.9334 15.0286 23.7632 14.9742 23.6227 14.8655C23.4821 14.7558 23.3747 14.5971 23.3004 14.3894C23.2262 14.1807 23.189 13.9288 23.189 13.6335C23.189 13.34 23.2262 13.0893 23.3004 12.8816C23.3756 12.6729 23.4834 12.5138 23.624 12.4041C23.7655 12.2936 23.9352 12.2384 24.1332 12.2384C24.3313 12.2384 24.5006 12.2936 24.6412 12.4041C24.7826 12.5138 24.8905 12.6729 24.9647 12.8816C25.0399 13.0893 25.0775 13.34 25.0775 13.6335C25.0775 13.9288 25.0403 14.1807 24.9661 14.3894C24.8918 14.5971 24.7844 14.7558 24.6438 14.8655C24.5032 14.9742 24.333 15.0286 24.1332 15.0286ZM24.1332 14.7368C24.3313 14.7368 24.4851 14.6414 24.5947 14.4504C24.7044 14.2594 24.7592 13.9871 24.7592 13.6335C24.7592 13.3983 24.734 13.1981 24.6836 13.0327C24.6341 12.8674 24.5625 12.7414 24.4688 12.6548C24.3759 12.5681 24.2641 12.5248 24.1332 12.5248C23.937 12.5248 23.7836 12.6216 23.6731 12.8152C23.5626 13.008 23.5073 13.2807 23.5073 13.6335C23.5073 13.8686 23.5321 14.0685 23.5816 14.2329C23.6311 14.3973 23.7022 14.5224 23.7951 14.6082C23.8888 14.694 24.0015 14.7368 24.1332 14.7368ZM26.0881 12.2755V14.9915H25.7592V12.6203H25.7433L25.0802 13.0606V12.7264L25.7592 12.2755H26.0881ZM27.3759 12.2755V14.9915H27.047V12.6203H27.0311L26.368 13.0606V12.7264L27.047 12.2755H27.3759ZM28.5947 15.0286C28.3949 15.0286 28.2247 14.9742 28.0842 14.8655C27.9436 14.7558 27.8362 14.5971 27.7619 14.3894C27.6876 14.1807 27.6505 13.9288 27.6505 13.6335C27.6505 13.34 27.6876 13.0893 27.7619 12.8816C27.8371 12.6729 27.9449 12.5138 28.0855 12.4041C28.2269 12.2936 28.3967 12.2384 28.5947 12.2384C28.7928 12.2384 28.9621 12.2936 29.1026 12.4041C29.2441 12.5138 29.352 12.6729 29.4262 12.8816C29.5014 13.0893 29.5389 13.34 29.5389 13.6335C29.5389 13.9288 29.5018 14.1807 29.4276 14.3894C29.3533 14.5971 29.2459 14.7558 29.1053 14.8655C28.9647 14.9742 28.7945 15.0286 28.5947 15.0286ZM28.5947 14.7368C28.7928 14.7368 28.9466 14.6414 29.0562 14.4504C29.1659 14.2594 29.2207 13.9871 29.2207 13.6335C29.2207 13.3983 29.1955 13.1981 29.1451 13.0327C29.0956 12.8674 29.024 12.7414 28.9302 12.6548C28.8374 12.5681 28.7256 12.5248 28.5947 12.5248C28.3985 12.5248 28.2451 12.6216 28.1346 12.8152C28.024 13.008 27.9688 13.2807 27.9688 13.6335C27.9688 13.8686 27.9935 14.0685 28.0431 14.2329C28.0926 14.3973 28.1637 14.5224 28.2566 14.6082C28.3503 14.694 28.463 14.7368 28.5947 14.7368ZM21.0285 15.2755V17.9915H20.6996V15.6203H20.6837L20.0206 16.0606V15.7264L20.6996 15.2755H21.0285ZM22.3537 15.2755V17.9915H22.0248V15.6203H22.0089L21.3458 16.0606V15.7264L22.0248 15.2755H22.3537ZM23.6098 18.0286C23.41 18.0286 23.2398 17.9742 23.0993 17.8655C22.9587 17.7558 22.8513 17.5971 22.777 17.3894C22.7028 17.1807 22.6656 16.9288 22.6656 16.6335C22.6656 16.34 22.7028 16.0893 22.777 15.8816C22.8522 15.6729 22.96 15.5138 23.1006 15.4041C23.2421 15.2936 23.4118 15.2384 23.6098 15.2384C23.8079 15.2384 23.9772 15.2936 24.1178 15.4041C24.2592 15.5138 24.3671 15.6729 24.4413 15.8816C24.5165 16.0893 24.5541 16.34 24.5541 16.6335C24.5541 16.9288 24.5169 17.1807 24.4427 17.3894C24.3684 17.5971 24.261 17.7558 24.1204 17.8655C23.9798 17.9742 23.8096 18.0286 23.6098 18.0286ZM23.6098 17.7368C23.8079 17.7368 23.9617 17.6414 24.0713 17.4504C24.181 17.2594 24.2358 16.9871 24.2358 16.6335C24.2358 16.3983 24.2106 16.1981 24.1602 16.0327C24.1107 15.8674 24.0391 15.7414 23.9454 15.6548C23.8525 15.5681 23.7407 15.5248 23.6098 15.5248C23.4136 15.5248 23.2602 15.6216 23.1497 15.8152C23.0392 16.008 22.9839 16.2807 22.9839 16.6335C22.9839 16.8686 23.0087 17.0685 23.0582 17.2329C23.1077 17.3973 23.1788 17.5224 23.2717 17.6082C23.3654 17.694 23.4781 17.7368 23.6098 17.7368ZM25.5331 18.0286C25.3333 18.0286 25.1631 17.9742 25.0225 17.8655C24.8819 17.7558 24.7745 17.5971 24.7003 17.3894C24.626 17.1807 24.5889 16.9288 24.5889 16.6335C24.5889 16.34 24.626 16.0893 24.7003 15.8816C24.7754 15.6729 24.8833 15.5138 25.0238 15.4041C25.1653 15.2936 25.335 15.2384 25.5331 15.2384C25.7311 15.2384 25.9004 15.2936 26.041 15.4041C26.1824 15.5138 26.2903 15.6729 26.3646 15.8816C26.4397 16.0893 26.4773 16.34 26.4773 16.6335C26.4773 16.9288 26.4402 17.1807 26.3659 17.3894C26.2916 17.5971 26.1842 17.7558 26.0436 17.8655C25.9031 17.9742 25.7329 18.0286 25.5331 18.0286ZM25.5331 17.7368C25.7311 17.7368 25.8849 17.6414 25.9946 17.4504C26.1042 17.2594 26.159 16.9871 26.159 16.6335C26.159 16.3983 26.1338 16.1981 26.0834 16.0327C26.0339 15.8674 25.9623 15.7414 25.8686 15.6548C25.7758 15.5681 25.6639 15.5248 25.5331 15.5248C25.3368 15.5248 25.1834 15.6216 25.0729 15.8152C24.9624 16.008 24.9071 16.2807 24.9071 16.6335C24.9071 16.8686 24.9319 17.0685 24.9814 17.2329C25.0309 17.3973 25.1021 17.5224 25.1949 17.6082C25.2886 17.694 25.4013 17.7368 25.5331 17.7368ZM27.5253 15.2755V17.9915H27.1964V15.6203H27.1805L26.5174 16.0606V15.7264L27.1964 15.2755H27.5253ZM28.7815 18.0286C28.5816 18.0286 28.4115 17.9742 28.2709 17.8655C28.1303 17.7558 28.0229 17.5971 27.9486 17.3894C27.8744 17.1807 27.8372 16.9288 27.8372 16.6335C27.8372 16.34 27.8744 16.0893 27.9486 15.8816C28.0238 15.6729 28.1316 15.5138 28.2722 15.4041C28.4137 15.2936 28.5834 15.2384 28.7815 15.2384C28.9795 15.2384 29.1488 15.2936 29.2894 15.4041C29.4308 15.5138 29.5387 15.6729 29.6129 15.8816C29.6881 16.0893 29.7257 16.34 29.7257 16.6335C29.7257 16.9288 29.6885 17.1807 29.6143 17.3894C29.54 17.5971 29.4326 17.7558 29.292 17.8655C29.1514 17.9742 28.9813 18.0286 28.7815 18.0286ZM28.7815 17.7368C28.9795 17.7368 29.1333 17.6414 29.243 17.4504C29.3526 17.2594 29.4074 16.9871 29.4074 16.6335C29.4074 16.3983 29.3822 16.1981 29.3318 16.0327C29.2823 15.8674 29.2107 15.7414 29.117 15.6548C29.0241 15.5681 28.9123 15.5248 28.7815 15.5248C28.5852 15.5248 28.4318 15.6216 28.3213 15.8152C28.2108 16.008 28.1555 16.2807 28.1555 16.6335C28.1555 16.8686 28.1803 17.0685 28.2298 17.2329C28.2793 17.3973 28.3505 17.5224 28.4433 17.6082C28.537 17.694 28.6497 17.7368 28.7815 17.7368ZM20.9596 21.0286C20.7597 21.0286 20.5896 20.9742 20.449 20.8655C20.3084 20.7558 20.201 20.5971 20.1267 20.3894C20.0525 20.1807 20.0153 19.9288 20.0153 19.6335C20.0153 19.34 20.0525 19.0893 20.1267 18.8816C20.2019 18.6729 20.3097 18.5138 20.4503 18.4041C20.5918 18.2936 20.7615 18.2384 20.9596 18.2384C21.1576 18.2384 21.3269 18.2936 21.4675 18.4041C21.6089 18.5138 21.7168 18.6729 21.791 18.8816C21.8662 19.0893 21.9038 19.34 21.9038 19.6335C21.9038 19.9288 21.8666 20.1807 21.7924 20.3894C21.7181 20.5971 21.6107 20.7558 21.4701 20.8655C21.3295 20.9742 21.1594 21.0286 20.9596 21.0286ZM20.9596 20.7368C21.1576 20.7368 21.3114 20.6414 21.4211 20.4504C21.5307 20.2594 21.5855 19.9871 21.5855 19.6335C21.5855 19.3983 21.5603 19.1981 21.5099 19.0327C21.4604 18.8674 21.3888 18.7414 21.2951 18.6548C21.2022 18.5681 21.0904 18.5248 20.9596 18.5248C20.7633 18.5248 20.6099 18.6216 20.4994 18.8152C20.3889 19.008 20.3336 19.2807 20.3336 19.6335C20.3336 19.8686 20.3584 20.0685 20.4079 20.2329C20.4574 20.3973 20.5286 20.5224 20.6214 20.6082C20.7151 20.694 20.8278 20.7368 20.9596 20.7368ZM22.9144 18.2755V20.9915H22.5855V18.6203H22.5696L21.9065 19.0606V18.7264L22.5855 18.2755H22.9144ZM24.2022 18.2755V20.9915H23.8733V18.6203H23.8574L23.1943 19.0606V18.7264L23.8733 18.2755H24.2022ZM25.421 21.0286C25.2212 21.0286 25.051 20.9742 24.9105 20.8655C24.7699 20.7558 24.6625 20.5971 24.5882 20.3894C24.514 20.1807 24.4768 19.9288 24.4768 19.6335C24.4768 19.34 24.514 19.0893 24.5882 18.8816C24.6634 18.6729 24.7712 18.5138 24.9118 18.4041C25.0533 18.2936 25.223 18.2384 25.421 18.2384C25.6191 18.2384 25.7884 18.2936 25.929 18.4041C26.0704 18.5138 26.1783 18.6729 26.2525 18.8816C26.3277 19.0893 26.3653 19.34 26.3653 19.6335C26.3653 19.9288 26.3281 20.1807 26.2539 20.3894C26.1796 20.5971 26.0722 20.7558 25.9316 20.8655C25.791 20.9742 25.6208 21.0286 25.421 21.0286ZM25.421 20.7368C25.6191 20.7368 25.7729 20.6414 25.8825 20.4504C25.9922 20.2594 26.047 19.9871 26.047 19.6335C26.047 19.3983 26.0218 19.1981 25.9714 19.0327C25.9219 18.8674 25.8503 18.7414 25.7566 18.6548C25.6637 18.5681 25.5519 18.5248 25.421 18.5248C25.2248 18.5248 25.0714 18.6216 24.9609 18.8152C24.8504 19.008 24.7951 19.2807 24.7951 19.6335C24.7951 19.8686 24.8199 20.0685 24.8694 20.2329C24.9189 20.3973 24.99 20.5224 25.0829 20.6082C25.1766 20.694 25.2893 20.7368 25.421 20.7368ZM27.3069 21.0286C27.1071 21.0286 26.9369 20.9742 26.7964 20.8655C26.6558 20.7558 26.5484 20.5971 26.4741 20.3894C26.3998 20.1807 26.3627 19.9288 26.3627 19.6335C26.3627 19.34 26.3998 19.0893 26.4741 18.8816C26.5493 18.6729 26.6571 18.5138 26.7977 18.4041C26.9391 18.2936 27.1089 18.2384 27.3069 18.2384C27.505 18.2384 27.6743 18.2936 27.8148 18.4041C27.9563 18.5138 28.0642 18.6729 28.1384 18.8816C28.2136 19.0893 28.2512 19.34 28.2512 19.6335C28.2512 19.9288 28.214 20.1807 28.1398 20.3894C28.0655 20.5971 27.9581 20.7558 27.8175 20.8655C27.6769 20.9742 27.5067 21.0286 27.3069 21.0286ZM27.3069 20.7368C27.505 20.7368 27.6588 20.6414 27.7684 20.4504C27.8781 20.2594 27.9329 19.9871 27.9329 19.6335C27.9329 19.3983 27.9077 19.1981 27.8573 19.0327C27.8078 18.8674 27.7362 18.7414 27.6424 18.6548C27.5496 18.5681 27.4378 18.5248 27.3069 18.5248C27.1107 18.5248 26.9573 18.6216 26.8468 18.8152C26.7362 19.008 26.681 19.2807 26.681 19.6335C26.681 19.8686 26.7057 20.0685 26.7553 20.2329C26.8048 20.3973 26.8759 20.5224 26.9688 20.6082C27.0625 20.694 27.1752 20.7368 27.3069 20.7368ZM29.2618 18.2755V20.9915H28.9329V18.6203H28.917L28.2539 19.0606V18.7264L28.9329 18.2755H29.2618Z" fill="white"/>
<path d="M20.9596 24.5515C20.7597 24.5515 20.5896 24.4972 20.449 24.3884C20.3084 24.2788 20.201 24.1201 20.1267 23.9123C20.0525 23.7037 20.0153 23.4517 20.0153 23.1564C20.0153 22.8629 20.0525 22.6123 20.1267 22.4045C20.2019 22.1959 20.3097 22.0367 20.4503 21.9271C20.5918 21.8166 20.7615 21.7613 20.9596 21.7613C21.1576 21.7613 21.3269 21.8166 21.4675 21.9271C21.6089 22.0367 21.7168 22.1959 21.791 22.4045C21.8662 22.6123 21.9038 22.8629 21.9038 23.1564C21.9038 23.4517 21.8666 23.7037 21.7924 23.9123C21.7181 24.1201 21.6107 24.2788 21.4701 24.3884C21.3295 24.4972 21.1594 24.5515 20.9596 24.5515ZM20.9596 24.2598C21.1576 24.2598 21.3114 24.1643 21.4211 23.9733C21.5307 23.7824 21.5855 23.5101 21.5855 23.1564C21.5855 22.9213 21.5603 22.721 21.5099 22.5557C21.4604 22.3904 21.3888 22.2644 21.2951 22.1777C21.2022 22.0911 21.0904 22.0478 20.9596 22.0478C20.7633 22.0478 20.6099 22.1446 20.4994 22.3382C20.3889 22.5309 20.3336 22.8037 20.3336 23.1564C20.3336 23.3916 20.3584 23.5914 20.4079 23.7558C20.4574 23.9203 20.5286 24.0454 20.6214 24.1311C20.7151 24.2169 20.8278 24.2598 20.9596 24.2598ZM22.9144 21.7984V24.5144H22.5855V22.1432H22.5696L21.9065 22.5835V22.2493L22.5855 21.7984H22.9144ZM24.1332 24.5515C23.9334 24.5515 23.7632 24.4972 23.6227 24.3884C23.4821 24.2788 23.3747 24.1201 23.3004 23.9123C23.2262 23.7037 23.189 23.4517 23.189 23.1564C23.189 22.8629 23.2262 22.6123 23.3004 22.4045C23.3756 22.1959 23.4834 22.0367 23.624 21.9271C23.7655 21.8166 23.9352 21.7613 24.1332 21.7613C24.3313 21.7613 24.5006 21.8166 24.6412 21.9271C24.7826 22.0367 24.8905 22.1959 24.9647 22.4045C25.0399 22.6123 25.0775 22.8629 25.0775 23.1564C25.0775 23.4517 25.0403 23.7037 24.9661 23.9123C24.8918 24.1201 24.7844 24.2788 24.6438 24.3884C24.5032 24.4972 24.333 24.5515 24.1332 24.5515ZM24.1332 24.2598C24.3313 24.2598 24.4851 24.1643 24.5947 23.9733C24.7044 23.7824 24.7592 23.5101 24.7592 23.1564C24.7592 22.9213 24.734 22.721 24.6836 22.5557C24.6341 22.3904 24.5625 22.2644 24.4688 22.1777C24.3759 22.0911 24.2641 22.0478 24.1332 22.0478C23.937 22.0478 23.7836 22.1446 23.6731 22.3382C23.5626 22.5309 23.5073 22.8037 23.5073 23.1564C23.5073 23.3916 23.5321 23.5914 23.5816 23.7558C23.6311 23.9203 23.7022 24.0454 23.7951 24.1311C23.8888 24.2169 24.0015 24.2598 24.1332 24.2598ZM26.0881 21.7984V24.5144H25.7592V22.1432H25.7433L25.0802 22.5835V22.2493L25.7592 21.7984H26.0881ZM27.3759 21.7984V24.5144H27.047V22.1432H27.0311L26.368 22.5835V22.2493L27.047 21.7984H27.3759ZM28.5947 24.5515C28.3949 24.5515 28.2247 24.4972 28.0842 24.3884C27.9436 24.2788 27.8362 24.1201 27.7619 23.9123C27.6876 23.7037 27.6505 23.4517 27.6505 23.1564C27.6505 22.8629 27.6876 22.6123 27.7619 22.4045C27.8371 22.1959 27.9449 22.0367 28.0855 21.9271C28.2269 21.8166 28.3967 21.7613 28.5947 21.7613C28.7928 21.7613 28.9621 21.8166 29.1026 21.9271C29.2441 22.0367 29.352 22.1959 29.4262 22.4045C29.5014 22.6123 29.5389 22.8629 29.5389 23.1564C29.5389 23.4517 29.5018 23.7037 29.4276 23.9123C29.3533 24.1201 29.2459 24.2788 29.1053 24.3884C28.9647 24.4972 28.7945 24.5515 28.5947 24.5515ZM28.5947 24.2598C28.7928 24.2598 28.9466 24.1643 29.0562 23.9733C29.1659 23.7824 29.2207 23.5101 29.2207 23.1564C29.2207 22.9213 29.1955 22.721 29.1451 22.5557C29.0956 22.3904 29.024 22.2644 28.9302 22.1777C28.8374 22.0911 28.7256 22.0478 28.5947 22.0478C28.3985 22.0478 28.2451 22.1446 28.1346 22.3382C28.024 22.5309 27.9688 22.8037 27.9688 23.1564C27.9688 23.3916 27.9935 23.5914 28.0431 23.7558C28.0926 23.9203 28.1637 24.0454 28.2566 24.1311C28.3503 24.2169 28.463 24.2598 28.5947 24.2598ZM21.0285 24.7984V27.5144H20.6996V25.1432H20.6837L20.0206 25.5835V25.2493L20.6996 24.7984H21.0285ZM22.3163 24.7984V27.5144H21.9874V25.1432H21.9715L21.3084 25.5835V25.2493L21.9874 24.7984H22.3163ZM23.5351 27.5515C23.3353 27.5515 23.1652 27.4972 23.0246 27.3884C22.884 27.2788 22.7766 27.1201 22.7023 26.9123C22.6281 26.7037 22.5909 26.4517 22.5909 26.1564C22.5909 25.8629 22.6281 25.6123 22.7023 25.4045C22.7775 25.1959 22.8853 25.0367 23.0259 24.9271C23.1674 24.8166 23.3371 24.7613 23.5351 24.7613C23.7332 24.7613 23.9025 24.8166 24.0431 24.9271C24.1845 25.0367 24.2924 25.1959 24.3666 25.4045C24.4418 25.6123 24.4794 25.8629 24.4794 26.1564C24.4794 26.4517 24.4422 26.7037 24.368 26.9123C24.2937 27.1201 24.1863 27.2788 24.0457 27.3884C23.9051 27.4972 23.735 27.5515 23.5351 27.5515ZM23.5351 27.2598C23.7332 27.2598 23.887 27.1643 23.9966 26.9733C24.1063 26.7824 24.1611 26.5101 24.1611 26.1564C24.1611 25.9213 24.1359 25.721 24.0855 25.5557C24.036 25.3904 23.9644 25.2644 23.8707 25.1777C23.7778 25.0911 23.666 25.0478 23.5351 25.0478C23.3389 25.0478 23.1855 25.1446 23.075 25.3382C22.9645 25.5309 22.9092 25.8037 22.9092 26.1564C22.9092 26.3916 22.934 26.5914 22.9835 26.7558C23.033 26.9203 23.1042 27.0454 23.197 27.1311C23.2907 27.2169 23.4034 27.2598 23.5351 27.2598ZM25.421 27.5515C25.2212 27.5515 25.051 27.4972 24.9105 27.3884C24.7699 27.2788 24.6625 27.1201 24.5882 26.9123C24.514 26.7037 24.4768 26.4517 24.4768 26.1564C24.4768 25.8629 24.514 25.6123 24.5882 25.4045C24.6634 25.1959 24.7712 25.0367 24.9118 24.9271C25.0533 24.8166 25.223 24.7613 25.421 24.7613C25.6191 24.7613 25.7884 24.8166 25.929 24.9271C26.0704 25.0367 26.1783 25.1959 26.2525 25.4045C26.3277 25.6123 26.3653 25.8629 26.3653 26.1564C26.3653 26.4517 26.3281 26.7037 26.2539 26.9123C26.1796 27.1201 26.0722 27.2788 25.9316 27.3884C25.791 27.4972 25.6208 27.5515 25.421 27.5515ZM25.421 27.2598C25.6191 27.2598 25.7729 27.1643 25.8825 26.9733C25.9922 26.7824 26.047 26.5101 26.047 26.1564C26.047 25.9213 26.0218 25.721 25.9714 25.5557C25.9219 25.3904 25.8503 25.2644 25.7566 25.1777C25.6637 25.0911 25.5519 25.0478 25.421 25.0478C25.2248 25.0478 25.0714 25.1446 24.9609 25.3382C24.8504 25.5309 24.7951 25.8037 24.7951 26.1564C24.7951 26.3916 24.8199 26.5914 24.8694 26.7558C24.9189 26.9203 24.99 27.0454 25.0829 27.1311C25.1766 27.2169 25.2893 27.2598 25.421 27.2598ZM27.3759 24.7984V27.5144H27.047V25.1432H27.0311L26.368 25.5835V25.2493L27.047 24.7984H27.3759ZM28.5947 27.5515C28.3949 27.5515 28.2247 27.4972 28.0842 27.3884C27.9436 27.2788 27.8362 27.1201 27.7619 26.9123C27.6876 26.7037 27.6505 26.4517 27.6505 26.1564C27.6505 25.8629 27.6876 25.6123 27.7619 25.4045C27.8371 25.1959 27.9449 25.0367 28.0855 24.9271C28.2269 24.8166 28.3967 24.7613 28.5947 24.7613C28.7928 24.7613 28.9621 24.8166 29.1026 24.9271C29.2441 25.0367 29.352 25.1959 29.4262 25.4045C29.5014 25.6123 29.5389 25.8629 29.5389 26.1564C29.5389 26.4517 29.5018 26.7037 29.4276 26.9123C29.3533 27.1201 29.2459 27.2788 29.1053 27.3884C28.9647 27.4972 28.7945 27.5515 28.5947 27.5515ZM28.5947 27.2598C28.7928 27.2598 28.9466 27.1643 29.0562 26.9733C29.1659 26.7824 29.2207 26.5101 29.2207 26.1564C29.2207 25.9213 29.1955 25.721 29.1451 25.5557C29.0956 25.3904 29.024 25.2644 28.9302 25.1777C28.8374 25.0911 28.7256 25.0478 28.5947 25.0478C28.3985 25.0478 28.2451 25.1446 28.1346 25.3382C28.024 25.5309 27.9688 25.8037 27.9688 26.1564C27.9688 26.3916 27.9935 26.5914 28.0431 26.7558C28.0926 26.9203 28.1637 27.0454 28.2566 27.1311C28.3503 27.2169 28.463 27.2598 28.5947 27.2598ZM20.9596 30.5515C20.7597 30.5515 20.5896 30.4972 20.449 30.3884C20.3084 30.2788 20.201 30.1201 20.1267 29.9123C20.0525 29.7037 20.0153 29.4517 20.0153 29.1564C20.0153 28.8629 20.0525 28.6123 20.1267 28.4045C20.2019 28.1959 20.3097 28.0367 20.4503 27.9271C20.5918 27.8166 20.7615 27.7613 20.9596 27.7613C21.1576 27.7613 21.3269 27.8166 21.4675 27.9271C21.6089 28.0367 21.7168 28.1959 21.791 28.4045C21.8662 28.6123 21.9038 28.8629 21.9038 29.1564C21.9038 29.4517 21.8666 29.7037 21.7924 29.9123C21.7181 30.1201 21.6107 30.2788 21.4701 30.3884C21.3295 30.4972 21.1594 30.5515 20.9596 30.5515ZM20.9596 30.2598C21.1576 30.2598 21.3114 30.1643 21.4211 29.9733C21.5307 29.7824 21.5855 29.5101 21.5855 29.1564C21.5855 28.9213 21.5603 28.721 21.5099 28.5557C21.4604 28.3904 21.3888 28.2644 21.2951 28.1777C21.2022 28.0911 21.0904 28.0478 20.9596 28.0478C20.7633 28.0478 20.6099 28.1446 20.4994 28.3382C20.3889 28.5309 20.3336 28.8037 20.3336 29.1564C20.3336 29.3916 20.3584 29.5914 20.4079 29.7558C20.4574 29.9203 20.5286 30.0454 20.6214 30.1311C20.7151 30.2169 20.8278 30.2598 20.9596 30.2598ZM22.9144 27.7984V30.5144H22.5855V28.1432H22.5696L21.9065 28.5835V28.2493L22.5855 27.7984H22.9144ZM24.2022 27.7984V30.5144H23.8733V28.1432H23.8574L23.1943 28.5835V28.2493L23.8733 27.7984H24.2022ZM25.421 30.5515C25.2212 30.5515 25.051 30.4972 24.9105 30.3884C24.7699 30.2788 24.6625 30.1201 24.5882 29.9123C24.514 29.7037 24.4768 29.4517 24.4768 29.1564C24.4768 28.8629 24.514 28.6123 24.5882 28.4045C24.6634 28.1959 24.7712 28.0367 24.9118 27.9271C25.0533 27.8166 25.223 27.7613 25.421 27.7613C25.6191 27.7613 25.7884 27.8166 25.929 27.9271C26.0704 28.0367 26.1783 28.1959 26.2525 28.4045C26.3277 28.6123 26.3653 28.8629 26.3653 29.1564C26.3653 29.4517 26.3281 29.7037 26.2539 29.9123C26.1796 30.1201 26.0722 30.2788 25.9316 30.3884C25.791 30.4972 25.6208 30.5515 25.421 30.5515ZM25.421 30.2598C25.6191 30.2598 25.7729 30.1643 25.8825 29.9733C25.9922 29.7824 26.047 29.5101 26.047 29.1564C26.047 28.9213 26.0218 28.721 25.9714 28.5557C25.9219 28.3904 25.8503 28.2644 25.7566 28.1777C25.6637 28.0911 25.5519 28.0478 25.421 28.0478C25.2248 28.0478 25.0714 28.1446 24.9609 28.3382C24.8504 28.5309 24.7951 28.8037 24.7951 29.1564C24.7951 29.3916 24.8199 29.5914 24.8694 29.7558C24.9189 29.9203 24.99 30.0454 25.0829 30.1311C25.1766 30.2169 25.2893 30.2598 25.421 30.2598ZM27.3069 30.5515C27.1071 30.5515 26.9369 30.4972 26.7964 30.3884C26.6558 30.2788 26.5484 30.1201 26.4741 29.9123C26.3998 29.7037 26.3627 29.4517 26.3627 29.1564C26.3627 28.8629 26.3998 28.6123 26.4741 28.4045C26.5493 28.1959 26.6571 28.0367 26.7977 27.9271C26.9391 27.8166 27.1089 27.7613 27.3069 27.7613C27.505 27.7613 27.6743 27.8166 27.8148 27.9271C27.9563 28.0367 28.0642 28.1959 28.1384 28.4045C28.2136 28.6123 28.2512 28.8629 28.2512 29.1564C28.2512 29.4517 28.214 29.7037 28.1398 29.9123C28.0655 30.1201 27.9581 30.2788 27.8175 30.3884C27.6769 30.4972 27.5067 30.5515 27.3069 30.5515ZM27.3069 30.2598C27.505 30.2598 27.6588 30.1643 27.7684 29.9733C27.8781 29.7824 27.9329 29.5101 27.9329 29.1564C27.9329 28.9213 27.9077 28.721 27.8573 28.5557C27.8078 28.3904 27.7362 28.2644 27.6424 28.1777C27.5496 28.0911 27.4378 28.0478 27.3069 28.0478C27.1107 28.0478 26.9573 28.1446 26.8468 28.3382C26.7362 28.5309 26.681 28.8037 26.681 29.1564C26.681 29.3916 26.7057 29.5914 26.7553 29.7558C26.8048 29.9203 26.8759 30.0454 26.9688 30.1311C27.0625 30.2169 27.1752 30.2598 27.3069 30.2598ZM29.2618 27.7984V30.5144H28.9329V28.1432H28.917L28.2539 28.5835V28.2493L28.9329 27.7984H29.2618Z" fill="white"/>
<path d="M11.1256 24.5515C10.9258 24.5515 10.7556 24.4972 10.615 24.3884C10.4744 24.2788 10.367 24.1201 10.2927 23.9123C10.2185 23.7037 10.1814 23.4517 10.1814 23.1564C10.1814 22.8629 10.2185 22.6123 10.2927 22.4045C10.3679 22.1959 10.4758 22.0367 10.6163 21.9271C10.7578 21.8166 10.9275 21.7613 11.1256 21.7613C11.3236 21.7613 11.4929 21.8166 11.6335 21.9271C11.7749 22.0367 11.8828 22.1959 11.9571 22.4045C12.0322 22.6123 12.0698 22.8629 12.0698 23.1564C12.0698 23.4517 12.0327 23.7037 11.9584 23.9123C11.8841 24.1201 11.7767 24.2788 11.6361 24.3884C11.4956 24.4972 11.3254 24.5515 11.1256 24.5515ZM11.1256 24.2598C11.3236 24.2598 11.4774 24.1643 11.5871 23.9733C11.6967 23.7824 11.7515 23.5101 11.7515 23.1564C11.7515 22.9213 11.7263 22.721 11.6759 22.5557C11.6264 22.3904 11.5548 22.2644 11.4611 22.1777C11.3683 22.0911 11.2564 22.0478 11.1256 22.0478C10.9293 22.0478 10.7759 22.1446 10.6654 22.3382C10.5549 22.5309 10.4996 22.8037 10.4996 23.1564C10.4996 23.3916 10.5244 23.5914 10.5739 23.7558C10.6234 23.9203 10.6946 24.0454 10.7874 24.1311C10.8811 24.2169 10.9938 24.2598 11.1256 24.2598ZM13.0804 21.7984V24.5144H12.7515V22.1432H12.7356L12.0725 22.5835V22.2493L12.7515 21.7984H13.0804ZM14.2993 24.5515C14.0995 24.5515 13.9293 24.4972 13.7887 24.3884C13.6481 24.2788 13.5407 24.1201 13.4664 23.9123C13.3922 23.7037 13.355 23.4517 13.355 23.1564C13.355 22.8629 13.3922 22.6123 13.4664 22.4045C13.5416 22.1959 13.6494 22.0367 13.79 21.9271C13.9315 21.8166 14.1012 21.7613 14.2993 21.7613C14.4973 21.7613 14.6666 21.8166 14.8072 21.9271C14.9486 22.0367 15.0565 22.1959 15.1308 22.4045C15.2059 22.6123 15.2435 22.8629 15.2435 23.1564C15.2435 23.4517 15.2063 23.7037 15.1321 23.9123C15.0578 24.1201 14.9504 24.2788 14.8098 24.3884C14.6693 24.4972 14.4991 24.5515 14.2993 24.5515ZM14.2993 24.2598C14.4973 24.2598 14.6511 24.1643 14.7608 23.9733C14.8704 23.7824 14.9252 23.5101 14.9252 23.1564C14.9252 22.9213 14.9 22.721 14.8496 22.5557C14.8001 22.3904 14.7285 22.2644 14.6348 22.1777C14.5419 22.0911 14.4301 22.0478 14.2993 22.0478C14.103 22.0478 13.9496 22.1446 13.8391 22.3382C13.7286 22.5309 13.6733 22.8037 13.6733 23.1564C13.6733 23.3916 13.6981 23.5914 13.7476 23.7558C13.7971 23.9203 13.8683 24.0454 13.9611 24.1311C14.0548 24.2169 14.1675 24.2598 14.2993 24.2598ZM16.2541 21.7984V24.5144H15.9252V22.1432H15.9093L15.2462 22.5835V22.2493L15.9252 21.7984H16.2541ZM17.5419 21.7984V24.5144H17.213V22.1432H17.1971L16.534 22.5835V22.2493L17.213 21.7984H17.5419ZM18.7607 24.5515C18.5609 24.5515 18.3908 24.4972 18.2502 24.3884C18.1096 24.2788 18.0022 24.1201 17.9279 23.9123C17.8537 23.7037 17.8165 23.4517 17.8165 23.1564C17.8165 22.8629 17.8537 22.6123 17.9279 22.4045C18.0031 22.1959 18.1109 22.0367 18.2515 21.9271C18.393 21.8166 18.5627 21.7613 18.7607 21.7613C18.9588 21.7613 19.1281 21.8166 19.2687 21.9271C19.4101 22.0367 19.518 22.1959 19.5922 22.4045C19.6674 22.6123 19.705 22.8629 19.705 23.1564C19.705 23.4517 19.6678 23.7037 19.5936 23.9123C19.5193 24.1201 19.4119 24.2788 19.2713 24.3884C19.1307 24.4972 18.9606 24.5515 18.7607 24.5515ZM18.7607 24.2598C18.9588 24.2598 19.1126 24.1643 19.2222 23.9733C19.3319 23.7824 19.3867 23.5101 19.3867 23.1564C19.3867 22.9213 19.3615 22.721 19.3111 22.5557C19.2616 22.3904 19.19 22.2644 19.0963 22.1777C19.0034 22.0911 18.8916 22.0478 18.7607 22.0478C18.5645 22.0478 18.4111 22.1446 18.3006 22.3382C18.1901 22.5309 18.1348 22.8037 18.1348 23.1564C18.1348 23.3916 18.1596 23.5914 18.2091 23.7558C18.2586 23.9203 18.3297 24.0454 18.4226 24.1311C18.5163 24.2169 18.629 24.2598 18.7607 24.2598ZM11.1945 24.7984V27.5144H10.8656V25.1432H10.8497L10.1867 25.5835V25.2493L10.8656 24.7984H11.1945ZM12.4823 24.7984V27.5144H12.1534V25.1432H12.1375L11.4745 25.5835V25.2493L12.1534 24.7984H12.4823ZM13.7012 27.5515C13.5014 27.5515 13.3312 27.4972 13.1906 27.3884C13.05 27.2788 12.9426 27.1201 12.8683 26.9123C12.7941 26.7037 12.7569 26.4517 12.7569 26.1564C12.7569 25.8629 12.7941 25.6123 12.8683 25.4045C12.9435 25.1959 13.0514 25.0367 13.1919 24.9271C13.3334 24.8166 13.5031 24.7613 13.7012 24.7613C13.8992 24.7613 14.0685 24.8166 14.2091 24.9271C14.3505 25.0367 14.4584 25.1959 14.5327 25.4045C14.6078 25.6123 14.6454 25.8629 14.6454 26.1564C14.6454 26.4517 14.6083 26.7037 14.534 26.9123C14.4597 27.1201 14.3523 27.2788 14.2117 27.3884C14.0712 27.4972 13.901 27.5515 13.7012 27.5515ZM13.7012 27.2598C13.8992 27.2598 14.053 27.1643 14.1627 26.9733C14.2723 26.7824 14.3271 26.5101 14.3271 26.1564C14.3271 25.9213 14.3019 25.721 14.2515 25.5557C14.202 25.3904 14.1304 25.2644 14.0367 25.1777C13.9439 25.0911 13.832 25.0478 13.7012 25.0478C13.5049 25.0478 13.3515 25.1446 13.241 25.3382C13.1305 25.5309 13.0752 25.8037 13.0752 26.1564C13.0752 26.3916 13.1 26.5914 13.1495 26.7558C13.199 26.9203 13.2702 27.0454 13.363 27.1311C13.4567 27.2169 13.5694 27.2598 13.7012 27.2598ZM15.5871 27.5515C15.3873 27.5515 15.2171 27.4972 15.0765 27.3884C14.9359 27.2788 14.8285 27.1201 14.7542 26.9123C14.68 26.7037 14.6428 26.4517 14.6428 26.1564C14.6428 25.8629 14.68 25.6123 14.7542 25.4045C14.8294 25.1959 14.9372 25.0367 15.0778 24.9271C15.2193 24.8166 15.389 24.7613 15.5871 24.7613C15.7851 24.7613 15.9544 24.8166 16.095 24.9271C16.2364 25.0367 16.3443 25.1959 16.4186 25.4045C16.4937 25.6123 16.5313 25.8629 16.5313 26.1564C16.5313 26.4517 16.4941 26.7037 16.4199 26.9123C16.3456 27.1201 16.2382 27.2788 16.0976 27.3884C15.9571 27.4972 15.7869 27.5515 15.5871 27.5515ZM15.5871 27.2598C15.7851 27.2598 15.9389 27.1643 16.0486 26.9733C16.1582 26.7824 16.213 26.5101 16.213 26.1564C16.213 25.9213 16.1878 25.721 16.1374 25.5557C16.0879 25.3904 16.0163 25.2644 15.9226 25.1777C15.8297 25.0911 15.7179 25.0478 15.5871 25.0478C15.3908 25.0478 15.2374 25.1446 15.1269 25.3382C15.0164 25.5309 14.9611 25.8037 14.9611 26.1564C14.9611 26.3916 14.9859 26.5914 15.0354 26.7558C15.0849 26.9203 15.1561 27.0454 15.2489 27.1311C15.3426 27.2169 15.4553 27.2598 15.5871 27.2598ZM17.5419 24.7984V27.5144H17.213V25.1432H17.1971L16.534 25.5835V25.2493L17.213 24.7984H17.5419ZM18.7607 27.5515C18.5609 27.5515 18.3908 27.4972 18.2502 27.3884C18.1096 27.2788 18.0022 27.1201 17.9279 26.9123C17.8537 26.7037 17.8165 26.4517 17.8165 26.1564C17.8165 25.8629 17.8537 25.6123 17.9279 25.4045C18.0031 25.1959 18.1109 25.0367 18.2515 24.9271C18.393 24.8166 18.5627 24.7613 18.7607 24.7613C18.9588 24.7613 19.1281 24.8166 19.2687 24.9271C19.4101 25.0367 19.518 25.1959 19.5922 25.4045C19.6674 25.6123 19.705 25.8629 19.705 26.1564C19.705 26.4517 19.6678 26.7037 19.5936 26.9123C19.5193 27.1201 19.4119 27.2788 19.2713 27.3884C19.1307 27.4972 18.9606 27.5515 18.7607 27.5515ZM18.7607 27.2598C18.9588 27.2598 19.1126 27.1643 19.2222 26.9733C19.3319 26.7824 19.3867 26.5101 19.3867 26.1564C19.3867 25.9213 19.3615 25.721 19.3111 25.5557C19.2616 25.3904 19.19 25.2644 19.0963 25.1777C19.0034 25.0911 18.8916 25.0478 18.7607 25.0478C18.5645 25.0478 18.4111 25.1446 18.3006 25.3382C18.1901 25.5309 18.1348 25.8037 18.1348 26.1564C18.1348 26.3916 18.1596 26.5914 18.2091 26.7558C18.2586 26.9203 18.3297 27.0454 18.4226 27.1311C18.5163 27.2169 18.629 27.2598 18.7607 27.2598ZM11.1256 30.5515C10.9258 30.5515 10.7556 30.4972 10.615 30.3884C10.4744 30.2788 10.367 30.1201 10.2927 29.9123C10.2185 29.7037 10.1814 29.4517 10.1814 29.1564C10.1814 28.8629 10.2185 28.6123 10.2927 28.4045C10.3679 28.1959 10.4758 28.0367 10.6163 27.9271C10.7578 27.8166 10.9275 27.7613 11.1256 27.7613C11.3236 27.7613 11.4929 27.8166 11.6335 27.9271C11.7749 28.0367 11.8828 28.1959 11.9571 28.4045C12.0322 28.6123 12.0698 28.8629 12.0698 29.1564C12.0698 29.4517 12.0327 29.7037 11.9584 29.9123C11.8841 30.1201 11.7767 30.2788 11.6361 30.3884C11.4956 30.4972 11.3254 30.5515 11.1256 30.5515ZM11.1256 30.2598C11.3236 30.2598 11.4774 30.1643 11.5871 29.9733C11.6967 29.7824 11.7515 29.5101 11.7515 29.1564C11.7515 28.9213 11.7263 28.721 11.6759 28.5557C11.6264 28.3904 11.5548 28.2644 11.4611 28.1777C11.3683 28.0911 11.2564 28.0478 11.1256 28.0478C10.9293 28.0478 10.7759 28.1446 10.6654 28.3382C10.5549 28.5309 10.4996 28.8037 10.4996 29.1564C10.4996 29.3916 10.5244 29.5914 10.5739 29.7558C10.6234 29.9203 10.6946 30.0454 10.7874 30.1311C10.8811 30.2169 10.9938 30.2598 11.1256 30.2598ZM13.0804 27.7984V30.5144H12.7515V28.1432H12.7356L12.0725 28.5835V28.2493L12.7515 27.7984H13.0804ZM14.3682 27.7984V30.5144H14.0393V28.1432H14.0234L13.3603 28.5835V28.2493L14.0393 27.7984H14.3682ZM15.5871 30.5515C15.3873 30.5515 15.2171 30.4972 15.0765 30.3884C14.9359 30.2788 14.8285 30.1201 14.7542 29.9123C14.68 29.7037 14.6428 29.4517 14.6428 29.1564C14.6428 28.8629 14.68 28.6123 14.7542 28.4045C14.8294 28.1959 14.9372 28.0367 15.0778 27.9271C15.2193 27.8166 15.389 27.7613 15.5871 27.7613C15.7851 27.7613 15.9544 27.8166 16.095 27.9271C16.2364 28.0367 16.3443 28.1959 16.4186 28.4045C16.4937 28.6123 16.5313 28.8629 16.5313 29.1564C16.5313 29.4517 16.4941 29.7037 16.4199 29.9123C16.3456 30.1201 16.2382 30.2788 16.0976 30.3884C15.9571 30.4972 15.7869 30.5515 15.5871 30.5515ZM15.5871 30.2598C15.7851 30.2598 15.9389 30.1643 16.0486 29.9733C16.1582 29.7824 16.213 29.5101 16.213 29.1564C16.213 28.9213 16.1878 28.721 16.1374 28.5557C16.0879 28.3904 16.0163 28.2644 15.9226 28.1777C15.8297 28.0911 15.7179 28.0478 15.5871 28.0478C15.3908 28.0478 15.2374 28.1446 15.1269 28.3382C15.0164 28.5309 14.9611 28.8037 14.9611 29.1564C14.9611 29.3916 14.9859 29.5914 15.0354 29.7558C15.0849 29.9203 15.1561 30.0454 15.2489 30.1311C15.3426 30.2169 15.4553 30.2598 15.5871 30.2598ZM17.4729 30.5515C17.2731 30.5515 17.103 30.4972 16.9624 30.3884C16.8218 30.2788 16.7144 30.1201 16.6401 29.9123C16.5659 29.7037 16.5287 29.4517 16.5287 29.1564C16.5287 28.8629 16.5659 28.6123 16.6401 28.4045C16.7153 28.1959 16.8231 28.0367 16.9637 27.9271C17.1052 27.8166 17.2749 27.7613 17.4729 27.7613C17.671 27.7613 17.8403 27.8166 17.9809 27.9271C18.1223 28.0367 18.2302 28.1959 18.3044 28.4045C18.3796 28.6123 18.4172 28.8629 18.4172 29.1564C18.4172 29.4517 18.38 29.7037 18.3058 29.9123C18.2315 30.1201 18.1241 30.2788 17.9835 30.3884C17.8429 30.4972 17.6728 30.5515 17.4729 30.5515ZM17.4729 30.2598C17.671 30.2598 17.8248 30.1643 17.9344 29.9733C18.0441 29.7824 18.0989 29.5101 18.0989 29.1564C18.0989 28.9213 18.0737 28.721 18.0233 28.5557C17.9738 28.3904 17.9022 28.2644 17.8085 28.1777C17.7156 28.0911 17.6038 28.0478 17.4729 28.0478C17.2767 28.0478 17.1233 28.1446 17.0128 28.3382C16.9023 28.5309 16.847 28.8037 16.847 29.1564C16.847 29.3916 16.8718 29.5914 16.9213 29.7558C16.9708 29.9203 17.0419 30.0454 17.1348 30.1311C17.2285 30.2169 17.3412 30.2598 17.4729 30.2598ZM19.4278 27.7984V30.5144H19.0989V28.1432H19.083L18.4199 28.5835V28.2493L19.0989 27.7984H19.4278Z" fill="white"/>
</svg>
