<svg xmlns="http://www.w3.org/2000/svg" width="190" height="53" viewBox="0 0 190 53" fill="none">
<path fill-rule="evenodd" clip-rule="evenodd" d="M10.4582 5.7043L5.35149 7.89049L0.340088 10.2448L5.35149 12.431L10.4582 14.6733V5.7043ZM0.340088 20.1163L5.35149 17.8741L10.4582 15.6655L5.35149 13.3335L0.340088 11.1473V20.1163ZM10.4582 16.6352L5.35149 18.8214L0.340088 21.1758L5.35149 23.3619L10.4582 25.6042V16.6352ZM0.340088 31.0472L5.35149 28.805L10.4582 26.5964L5.35149 24.2645L0.340088 22.0783V31.0472ZM10.4582 27.5662L5.35149 29.7523L0.340088 32.1067L5.35149 34.2929L10.4582 36.5351V27.5662ZM0.340088 41.9782L5.35149 39.7359L10.4582 37.5273L5.35149 35.1954L0.340088 33.0092V41.9782ZM10.4582 38.4971L5.35149 40.6833L0.340088 43.0376L5.35149 45.2238L10.4582 47.466V38.4971ZM0.340088 52.9091L5.35149 50.6668L10.4582 48.4582L5.35149 46.1263L0.340088 43.9401V52.9091ZM11.8764 14.6508L16.8878 12.4086L21.9945 10.2L16.8878 7.86807L11.8764 5.68188V14.6508ZM21.9945 11.1698L16.8878 13.356L11.8764 15.7103L16.8878 17.8965L21.9945 20.1387V11.1698ZM33.5589 5.7043L28.4522 7.89049L23.4408 10.2448L28.4522 12.431L33.5589 14.6733V5.7043ZM23.4408 20.1163L28.4522 17.8741L33.5589 15.6655L28.4522 13.3335L23.4408 11.1473V20.1163ZM35.0051 14.6508L40.0165 12.4086L45.1232 10.2L40.0165 7.86807L35.0051 5.68188V14.6508ZM45.1232 11.1698L40.0165 13.356L35.0051 15.7103L40.0165 17.8965L45.1232 20.1387V11.1698ZM35.0051 25.5818L40.0165 23.3395L45.1232 21.1309L40.0165 18.799L35.0051 16.6128V25.5818ZM45.1232 22.1007L40.0165 24.2869L35.0051 26.6412L40.0165 28.8274L45.1232 31.0697V22.1007ZM35.0051 36.5127L40.0165 34.2705L45.1232 32.0618L40.0165 29.7299L35.0051 27.5437V36.5127ZM45.1232 33.0316L40.0165 35.2178L35.0051 37.5722L40.0165 39.7583L45.1232 42.0006V33.0316ZM35.0051 47.4436L40.0165 45.2014L45.1232 42.9928L40.0165 40.6608L35.0051 38.4747V47.4436Z" fill="white"/>
<path d="M54.9722 7.89038L60.0845 5.70419V14.6732L54.9722 12.4309L49.9664 10.2447L54.9722 7.89038ZM54.9722 17.874L49.9664 20.1162V11.1472L54.9722 13.3334L60.0845 15.6653L54.9722 17.874ZM54.9722 18.8213L60.0845 16.6351V25.6041L54.9722 23.3618L49.9664 21.1757L54.9722 18.8213ZM54.9722 28.8049L49.9664 31.0471V22.0782L54.9722 24.2643L60.0845 26.5963L54.9722 28.8049ZM54.9722 29.7522L60.0845 27.566V36.535L54.9722 34.2928L49.9664 32.1066L54.9722 29.7522ZM54.9722 39.7358L49.9664 41.978V33.0091L54.9722 35.1953L60.0845 37.5272L54.9722 39.7358ZM54.9722 40.6831L60.0845 38.497V47.4659L54.9722 45.2237L49.9664 43.0375L54.9722 40.6831ZM66.5366 2.42492L71.6433 0.238727V9.20769L66.5366 6.96545L61.5252 4.77927L66.5366 2.42492ZM66.5366 12.4085L61.5252 14.6507V5.68177L66.5366 7.86795L71.6433 10.1999L66.5366 12.4085ZM66.5366 46.1486L71.6433 43.9624V52.9314L66.5366 50.6891L61.5252 48.503L66.5366 46.1486ZM78.1009 6.94303L73.0895 9.18527V0.216309L78.1009 2.40249L83.2076 4.73442L78.1009 6.94303ZM78.1009 40.6831L83.2076 38.497V47.4659L78.1009 45.2237L73.0895 43.0375L78.1009 40.6831ZM78.1009 50.6667L73.0895 52.909V43.94L78.1009 46.1262L83.2076 48.4581L78.1009 50.6667ZM89.6653 12.4085L84.6539 14.6507V5.68177L89.6653 7.86795L94.772 10.1999L89.6653 12.4085ZM89.6653 13.3558L94.772 11.1697V20.1386L89.6653 17.8964L84.6539 15.7102L89.6653 13.3558ZM89.6653 23.3394L84.6539 25.5817V16.6127L89.6653 18.7989L94.772 21.1308L89.6653 23.3394ZM89.6653 24.2868L94.772 22.1006V31.0695L89.6653 28.8273L84.6539 26.6411L89.6653 24.2868ZM89.6653 34.2703L84.6539 36.5126V27.5436L89.6653 29.7298L94.772 32.0617L89.6653 34.2703ZM89.6653 35.2177L94.772 33.0315V42.0005L89.6653 39.7582L84.6539 37.572L89.6653 35.2177ZM89.6653 45.2013L84.6539 47.4435V38.4745L89.6653 40.6607L94.772 42.9927L89.6653 45.2013Z" fill="white"/>
<path d="M104.599 7.81753L109.705 5.63135V14.6003L104.599 12.2684L99.5929 10.0822L104.599 7.81753ZM104.599 13.283L99.5929 11.0968V20.0658L104.599 17.7338L109.705 15.5476L104.599 13.283ZM104.599 18.7485L109.705 16.5623V25.5312L104.599 23.1993L99.5929 21.0131L104.599 18.7485ZM104.599 24.2139L99.5929 22.0277V30.9967L104.599 28.6648L109.705 26.4786L104.599 24.2139ZM104.599 29.6794L109.705 27.4932V36.4622L104.599 34.1302L99.5929 31.944L104.599 29.6794ZM104.599 35.1448L99.5929 32.9587V41.9276L104.599 39.5957L109.705 37.4095L104.599 35.1448ZM104.599 40.6103L109.705 38.4241V47.3931L104.599 45.0611L99.5929 42.875L104.599 40.6103ZM116.163 50.5266L121.27 52.8585V43.8896L116.163 46.0758L111.152 48.318L116.163 50.5266ZM127.727 40.6103L132.834 38.4241V47.3931L127.727 45.0611L122.716 42.875L127.727 40.6103ZM127.727 46.0758L122.716 43.8896V52.8585L127.727 50.5266L132.834 48.3348L127.727 46.0758ZM139.292 45.0555L134.28 47.3875V38.4185L139.292 40.6047L144.398 42.8469L139.292 45.0555Z" fill="white"/>
<path d="M158.917 8.45083L168.071 4.29147L158.917 0.294678" fill="white"/>
<path fill-rule="evenodd" clip-rule="evenodd" d="M153.592 11.7358L158.267 9.73457V17.9356L153.592 15.8671L149.012 13.8659L153.592 11.7358ZM153.592 20.8673L149.012 22.9302V14.7348L153.592 16.736L158.267 18.8661L153.592 20.8673ZM153.592 21.7306L158.267 19.735V27.9191L153.592 25.8563L149.012 23.8551L153.592 21.7306ZM153.592 30.8621L149.012 32.9306V24.7296L153.592 26.7308L158.267 28.8665L153.592 30.8621ZM153.592 31.731L158.267 29.7298V37.9307L153.592 35.8623L149.012 33.8667L153.592 31.731ZM153.592 40.8625L149.012 42.9309V34.7299L153.592 36.7311L158.267 38.8613L153.592 40.8625ZM153.592 41.7313L158.267 39.7302V47.9311L153.592 45.8571L149.012 43.8559L153.592 41.7313ZM164.169 6.73558L168.844 4.73438V12.9354L164.169 10.8669L159.59 8.8601L164.169 6.73558ZM164.169 46.7315L168.844 44.7303V52.9313L164.169 50.8629L159.59 48.8617L164.169 46.7315ZM174.747 10.8557L170.167 12.9242V4.73438L174.747 6.73558L179.45 8.8601L174.747 10.8557ZM174.747 11.7246L179.422 9.72336V17.9244L174.747 15.8559L170.167 13.8547L174.747 11.7246ZM174.747 41.7201L179.422 39.7189V47.9311L174.747 45.8571L170.167 43.8559L174.747 41.7201ZM174.747 50.8517L170.167 52.9201V44.736L174.747 46.7372L179.422 48.8673L174.747 50.8517ZM190 13.8547L185.325 15.8559L180.74 17.9244V9.73457L185.325 11.7358L190 13.8547ZM185.325 16.7248L190 14.7236V22.9302L185.325 20.8673L180.74 18.8661L185.325 16.7248ZM185.325 25.8563L180.74 27.9191V19.735L185.325 21.7306L190 23.8663L185.325 25.8563ZM185.325 26.7195L190 24.7183V32.9193L185.325 30.8509L180.74 28.8553L185.325 26.7195ZM185.325 35.8511L180.74 37.9195V29.7298L185.325 31.731L190 33.8667L185.325 35.8511ZM185.325 36.7199L190 34.7187V42.9197L185.325 40.8513L180.74 38.8501L185.325 36.7199ZM185.325 45.8515L180.74 47.9199V39.7302L185.325 41.7313L190 43.8615L185.325 45.8515Z" fill="white"/>
</svg>