<svg xmlns="http://www.w3.org/2000/svg" width="296" height="164" viewBox="0 0 296 164" fill="none">
<path d="M39.2061 129.206V25.4721H57.9453V0H0V25.4721H18.7392V129.206H39.2061Z" fill="white"/>
<path d="M126.109 129.206L98.8636 0H78.5296L51.2846 129.206H72.4161L75.7386 109.825H101.655L104.977 129.206H126.109ZM88.6301 33.0399L97.9333 87.6757H79.4599L88.6301 33.0399Z" fill="white"/>
<path d="M180.992 129.206V103.734H155.076V0H134.609V129.206H180.992Z" fill="white"/>
<path d="M212.702 129.206V0H192.235V129.206H212.702Z" fill="white"/>
<path d="M296 129.206L268.755 0H248.421L221.176 129.206H242.308L245.63 109.825H271.546L274.869 129.206H296ZM258.522 33.0399L267.825 87.6757H249.351L258.522 33.0399Z" fill="white"/>
<path d="M111.056 160C114.072 160 115.645 157.816 115.645 155.45C115.645 153.084 114.072 150.9 111.056 150.9H107.975V160H111.056ZM109.47 152.239H110.926C113.149 152.239 114.111 153.825 114.111 155.45C114.111 157.075 113.149 158.661 110.926 158.661H109.47V152.239ZM121.304 160V150.9H119.809V160H121.304ZM133.519 160V153.396L137.12 160H138.693V150.9H137.263V157.504L133.662 150.9H132.089V160H133.519ZM150.11 160L147.042 150.9H145.729L142.661 160H144.286L144.637 158.843H148.134L148.485 160H150.11ZM146.379 152.993L147.731 157.504H145.027L146.379 152.993ZM154.069 150.9V160H155.564V157.27H157.423C159.243 157.27 160.543 155.944 160.543 154.085C160.543 152.226 159.243 150.9 157.423 150.9H154.069ZM155.564 155.931V152.239H157.332C158.32 152.239 159.048 153.019 159.048 154.085C159.048 155.151 158.32 155.931 157.332 155.931H155.564ZM168.756 160.221C171.707 160.221 173.462 158.05 173.462 155.45C173.462 152.85 171.707 150.679 168.756 150.679C165.805 150.679 164.05 152.85 164.05 155.45C164.05 158.05 165.805 160.221 168.756 160.221ZM168.756 158.882C166.741 158.882 165.61 157.335 165.623 155.45C165.61 153.565 166.741 152.018 168.756 152.018C170.771 152.018 171.902 153.565 171.889 155.45C171.902 157.335 170.771 158.882 168.756 158.882ZM182.834 160V158.596H179.181V150.9H177.686V160H182.834ZM188.616 160V150.9H187.121V160H188.616Z" fill="white"/>
</svg>