<svg width="126" height="55" viewBox="0 0 126 55" fill="none" xmlns="http://www.w3.org/2000/svg">
<path d="M16.6891 55V10.8429H24.6659V0H0V10.8429H7.97682V55H16.6891Z" fill="white"/>
<path d="M53.6813 55L42.0838 0H33.4281L21.8306 55H30.8258L32.2401 46.75H43.2719L44.6862 55H53.6813ZM37.7277 14.0643L41.6878 37.3214H33.8241L37.7277 14.0643Z" fill="white"/>
<path d="M77.0439 55V44.1571H66.0121V0H57.2998V55H77.0439Z" fill="white"/>
<path d="M90.5419 55V0H81.8296V55H90.5419Z" fill="white"/>
<path d="M126 55L114.402 0H105.747L94.1493 55H103.144L104.559 46.75H115.591L117.005 55H126ZM110.046 14.0643L114.006 37.3214H106.143L110.046 14.0643Z" fill="white"/>
</svg>
